<?xml version="1.0" standalone="no"?>
<!DOCTYPE svg PUBLIC "-//W3C//DTD SVG 20010904//EN"
 "http://www.w3.org/TR/2001/REC-SVG-20010904/DTD/svg10.dtd">
<svg version="1.0" xmlns="http://www.w3.org/2000/svg"
 width="260.000000pt" height="260.000000pt" viewBox="0 0 260.000000 260.000000"
 preserveAspectRatio="xMidYMid meet">
<metadata>
Created by potrace 1.14, written by Peter Selinger 2001-2017
</metadata>
<g transform="translate(0.000000,260.000000) scale(0.100000,-0.100000)"
fill="#000000" stroke="none">
<path d="M1215 2240 c-184 -52 -311 -172 -376 -356 -18 -52 -29 -154 -29 -278
0 -23 -3 -27 -17 -21 -36 14 -200 53 -253 60 -122 16 -266 12 -360 -11 -22 -6
-20 -8 23 -21 206 -61 428 -276 618 -599 110 -185 235 -324 416 -460 111 -84
333 -160 473 -163 65 -1 102 3 196 23 37 8 152 64 210 102 78 52 200 178 230
236 60 119 110 327 117 491 3 72 -5 81 -38 44 -32 -37 -98 -75 -182 -103 -86
-30 -136 -32 -483 -20 -145 5 -184 4 -230 -10 -30 -9 -57 -19 -60 -23 -3 -5
-47 34 -98 86 l-94 93 36 0 c39 0 198 -30 401 -76 62 -14 113 -18 225 -18 148
1 255 26 347 81 98 58 147 126 181 248 17 63 31 235 18 235 -2 0 -40 -21 -83
-46 -137 -82 -330 -150 -450 -158 -25 -2 -46 1 -50 7 -4 7 -8 57 -9 112 -2
114 -7 144 -34 218 -95 252 -386 400 -645 327z m260 -97 c128 -37 240 -139
289 -263 26 -65 29 -84 30 -199 l1 -105 -45 -2 c-161 -9 -234 -19 -340 -45
-96 -24 -195 -68 -233 -103 l-25 -23 -53 34 c-30 19 -84 50 -122 69 l-67 34 4
133 c5 182 36 266 136 363 107 106 278 149 425 107z"/>
<path d="M120 1381 c0 -3 14 -15 31 -26 46 -30 98 -98 124 -163 13 -31 35
-118 49 -192 36 -184 73 -316 103 -372 72 -132 229 -198 472 -198 123 1 141 2
241 20 65 11 72 14 50 22 -99 37 -178 87 -250 157 -89 88 -135 154 -227 323
-76 143 -130 216 -210 288 -61 54 -192 124 -254 135 -53 10 -129 13 -129 6z"/>
</g>
</svg>
