<svg width="42" height="42" viewBox="0 0 42 42" fill="none" xmlns="http://www.w3.org/2000/svg">
<rect x="2.72754" y="11.7168" width="36.5449" height="23.9941" rx="2.2" fill="url(#paint0_linear_1985_9725)"/>
<rect x="2.72754" y="11.7168" width="36.5449" height="23.9941" rx="2.2" fill="url(#paint1_linear_1985_9725)"/>
<rect x="2.72754" y="11.7168" width="36.5449" height="23.9941" rx="2.2" fill="url(#paint2_linear_1985_9725)"/>
<rect x="2.72754" y="7" width="36.5449" height="23.9941" rx="2.2" fill="url(#paint3_radial_1985_9725)"/>
<g filter="url(#filter0_iii_1985_9725)">
<path fill-rule="evenodd" clip-rule="evenodd" d="M35.5195 9.78906H6.48047C5.93681 9.78906 5.49609 10.2298 5.49609 10.7734V27.2207C5.49609 27.7644 5.93681 28.2051 6.48047 28.2051H35.5195C36.0632 28.2051 36.5039 27.7644 36.5039 27.2207V10.7734C36.5039 10.2298 36.0632 9.78906 35.5195 9.78906ZM6.48047 8.80469C5.39316 8.80469 4.51172 9.68613 4.51172 10.7734V27.2207C4.51172 28.308 5.39316 29.1894 6.48047 29.1894H35.5195C36.6068 29.1894 37.4883 28.308 37.4883 27.2207V10.7734C37.4883 9.68613 36.6068 8.80469 35.5195 8.80469H6.48047Z" fill="url(#paint4_linear_1985_9725)"/>
</g>
<ellipse cx="21.5" cy="19" rx="10.5" ry="6" fill="#CC8642"/>
<ellipse cx="21.5" cy="19" rx="10.5" ry="6" fill="url(#paint5_linear_1985_9725)"/>
<ellipse cx="21.5" cy="19" rx="10.5" ry="6" fill="url(#paint6_radial_1985_9725)"/>
<g filter="url(#filter1_f_1985_9725)">
<path d="M19.6465 7.43066H25.1016V30.9941H19.4414L19.6465 7.43066Z" fill="#8F491D"/>
</g>
<g filter="url(#filter2_f_1985_9725)">
<path d="M19.667 35.4648H25.1016V30.9941H19.4414L19.667 35.4648Z" fill="#9E5020"/>
</g>
<rect x="19.7695" y="7" width="5.74219" height="28.7109" fill="url(#paint7_linear_1985_9725)"/>
<rect x="19.7695" y="7" width="5.74219" height="28.7109" fill="url(#paint8_linear_1985_9725)"/>
<defs>
<filter id="filter0_iii_1985_9725" x="4.31172" y="8.80469" width="33.3766" height="20.5848" filterUnits="userSpaceOnUse" color-interpolation-filters="sRGB">
<feFlood flood-opacity="0" result="BackgroundImageFix"/>
<feBlend mode="normal" in="SourceGraphic" in2="BackgroundImageFix" result="shape"/>
<feColorMatrix in="SourceAlpha" type="matrix" values="0 0 0 0 0 0 0 0 0 0 0 0 0 0 0 0 0 0 127 0" result="hardAlpha"/>
<feOffset dy="0.2"/>
<feGaussianBlur stdDeviation="0.125"/>
<feComposite in2="hardAlpha" operator="arithmetic" k2="-1" k3="1"/>
<feColorMatrix type="matrix" values="0 0 0 0 0.729412 0 0 0 0 0.427451 0 0 0 0 0.176471 0 0 0 1 0"/>
<feBlend mode="normal" in2="shape" result="effect1_innerShadow_1985_9725"/>
<feColorMatrix in="SourceAlpha" type="matrix" values="0 0 0 0 0 0 0 0 0 0 0 0 0 0 0 0 0 0 127 0" result="hardAlpha"/>
<feOffset dx="0.2"/>
<feGaussianBlur stdDeviation="0.125"/>
<feComposite in2="hardAlpha" operator="arithmetic" k2="-1" k3="1"/>
<feColorMatrix type="matrix" values="0 0 0 0 0.894118 0 0 0 0 0.580392 0 0 0 0 0.286275 0 0 0 1 0"/>
<feBlend mode="normal" in2="effect1_innerShadow_1985_9725" result="effect2_innerShadow_1985_9725"/>
<feColorMatrix in="SourceAlpha" type="matrix" values="0 0 0 0 0 0 0 0 0 0 0 0 0 0 0 0 0 0 127 0" result="hardAlpha"/>
<feOffset dx="-0.2"/>
<feGaussianBlur stdDeviation="0.125"/>
<feComposite in2="hardAlpha" operator="arithmetic" k2="-1" k3="1"/>
<feColorMatrix type="matrix" values="0 0 0 0 0.729412 0 0 0 0 0.427451 0 0 0 0 0.176471 0 0 0 1 0"/>
<feBlend mode="normal" in2="effect2_innerShadow_1985_9725" result="effect3_innerShadow_1985_9725"/>
</filter>
<filter id="filter1_f_1985_9725" x="19.0414" y="7.03066" width="6.46016" height="24.3635" filterUnits="userSpaceOnUse" color-interpolation-filters="sRGB">
<feFlood flood-opacity="0" result="BackgroundImageFix"/>
<feBlend mode="normal" in="SourceGraphic" in2="BackgroundImageFix" result="shape"/>
<feGaussianBlur stdDeviation="0.2" result="effect1_foregroundBlur_1985_9725"/>
</filter>
<filter id="filter2_f_1985_9725" x="19.1914" y="30.7441" width="6.16016" height="4.9707" filterUnits="userSpaceOnUse" color-interpolation-filters="sRGB">
<feFlood flood-opacity="0" result="BackgroundImageFix"/>
<feBlend mode="normal" in="SourceGraphic" in2="BackgroundImageFix" result="shape"/>
<feGaussianBlur stdDeviation="0.125" result="effect1_foregroundBlur_1985_9725"/>
</filter>
<linearGradient id="paint0_linear_1985_9725" x1="36.8936" y1="34.1113" x2="3.99902" y2="34.1113" gradientUnits="userSpaceOnUse">
<stop stop-color="#B67732"/>
<stop offset="1" stop-color="#AE5A20"/>
</linearGradient>
<linearGradient id="paint1_linear_1985_9725" x1="39.2725" y1="32.9629" x2="35.7861" y2="32.9629" gradientUnits="userSpaceOnUse">
<stop stop-color="#DF9D4B"/>
<stop offset="1" stop-color="#DF9D4B" stop-opacity="0"/>
</linearGradient>
<linearGradient id="paint2_linear_1985_9725" x1="2.72754" y1="32.7988" x2="6.33691" y2="32.7988" gradientUnits="userSpaceOnUse">
<stop offset="0.556818" stop-color="#A04E1F"/>
<stop offset="1" stop-color="#A04E1F" stop-opacity="0"/>
</linearGradient>
<radialGradient id="paint3_radial_1985_9725" cx="0" cy="0" r="1" gradientUnits="userSpaceOnUse" gradientTransform="translate(3.52735 7.94336) rotate(48.2593) scale(25.5054 33.4467)">
<stop stop-color="#F5BF80"/>
<stop offset="1" stop-color="#E5AC6A"/>
</radialGradient>
<linearGradient id="paint4_linear_1985_9725" x1="33.6328" y1="9.25586" x2="10.3359" y2="28.5332" gradientUnits="userSpaceOnUse">
<stop stop-color="#CC833F"/>
<stop offset="1" stop-color="#D48840"/>
</linearGradient>
<linearGradient id="paint5_linear_1985_9725" x1="18.0236" y1="19.7253" x2="22.0676" y2="19.7253" gradientUnits="userSpaceOnUse">
<stop offset="0.22807" stop-color="#D2813E"/>
<stop offset="1" stop-color="#D2813E" stop-opacity="0"/>
</linearGradient>
<radialGradient id="paint6_radial_1985_9725" cx="0" cy="0" r="1" gradientUnits="userSpaceOnUse" gradientTransform="translate(21.5 19.9451) rotate(-28.1398) scale(9.41334 7.77912)">
<stop offset="0.587108" stop-color="#C68240" stop-opacity="0"/>
<stop offset="0.986856" stop-color="#AF6328"/>
</radialGradient>
<linearGradient id="paint7_linear_1985_9725" x1="22.6406" y1="9.17383" x2="22.6406" y2="31.8965" gradientUnits="userSpaceOnUse">
<stop stop-color="#FFD425"/>
<stop offset="1" stop-color="#FFAD24"/>
</linearGradient>
<linearGradient id="paint8_linear_1985_9725" x1="24.0352" y1="35.7109" x2="24.0352" y2="30.666" gradientUnits="userSpaceOnUse">
<stop offset="0.893939" stop-color="#CC8139"/>
<stop offset="1" stop-color="#CC8139" stop-opacity="0"/>
</linearGradient>
</defs>
</svg>
