<svg width="28" height="28" viewBox="0 0 28 28" fill="none" xmlns="http://www.w3.org/2000/svg">
<g filter="url(#filter0_ii_177_4277)">
<path d="M3.07812 22.7773H21.5762C23.4261 22.7773 24.9258 21.2777 24.9258 19.4277C24.9258 17.5778 23.4261 16.0781 21.5762 16.0781" stroke="#CAC8CB" stroke-width="2" stroke-linecap="round"/>
</g>
<circle cx="5.23047" cy="24.9033" r="1.28516" fill="#4381C4"/>
<circle cx="5.23047" cy="24.9033" r="1.28516" fill="url(#paint0_radial_177_4277)"/>
<circle cx="5.23047" cy="24.9033" r="1.28516" fill="url(#paint1_radial_177_4277)"/>
<circle cx="5.23047" cy="24.9033" r="1.28516" fill="url(#paint2_radial_177_4277)"/>
<g filter="url(#filter1_f_177_4277)">
<circle cx="5.22949" cy="24.9033" r="0.90918" fill="#4880CB"/>
</g>
<g filter="url(#filter2_i_177_4277)">
<path fill-rule="evenodd" clip-rule="evenodd" d="M7.18965 13.918C7.33462 13.918 7.45215 13.8004 7.45215 13.6555V10.9881C7.45215 10.8431 7.33462 10.7256 7.18965 10.7256L3.30547 10.7256C3.16049 10.7256 3.04297 10.6081 3.04297 10.4631V10.1131C3.04297 9.96811 3.16049 9.85059 3.30547 9.85059L7.18965 9.85058C7.33462 9.85058 7.45215 9.73306 7.45215 9.58809V6.93438C7.45215 6.7894 7.56967 6.67188 7.71465 6.67188H8.06465C8.20962 6.67188 8.32715 6.7894 8.32715 6.93437V9.58808C8.32715 9.73306 8.44467 9.85058 8.58965 9.85058L12.0432 9.85058C12.1881 9.85058 12.3057 9.73306 12.3057 9.58808V6.93438C12.3057 6.7894 12.4232 6.67188 12.5682 6.67188H12.9182C13.0631 6.67188 13.1807 6.7894 13.1807 6.93437V9.58808C13.1807 9.73306 13.2982 9.85058 13.4432 9.85058L16.8967 9.85058C17.0417 9.85058 17.1592 9.73306 17.1592 9.58808V6.93438C17.1592 6.7894 17.2767 6.67188 17.4217 6.67188H17.7717C17.9167 6.67188 18.0342 6.7894 18.0342 6.93438V9.58808C18.0342 9.73306 18.1517 9.85058 18.2967 9.85058L22.1467 9.85058C22.2917 9.85058 22.4092 9.96811 22.4092 10.1131V10.4631C22.4092 10.6081 22.2917 10.7256 22.1467 10.7256L18.2967 10.7256C18.1517 10.7256 18.0342 10.8431 18.0342 10.9881V13.6555C18.0342 13.8004 18.1517 13.918 18.2967 13.918L22.1467 13.918C22.2917 13.918 22.4092 14.0355 22.4092 14.1805V14.5305C22.4092 14.6754 22.2917 14.793 22.1467 14.793L18.2967 14.793C18.1517 14.793 18.0342 14.9105 18.0342 15.0555V18.5391C18.0342 18.684 17.9167 18.8016 17.7717 18.8016H17.4217C17.2767 18.8016 17.1592 18.684 17.1592 18.5391V15.0555C17.1592 14.9105 17.0417 14.793 16.8967 14.793L13.4432 14.793C13.2982 14.793 13.1807 14.9105 13.1807 15.0555V17.8117C13.1807 17.9567 13.0631 18.0742 12.9182 18.0742H12.5682C12.4232 18.0742 12.3057 17.9567 12.3057 17.8117V15.0555C12.3057 14.9105 12.1881 14.793 12.0432 14.793L8.58965 14.793C8.44467 14.793 8.32715 14.9105 8.32715 15.0555V17.8117C8.32715 17.9567 8.20962 18.0742 8.06465 18.0742H7.71465C7.56967 18.0742 7.45215 17.9567 7.45215 17.8117V15.0555C7.45215 14.9105 7.33462 14.793 7.18965 14.793L3.30547 14.793C3.16049 14.793 3.04297 14.6754 3.04297 14.5305V14.1805C3.04297 14.0355 3.16049 13.918 3.30547 13.918L7.18965 13.918ZM8.32715 13.6555C8.32715 13.8004 8.44467 13.918 8.58965 13.918L12.0432 13.918C12.1881 13.918 12.3057 13.8004 12.3057 13.6555V10.9881C12.3057 10.8431 12.1881 10.7256 12.0432 10.7256L8.58965 10.7256C8.44467 10.7256 8.32715 10.8431 8.32715 10.9881V13.6555ZM13.1807 13.6555C13.1807 13.8004 13.2982 13.918 13.4432 13.918L16.8967 13.918C17.0417 13.918 17.1592 13.8004 17.1592 13.6555V10.9881C17.1592 10.8431 17.0417 10.7256 16.8967 10.7256L13.4432 10.7256C13.2982 10.7256 13.1807 10.8431 13.1807 10.9881V13.6555Z" fill="#A09DA3"/>
<path fill-rule="evenodd" clip-rule="evenodd" d="M7.18965 13.918C7.33462 13.918 7.45215 13.8004 7.45215 13.6555V10.9881C7.45215 10.8431 7.33462 10.7256 7.18965 10.7256L3.30547 10.7256C3.16049 10.7256 3.04297 10.6081 3.04297 10.4631V10.1131C3.04297 9.96811 3.16049 9.85059 3.30547 9.85059L7.18965 9.85058C7.33462 9.85058 7.45215 9.73306 7.45215 9.58809V6.93438C7.45215 6.7894 7.56967 6.67188 7.71465 6.67188H8.06465C8.20962 6.67188 8.32715 6.7894 8.32715 6.93437V9.58808C8.32715 9.73306 8.44467 9.85058 8.58965 9.85058L12.0432 9.85058C12.1881 9.85058 12.3057 9.73306 12.3057 9.58808V6.93438C12.3057 6.7894 12.4232 6.67188 12.5682 6.67188H12.9182C13.0631 6.67188 13.1807 6.7894 13.1807 6.93437V9.58808C13.1807 9.73306 13.2982 9.85058 13.4432 9.85058L16.8967 9.85058C17.0417 9.85058 17.1592 9.73306 17.1592 9.58808V6.93438C17.1592 6.7894 17.2767 6.67188 17.4217 6.67188H17.7717C17.9167 6.67188 18.0342 6.7894 18.0342 6.93438V9.58808C18.0342 9.73306 18.1517 9.85058 18.2967 9.85058L22.1467 9.85058C22.2917 9.85058 22.4092 9.96811 22.4092 10.1131V10.4631C22.4092 10.6081 22.2917 10.7256 22.1467 10.7256L18.2967 10.7256C18.1517 10.7256 18.0342 10.8431 18.0342 10.9881V13.6555C18.0342 13.8004 18.1517 13.918 18.2967 13.918L22.1467 13.918C22.2917 13.918 22.4092 14.0355 22.4092 14.1805V14.5305C22.4092 14.6754 22.2917 14.793 22.1467 14.793L18.2967 14.793C18.1517 14.793 18.0342 14.9105 18.0342 15.0555V18.5391C18.0342 18.684 17.9167 18.8016 17.7717 18.8016H17.4217C17.2767 18.8016 17.1592 18.684 17.1592 18.5391V15.0555C17.1592 14.9105 17.0417 14.793 16.8967 14.793L13.4432 14.793C13.2982 14.793 13.1807 14.9105 13.1807 15.0555V17.8117C13.1807 17.9567 13.0631 18.0742 12.9182 18.0742H12.5682C12.4232 18.0742 12.3057 17.9567 12.3057 17.8117V15.0555C12.3057 14.9105 12.1881 14.793 12.0432 14.793L8.58965 14.793C8.44467 14.793 8.32715 14.9105 8.32715 15.0555V17.8117C8.32715 17.9567 8.20962 18.0742 8.06465 18.0742H7.71465C7.56967 18.0742 7.45215 17.9567 7.45215 17.8117V15.0555C7.45215 14.9105 7.33462 14.793 7.18965 14.793L3.30547 14.793C3.16049 14.793 3.04297 14.6754 3.04297 14.5305V14.1805C3.04297 14.0355 3.16049 13.918 3.30547 13.918L7.18965 13.918ZM8.32715 13.6555C8.32715 13.8004 8.44467 13.918 8.58965 13.918L12.0432 13.918C12.1881 13.918 12.3057 13.8004 12.3057 13.6555V10.9881C12.3057 10.8431 12.1881 10.7256 12.0432 10.7256L8.58965 10.7256C8.44467 10.7256 8.32715 10.8431 8.32715 10.9881V13.6555ZM13.1807 13.6555C13.1807 13.8004 13.2982 13.918 13.4432 13.918L16.8967 13.918C17.0417 13.918 17.1592 13.8004 17.1592 13.6555V10.9881C17.1592 10.8431 17.0417 10.7256 16.8967 10.7256L13.4432 10.7256C13.2982 10.7256 13.1807 10.8431 13.1807 10.9881V13.6555Z" fill="url(#paint3_radial_177_4277)"/>
<path fill-rule="evenodd" clip-rule="evenodd" d="M7.18965 13.918C7.33462 13.918 7.45215 13.8004 7.45215 13.6555V10.9881C7.45215 10.8431 7.33462 10.7256 7.18965 10.7256L3.30547 10.7256C3.16049 10.7256 3.04297 10.6081 3.04297 10.4631V10.1131C3.04297 9.96811 3.16049 9.85059 3.30547 9.85059L7.18965 9.85058C7.33462 9.85058 7.45215 9.73306 7.45215 9.58809V6.93438C7.45215 6.7894 7.56967 6.67188 7.71465 6.67188H8.06465C8.20962 6.67188 8.32715 6.7894 8.32715 6.93437V9.58808C8.32715 9.73306 8.44467 9.85058 8.58965 9.85058L12.0432 9.85058C12.1881 9.85058 12.3057 9.73306 12.3057 9.58808V6.93438C12.3057 6.7894 12.4232 6.67188 12.5682 6.67188H12.9182C13.0631 6.67188 13.1807 6.7894 13.1807 6.93437V9.58808C13.1807 9.73306 13.2982 9.85058 13.4432 9.85058L16.8967 9.85058C17.0417 9.85058 17.1592 9.73306 17.1592 9.58808V6.93438C17.1592 6.7894 17.2767 6.67188 17.4217 6.67188H17.7717C17.9167 6.67188 18.0342 6.7894 18.0342 6.93438V9.58808C18.0342 9.73306 18.1517 9.85058 18.2967 9.85058L22.1467 9.85058C22.2917 9.85058 22.4092 9.96811 22.4092 10.1131V10.4631C22.4092 10.6081 22.2917 10.7256 22.1467 10.7256L18.2967 10.7256C18.1517 10.7256 18.0342 10.8431 18.0342 10.9881V13.6555C18.0342 13.8004 18.1517 13.918 18.2967 13.918L22.1467 13.918C22.2917 13.918 22.4092 14.0355 22.4092 14.1805V14.5305C22.4092 14.6754 22.2917 14.793 22.1467 14.793L18.2967 14.793C18.1517 14.793 18.0342 14.9105 18.0342 15.0555V18.5391C18.0342 18.684 17.9167 18.8016 17.7717 18.8016H17.4217C17.2767 18.8016 17.1592 18.684 17.1592 18.5391V15.0555C17.1592 14.9105 17.0417 14.793 16.8967 14.793L13.4432 14.793C13.2982 14.793 13.1807 14.9105 13.1807 15.0555V17.8117C13.1807 17.9567 13.0631 18.0742 12.9182 18.0742H12.5682C12.4232 18.0742 12.3057 17.9567 12.3057 17.8117V15.0555C12.3057 14.9105 12.1881 14.793 12.0432 14.793L8.58965 14.793C8.44467 14.793 8.32715 14.9105 8.32715 15.0555V17.8117C8.32715 17.9567 8.20962 18.0742 8.06465 18.0742H7.71465C7.56967 18.0742 7.45215 17.9567 7.45215 17.8117V15.0555C7.45215 14.9105 7.33462 14.793 7.18965 14.793L3.30547 14.793C3.16049 14.793 3.04297 14.6754 3.04297 14.5305V14.1805C3.04297 14.0355 3.16049 13.918 3.30547 13.918L7.18965 13.918ZM8.32715 13.6555C8.32715 13.8004 8.44467 13.918 8.58965 13.918L12.0432 13.918C12.1881 13.918 12.3057 13.8004 12.3057 13.6555V10.9881C12.3057 10.8431 12.1881 10.7256 12.0432 10.7256L8.58965 10.7256C8.44467 10.7256 8.32715 10.8431 8.32715 10.9881V13.6555ZM13.1807 13.6555C13.1807 13.8004 13.2982 13.918 13.4432 13.918L16.8967 13.918C17.0417 13.918 17.1592 13.8004 17.1592 13.6555V10.9881C17.1592 10.8431 17.0417 10.7256 16.8967 10.7256L13.4432 10.7256C13.2982 10.7256 13.1807 10.8431 13.1807 10.9881V13.6555Z" fill="url(#paint4_linear_177_4277)"/>
<path fill-rule="evenodd" clip-rule="evenodd" d="M7.18965 13.918C7.33462 13.918 7.45215 13.8004 7.45215 13.6555V10.9881C7.45215 10.8431 7.33462 10.7256 7.18965 10.7256L3.30547 10.7256C3.16049 10.7256 3.04297 10.6081 3.04297 10.4631V10.1131C3.04297 9.96811 3.16049 9.85059 3.30547 9.85059L7.18965 9.85058C7.33462 9.85058 7.45215 9.73306 7.45215 9.58809V6.93438C7.45215 6.7894 7.56967 6.67188 7.71465 6.67188H8.06465C8.20962 6.67188 8.32715 6.7894 8.32715 6.93437V9.58808C8.32715 9.73306 8.44467 9.85058 8.58965 9.85058L12.0432 9.85058C12.1881 9.85058 12.3057 9.73306 12.3057 9.58808V6.93438C12.3057 6.7894 12.4232 6.67188 12.5682 6.67188H12.9182C13.0631 6.67188 13.1807 6.7894 13.1807 6.93437V9.58808C13.1807 9.73306 13.2982 9.85058 13.4432 9.85058L16.8967 9.85058C17.0417 9.85058 17.1592 9.73306 17.1592 9.58808V6.93438C17.1592 6.7894 17.2767 6.67188 17.4217 6.67188H17.7717C17.9167 6.67188 18.0342 6.7894 18.0342 6.93438V9.58808C18.0342 9.73306 18.1517 9.85058 18.2967 9.85058L22.1467 9.85058C22.2917 9.85058 22.4092 9.96811 22.4092 10.1131V10.4631C22.4092 10.6081 22.2917 10.7256 22.1467 10.7256L18.2967 10.7256C18.1517 10.7256 18.0342 10.8431 18.0342 10.9881V13.6555C18.0342 13.8004 18.1517 13.918 18.2967 13.918L22.1467 13.918C22.2917 13.918 22.4092 14.0355 22.4092 14.1805V14.5305C22.4092 14.6754 22.2917 14.793 22.1467 14.793L18.2967 14.793C18.1517 14.793 18.0342 14.9105 18.0342 15.0555V18.5391C18.0342 18.684 17.9167 18.8016 17.7717 18.8016H17.4217C17.2767 18.8016 17.1592 18.684 17.1592 18.5391V15.0555C17.1592 14.9105 17.0417 14.793 16.8967 14.793L13.4432 14.793C13.2982 14.793 13.1807 14.9105 13.1807 15.0555V17.8117C13.1807 17.9567 13.0631 18.0742 12.9182 18.0742H12.5682C12.4232 18.0742 12.3057 17.9567 12.3057 17.8117V15.0555C12.3057 14.9105 12.1881 14.793 12.0432 14.793L8.58965 14.793C8.44467 14.793 8.32715 14.9105 8.32715 15.0555V17.8117C8.32715 17.9567 8.20962 18.0742 8.06465 18.0742H7.71465C7.56967 18.0742 7.45215 17.9567 7.45215 17.8117V15.0555C7.45215 14.9105 7.33462 14.793 7.18965 14.793L3.30547 14.793C3.16049 14.793 3.04297 14.6754 3.04297 14.5305V14.1805C3.04297 14.0355 3.16049 13.918 3.30547 13.918L7.18965 13.918ZM8.32715 13.6555C8.32715 13.8004 8.44467 13.918 8.58965 13.918L12.0432 13.918C12.1881 13.918 12.3057 13.8004 12.3057 13.6555V10.9881C12.3057 10.8431 12.1881 10.7256 12.0432 10.7256L8.58965 10.7256C8.44467 10.7256 8.32715 10.8431 8.32715 10.9881V13.6555ZM13.1807 13.6555C13.1807 13.8004 13.2982 13.918 13.4432 13.918L16.8967 13.918C17.0417 13.918 17.1592 13.8004 17.1592 13.6555V10.9881C17.1592 10.8431 17.0417 10.7256 16.8967 10.7256L13.4432 10.7256C13.2982 10.7256 13.1807 10.8431 13.1807 10.9881V13.6555Z" fill="url(#paint5_linear_177_4277)"/>
</g>
<g filter="url(#filter3_f_177_4277)">
<path d="M7.88965 6.67188V18.0742M12.7432 6.67188V18.0742M17.5967 6.67188V18.0742M3.04297 10.2881L22.4092 10.2881M3.04297 14.3555L22.4092 14.3555" stroke="url(#paint6_radial_177_4277)" stroke-width="0.15"/>
</g>
<circle cx="20.8828" cy="24.9033" r="1.28516" fill="#4381C4"/>
<circle cx="20.8828" cy="24.9033" r="1.28516" fill="url(#paint7_radial_177_4277)"/>
<circle cx="20.8828" cy="24.9033" r="1.28516" fill="url(#paint8_radial_177_4277)"/>
<circle cx="20.8828" cy="24.9033" r="1.28516" fill="url(#paint9_radial_177_4277)"/>
<g filter="url(#filter4_f_177_4277)">
<circle cx="20.8857" cy="24.9033" r="0.90918" fill="#4880CB"/>
</g>
<g filter="url(#filter5_iii_177_4277)">
<path fill-rule="evenodd" clip-rule="evenodd" d="M21.0555 5.34309C17.1044 5.34132 10.3842 5.33833 5.03051 5.34143C3.38743 5.34239 2.08913 6.73249 2.19776 8.37205L2.66111 15.3655C2.79024 17.3141 4.32811 18.8737 6.27476 19.03L20.2491 20.1524L24.0089 5.34416C23.4816 5.34416 22.438 5.34367 21.0555 5.34309ZM19.4495 7.03616L18.9645 7.03594C15.808 7.03445 10.0104 7.03167 5.07697 7.03562C4.42222 7.0361 3.90354 7.5881 3.94317 8.24168L4.36999 15.2922C4.4361 16.3846 5.35361 17.2745 6.61826 17.3565L17.3429 18.1588C17.8529 18.1968 18.3162 17.8619 18.4398 17.3657L20.6355 8.55806C20.8281 7.78507 20.2461 7.03653 19.4495 7.03616Z" fill="#C0BFC1"/>
<path fill-rule="evenodd" clip-rule="evenodd" d="M21.0555 5.34309C17.1044 5.34132 10.3842 5.33833 5.03051 5.34143C3.38743 5.34239 2.08913 6.73249 2.19776 8.37205L2.66111 15.3655C2.79024 17.3141 4.32811 18.8737 6.27476 19.03L20.2491 20.1524L24.0089 5.34416C23.4816 5.34416 22.438 5.34367 21.0555 5.34309ZM19.4495 7.03616L18.9645 7.03594C15.808 7.03445 10.0104 7.03167 5.07697 7.03562C4.42222 7.0361 3.90354 7.5881 3.94317 8.24168L4.36999 15.2922C4.4361 16.3846 5.35361 17.2745 6.61826 17.3565L17.3429 18.1588C17.8529 18.1968 18.3162 17.8619 18.4398 17.3657L20.6355 8.55806C20.8281 7.78507 20.2461 7.03653 19.4495 7.03616Z" fill="url(#paint10_linear_177_4277)"/>
<path fill-rule="evenodd" clip-rule="evenodd" d="M21.0555 5.34309C17.1044 5.34132 10.3842 5.33833 5.03051 5.34143C3.38743 5.34239 2.08913 6.73249 2.19776 8.37205L2.66111 15.3655C2.79024 17.3141 4.32811 18.8737 6.27476 19.03L20.2491 20.1524L24.0089 5.34416C23.4816 5.34416 22.438 5.34367 21.0555 5.34309ZM19.4495 7.03616L18.9645 7.03594C15.808 7.03445 10.0104 7.03167 5.07697 7.03562C4.42222 7.0361 3.90354 7.5881 3.94317 8.24168L4.36999 15.2922C4.4361 16.3846 5.35361 17.2745 6.61826 17.3565L17.3429 18.1588C17.8529 18.1968 18.3162 17.8619 18.4398 17.3657L20.6355 8.55806C20.8281 7.78507 20.2461 7.03653 19.4495 7.03616Z" fill="url(#paint11_radial_177_4277)"/>
</g>
<g filter="url(#filter6_i_177_4277)">
<path fill-rule="evenodd" clip-rule="evenodd" d="M24.614 3.15627C25.0832 3.27196 25.3698 3.74611 25.2541 4.21531L21.3029 20.2387C21.1872 20.7079 20.713 20.9945 20.2438 20.8788C19.7746 20.7631 19.4881 20.289 19.6038 19.8198L23.5549 3.79633C23.6706 3.32714 24.1448 3.04057 24.614 3.15627Z" fill="#C1BFC4"/>
</g>
<path fill-rule="evenodd" clip-rule="evenodd" d="M24.614 3.15627C25.0832 3.27196 25.3698 3.74611 25.2541 4.21531L21.3029 20.2387C21.1872 20.7079 20.713 20.9945 20.2438 20.8788C19.7746 20.7631 19.4881 20.289 19.6038 19.8198L23.5549 3.79633C23.6706 3.32714 24.1448 3.04057 24.614 3.15627Z" fill="url(#paint12_radial_177_4277)"/>
<path fill-rule="evenodd" clip-rule="evenodd" d="M24.614 3.15627C25.0832 3.27196 25.3698 3.74611 25.2541 4.21531L21.3029 20.2387C21.1872 20.7079 20.713 20.9945 20.2438 20.8788C19.7746 20.7631 19.4881 20.289 19.6038 19.8198L23.5549 3.79633C23.6706 3.32714 24.1448 3.04057 24.614 3.15627Z" fill="url(#paint13_radial_177_4277)"/>
<g filter="url(#filter7_i_177_4277)">
<path d="M23.2305 3.58887C23.2305 3.11694 23.613 2.73438 24.085 2.73438H25.7598C26.2317 2.73438 26.6143 3.11694 26.6143 3.58887C26.6143 4.06079 26.2317 4.44336 25.7598 4.44336H24.085C23.613 4.44336 23.2305 4.06079 23.2305 3.58887Z" fill="#347CC3"/>
<path d="M23.2305 3.58887C23.2305 3.11694 23.613 2.73438 24.085 2.73438H25.7598C26.2317 2.73438 26.6143 3.11694 26.6143 3.58887C26.6143 4.06079 26.2317 4.44336 25.7598 4.44336H24.085C23.613 4.44336 23.2305 4.06079 23.2305 3.58887Z" fill="url(#paint14_linear_177_4277)"/>
</g>
<g filter="url(#filter8_f_177_4277)">
<path d="M3.56419 7.58789C3.46841 6.97266 4.1097 6.125 4.8972 6.125C5.6847 6.125 17.0561 6.125 22.6433 6.125" stroke="url(#paint15_linear_177_4277)" stroke-width="0.4"/>
</g>
<g filter="url(#filter9_f_177_4277)">
<path d="M3.32031 9.26953L3.8125 15.6953C3.8763 16.388 4.48516 17.8445 6.41016 18.1289C8.33516 18.4133 15.4245 18.776 18.6602 19.0312" stroke="url(#paint16_linear_177_4277)" stroke-width="0.4"/>
</g>
<g filter="url(#filter10_f_177_4277)">
<path d="M24.3516 4.89453L20.4688 20.043" stroke="#C8C5CD" stroke-width="0.5" stroke-linecap="round"/>
</g>
<g filter="url(#filter11_f_177_4277)">
<rect x="24.0078" y="3.30176" width="2.19434" height="0.328125" rx="0.164062" fill="#6B9ADA"/>
</g>
<defs>
<filter id="filter0_ii_177_4277" x="2.07812" y="14.5781" width="23.8477" height="9.59922" filterUnits="userSpaceOnUse" color-interpolation-filters="sRGB">
<feFlood flood-opacity="0" result="BackgroundImageFix"/>
<feBlend mode="normal" in="SourceGraphic" in2="BackgroundImageFix" result="shape"/>
<feColorMatrix in="SourceAlpha" type="matrix" values="0 0 0 0 0 0 0 0 0 0 0 0 0 0 0 0 0 0 127 0" result="hardAlpha"/>
<feOffset dy="-0.5"/>
<feGaussianBlur stdDeviation="0.5"/>
<feComposite in2="hardAlpha" operator="arithmetic" k2="-1" k3="1"/>
<feColorMatrix type="matrix" values="0 0 0 0 0.596078 0 0 0 0 0.505882 0 0 0 0 0.682353 0 0 0 1 0"/>
<feBlend mode="normal" in2="shape" result="effect1_innerShadow_177_4277"/>
<feColorMatrix in="SourceAlpha" type="matrix" values="0 0 0 0 0 0 0 0 0 0 0 0 0 0 0 0 0 0 127 0" result="hardAlpha"/>
<feOffset dy="0.4"/>
<feGaussianBlur stdDeviation="0.5"/>
<feComposite in2="hardAlpha" operator="arithmetic" k2="-1" k3="1"/>
<feColorMatrix type="matrix" values="0 0 0 0 0.654902 0 0 0 0 0.647059 0 0 0 0 0.666667 0 0 0 1 0"/>
<feBlend mode="normal" in2="effect1_innerShadow_177_4277" result="effect2_innerShadow_177_4277"/>
</filter>
<filter id="filter1_f_177_4277" x="4.07031" y="23.7441" width="2.32031" height="2.31836" filterUnits="userSpaceOnUse" color-interpolation-filters="sRGB">
<feFlood flood-opacity="0" result="BackgroundImageFix"/>
<feBlend mode="normal" in="SourceGraphic" in2="BackgroundImageFix" result="shape"/>
<feGaussianBlur stdDeviation="0.125" result="effect1_foregroundBlur_177_4277"/>
</filter>
<filter id="filter2_i_177_4277" x="3.04297" y="6.52187" width="19.3672" height="12.2796" filterUnits="userSpaceOnUse" color-interpolation-filters="sRGB">
<feFlood flood-opacity="0" result="BackgroundImageFix"/>
<feBlend mode="normal" in="SourceGraphic" in2="BackgroundImageFix" result="shape"/>
<feColorMatrix in="SourceAlpha" type="matrix" values="0 0 0 0 0 0 0 0 0 0 0 0 0 0 0 0 0 0 127 0" result="hardAlpha"/>
<feOffset dy="-0.15"/>
<feGaussianBlur stdDeviation="0.075"/>
<feComposite in2="hardAlpha" operator="arithmetic" k2="-1" k3="1"/>
<feColorMatrix type="matrix" values="0 0 0 0 0.619608 0 0 0 0 0.564706 0 0 0 0 0.67451 0 0 0 1 0"/>
<feBlend mode="normal" in2="shape" result="effect1_innerShadow_177_4277"/>
</filter>
<filter id="filter3_f_177_4277" x="2.79297" y="6.42188" width="19.8672" height="11.9023" filterUnits="userSpaceOnUse" color-interpolation-filters="sRGB">
<feFlood flood-opacity="0" result="BackgroundImageFix"/>
<feBlend mode="normal" in="SourceGraphic" in2="BackgroundImageFix" result="shape"/>
<feGaussianBlur stdDeviation="0.125" result="effect1_foregroundBlur_177_4277"/>
</filter>
<filter id="filter4_f_177_4277" x="19.7266" y="23.7441" width="2.32031" height="2.31836" filterUnits="userSpaceOnUse" color-interpolation-filters="sRGB">
<feFlood flood-opacity="0" result="BackgroundImageFix"/>
<feBlend mode="normal" in="SourceGraphic" in2="BackgroundImageFix" result="shape"/>
<feGaussianBlur stdDeviation="0.125" result="effect1_foregroundBlur_177_4277"/>
</filter>
<filter id="filter5_iii_177_4277" x="2.19141" y="4.84009" width="22.0664" height="15.5623" filterUnits="userSpaceOnUse" color-interpolation-filters="sRGB">
<feFlood flood-opacity="0" result="BackgroundImageFix"/>
<feBlend mode="normal" in="SourceGraphic" in2="BackgroundImageFix" result="shape"/>
<feColorMatrix in="SourceAlpha" type="matrix" values="0 0 0 0 0 0 0 0 0 0 0 0 0 0 0 0 0 0 127 0" result="hardAlpha"/>
<feOffset dy="-0.5"/>
<feGaussianBlur stdDeviation="0.5"/>
<feComposite in2="hardAlpha" operator="arithmetic" k2="-1" k3="1"/>
<feColorMatrix type="matrix" values="0 0 0 0 0.603922 0 0 0 0 0.568627 0 0 0 0 0.643137 0 0 0 1 0"/>
<feBlend mode="normal" in2="shape" result="effect1_innerShadow_177_4277"/>
<feColorMatrix in="SourceAlpha" type="matrix" values="0 0 0 0 0 0 0 0 0 0 0 0 0 0 0 0 0 0 127 0" result="hardAlpha"/>
<feOffset dy="0.25"/>
<feGaussianBlur stdDeviation="0.25"/>
<feComposite in2="hardAlpha" operator="arithmetic" k2="-1" k3="1"/>
<feColorMatrix type="matrix" values="0 0 0 0 0.654902 0 0 0 0 0.654902 0 0 0 0 0.662745 0 0 0 1 0"/>
<feBlend mode="normal" in2="effect1_innerShadow_177_4277" result="effect2_innerShadow_177_4277"/>
<feColorMatrix in="SourceAlpha" type="matrix" values="0 0 0 0 0 0 0 0 0 0 0 0 0 0 0 0 0 0 127 0" result="hardAlpha"/>
<feOffset dx="0.25"/>
<feGaussianBlur stdDeviation="0.25"/>
<feComposite in2="hardAlpha" operator="arithmetic" k2="-1" k3="1"/>
<feColorMatrix type="matrix" values="0 0 0 0 0.654902 0 0 0 0 0.654902 0 0 0 0 0.662745 0 0 0 1 0"/>
<feBlend mode="normal" in2="effect2_innerShadow_177_4277" result="effect3_innerShadow_177_4277"/>
</filter>
<filter id="filter6_i_177_4277" x="19.5781" y="3.13062" width="6.45312" height="17.7739" filterUnits="userSpaceOnUse" color-interpolation-filters="sRGB">
<feFlood flood-opacity="0" result="BackgroundImageFix"/>
<feBlend mode="normal" in="SourceGraphic" in2="BackgroundImageFix" result="shape"/>
<feColorMatrix in="SourceAlpha" type="matrix" values="0 0 0 0 0 0 0 0 0 0 0 0 0 0 0 0 0 0 127 0" result="hardAlpha"/>
<feOffset dx="0.75"/>
<feGaussianBlur stdDeviation="0.5"/>
<feComposite in2="hardAlpha" operator="arithmetic" k2="-1" k3="1"/>
<feColorMatrix type="matrix" values="0 0 0 0 0.654902 0 0 0 0 0.639216 0 0 0 0 0.670588 0 0 0 1 0"/>
<feBlend mode="normal" in2="shape" result="effect1_innerShadow_177_4277"/>
</filter>
<filter id="filter7_i_177_4277" x="23.2305" y="2.33437" width="3.38281" height="2.10898" filterUnits="userSpaceOnUse" color-interpolation-filters="sRGB">
<feFlood flood-opacity="0" result="BackgroundImageFix"/>
<feBlend mode="normal" in="SourceGraphic" in2="BackgroundImageFix" result="shape"/>
<feColorMatrix in="SourceAlpha" type="matrix" values="0 0 0 0 0 0 0 0 0 0 0 0 0 0 0 0 0 0 127 0" result="hardAlpha"/>
<feOffset dy="-0.4"/>
<feGaussianBlur stdDeviation="0.375"/>
<feComposite in2="hardAlpha" operator="arithmetic" k2="-1" k3="1"/>
<feColorMatrix type="matrix" values="0 0 0 0 0.27451 0 0 0 0 0.356863 0 0 0 0 0.584314 0 0 0 1 0"/>
<feBlend mode="normal" in2="shape" result="effect1_innerShadow_177_4277"/>
</filter>
<filter id="filter8_f_177_4277" x="2.95547" y="5.52505" width="20.0891" height="2.4936" filterUnits="userSpaceOnUse" color-interpolation-filters="sRGB">
<feFlood flood-opacity="0" result="BackgroundImageFix"/>
<feBlend mode="normal" in="SourceGraphic" in2="BackgroundImageFix" result="shape"/>
<feGaussianBlur stdDeviation="0.2" result="effect1_foregroundBlur_177_4277"/>
</filter>
<filter id="filter9_f_177_4277" x="2.72109" y="8.85415" width="16.3547" height="10.7766" filterUnits="userSpaceOnUse" color-interpolation-filters="sRGB">
<feFlood flood-opacity="0" result="BackgroundImageFix"/>
<feBlend mode="normal" in="SourceGraphic" in2="BackgroundImageFix" result="shape"/>
<feGaussianBlur stdDeviation="0.2" result="effect1_foregroundBlur_177_4277"/>
</filter>
<filter id="filter10_f_177_4277" x="19.7188" y="4.14453" width="5.38281" height="16.6484" filterUnits="userSpaceOnUse" color-interpolation-filters="sRGB">
<feFlood flood-opacity="0" result="BackgroundImageFix"/>
<feBlend mode="normal" in="SourceGraphic" in2="BackgroundImageFix" result="shape"/>
<feGaussianBlur stdDeviation="0.25" result="effect1_foregroundBlur_177_4277"/>
</filter>
<filter id="filter11_f_177_4277" x="23.5078" y="2.80176" width="3.19531" height="1.32812" filterUnits="userSpaceOnUse" color-interpolation-filters="sRGB">
<feFlood flood-opacity="0" result="BackgroundImageFix"/>
<feBlend mode="normal" in="SourceGraphic" in2="BackgroundImageFix" result="shape"/>
<feGaussianBlur stdDeviation="0.25" result="effect1_foregroundBlur_177_4277"/>
</filter>
<radialGradient id="paint0_radial_177_4277" cx="0" cy="0" r="1" gradientUnits="userSpaceOnUse" gradientTransform="translate(5.97559 24.3359) rotate(116.878) scale(2.23785)">
<stop offset="0.485518" stop-color="#2C55AC" stop-opacity="0"/>
<stop offset="1" stop-color="#2C55AC"/>
</radialGradient>
<radialGradient id="paint1_radial_177_4277" cx="0" cy="0" r="1" gradientUnits="userSpaceOnUse" gradientTransform="translate(5.85938 24.6846) rotate(145.421) scale(0.855176 1.21024)">
<stop offset="0.613604" stop-color="#6A99DB"/>
<stop offset="1" stop-color="#6A99DB" stop-opacity="0"/>
</radialGradient>
<radialGradient id="paint2_radial_177_4277" cx="0" cy="0" r="1" gradientUnits="userSpaceOnUse" gradientTransform="translate(5.53809 25.5117) rotate(-116.108) scale(2.29903 2.76974)">
<stop offset="0.6568" stop-color="#2F5086" stop-opacity="0"/>
<stop offset="0.890667" stop-color="#2F5086"/>
</radialGradient>
<radialGradient id="paint3_radial_177_4277" cx="0" cy="0" r="1" gradientUnits="userSpaceOnUse" gradientTransform="translate(12.7261 11.7305) rotate(90) scale(4.10156 8.60294)">
<stop offset="0.339044" stop-color="#B9B6BC"/>
<stop offset="1" stop-color="#B9B6BC" stop-opacity="0"/>
</radialGradient>
<linearGradient id="paint4_linear_177_4277" x1="21.0967" y1="13.7812" x2="17.0498" y2="12.5781" gradientUnits="userSpaceOnUse">
<stop offset="0.239262" stop-color="#807F82"/>
<stop offset="1" stop-color="#807F82" stop-opacity="0"/>
</linearGradient>
<linearGradient id="paint5_linear_177_4277" x1="17.0498" y1="5.93359" x2="17.0498" y2="12.5781" gradientUnits="userSpaceOnUse">
<stop offset="0.123457" stop-color="#807F82"/>
<stop offset="0.407407" stop-color="#807F82" stop-opacity="0"/>
</linearGradient>
<radialGradient id="paint6_radial_177_4277" cx="0" cy="0" r="1" gradientUnits="userSpaceOnUse" gradientTransform="translate(12.7261 12.373) rotate(90) scale(8.4082 14.981)">
<stop offset="0.405276" stop-color="#C7C4CA"/>
<stop offset="1" stop-color="#C7C4CA" stop-opacity="0"/>
</radialGradient>
<radialGradient id="paint7_radial_177_4277" cx="0" cy="0" r="1" gradientUnits="userSpaceOnUse" gradientTransform="translate(21.6279 24.3359) rotate(116.878) scale(2.23785)">
<stop offset="0.485518" stop-color="#2C55AC" stop-opacity="0"/>
<stop offset="1" stop-color="#2C55AC"/>
</radialGradient>
<radialGradient id="paint8_radial_177_4277" cx="0" cy="0" r="1" gradientUnits="userSpaceOnUse" gradientTransform="translate(21.3955 24.4863) rotate(130.696) scale(0.901619 1.27596)">
<stop offset="0.420556" stop-color="#6A99DB"/>
<stop offset="1" stop-color="#6A99DB" stop-opacity="0"/>
</radialGradient>
<radialGradient id="paint9_radial_177_4277" cx="0" cy="0" r="1" gradientUnits="userSpaceOnUse" gradientTransform="translate(21.1904 25.5117) rotate(-116.108) scale(2.29903 2.76974)">
<stop offset="0.6568" stop-color="#2F5086" stop-opacity="0"/>
<stop offset="0.890667" stop-color="#2F5086"/>
</radialGradient>
<linearGradient id="paint10_linear_177_4277" x1="22.4913" y1="15.1211" x2="18.6631" y2="14.2461" gradientUnits="userSpaceOnUse">
<stop offset="0.213508" stop-color="#9A979D"/>
<stop offset="1" stop-color="#9A979D" stop-opacity="0"/>
</linearGradient>
<radialGradient id="paint11_radial_177_4277" cx="0" cy="0" r="1" gradientUnits="userSpaceOnUse" gradientTransform="translate(24.0088 5.49614) rotate(-180) scale(3.43164 1.40785)">
<stop stop-color="#969698"/>
<stop offset="1" stop-color="#969698" stop-opacity="0"/>
</radialGradient>
<radialGradient id="paint12_radial_177_4277" cx="0" cy="0" r="1" gradientUnits="userSpaceOnUse" gradientTransform="translate(21.5061 15.3945) rotate(-75.9313) scale(11.6986 5.72911)">
<stop offset="0.891128" stop-color="#9E9AA6" stop-opacity="0"/>
<stop offset="0.979005" stop-color="#9E9AA6"/>
</radialGradient>
<radialGradient id="paint13_radial_177_4277" cx="0" cy="0" r="1" gradientUnits="userSpaceOnUse" gradientTransform="translate(23.967 5.44138) rotate(104.096) scale(15.9431 5.11431)">
<stop offset="0.950067" stop-color="#AFAAB3" stop-opacity="0"/>
<stop offset="1" stop-color="#92889E"/>
</radialGradient>
<linearGradient id="paint14_linear_177_4277" x1="23.2305" y1="3.82813" x2="24.2114" y2="3.82813" gradientUnits="userSpaceOnUse">
<stop stop-color="#386CAA"/>
<stop offset="1" stop-color="#386CAA" stop-opacity="0"/>
</linearGradient>
<linearGradient id="paint15_linear_177_4277" x1="3.86903" y1="6.69922" x2="24.0214" y2="6.69922" gradientUnits="userSpaceOnUse">
<stop stop-color="#C6C4C9"/>
<stop offset="1" stop-color="#C6C4C9" stop-opacity="0"/>
</linearGradient>
<linearGradient id="paint16_linear_177_4277" x1="6.38282" y1="18.0195" x2="8.8164" y2="8.96875" gradientUnits="userSpaceOnUse">
<stop stop-color="#D4D1D7"/>
<stop offset="1" stop-color="#C6C4C9" stop-opacity="0"/>
</linearGradient>
</defs>
</svg>
