<svg width="24" height="24" viewBox="0 0 24 24" fill="none" xmlns="http://www.w3.org/2000/svg">
<path d="M23.1777 11.7969C23.1777 18.0791 18.085 23.1719 11.8027 23.1719C5.5205 23.1719 0.427734 18.0791 0.427734 11.7969C0.427734 5.51464 5.5205 0.421875 11.8027 0.421875C18.085 0.421875 23.1777 5.51464 23.1777 11.7969Z" fill="url(#paint0_radial_394_1868)"/>
<path d="M23.1777 11.7969C23.1777 18.0791 18.085 23.1719 11.8027 23.1719C5.5205 23.1719 0.427734 18.0791 0.427734 11.7969C0.427734 5.51464 5.5205 0.421875 11.8027 0.421875C18.085 0.421875 23.1777 5.51464 23.1777 11.7969Z" fill="url(#paint1_linear_394_1868)"/>
<path d="M23.1777 11.7969C23.1777 18.0791 18.085 23.1719 11.8027 23.1719C5.5205 23.1719 0.427734 18.0791 0.427734 11.7969C0.427734 5.51464 5.5205 0.421875 11.8027 0.421875C18.085 0.421875 23.1777 5.51464 23.1777 11.7969Z" fill="url(#paint2_radial_394_1868)"/>
<path d="M23.1777 11.7969C23.1777 18.0791 18.085 23.1719 11.8027 23.1719C5.5205 23.1719 0.427734 18.0791 0.427734 11.7969C0.427734 5.51464 5.5205 0.421875 11.8027 0.421875C18.085 0.421875 23.1777 5.51464 23.1777 11.7969Z" fill="url(#paint3_radial_394_1868)"/>
<path d="M23.1777 11.7969C23.1777 18.0791 18.085 23.1719 11.8027 23.1719C5.5205 23.1719 0.427734 18.0791 0.427734 11.7969C0.427734 5.51464 5.5205 0.421875 11.8027 0.421875C18.085 0.421875 23.1777 5.51464 23.1777 11.7969Z" fill="url(#paint4_radial_394_1868)"/>
<defs>
<radialGradient id="paint0_radial_394_1868" cx="0" cy="0" r="1" gradientUnits="userSpaceOnUse" gradientTransform="translate(18.4483 5.90625) rotate(130.168) scale(22.5945)">
<stop offset="0.189563" stop-color="#5AE68D"/>
<stop offset="0.835376" stop-color="#43A684"/>
</radialGradient>
<linearGradient id="paint1_linear_394_1868" x1="11.8027" y1="0.421875" x2="11.8027" y2="5.70313" gradientUnits="userSpaceOnUse">
<stop stop-color="#5ED284"/>
<stop offset="1" stop-color="#5ED284" stop-opacity="0"/>
</linearGradient>
<radialGradient id="paint2_radial_394_1868" cx="0" cy="0" r="1" gradientUnits="userSpaceOnUse" gradientTransform="translate(18.8546 7.53125) rotate(136.38) scale(11.9248 12.8505)">
<stop offset="0.178657" stop-color="#6FFCA5"/>
<stop offset="1" stop-color="#65E6A7" stop-opacity="0"/>
</radialGradient>
<radialGradient id="paint3_radial_394_1868" cx="0" cy="0" r="1" gradientUnits="userSpaceOnUse" gradientTransform="translate(15.4522 11.7969) rotate(180) scale(15.6406 16.25)">
<stop offset="0.62013" stop-color="#64CB85" stop-opacity="0"/>
<stop offset="0.951299" stop-color="#A4E4B7"/>
</radialGradient>
<radialGradient id="paint4_radial_394_1868" cx="0" cy="0" r="1" gradientUnits="userSpaceOnUse" gradientTransform="translate(11.8027 6.10937) rotate(90) scale(18.0273 18.6775)">
<stop offset="0.732143" stop-color="#4A9795" stop-opacity="0"/>
<stop offset="1" stop-color="#718CAD"/>
</radialGradient>
</defs>
</svg>
