<svg width="18" height="18" viewBox="0 0 18 18" fill="none" xmlns="http://www.w3.org/2000/svg">
<g opacity="0.6">
<path d="M11.43 1.5H8.50938C7.1862 1.49999 6.13814 1.49998 5.3179 1.6107C4.47376 1.72465 3.79052 1.96473 3.2517 2.50572C2.71287 3.0467 2.47375 3.73269 2.36026 4.58022C2.24998 5.40375 2.24999 6.45601 2.25 7.78451V12.1627C2.25 13.2937 2.93996 14.263 3.92038 14.6694C3.86991 13.9873 3.86995 13.0303 3.87 12.234L3.87 8.54819L3.87 8.47681C3.86994 7.51556 3.8699 6.68733 3.95871 6.02408C4.05389 5.31328 4.26854 4.63194 4.81897 4.07929C5.36941 3.52665 6.04803 3.31114 6.75599 3.21557C7.41658 3.1264 8.2415 3.12645 9.1989 3.1265L9.27 3.12651H11.43L11.5011 3.1265C12.4585 3.12645 13.2816 3.1264 13.9422 3.21557C13.547 2.21084 12.5712 1.5 11.43 1.5Z" fill="#14AC75"/>
<path d="M4.94922 8.54804C4.94922 6.5034 4.94922 5.48107 5.58187 4.84588C6.21452 4.21069 7.23275 4.21069 9.26922 4.21069H11.4292C13.4657 4.21069 14.4839 4.21069 15.1166 4.84588C15.7492 5.48107 15.7492 6.5034 15.7492 8.54804V12.1625C15.7492 14.2071 15.7492 15.2295 15.1166 15.8647C14.4839 16.4998 13.4657 16.4998 11.4292 16.4998H9.26922C7.23275 16.4998 6.21452 16.4998 5.58187 15.8647C4.94922 15.2295 4.94922 14.2071 4.94922 12.1625V8.54804Z" fill="#14AC75"/>
</g>
</svg>
