<svg width="42" height="42" viewBox="0 0 42 42" fill="none" xmlns="http://www.w3.org/2000/svg">
<g filter="url(#filter0_iiii_168_711)">
<path d="M6.65723 6.08364C6.65723 4.92385 7.59743 3.98364 8.75723 3.98364H33.2425C34.4023 3.98364 35.3425 4.92384 35.3425 6.08364V37.234C35.3425 38.3938 34.4023 39.334 33.2425 39.334H8.75723C7.59743 39.334 6.65723 38.3938 6.65723 37.234V6.08364Z" fill="url(#paint0_linear_168_711)"/>
<path d="M6.65723 6.08364C6.65723 4.92385 7.59743 3.98364 8.75723 3.98364H33.2425C34.4023 3.98364 35.3425 4.92384 35.3425 6.08364V37.234C35.3425 38.3938 34.4023 39.334 33.2425 39.334H8.75723C7.59743 39.334 6.65723 38.3938 6.65723 37.234V6.08364Z" fill="url(#paint1_radial_168_711)"/>
</g>
<g filter="url(#filter1_f_168_711)">
<path d="M10.436 7.25977C9.52993 7.25977 8.79541 7.99428 8.79541 8.90039V35.4016C8.79541 36.3077 9.52993 37.0422 10.436 37.0422H24.4682C24.7293 37.0422 24.9797 36.9385 25.1643 36.7539L31.927 29.9912C32.1116 29.8066 32.2153 29.5562 32.2153 29.2951V8.90039C32.2153 7.99428 31.4808 7.25977 30.5747 7.25977H10.436Z" fill="#CD7D52"/>
</g>
<g filter="url(#filter2_ii_168_711)">
<path d="M10.918 6.76758C10.0119 6.76758 9.27734 7.50209 9.27734 8.4082V34.9094C9.27734 35.8155 10.0119 36.55 10.918 36.55H24.9501C25.2112 36.55 25.4616 36.4463 25.6462 36.2617L32.4089 29.499C32.5936 29.3144 32.6973 29.064 32.6973 28.8029V8.4082C32.6973 7.50209 31.9627 6.76758 31.0566 6.76758H10.918Z" fill="url(#paint2_linear_168_711)"/>
</g>
<rect x="11.8613" y="15.7705" width="18.2622" height="1.28174" rx="0.503906" fill="#9B96A2"/>
<rect x="11.8613" y="19.7183" width="18.2622" height="1.28174" rx="0.503906" fill="#9B96A2"/>
<rect x="11.8613" y="23.666" width="18.2622" height="1.28174" rx="0.503906" fill="#9B96A2"/>
<rect x="11.8613" y="27.6138" width="11.7715" height="1.28174" rx="0.503906" fill="#9B96A2"/>
<g filter="url(#filter3_f_168_711)">
<path d="M32.2974 28.9148H32.2923C32.2923 29.2017 32.1319 29.27 31.9756 29.2863H26.3237C25.6139 29.2863 25.0386 29.8616 25.0386 30.5714V36.2098C25.0003 36.4027 24.7515 36.5127 24.622 36.545L24.6172 36.55H24.712C24.9676 36.55 25.2128 36.4485 25.3935 36.2677L32.0151 29.6462C32.1958 29.4655 32.2974 29.2203 32.2974 28.9647V28.9148Z" fill="#D0C1E0"/>
</g>
<g filter="url(#filter4_ii_168_711)">
<path d="M32.697 28.752H32.6919C32.6919 29.045 32.5281 29.1148 32.3684 29.1313H26.596C25.871 29.1313 25.2835 29.719 25.2835 30.4438V36.2025C25.2443 36.3996 24.9902 36.5119 24.8579 36.5449L24.853 36.55H24.9499C25.211 36.55 25.4614 36.4463 25.6459 36.2617L32.4087 29.499C32.5933 29.3144 32.697 29.064 32.697 28.8029V28.752Z" fill="url(#paint3_linear_168_711)"/>
</g>
<g filter="url(#filter5_f_168_711)">
<path d="M14.1479 7.26758C14.1479 6.99144 14.3718 6.76758 14.6479 6.76758H26.8628V10.4102C26.8628 10.6863 26.6389 10.9102 26.3628 10.9102H14.6479C14.3718 10.9102 14.1479 10.6863 14.1479 10.4102V7.26758Z" fill="#CABFD5"/>
</g>
<g filter="url(#filter6_ii_168_711)">
<path fill-rule="evenodd" clip-rule="evenodd" d="M20.9873 2.60449C22.409 2.60449 23.5646 3.74353 23.5913 5.1588C23.5918 5.18641 23.6142 5.20898 23.6418 5.20898H24.894C26.3438 5.20898 27.519 6.38422 27.519 7.83398V9.88989C27.519 10.2551 27.223 10.5513 26.8577 10.5513H15.1375C14.7722 10.5513 14.4761 10.2551 14.4761 9.88989V7.83398C14.4761 6.38422 15.6513 5.20898 17.1011 5.20898H18.3328C18.3604 5.20898 18.3828 5.18641 18.3833 5.1588C18.41 3.74353 19.5656 2.60449 20.9873 2.60449ZM20.9873 6.38818C21.6386 6.38818 22.1665 5.86023 22.1665 5.20898C22.1665 4.55774 21.6386 4.02979 20.9873 4.02979C20.336 4.02979 19.8081 4.55774 19.8081 5.20898C19.8081 5.86023 20.336 6.38818 20.9873 6.38818Z" fill="url(#paint4_linear_168_711)"/>
</g>
<defs>
<filter id="filter0_iiii_168_711" x="6.30723" y="3.73364" width="29.2855" height="35.8503" filterUnits="userSpaceOnUse" color-interpolation-filters="sRGB">
<feFlood flood-opacity="0" result="BackgroundImageFix"/>
<feBlend mode="normal" in="SourceGraphic" in2="BackgroundImageFix" result="shape"/>
<feColorMatrix in="SourceAlpha" type="matrix" values="0 0 0 0 0 0 0 0 0 0 0 0 0 0 0 0 0 0 127 0" result="hardAlpha"/>
<feOffset dx="0.25"/>
<feGaussianBlur stdDeviation="0.25"/>
<feComposite in2="hardAlpha" operator="arithmetic" k2="-1" k3="1"/>
<feColorMatrix type="matrix" values="0 0 0 0 0.670588 0 0 0 0 0.376471 0 0 0 0 0.278431 0 0 0 1 0"/>
<feBlend mode="normal" in2="shape" result="effect1_innerShadow_168_711"/>
<feColorMatrix in="SourceAlpha" type="matrix" values="0 0 0 0 0 0 0 0 0 0 0 0 0 0 0 0 0 0 127 0" result="hardAlpha"/>
<feOffset dy="-0.25"/>
<feGaussianBlur stdDeviation="0.25"/>
<feComposite in2="hardAlpha" operator="arithmetic" k2="-1" k3="1"/>
<feColorMatrix type="matrix" values="0 0 0 0 0.643137 0 0 0 0 0.329412 0 0 0 0 0.364706 0 0 0 1 0"/>
<feBlend mode="normal" in2="effect1_innerShadow_168_711" result="effect2_innerShadow_168_711"/>
<feColorMatrix in="SourceAlpha" type="matrix" values="0 0 0 0 0 0 0 0 0 0 0 0 0 0 0 0 0 0 127 0" result="hardAlpha"/>
<feOffset dx="-0.35" dy="0.25"/>
<feGaussianBlur stdDeviation="0.225"/>
<feComposite in2="hardAlpha" operator="arithmetic" k2="-1" k3="1"/>
<feColorMatrix type="matrix" values="0 0 0 0 1 0 0 0 0 0.760784 0 0 0 0 0.529412 0 0 0 1 0"/>
<feBlend mode="normal" in2="effect2_innerShadow_168_711" result="effect3_innerShadow_168_711"/>
<feColorMatrix in="SourceAlpha" type="matrix" values="0 0 0 0 0 0 0 0 0 0 0 0 0 0 0 0 0 0 127 0" result="hardAlpha"/>
<feOffset dx="-0.05" dy="0.05"/>
<feGaussianBlur stdDeviation="0.1"/>
<feComposite in2="hardAlpha" operator="arithmetic" k2="-1" k3="1"/>
<feColorMatrix type="matrix" values="0 0 0 0 0.815686 0 0 0 0 0.560784 0 0 0 0 0.396078 0 0 0 1 0"/>
<feBlend mode="normal" in2="effect3_innerShadow_168_711" result="effect4_innerShadow_168_711"/>
</filter>
<filter id="filter1_f_168_711" x="8.29541" y="6.75977" width="24.4199" height="30.7825" filterUnits="userSpaceOnUse" color-interpolation-filters="sRGB">
<feFlood flood-opacity="0" result="BackgroundImageFix"/>
<feBlend mode="normal" in="SourceGraphic" in2="BackgroundImageFix" result="shape"/>
<feGaussianBlur stdDeviation="0.25" result="effect1_foregroundBlur_168_711"/>
</filter>
<filter id="filter2_ii_168_711" x="9.12734" y="6.61758" width="23.7199" height="30.0825" filterUnits="userSpaceOnUse" color-interpolation-filters="sRGB">
<feFlood flood-opacity="0" result="BackgroundImageFix"/>
<feBlend mode="normal" in="SourceGraphic" in2="BackgroundImageFix" result="shape"/>
<feColorMatrix in="SourceAlpha" type="matrix" values="0 0 0 0 0 0 0 0 0 0 0 0 0 0 0 0 0 0 127 0" result="hardAlpha"/>
<feOffset dx="0.15" dy="-0.15"/>
<feGaussianBlur stdDeviation="0.15"/>
<feComposite in2="hardAlpha" operator="arithmetic" k2="-1" k3="1"/>
<feColorMatrix type="matrix" values="0 0 0 0 0.792157 0 0 0 0 0.721569 0 0 0 0 0.862745 0 0 0 1 0"/>
<feBlend mode="normal" in2="shape" result="effect1_innerShadow_168_711"/>
<feColorMatrix in="SourceAlpha" type="matrix" values="0 0 0 0 0 0 0 0 0 0 0 0 0 0 0 0 0 0 127 0" result="hardAlpha"/>
<feOffset dx="-0.15" dy="0.15"/>
<feGaussianBlur stdDeviation="0.15"/>
<feComposite in2="hardAlpha" operator="arithmetic" k2="-1" k3="1"/>
<feColorMatrix type="matrix" values="0 0 0 0 1 0 0 0 0 1 0 0 0 0 1 0 0 0 1 0"/>
<feBlend mode="normal" in2="effect1_innerShadow_168_711" result="effect2_innerShadow_168_711"/>
</filter>
<filter id="filter3_f_168_711" x="24.3672" y="28.6648" width="8.18018" height="8.13525" filterUnits="userSpaceOnUse" color-interpolation-filters="sRGB">
<feFlood flood-opacity="0" result="BackgroundImageFix"/>
<feBlend mode="normal" in="SourceGraphic" in2="BackgroundImageFix" result="shape"/>
<feGaussianBlur stdDeviation="0.125" result="effect1_foregroundBlur_168_711"/>
</filter>
<filter id="filter4_ii_168_711" x="24.853" y="28.752" width="7.99424" height="7.8981" filterUnits="userSpaceOnUse" color-interpolation-filters="sRGB">
<feFlood flood-opacity="0" result="BackgroundImageFix"/>
<feBlend mode="normal" in="SourceGraphic" in2="BackgroundImageFix" result="shape"/>
<feColorMatrix in="SourceAlpha" type="matrix" values="0 0 0 0 0 0 0 0 0 0 0 0 0 0 0 0 0 0 127 0" result="hardAlpha"/>
<feOffset dx="0.15"/>
<feGaussianBlur stdDeviation="0.125"/>
<feComposite in2="hardAlpha" operator="arithmetic" k2="-1" k3="1"/>
<feColorMatrix type="matrix" values="0 0 0 0 0.662745 0 0 0 0 0.611765 0 0 0 0 0.705882 0 0 0 1 0"/>
<feBlend mode="normal" in2="shape" result="effect1_innerShadow_168_711"/>
<feColorMatrix in="SourceAlpha" type="matrix" values="0 0 0 0 0 0 0 0 0 0 0 0 0 0 0 0 0 0 127 0" result="hardAlpha"/>
<feOffset dy="0.1"/>
<feGaussianBlur stdDeviation="0.075"/>
<feComposite in2="hardAlpha" operator="arithmetic" k2="-1" k3="1"/>
<feColorMatrix type="matrix" values="0 0 0 0 0.878431 0 0 0 0 0.866667 0 0 0 0 0.890196 0 0 0 1 0"/>
<feBlend mode="normal" in2="effect1_innerShadow_168_711" result="effect2_innerShadow_168_711"/>
</filter>
<filter id="filter5_f_168_711" x="13.7479" y="6.36758" width="13.5148" height="4.94258" filterUnits="userSpaceOnUse" color-interpolation-filters="sRGB">
<feFlood flood-opacity="0" result="BackgroundImageFix"/>
<feBlend mode="normal" in="SourceGraphic" in2="BackgroundImageFix" result="shape"/>
<feGaussianBlur stdDeviation="0.2" result="effect1_foregroundBlur_168_711"/>
</filter>
<filter id="filter6_ii_168_711" x="14.3761" y="2.50449" width="13.243" height="8.14678" filterUnits="userSpaceOnUse" color-interpolation-filters="sRGB">
<feFlood flood-opacity="0" result="BackgroundImageFix"/>
<feBlend mode="normal" in="SourceGraphic" in2="BackgroundImageFix" result="shape"/>
<feColorMatrix in="SourceAlpha" type="matrix" values="0 0 0 0 0 0 0 0 0 0 0 0 0 0 0 0 0 0 127 0" result="hardAlpha"/>
<feOffset dx="0.1" dy="-0.1"/>
<feGaussianBlur stdDeviation="0.1"/>
<feComposite in2="hardAlpha" operator="arithmetic" k2="-1" k3="1"/>
<feColorMatrix type="matrix" values="0 0 0 0 0.556863 0 0 0 0 0.501961 0 0 0 0 0.572549 0 0 0 1 0"/>
<feBlend mode="normal" in2="shape" result="effect1_innerShadow_168_711"/>
<feColorMatrix in="SourceAlpha" type="matrix" values="0 0 0 0 0 0 0 0 0 0 0 0 0 0 0 0 0 0 127 0" result="hardAlpha"/>
<feOffset dx="-0.1" dy="0.1"/>
<feGaussianBlur stdDeviation="0.05"/>
<feComposite in2="hardAlpha" operator="arithmetic" k2="-1" k3="1"/>
<feColorMatrix type="matrix" values="0 0 0 0 0.67451 0 0 0 0 0.65098 0 0 0 0 0.670588 0 0 0 1 0"/>
<feBlend mode="normal" in2="effect1_innerShadow_168_711" result="effect2_innerShadow_168_711"/>
</filter>
<linearGradient id="paint0_linear_168_711" x1="20.9999" y1="3.98364" x2="20.9999" y2="39.334" gradientUnits="userSpaceOnUse">
<stop stop-color="#E8A874"/>
<stop offset="1" stop-color="#DB925D"/>
</linearGradient>
<radialGradient id="paint1_radial_168_711" cx="0" cy="0" r="1" gradientUnits="userSpaceOnUse" gradientTransform="translate(20.5872 6.97266) rotate(-90) scale(3.28125 2.66259)">
<stop stop-color="#D79769"/>
<stop offset="1" stop-color="#D79769" stop-opacity="0"/>
</radialGradient>
<linearGradient id="paint2_linear_168_711" x1="20.9873" y1="6.76758" x2="20.9873" y2="36.55" gradientUnits="userSpaceOnUse">
<stop stop-color="#EAE2F4"/>
<stop offset="1" stop-color="#E4DAEF"/>
</linearGradient>
<linearGradient id="paint3_linear_168_711" x1="25.386" y1="29.7773" x2="28.3801" y2="33.0176" gradientUnits="userSpaceOnUse">
<stop stop-color="#D6CDE1"/>
<stop offset="1" stop-color="#C6BAD2"/>
</linearGradient>
<linearGradient id="paint4_linear_168_711" x1="24.5659" y1="4.96289" x2="20.5464" y2="10.7871" gradientUnits="userSpaceOnUse">
<stop stop-color="#948A94"/>
<stop offset="1" stop-color="#8D8291"/>
</linearGradient>
</defs>
</svg>
