<svg width="26" height="26" viewBox="0 0 26 26" fill="none" xmlns="http://www.w3.org/2000/svg">
<g filter="url(#filter0_iii_1785_9496)">
<rect x="1.67969" y="1.26953" width="22.6484" height="22.6484" rx="4" fill="url(#paint0_linear_1785_9496)"/>
</g>
<g filter="url(#filter1_f_1785_9496)">
<path d="M12.1855 5.2356C11.7367 5.2356 11.373 5.59936 11.373 6.0481V13.97C11.373 14.0822 11.282 14.1731 11.1698 14.1731H8.68132C7.9499 14.1731 7.59091 15.0639 8.11795 15.5711L12.4346 19.7247C12.7492 20.0275 13.2467 20.0275 13.5613 19.7247L17.878 15.5711C18.405 15.0639 18.046 14.1731 17.3146 14.1731L14.8261 14.1731C14.7139 14.1731 14.623 14.0822 14.623 13.97V6.0481C14.623 5.59936 14.2592 5.2356 13.8105 5.2356H12.1855Z" fill="#CF8C48"/>
</g>
<g filter="url(#filter2_ii_1785_9496)">
<path d="M12.1855 5.2356C11.7367 5.2356 11.373 5.59936 11.373 6.0481V13.97C11.373 14.0822 11.282 14.1731 11.1698 14.1731H8.68132C7.9499 14.1731 7.59091 15.0639 8.11795 15.5711L12.4346 19.7247C12.7492 20.0275 13.2467 20.0275 13.5613 19.7247L17.878 15.5711C18.405 15.0639 18.046 14.1731 17.3146 14.1731L14.8261 14.1731C14.7139 14.1731 14.623 14.0822 14.623 13.97V6.0481C14.623 5.59936 14.2592 5.2356 13.8105 5.2356H12.1855Z" fill="#FCF2FF"/>
</g>
<defs>
<filter id="filter0_iii_1785_9496" x="0.679688" y="0.519531" width="24.6484" height="23.3984" filterUnits="userSpaceOnUse" color-interpolation-filters="sRGB">
<feFlood flood-opacity="0" result="BackgroundImageFix"/>
<feBlend mode="normal" in="SourceGraphic" in2="BackgroundImageFix" result="shape"/>
<feColorMatrix in="SourceAlpha" type="matrix" values="0 0 0 0 0 0 0 0 0 0 0 0 0 0 0 0 0 0 127 0" result="hardAlpha"/>
<feOffset dx="-1"/>
<feGaussianBlur stdDeviation="0.5"/>
<feComposite in2="hardAlpha" operator="arithmetic" k2="-1" k3="1"/>
<feColorMatrix type="matrix" values="0 0 0 0 1 0 0 0 0 0.886275 0 0 0 0 0.352941 0 0 0 1 0"/>
<feBlend mode="normal" in2="shape" result="effect1_innerShadow_1785_9496"/>
<feColorMatrix in="SourceAlpha" type="matrix" values="0 0 0 0 0 0 0 0 0 0 0 0 0 0 0 0 0 0 127 0" result="hardAlpha"/>
<feOffset dy="-0.75"/>
<feGaussianBlur stdDeviation="0.5"/>
<feComposite in2="hardAlpha" operator="arithmetic" k2="-1" k3="1"/>
<feColorMatrix type="matrix" values="0 0 0 0 1 0 0 0 0 0.384314 0 0 0 0 0.4 0 0 0 1 0"/>
<feBlend mode="normal" in2="effect1_innerShadow_1785_9496" result="effect2_innerShadow_1785_9496"/>
<feColorMatrix in="SourceAlpha" type="matrix" values="0 0 0 0 0 0 0 0 0 0 0 0 0 0 0 0 0 0 127 0" result="hardAlpha"/>
<feOffset dx="1"/>
<feGaussianBlur stdDeviation="0.5"/>
<feComposite in2="hardAlpha" operator="arithmetic" k2="-1" k3="1"/>
<feColorMatrix type="matrix" values="0 0 0 0 1 0 0 0 0 0.541176 0 0 0 0 0.290196 0 0 0 1 0"/>
<feBlend mode="normal" in2="effect2_innerShadow_1785_9496" result="effect3_innerShadow_1785_9496"/>
</filter>
<filter id="filter1_f_1785_9496" x="6.86719" y="4.2356" width="12.2617" height="16.7161" filterUnits="userSpaceOnUse" color-interpolation-filters="sRGB">
<feFlood flood-opacity="0" result="BackgroundImageFix"/>
<feBlend mode="normal" in="SourceGraphic" in2="BackgroundImageFix" result="shape"/>
<feGaussianBlur stdDeviation="0.5" result="effect1_foregroundBlur_1785_9496"/>
</filter>
<filter id="filter2_ii_1785_9496" x="7.46719" y="4.8356" width="11.0617" height="15.5161" filterUnits="userSpaceOnUse" color-interpolation-filters="sRGB">
<feFlood flood-opacity="0" result="BackgroundImageFix"/>
<feBlend mode="normal" in="SourceGraphic" in2="BackgroundImageFix" result="shape"/>
<feColorMatrix in="SourceAlpha" type="matrix" values="0 0 0 0 0 0 0 0 0 0 0 0 0 0 0 0 0 0 127 0" result="hardAlpha"/>
<feOffset dx="-0.4" dy="0.4"/>
<feGaussianBlur stdDeviation="0.375"/>
<feComposite in2="hardAlpha" operator="arithmetic" k2="-1" k3="1"/>
<feColorMatrix type="matrix" values="0 0 0 0 0.901961 0 0 0 0 0.854902 0 0 0 0 0.980392 0 0 0 1 0"/>
<feBlend mode="normal" in2="shape" result="effect1_innerShadow_1785_9496"/>
<feColorMatrix in="SourceAlpha" type="matrix" values="0 0 0 0 0 0 0 0 0 0 0 0 0 0 0 0 0 0 127 0" result="hardAlpha"/>
<feOffset dx="0.4" dy="-0.4"/>
<feGaussianBlur stdDeviation="0.2"/>
<feComposite in2="hardAlpha" operator="arithmetic" k2="-1" k3="1"/>
<feColorMatrix type="matrix" values="0 0 0 0 1 0 0 0 0 0.988235 0 0 0 0 1 0 0 0 1 0"/>
<feBlend mode="normal" in2="effect1_innerShadow_1785_9496" result="effect2_innerShadow_1785_9496"/>
</filter>
<linearGradient id="paint0_linear_1785_9496" x1="13.0039" y1="1.26953" x2="13.0039" y2="23.918" gradientUnits="userSpaceOnUse">
<stop stop-color="#FFD045"/>
<stop offset="1" stop-color="#FF8F5F"/>
</linearGradient>
</defs>
</svg>
