<svg width="26" height="26" viewBox="0 0 26 26" fill="none" xmlns="http://www.w3.org/2000/svg">
<rect x="1.85547" y="4.64282" width="22.5977" height="16.1992" rx="1.75" fill="url(#paint0_linear_1785_9548)"/>
<rect x="1.85547" y="4.64282" width="22.5977" height="16.1992" rx="1.75" fill="url(#paint1_linear_1785_9548)"/>
<path d="M13.1543 4.64282V20.842H3.27734C2.49207 20.842 1.85547 20.2054 1.85547 19.4202V6.0647C1.85547 5.27942 2.49207 4.64282 3.27734 4.64282H13.1543Z" fill="url(#paint2_linear_1785_9548)"/>
<path d="M13.1543 4.64282V20.842H3.27734C2.49207 20.842 1.85547 20.2054 1.85547 19.4202V6.0647C1.85547 5.27942 2.49207 4.64282 3.27734 4.64282H13.1543Z" fill="url(#paint3_radial_1785_9548)"/>
<path d="M13.1543 4.64282V20.842H23.0312C23.8165 20.842 24.4531 20.2054 24.4531 19.4202V6.0647C24.4531 5.27942 23.8165 4.64282 23.0312 4.64282H13.1543Z" fill="url(#paint4_linear_1785_9548)"/>
<path d="M13.1543 4.64282V20.842H23.0312C23.8165 20.842 24.4531 20.2054 24.4531 19.4202V6.0647C24.4531 5.27942 23.8165 4.64282 23.0312 4.64282H13.1543Z" fill="url(#paint5_linear_1785_9548)"/>
<path d="M13.1543 4.64282V20.842H23.0312C23.8165 20.842 24.4531 20.2054 24.4531 19.4202V6.0647C24.4531 5.27942 23.8165 4.64282 23.0312 4.64282H13.1543Z" fill="url(#paint6_linear_1785_9548)"/>
<path d="M13.1543 4.64282V20.842H23.0312C23.8165 20.842 24.4531 20.2054 24.4531 19.4202V6.0647C24.4531 5.27942 23.8165 4.64282 23.0312 4.64282H13.1543Z" fill="url(#paint7_linear_1785_9548)"/>
<g filter="url(#filter0_i_1785_9548)">
<path d="M1.85547 19.4202C1.85547 19.2069 1.96532 19.0087 2.14615 18.8957L12.9755 12.1266C13.081 12.0607 13.2149 12.0608 13.3203 12.1268L24.1857 18.937C24.3521 19.0412 24.4531 19.2238 24.4531 19.4202C24.4531 20.2054 23.8165 20.842 23.0312 20.842H3.27734C2.49207 20.842 1.85547 20.2054 1.85547 19.4202Z" fill="url(#paint8_linear_1785_9548)"/>
</g>
<path d="M1.85547 19.4202C1.85547 19.2069 1.96532 19.0087 2.14615 18.8957L12.9755 12.1266C13.081 12.0607 13.2149 12.0608 13.3203 12.1268L24.1857 18.937C24.3521 19.0412 24.4531 19.2238 24.4531 19.4202C24.4531 20.2054 23.8165 20.842 23.0312 20.842H3.27734C2.49207 20.842 1.85547 20.2054 1.85547 19.4202Z" fill="url(#paint9_linear_1785_9548)"/>
<path d="M1.85547 19.4202C1.85547 19.2069 1.96532 19.0087 2.14615 18.8957L12.9755 12.1266C13.081 12.0607 13.2149 12.0608 13.3203 12.1268L24.1857 18.937C24.3521 19.0412 24.4531 19.2238 24.4531 19.4202C24.4531 20.2054 23.8165 20.842 23.0312 20.842H3.27734C2.49207 20.842 1.85547 20.2054 1.85547 19.4202Z" fill="url(#paint10_linear_1785_9548)"/>
<g filter="url(#filter1_ii_1785_9548)">
<path d="M1.85547 6.0647C1.85547 6.27795 1.96532 6.47616 2.14615 6.58919L12.9755 13.3583C13.081 13.4242 13.2149 13.4241 13.3203 13.358L24.1857 6.5479C24.3521 6.44362 24.4531 6.26106 24.4531 6.0647C24.4531 5.27942 23.8165 4.64282 23.0312 4.64282H3.27734C2.49207 4.64282 1.85547 5.27942 1.85547 6.0647Z" fill="url(#paint11_linear_1785_9548)"/>
<path d="M1.85547 6.0647C1.85547 6.27795 1.96532 6.47616 2.14615 6.58919L12.9755 13.3583C13.081 13.4242 13.2149 13.4241 13.3203 13.358L24.1857 6.5479C24.3521 6.44362 24.4531 6.26106 24.4531 6.0647C24.4531 5.27942 23.8165 4.64282 23.0312 4.64282H3.27734C2.49207 4.64282 1.85547 5.27942 1.85547 6.0647Z" fill="url(#paint12_linear_1785_9548)"/>
<path d="M1.85547 6.0647C1.85547 6.27795 1.96532 6.47616 2.14615 6.58919L12.9755 13.3583C13.081 13.4242 13.2149 13.4241 13.3203 13.358L24.1857 6.5479C24.3521 6.44362 24.4531 6.26106 24.4531 6.0647C24.4531 5.27942 23.8165 4.64282 23.0312 4.64282H3.27734C2.49207 4.64282 1.85547 5.27942 1.85547 6.0647Z" fill="url(#paint13_linear_1785_9548)"/>
<path d="M1.85547 6.0647C1.85547 6.27795 1.96532 6.47616 2.14615 6.58919L12.9755 13.3583C13.081 13.4242 13.2149 13.4241 13.3203 13.358L24.1857 6.5479C24.3521 6.44362 24.4531 6.26106 24.4531 6.0647C24.4531 5.27942 23.8165 4.64282 23.0312 4.64282H3.27734C2.49207 4.64282 1.85547 5.27942 1.85547 6.0647Z" fill="url(#paint14_radial_1785_9548)"/>
</g>
<defs>
<filter id="filter0_i_1785_9548" x="1.85547" y="11.3271" width="22.5977" height="9.51489" filterUnits="userSpaceOnUse" color-interpolation-filters="sRGB">
<feFlood flood-opacity="0" result="BackgroundImageFix"/>
<feBlend mode="normal" in="SourceGraphic" in2="BackgroundImageFix" result="shape"/>
<feColorMatrix in="SourceAlpha" type="matrix" values="0 0 0 0 0 0 0 0 0 0 0 0 0 0 0 0 0 0 127 0" result="hardAlpha"/>
<feOffset dy="-0.75"/>
<feGaussianBlur stdDeviation="0.75"/>
<feComposite in2="hardAlpha" operator="arithmetic" k2="-1" k3="1"/>
<feColorMatrix type="matrix" values="0 0 0 0 0.819608 0 0 0 0 0.654902 0 0 0 0 0.933333 0 0 0 1 0"/>
<feBlend mode="normal" in2="shape" result="effect1_innerShadow_1785_9548"/>
</filter>
<filter id="filter1_ii_1785_9548" x="1.85547" y="4.49282" width="22.5977" height="9.16489" filterUnits="userSpaceOnUse" color-interpolation-filters="sRGB">
<feFlood flood-opacity="0" result="BackgroundImageFix"/>
<feBlend mode="normal" in="SourceGraphic" in2="BackgroundImageFix" result="shape"/>
<feColorMatrix in="SourceAlpha" type="matrix" values="0 0 0 0 0 0 0 0 0 0 0 0 0 0 0 0 0 0 127 0" result="hardAlpha"/>
<feOffset dy="-0.15"/>
<feGaussianBlur stdDeviation="0.225"/>
<feComposite in2="hardAlpha" operator="arithmetic" k2="-1" k3="1"/>
<feColorMatrix type="matrix" values="0 0 0 0 0.827451 0 0 0 0 0.686275 0 0 0 0 0.913725 0 0 0 1 0"/>
<feBlend mode="normal" in2="shape" result="effect1_innerShadow_1785_9548"/>
<feColorMatrix in="SourceAlpha" type="matrix" values="0 0 0 0 0 0 0 0 0 0 0 0 0 0 0 0 0 0 127 0" result="hardAlpha"/>
<feOffset dy="0.25"/>
<feGaussianBlur stdDeviation="0.3"/>
<feComposite in2="hardAlpha" operator="arithmetic" k2="-1" k3="1"/>
<feColorMatrix type="matrix" values="0 0 0 0 0.870588 0 0 0 0 0.858824 0 0 0 0 0.854902 0 0 0 1 0"/>
<feBlend mode="normal" in2="effect1_innerShadow_1785_9548" result="effect2_innerShadow_1785_9548"/>
</filter>
<linearGradient id="paint0_linear_1785_9548" x1="3.48047" y1="13.6819" x2="24.4531" y2="13.5295" gradientUnits="userSpaceOnUse">
<stop stop-color="#DFD0E6"/>
<stop offset="1" stop-color="#EEE5F8"/>
</linearGradient>
<linearGradient id="paint1_linear_1785_9548" x1="1.85547" y1="13.6321" x2="4.32401" y2="13.6321" gradientUnits="userSpaceOnUse">
<stop stop-color="#D6BABD"/>
<stop offset="1" stop-color="#DCC9DD" stop-opacity="0"/>
</linearGradient>
<linearGradient id="paint2_linear_1785_9548" x1="8.95967" y1="15.1581" x2="8.34062" y2="14.1936" gradientUnits="userSpaceOnUse">
<stop offset="0.113759" stop-color="#DAC3DF"/>
<stop offset="1" stop-color="#DAC3DF" stop-opacity="0"/>
</linearGradient>
<radialGradient id="paint3_radial_1785_9548" cx="0" cy="0" r="1" gradientUnits="userSpaceOnUse" gradientTransform="translate(10.0048 10.6142) rotate(123.69) scale(2.21425 15.5508)">
<stop offset="0.342267" stop-color="#C8A6D7"/>
<stop offset="1" stop-color="#D1BBDD" stop-opacity="0"/>
</radialGradient>
<linearGradient id="paint4_linear_1785_9548" x1="17.293" y1="15.4084" x2="17.968" y2="14.1936" gradientUnits="userSpaceOnUse">
<stop offset="0.113759" stop-color="#F6EFFE"/>
<stop offset="1" stop-color="#F3EAFD" stop-opacity="0"/>
</linearGradient>
<linearGradient id="paint5_linear_1785_9548" x1="16.5313" y1="11.0667" x2="17.3945" y2="12.2346" gradientUnits="userSpaceOnUse">
<stop stop-color="#E3CDF7"/>
<stop offset="1" stop-color="#E9D9F8" stop-opacity="0"/>
</linearGradient>
<linearGradient id="paint6_linear_1785_9548" x1="24.6055" y1="15.637" x2="21.584" y2="15.637" gradientUnits="userSpaceOnUse">
<stop stop-color="#F7F3FB"/>
<stop offset="1" stop-color="#F0E9F8" stop-opacity="0"/>
</linearGradient>
<linearGradient id="paint7_linear_1785_9548" x1="24.6055" y1="15.637" x2="23.6099" y2="15.637" gradientUnits="userSpaceOnUse">
<stop offset="0.199295" stop-color="#EBE9ED"/>
<stop offset="1" stop-color="#EBE9ED" stop-opacity="0"/>
</linearGradient>
<linearGradient id="paint8_linear_1785_9548" x1="13.1543" y1="22.2639" x2="13.1543" y2="13.4788" gradientUnits="userSpaceOnUse">
<stop stop-color="#DDC5F1"/>
<stop offset="1" stop-color="#E6DAF1"/>
</linearGradient>
<linearGradient id="paint9_linear_1785_9548" x1="6.23675" y1="16.0789" x2="6.60751" y2="16.635" gradientUnits="userSpaceOnUse">
<stop offset="0.0734082" stop-color="#DDC2C8"/>
<stop offset="1" stop-color="#DFCDDA" stop-opacity="0"/>
</linearGradient>
<linearGradient id="paint10_linear_1785_9548" x1="18.5012" y1="15.3088" x2="18.2682" y2="15.6723" gradientUnits="userSpaceOnUse">
<stop offset="0.139796" stop-color="#F8F3FD"/>
<stop offset="1" stop-color="#F1EAF9" stop-opacity="0"/>
</linearGradient>
<linearGradient id="paint11_linear_1785_9548" x1="13.1543" y1="4.64282" x2="13.1543" y2="13.4076" gradientUnits="userSpaceOnUse">
<stop stop-color="#E9E4E9"/>
<stop offset="1" stop-color="#E7DCF0"/>
</linearGradient>
<linearGradient id="paint12_linear_1785_9548" x1="8.12468" y1="10.2058" x2="11.0616" y2="4.93666" gradientUnits="userSpaceOnUse">
<stop stop-color="#E1D5E7"/>
<stop offset="1" stop-color="#E1D5E7" stop-opacity="0"/>
</linearGradient>
<linearGradient id="paint13_linear_1785_9548" x1="1.85547" y1="5.9732" x2="4.23763" y2="5.9732" gradientUnits="userSpaceOnUse">
<stop stop-color="#E1C1BC"/>
<stop offset="1" stop-color="#E1C1BC" stop-opacity="0"/>
<stop offset="1" stop-color="#E9D1CD" stop-opacity="0"/>
</linearGradient>
<radialGradient id="paint14_radial_1785_9548" cx="0" cy="0" r="1" gradientUnits="userSpaceOnUse" gradientTransform="translate(22.4635 7.95991) rotate(-138.233) scale(4.97986 22.0658)">
<stop stop-color="#FBF9FE"/>
<stop offset="1" stop-color="#F0ECF1" stop-opacity="0"/>
</radialGradient>
</defs>
</svg>
