<svg width="40" height="40" viewBox="0 0 40 40" fill="none" xmlns="http://www.w3.org/2000/svg">
<path d="M31.1146 19.3691C26.4896 17.0566 20.6271 18.9816 18.2021 23.7566L17.7646 24.6066C17.6563 24.815 17.6758 25.0511 17.7934 25.2335C17.6244 25.3444 17.5146 25.5355 17.5146 25.7566V26.7066C17.5146 32.0566 21.8646 36.4316 27.0271 36.4691L33.4646 36.4816C33.7896 36.4816 34.0396 36.2066 34.0271 35.8816C33.8707 32.9027 32.5581 30.2121 30.5302 28.2678C33.2108 27.4493 35.5914 25.6473 37.0771 23.0691C37.2396 22.7816 37.1396 22.4316 36.8521 22.2816L31.1146 19.3691Z" fill="url(#paint0_linear_174_1239)"/>
<path d="M31.1146 19.3691C26.4896 17.0566 20.6271 18.9816 18.2021 23.7566L17.7646 24.6066C17.6563 24.815 17.6758 25.0511 17.7934 25.2335C17.6244 25.3444 17.5146 25.5355 17.5146 25.7566V26.7066C17.5146 32.0566 21.8646 36.4316 27.0271 36.4691L33.4646 36.4816C33.7896 36.4816 34.0396 36.2066 34.0271 35.8816C33.8707 32.9027 32.5581 30.2121 30.5302 28.2678C33.2108 27.4493 35.5914 25.6473 37.0771 23.0691C37.2396 22.7816 37.1396 22.4316 36.8521 22.2816L31.1146 19.3691Z" fill="url(#paint1_radial_174_1239)"/>
<path d="M30.5311 28.2688H25.2402V18.5445C27.1959 18.1946 29.2552 18.4394 31.1146 19.3691L36.852 22.2816C37.1396 22.4316 37.2396 22.7816 37.0771 23.0691C35.5913 25.6473 33.2107 27.4493 30.5302 28.2678L30.5311 28.2688Z" fill="#589550"/>
<path d="M30.5311 28.2688H25.2402V18.5445C27.1959 18.1946 29.2552 18.4394 31.1146 19.3691L36.852 22.2816C37.1396 22.4316 37.2396 22.7816 37.0771 23.0691C35.5913 25.6473 33.2107 27.4493 30.5302 28.2678L30.5311 28.2688Z" fill="url(#paint2_radial_174_1239)"/>
<path d="M30.5311 28.2688H25.2402V18.5445C27.1959 18.1946 29.2552 18.4394 31.1146 19.3691L36.852 22.2816C37.1396 22.4316 37.2396 22.7816 37.0771 23.0691C35.5913 25.6473 33.2107 27.4493 30.5302 28.2678L30.5311 28.2688Z" fill="url(#paint3_radial_174_1239)"/>
<path d="M30.6895 10.1612C28.727 9.11254 26.502 9.12502 24.627 9.98645C24.8145 7.96397 24.127 5.87908 22.527 4.38095C19.777 1.80916 15.452 1.94649 12.8645 4.69306C11.3895 6.2661 10.827 8.35099 11.1145 10.336C9.23954 9.68682 7.08954 9.8616 5.27704 10.9852C2.07704 12.9702 1.08954 17.1775 3.07704 20.386C4.08954 22.0214 5.68954 23.0701 7.42704 23.4446C6.53954 24.8928 6.18954 26.6781 6.58954 28.4634C7.40204 32.1463 11.052 34.4684 14.7395 33.6444C16.402 33.2823 17.7895 32.3335 18.727 31.0601C19.777 32.2586 21.252 33.1076 22.9645 33.3448C26.702 33.8441 30.1395 31.2224 30.652 27.4896C30.8895 25.7293 30.427 24.0314 29.477 22.6831C31.1395 22.1712 32.6145 21.0351 33.502 19.3747C35.277 16.0664 34.0145 11.934 30.6895 10.1612Z" fill="url(#paint4_linear_174_1239)"/>
<path d="M30.6895 10.1612C28.727 9.11254 26.502 9.12502 24.627 9.98645C24.8145 7.96397 24.127 5.87908 22.527 4.38095C19.777 1.80916 15.452 1.94649 12.8645 4.69306C11.3895 6.2661 10.827 8.35099 11.1145 10.336C9.23954 9.68682 7.08954 9.8616 5.27704 10.9852C2.07704 12.9702 1.08954 17.1775 3.07704 20.386C4.08954 22.0214 5.68954 23.0701 7.42704 23.4446C6.53954 24.8928 6.18954 26.6781 6.58954 28.4634C7.40204 32.1463 11.052 34.4684 14.7395 33.6444C16.402 33.2823 17.7895 32.3335 18.727 31.0601C19.777 32.2586 21.252 33.1076 22.9645 33.3448C26.702 33.8441 30.1395 31.2224 30.652 27.4896C30.8895 25.7293 30.427 24.0314 29.477 22.6831C31.1395 22.1712 32.6145 21.0351 33.502 19.3747C35.277 16.0664 34.0145 11.934 30.6895 10.1612Z" fill="url(#paint5_radial_174_1239)"/>
<g filter="url(#filter0_f_174_1239)">
<path d="M29.7455 10.7368C27.931 9.76598 25.8738 9.77754 24.1402 10.575C24.3136 8.70271 23.6779 6.77265 22.1986 5.38577C19.656 3.00497 15.6572 3.1321 13.2648 5.6747C11.9011 7.13092 11.381 9.06099 11.6468 10.8986C9.9132 10.2976 7.92535 10.4594 6.24954 11.4996C3.29088 13.3372 2.37785 17.232 4.21546 20.2022C5.1516 21.7162 7.27029 22.4023 8.87675 22.749C8.05619 24.0896 7.09323 26.0271 7.46306 27.6798C8.21428 31.0892 11.589 33.2388 14.9984 32.4761C16.5355 32.1409 17.8184 31.2625 18.6852 30.0837C19.656 31.1932 21.0198 31.9791 22.6031 32.1987C26.0587 32.661 29.237 30.2339 29.7108 26.7783C29.9304 25.1487 29.5028 23.5769 28.6245 22.3288C30.1616 21.8549 31.5253 20.8032 32.3459 19.2661C33.987 16.2034 32.8198 12.3779 29.7455 10.7368Z" fill="url(#paint6_radial_174_1239)"/>
</g>
<g filter="url(#filter1_f_174_1239)">
<path d="M18.6523 25.2734V30.3906C24.2773 35.5078 30.1367 29.5312 29.5898 25.2734C29.1523 21.8672 26.4909 20.7292 25.2148 20.5859L18.6523 25.2734Z" fill="url(#paint7_linear_174_1239)"/>
</g>
<g filter="url(#filter2_f_174_1239)">
<path d="M21.9749 12.8988C21.8754 12.8927 21.7872 12.8313 21.747 12.7401C20.9952 11.032 19.2878 9.83936 17.3018 9.83936C15.2754 9.83936 13.5391 11.081 12.8119 12.845C12.7746 12.9355 12.6901 12.9985 12.5927 13.0086C10.1494 13.2615 8.24414 15.3267 8.24414 17.8369C8.24414 19.3409 8.92817 20.6851 10.002 21.5755C10.0778 21.6383 10.1128 21.7381 10.0929 21.8346C10.0271 22.1532 9.99244 22.4833 9.99244 22.8214C9.99244 25.5024 12.1658 27.6757 14.8468 27.6757C15.8092 27.6757 16.7062 27.3956 17.4608 26.9125C17.5443 26.859 17.651 26.8564 17.7371 26.9057C18.4473 27.3128 19.2701 27.5455 20.1474 27.5455C22.8284 27.5455 25.0018 25.3722 25.0018 22.6912C25.0018 22.3086 24.9575 21.9363 24.8738 21.5791C24.8519 21.4855 24.8822 21.387 24.9531 21.322C25.9204 20.4346 26.5269 19.1601 26.5269 17.7439C26.5269 15.1645 24.515 13.0549 21.9749 12.8988Z" fill="#F03EBD"/>
</g>
<path d="M22.988 12.1577C22.8885 12.1517 22.8002 12.0903 22.7602 11.999C21.9725 10.2012 20.1773 8.94531 18.0889 8.94531C15.9581 8.94531 14.1326 10.2527 13.3709 12.1091C13.3337 12.1997 13.2492 12.2627 13.1517 12.2726C10.5821 12.5345 8.57715 14.705 8.57715 17.3438C8.57715 18.926 9.29812 20.3399 10.4294 21.2749C10.5052 21.3377 10.5403 21.4375 10.5202 21.5339C10.45 21.871 10.4131 22.2202 10.4131 22.5781C10.4131 25.3935 12.6954 27.6758 15.5107 27.6758C16.5243 27.6758 17.4689 27.3799 18.2627 26.8699C18.3462 26.8163 18.4528 26.8137 18.5388 26.8631C19.2862 27.2931 20.1529 27.5391 21.0771 27.5391C23.8925 27.5391 26.1748 25.2568 26.1748 22.4414C26.1748 22.0368 26.1277 21.6433 26.0386 21.2659C26.0165 21.1723 26.0469 21.0738 26.1178 21.0089C27.1371 20.0768 27.7764 18.7361 27.7764 17.2461C27.7764 14.5346 25.6593 12.3176 22.988 12.1577Z" fill="#EA2195"/>
<g filter="url(#filter3_f_174_1239)">
<path d="M22.484 12.826C22.3845 12.8197 22.2963 12.7583 22.2559 12.6672C21.55 11.0731 19.954 9.96094 18.0984 9.96094C16.2048 9.96094 14.5817 11.119 13.8987 12.7655C13.8611 12.856 13.7767 12.9189 13.6793 12.9292C11.3967 13.1707 9.61816 15.1019 9.61816 17.4486C9.61816 18.853 10.2552 20.1086 11.256 20.9423C11.3316 21.0053 11.3666 21.105 11.3469 21.2015C11.2867 21.4967 11.255 21.8023 11.255 22.1153C11.255 24.6254 13.2898 26.6602 15.7998 26.6602C16.6972 26.6602 17.5338 26.4001 18.2384 25.9512C18.3221 25.8979 18.4287 25.8953 18.5149 25.9444C19.1778 26.3223 19.9449 26.5383 20.7626 26.5383C23.2726 26.5383 25.3074 24.5035 25.3074 21.9934C25.3074 21.6387 25.2668 21.2934 25.1899 20.962C25.1682 20.8683 25.1985 20.7699 25.2692 20.7047C26.1706 19.8742 26.7353 18.6838 26.7353 17.3615C26.7353 14.9501 24.8572 12.9773 22.484 12.826Z" fill="url(#paint8_radial_174_1239)"/>
</g>
<g filter="url(#filter4_f_174_1239)">
<path d="M17.5197 18.3594L11.3282 20.8789C10.6511 20.3451 9.90229 18.7305 9.90234 16.6602C9.9024 14.1631 12.0509 12.9427 13.2228 12.6953L17.5197 18.3594Z" fill="url(#paint9_linear_174_1239)"/>
</g>
<g filter="url(#filter5_f_174_1239)">
<path d="M18.3789 19.4922V26.2891C19.2513 26.9922 21.5664 27.9766 23.8477 26.2891C26.1289 24.6016 25.8138 21.0547 25.3711 19.4922H18.3789Z" fill="url(#paint10_linear_174_1239)"/>
</g>
<g filter="url(#filter6_f_174_1239)">
<path d="M17.9684 21.0044C19.4298 21.0044 20.6145 19.8197 20.6145 18.3583C20.6145 16.8969 19.4298 15.7122 17.9684 15.7122C16.507 15.7122 15.3223 16.8969 15.3223 18.3583C15.3223 19.8197 16.507 21.0044 17.9684 21.0044Z" fill="#E52A8A"/>
</g>
<path d="M18.1768 20.5942C19.523 20.5942 20.6143 19.5029 20.6143 18.1567C20.6143 16.8105 19.523 15.7192 18.1768 15.7192C16.8306 15.7192 15.7393 16.8105 15.7393 18.1567C15.7393 19.5029 16.8306 20.5942 18.1768 20.5942Z" fill="url(#paint11_radial_174_1239)"/>
<path d="M18.1768 20.5942C19.523 20.5942 20.6143 19.5029 20.6143 18.1567C20.6143 16.8105 19.523 15.7192 18.1768 15.7192C16.8306 15.7192 15.7393 16.8105 15.7393 18.1567C15.7393 19.5029 16.8306 20.5942 18.1768 20.5942Z" fill="url(#paint12_radial_174_1239)"/>
<path d="M18.1148 18.8442C17.9398 18.8442 17.7648 18.7692 17.6398 18.6317L12.9148 13.2192C12.6898 12.9567 12.7148 12.5567 12.9773 12.3317C13.2398 12.1067 13.6273 12.1317 13.8648 12.3942L18.6023 17.8067C18.8273 18.0692 18.8023 18.4567 18.5398 18.6942C18.4148 18.7817 18.2648 18.8442 18.1148 18.8442Z" fill="url(#paint13_linear_174_1239)"/>
<circle cx="12.6192" cy="11.9386" r="0.709062" fill="url(#paint14_radial_174_1239)"/>
<circle cx="14.1466" cy="11.993" r="0.709062" fill="url(#paint15_radial_174_1239)"/>
<circle cx="14.8888" cy="13.3565" r="0.709062" fill="url(#paint16_radial_174_1239)"/>
<circle cx="13.6778" cy="14.3165" r="0.709062" fill="url(#paint17_radial_174_1239)"/>
<circle cx="12.4942" cy="13.4603" r="0.709062" fill="url(#paint18_radial_174_1239)"/>
<g filter="url(#filter7_f_174_1239)">
<path d="M25.4687 21.2109C25.6771 22.4479 25.7227 24.9219 23.2227 26.1719" stroke="url(#paint19_linear_174_1239)" stroke-width="0.4" stroke-linecap="round"/>
</g>
<g filter="url(#filter8_f_174_1239)">
<path d="M22.1289 12.4219C21.9336 11.4323 20.4883 9.49221 17.8711 9.62893" stroke="url(#paint20_linear_174_1239)" stroke-width="0.4" stroke-linecap="round"/>
</g>
<g filter="url(#filter9_f_174_1239)">
<path d="M24.2969 13.0859C25.6836 13.4961 28.1016 15.3008 26.6797 19.2383" stroke="url(#paint21_radial_174_1239)" stroke-width="0.3" stroke-linecap="round"/>
</g>
<g filter="url(#filter10_f_174_1239)">
<path d="M4.16016 13.2812C5.1237 11.927 8.00391 9.67181 11.8164 11.4843" stroke="url(#paint22_linear_174_1239)" stroke-width="0.4" stroke-linecap="round"/>
</g>
<g filter="url(#filter11_f_174_1239)">
<path d="M17.6758 3.20303C19.707 3.17699 23.793 4.42959 23.8867 9.64834" stroke="url(#paint23_radial_174_1239)" stroke-width="0.4" stroke-linecap="round"/>
</g>
<g filter="url(#filter12_f_174_1239)">
<path d="M29.3945 10.2734C31.2565 10.8073 34.9414 14.2188 33.1055 19.2578" stroke="url(#paint24_radial_174_1239)" stroke-width="0.4" stroke-linecap="round"/>
</g>
<g filter="url(#filter13_f_174_1239)">
<path d="M28.0273 22.3438C28.7305 23.099 29.9414 24.6328 29.6289 27.3828C29.3164 30.1328 26.7773 31.4323 25.6055 31.7969" stroke="url(#paint25_linear_174_1239)" stroke-width="0.4" stroke-linecap="round"/>
</g>
<g filter="url(#filter14_f_174_1239)">
<path d="M13.6914 32.4609C14.694 32.4479 17.0195 31.9141 18.3008 29.8828" stroke="url(#paint26_linear_174_1239)" stroke-width="0.4" stroke-linecap="round"/>
</g>
<g filter="url(#filter15_f_174_1239)">
<path d="M15.3711 14.8047L18.2227 18.0859" stroke="url(#paint27_linear_174_1239)" stroke-width="0.2" stroke-linecap="round"/>
</g>
<g filter="url(#filter16_f_174_1239)">
<path d="M30.5332 28.7969C31.4845 29.8042 33.414 32.5977 33.5215 35.7136" stroke="url(#paint28_linear_174_1239)" stroke-width="0.3" stroke-linecap="round"/>
</g>
<g filter="url(#filter17_f_174_1239)">
<path d="M32.959 20.7812L36.748 22.6953" stroke="url(#paint29_linear_174_1239)" stroke-opacity="0.6" stroke-width="0.2" stroke-linecap="round"/>
</g>
<defs>
<filter id="filter0_f_174_1239" x="2.7666" y="3.18066" width="30.8232" height="29.9492" filterUnits="userSpaceOnUse" color-interpolation-filters="sRGB">
<feFlood flood-opacity="0" result="BackgroundImageFix"/>
<feBlend mode="normal" in="SourceGraphic" in2="BackgroundImageFix" result="shape"/>
<feGaussianBlur stdDeviation="0.25" result="effect1_foregroundBlur_174_1239"/>
</filter>
<filter id="filter1_f_174_1239" x="18.1523" y="20.0859" width="11.9727" height="12.7759" filterUnits="userSpaceOnUse" color-interpolation-filters="sRGB">
<feFlood flood-opacity="0" result="BackgroundImageFix"/>
<feBlend mode="normal" in="SourceGraphic" in2="BackgroundImageFix" result="shape"/>
<feGaussianBlur stdDeviation="0.25" result="effect1_foregroundBlur_174_1239"/>
</filter>
<filter id="filter2_f_174_1239" x="7.24414" y="8.83936" width="20.2832" height="19.8364" filterUnits="userSpaceOnUse" color-interpolation-filters="sRGB">
<feFlood flood-opacity="0" result="BackgroundImageFix"/>
<feBlend mode="normal" in="SourceGraphic" in2="BackgroundImageFix" result="shape"/>
<feGaussianBlur stdDeviation="0.5" result="effect1_foregroundBlur_174_1239"/>
</filter>
<filter id="filter3_f_174_1239" x="9.36816" y="9.71094" width="17.6172" height="17.1992" filterUnits="userSpaceOnUse" color-interpolation-filters="sRGB">
<feFlood flood-opacity="0" result="BackgroundImageFix"/>
<feBlend mode="normal" in="SourceGraphic" in2="BackgroundImageFix" result="shape"/>
<feGaussianBlur stdDeviation="0.125" result="effect1_foregroundBlur_174_1239"/>
</filter>
<filter id="filter4_f_174_1239" x="9.40234" y="12.1953" width="8.61719" height="9.18359" filterUnits="userSpaceOnUse" color-interpolation-filters="sRGB">
<feFlood flood-opacity="0" result="BackgroundImageFix"/>
<feBlend mode="normal" in="SourceGraphic" in2="BackgroundImageFix" result="shape"/>
<feGaussianBlur stdDeviation="0.25" result="effect1_foregroundBlur_174_1239"/>
</filter>
<filter id="filter5_f_174_1239" x="18.1289" y="19.2422" width="7.80664" height="8.22852" filterUnits="userSpaceOnUse" color-interpolation-filters="sRGB">
<feFlood flood-opacity="0" result="BackgroundImageFix"/>
<feBlend mode="normal" in="SourceGraphic" in2="BackgroundImageFix" result="shape"/>
<feGaussianBlur stdDeviation="0.125" result="effect1_foregroundBlur_174_1239"/>
</filter>
<filter id="filter6_f_174_1239" x="14.8223" y="15.2122" width="6.29199" height="6.29224" filterUnits="userSpaceOnUse" color-interpolation-filters="sRGB">
<feFlood flood-opacity="0" result="BackgroundImageFix"/>
<feBlend mode="normal" in="SourceGraphic" in2="BackgroundImageFix" result="shape"/>
<feGaussianBlur stdDeviation="0.25" result="effect1_foregroundBlur_174_1239"/>
</filter>
<filter id="filter7_f_174_1239" x="22.6225" y="20.611" width="3.53438" height="6.16084" filterUnits="userSpaceOnUse" color-interpolation-filters="sRGB">
<feFlood flood-opacity="0" result="BackgroundImageFix"/>
<feBlend mode="normal" in="SourceGraphic" in2="BackgroundImageFix" result="shape"/>
<feGaussianBlur stdDeviation="0.2" result="effect1_foregroundBlur_174_1239"/>
</filter>
<filter id="filter8_f_174_1239" x="17.2709" y="9.02212" width="5.4582" height="3.99971" filterUnits="userSpaceOnUse" color-interpolation-filters="sRGB">
<feFlood flood-opacity="0" result="BackgroundImageFix"/>
<feBlend mode="normal" in="SourceGraphic" in2="BackgroundImageFix" result="shape"/>
<feGaussianBlur stdDeviation="0.2" result="effect1_foregroundBlur_174_1239"/>
</filter>
<filter id="filter9_f_174_1239" x="23.8465" y="12.6358" width="3.71621" height="7.05264" filterUnits="userSpaceOnUse" color-interpolation-filters="sRGB">
<feFlood flood-opacity="0" result="BackgroundImageFix"/>
<feBlend mode="normal" in="SourceGraphic" in2="BackgroundImageFix" result="shape"/>
<feGaussianBlur stdDeviation="0.15" result="effect1_foregroundBlur_174_1239"/>
</filter>
<filter id="filter10_f_174_1239" x="3.55996" y="10.2069" width="8.85664" height="3.67427" filterUnits="userSpaceOnUse" color-interpolation-filters="sRGB">
<feFlood flood-opacity="0" result="BackgroundImageFix"/>
<feBlend mode="normal" in="SourceGraphic" in2="BackgroundImageFix" result="shape"/>
<feGaussianBlur stdDeviation="0.2" result="effect1_foregroundBlur_174_1239"/>
</filter>
<filter id="filter11_f_174_1239" x="17.0756" y="2.60269" width="7.41133" height="7.6457" filterUnits="userSpaceOnUse" color-interpolation-filters="sRGB">
<feFlood flood-opacity="0" result="BackgroundImageFix"/>
<feBlend mode="normal" in="SourceGraphic" in2="BackgroundImageFix" result="shape"/>
<feGaussianBlur stdDeviation="0.2" result="effect1_foregroundBlur_174_1239"/>
</filter>
<filter id="filter12_f_174_1239" x="28.7943" y="9.67349" width="5.41035" height="10.1843" filterUnits="userSpaceOnUse" color-interpolation-filters="sRGB">
<feFlood flood-opacity="0" result="BackgroundImageFix"/>
<feBlend mode="normal" in="SourceGraphic" in2="BackgroundImageFix" result="shape"/>
<feGaussianBlur stdDeviation="0.2" result="effect1_foregroundBlur_174_1239"/>
</filter>
<filter id="filter13_f_174_1239" x="25.0053" y="21.7438" width="5.27461" height="10.653" filterUnits="userSpaceOnUse" color-interpolation-filters="sRGB">
<feFlood flood-opacity="0" result="BackgroundImageFix"/>
<feBlend mode="normal" in="SourceGraphic" in2="BackgroundImageFix" result="shape"/>
<feGaussianBlur stdDeviation="0.2" result="effect1_foregroundBlur_174_1239"/>
</filter>
<filter id="filter14_f_174_1239" x="13.0912" y="29.2829" width="5.80977" height="3.77803" filterUnits="userSpaceOnUse" color-interpolation-filters="sRGB">
<feFlood flood-opacity="0" result="BackgroundImageFix"/>
<feBlend mode="normal" in="SourceGraphic" in2="BackgroundImageFix" result="shape"/>
<feGaussianBlur stdDeviation="0.2" result="effect1_foregroundBlur_174_1239"/>
</filter>
<filter id="filter15_f_174_1239" x="15.0715" y="14.5046" width="3.45078" height="3.88145" filterUnits="userSpaceOnUse" color-interpolation-filters="sRGB">
<feFlood flood-opacity="0" result="BackgroundImageFix"/>
<feBlend mode="normal" in="SourceGraphic" in2="BackgroundImageFix" result="shape"/>
<feGaussianBlur stdDeviation="0.1" result="effect1_foregroundBlur_174_1239"/>
</filter>
<filter id="filter16_f_174_1239" x="29.9828" y="28.247" width="4.08906" height="8.01655" filterUnits="userSpaceOnUse" color-interpolation-filters="sRGB">
<feFlood flood-opacity="0" result="BackgroundImageFix"/>
<feBlend mode="normal" in="SourceGraphic" in2="BackgroundImageFix" result="shape"/>
<feGaussianBlur stdDeviation="0.2" result="effect1_foregroundBlur_174_1239"/>
</filter>
<filter id="filter17_f_174_1239" x="32.6594" y="20.4812" width="4.38828" height="2.51426" filterUnits="userSpaceOnUse" color-interpolation-filters="sRGB">
<feFlood flood-opacity="0" result="BackgroundImageFix"/>
<feBlend mode="normal" in="SourceGraphic" in2="BackgroundImageFix" result="shape"/>
<feGaussianBlur stdDeviation="0.1" result="effect1_foregroundBlur_174_1239"/>
</filter>
<linearGradient id="paint0_linear_174_1239" x1="30.0302" y1="35.6465" x2="27.3348" y2="28.3269" gradientUnits="userSpaceOnUse">
<stop stop-color="#76A04A"/>
<stop offset="0.930605" stop-color="#567343"/>
</linearGradient>
<radialGradient id="paint1_radial_174_1239" cx="0" cy="0" r="1" gradientUnits="userSpaceOnUse" gradientTransform="translate(31.3732 28.5955) rotate(118.61) scale(5.0485 8.17593)">
<stop stop-color="#5C9452"/>
<stop offset="1" stop-color="#5C9452" stop-opacity="0"/>
</radialGradient>
<radialGradient id="paint2_radial_174_1239" cx="0" cy="0" r="1" gradientUnits="userSpaceOnUse" gradientTransform="translate(31.1976 20.9766) rotate(82.8037) scale(6.81147 9.89379)">
<stop offset="0.658881" stop-color="#4D844D" stop-opacity="0"/>
<stop offset="1" stop-color="#4D844D"/>
</radialGradient>
<radialGradient id="paint3_radial_174_1239" cx="0" cy="0" r="1" gradientUnits="userSpaceOnUse" gradientTransform="translate(28.6133 23.0078) rotate(42.3102) scale(4.12012 5.98456)">
<stop stop-color="#4D844D"/>
<stop offset="1" stop-color="#4D844D" stop-opacity="0"/>
</radialGradient>
<linearGradient id="paint4_linear_174_1239" x1="6.04097" y1="28.5589" x2="49.2052" y2="-0.163554" gradientUnits="userSpaceOnUse">
<stop stop-color="#FE65D5"/>
<stop offset="1" stop-color="#FF7CD0"/>
</linearGradient>
<radialGradient id="paint5_radial_174_1239" cx="0" cy="0" r="1" gradientUnits="userSpaceOnUse" gradientTransform="translate(11.0352 5.50411) rotate(18.1169) scale(2.3838 9.17127)">
<stop stop-color="#FF9BD8"/>
<stop offset="1" stop-color="#FF9BD8" stop-opacity="0"/>
</radialGradient>
<radialGradient id="paint6_radial_174_1239" cx="0" cy="0" r="1" gradientUnits="userSpaceOnUse" gradientTransform="translate(9.88035 31.9559) rotate(-52.0378) scale(21.3081 54.0616)">
<stop stop-color="#FF83E8"/>
<stop offset="1" stop-color="#FF67D9"/>
</radialGradient>
<linearGradient id="paint7_linear_174_1239" x1="19.043" y1="28.3984" x2="26.4258" y2="28.3984" gradientUnits="userSpaceOnUse">
<stop stop-color="#F058C6"/>
<stop offset="1" stop-color="#F058C6" stop-opacity="0"/>
</linearGradient>
<radialGradient id="paint8_radial_174_1239" cx="0" cy="0" r="1" gradientUnits="userSpaceOnUse" gradientTransform="translate(15.566 22.4219) rotate(-54.4623) scale(14.7852 28.899)">
<stop stop-color="#ED49A5"/>
<stop offset="1" stop-color="#ED4AA5" stop-opacity="0"/>
</radialGradient>
<linearGradient id="paint9_linear_174_1239" x1="15.293" y1="19.7266" x2="12.168" y2="12.6953" gradientUnits="userSpaceOnUse">
<stop stop-color="#E73790"/>
<stop offset="1" stop-color="#ED3FA3" stop-opacity="0"/>
</linearGradient>
<linearGradient id="paint10_linear_174_1239" x1="18.3789" y1="23.75" x2="24.1211" y2="23.3565" gradientUnits="userSpaceOnUse">
<stop stop-color="#E32D95"/>
<stop offset="1" stop-color="#E32D95" stop-opacity="0"/>
</linearGradient>
<radialGradient id="paint11_radial_174_1239" cx="0" cy="0" r="1" gradientUnits="userSpaceOnUse" gradientTransform="translate(19.5505 17.4804) rotate(151.213) scale(2.02796 1.99146)">
<stop stop-color="#FFEF81"/>
<stop offset="1" stop-color="#FFC94C"/>
</radialGradient>
<radialGradient id="paint12_radial_174_1239" cx="0" cy="0" r="1" gradientUnits="userSpaceOnUse" gradientTransform="translate(17.5058 17.4649) rotate(-119.985) scale(2.01546 1.33172)">
<stop stop-color="#F5C72A"/>
<stop offset="1" stop-color="#F5C72A" stop-opacity="0"/>
</radialGradient>
<linearGradient id="paint13_linear_174_1239" x1="13.8088" y1="13.1251" x2="18.7553" y2="18.8442" gradientUnits="userSpaceOnUse">
<stop stop-color="#FFB236"/>
<stop offset="1" stop-color="#FFE646"/>
</linearGradient>
<radialGradient id="paint14_radial_174_1239" cx="0" cy="0" r="1" gradientUnits="userSpaceOnUse" gradientTransform="translate(13.0188 11.7418) rotate(151.213) scale(0.589928 0.579309)">
<stop stop-color="#FFEF81"/>
<stop offset="1" stop-color="#FFC94C"/>
</radialGradient>
<radialGradient id="paint15_radial_174_1239" cx="0" cy="0" r="1" gradientUnits="userSpaceOnUse" gradientTransform="translate(14.5462 11.7963) rotate(151.213) scale(0.589928 0.579309)">
<stop stop-color="#FFEF81"/>
<stop offset="1" stop-color="#FFC94C"/>
</radialGradient>
<radialGradient id="paint16_radial_174_1239" cx="0" cy="0" r="1" gradientUnits="userSpaceOnUse" gradientTransform="translate(15.2884 13.1598) rotate(151.213) scale(0.589928 0.579309)">
<stop stop-color="#FFEF81"/>
<stop offset="1" stop-color="#FFC94C"/>
</radialGradient>
<radialGradient id="paint17_radial_174_1239" cx="0" cy="0" r="1" gradientUnits="userSpaceOnUse" gradientTransform="translate(14.0774 14.1197) rotate(151.213) scale(0.589928 0.579309)">
<stop stop-color="#FFEF81"/>
<stop offset="1" stop-color="#FFC94C"/>
</radialGradient>
<radialGradient id="paint18_radial_174_1239" cx="0" cy="0" r="1" gradientUnits="userSpaceOnUse" gradientTransform="translate(12.8938 13.2635) rotate(151.213) scale(0.589928 0.579309)">
<stop stop-color="#FFEF81"/>
<stop offset="1" stop-color="#FFC94C"/>
</radialGradient>
<linearGradient id="paint19_linear_174_1239" x1="26.1133" y1="22.0312" x2="22.6562" y2="28.4961" gradientUnits="userSpaceOnUse">
<stop stop-color="#FF78BC"/>
<stop offset="1" stop-color="#FF78BC" stop-opacity="0"/>
</linearGradient>
<linearGradient id="paint20_linear_174_1239" x1="22.7344" y1="11.543" x2="19.9266" y2="13.2377" gradientUnits="userSpaceOnUse">
<stop stop-color="#FF78BC"/>
<stop offset="1" stop-color="#FF78BC" stop-opacity="0"/>
</linearGradient>
<radialGradient id="paint21_radial_174_1239" cx="0" cy="0" r="1" gradientUnits="userSpaceOnUse" gradientTransform="translate(26.9141 14.6289) rotate(145.548) scale(2.03697 4.4395)">
<stop stop-color="#FF78BC"/>
<stop offset="1" stop-color="#FF78BC" stop-opacity="0"/>
</radialGradient>
<linearGradient id="paint22_linear_174_1239" x1="12.207" y1="11.4843" x2="3.53516" y2="13.9843" gradientUnits="userSpaceOnUse">
<stop stop-color="#FFA8E0"/>
<stop offset="1" stop-color="#FF88D5" stop-opacity="0"/>
</linearGradient>
<radialGradient id="paint23_radial_174_1239" cx="0" cy="0" r="1" gradientUnits="userSpaceOnUse" gradientTransform="translate(22.207 4.10147) rotate(97.3057) scale(3.07181 17.8102)">
<stop stop-color="#FFA8E0"/>
<stop offset="0.0001" stop-color="#FFA8E0"/>
<stop offset="1" stop-color="#FF88D5" stop-opacity="0"/>
</radialGradient>
<radialGradient id="paint24_radial_174_1239" cx="0" cy="0" r="1" gradientUnits="userSpaceOnUse" gradientTransform="translate(32.3052 11.4664) rotate(93.5507) scale(4.05156 11.512)">
<stop stop-color="#FFA8E0"/>
<stop offset="0.0001" stop-color="#FFA8E0"/>
<stop offset="1" stop-color="#FF88D5" stop-opacity="0"/>
</radialGradient>
<linearGradient id="paint25_linear_174_1239" x1="31.3477" y1="21.4844" x2="25.4715" y2="21.1762" gradientUnits="userSpaceOnUse">
<stop stop-color="#FFA8E0"/>
<stop offset="1" stop-color="#FF88D5" stop-opacity="0"/>
</linearGradient>
<linearGradient id="paint26_linear_174_1239" x1="18.536" y1="30.5879" x2="13.0338" y2="31.5041" gradientUnits="userSpaceOnUse">
<stop stop-color="#FF8FD8"/>
<stop offset="1" stop-color="#FF88D5" stop-opacity="0"/>
</linearGradient>
<linearGradient id="paint27_linear_174_1239" x1="18.6914" y1="18.0859" x2="18.6773" y2="14.7923" gradientUnits="userSpaceOnUse">
<stop stop-color="#FFEE64"/>
<stop offset="1" stop-color="#FFEE64" stop-opacity="0"/>
</linearGradient>
<linearGradient id="paint28_linear_174_1239" x1="34.0127" y1="35.7136" x2="33.9528" y2="28.7712" gradientUnits="userSpaceOnUse">
<stop stop-color="#7DAF70"/>
<stop offset="1" stop-color="#8FBF69"/>
</linearGradient>
<linearGradient id="paint29_linear_174_1239" x1="37.3709" y1="22.6953" x2="37.3673" y2="20.774" gradientUnits="userSpaceOnUse">
<stop stop-color="#7DAF70"/>
<stop offset="1" stop-color="#8FBF69" stop-opacity="0"/>
</linearGradient>
</defs>
</svg>
