<svg width="50" height="50" viewBox="0 0 50 50" fill="none" xmlns="http://www.w3.org/2000/svg">
<path d="M23.8572 40.209C23.8572 39.8596 23.9853 39.5498 24.1501 39.3423L26.0422 36.4431C26.425 35.9508 26.4429 35.4328 26.1399 34.8928L22.258 27.2146C21.9231 26.6111 22.153 26.2884 22.3923 26.0183C23.0959 25.2242 24.4919 23.3694 25.0335 22.6766L26.0222 21.422C26.3731 20.9932 26.4528 20.4057 26.2614 19.8816C25.485 17.8048 24.5758 15.321 23.7227 12.9937C23.4341 12.2062 23.1762 11.3086 22.5754 10.7473C21.4185 9.66662 19.3309 8.53484 17.733 8.25569C6.66965 5.90111 2.46404 15.594 3.95967 23.345C6.13253 32.8542 16.4109 42.3269 22.6487 45.4702C23.3507 45.824 23.8205 45.5626 23.8205 44.988L23.8572 40.209Z" fill="url(#paint0_linear_185_5271)"/>
<path d="M23.8572 40.209C23.8572 39.8596 23.9853 39.5498 24.1501 39.3423L26.0422 36.4431C26.425 35.9508 26.4429 35.4328 26.1399 34.8928L22.258 27.2146C21.9231 26.6111 22.153 26.2884 22.3923 26.0183C23.0959 25.2242 24.4919 23.3694 25.0335 22.6766L26.0222 21.422C26.3731 20.9932 26.4528 20.4057 26.2614 19.8816C25.485 17.8048 24.5758 15.321 23.7227 12.9937C23.4341 12.2062 23.1762 11.3086 22.5754 10.7473C21.4185 9.66662 19.3309 8.53484 17.733 8.25569C6.66965 5.90111 2.46404 15.594 3.95967 23.345C6.13253 32.8542 16.4109 42.3269 22.6487 45.4702C23.3507 45.824 23.8205 45.5626 23.8205 44.988L23.8572 40.209Z" fill="url(#paint1_linear_185_5271)"/>
<path d="M23.8572 40.209C23.8572 39.8596 23.9853 39.5498 24.1501 39.3423L26.0422 36.4431C26.425 35.9508 26.4429 35.4328 26.1399 34.8928L22.258 27.2146C21.9231 26.6111 22.153 26.2884 22.3923 26.0183C23.0959 25.2242 24.4919 23.3694 25.0335 22.6766L26.0222 21.422C26.3731 20.9932 26.4528 20.4057 26.2614 19.8816C25.485 17.8048 24.5758 15.321 23.7227 12.9937C23.4341 12.2062 23.1762 11.3086 22.5754 10.7473C21.4185 9.66662 19.3309 8.53484 17.733 8.25569C6.66965 5.90111 2.46404 15.594 3.95967 23.345C6.13253 32.8542 16.4109 42.3269 22.6487 45.4702C23.3507 45.824 23.8205 45.5626 23.8205 44.988L23.8572 40.209Z" fill="url(#paint2_radial_185_5271)"/>
<path d="M23.8572 40.209C23.8572 39.8596 23.9853 39.5498 24.1501 39.3423L26.0422 36.4431C26.425 35.9508 26.4429 35.4328 26.1399 34.8928L22.258 27.2146C21.9231 26.6111 22.153 26.2884 22.3923 26.0183C23.0959 25.2242 24.4919 23.3694 25.0335 22.6766L26.0222 21.422C26.3731 20.9932 26.4528 20.4057 26.2614 19.8816C25.485 17.8048 24.5758 15.321 23.7227 12.9937C23.4341 12.2062 23.1762 11.3086 22.5754 10.7473C21.4185 9.66662 19.3309 8.53484 17.733 8.25569C6.66965 5.90111 2.46404 15.594 3.95967 23.345C6.13253 32.8542 16.4109 42.3269 22.6487 45.4702C23.3507 45.824 23.8205 45.5626 23.8205 44.988L23.8572 40.209Z" fill="url(#paint3_radial_185_5271)"/>
<path d="M34.0848 7.95175C31.5208 8.39525 28.6334 10.1311 27.166 11.6675C27.166 11.6675 26.9725 11.8259 26.9725 12.0635C26.9725 12.1585 27.0047 12.2852 27.0209 12.3011L30.0565 20.6471C30.203 20.94 30.2364 21.3868 29.9466 21.7457C28.8146 23.1477 27.5663 24.8219 26.4676 26.2318C25.9839 26.7228 25.9337 27.2962 26.2723 27.898L30.0564 35.2039C30.3628 35.7583 30.2395 36.1317 29.9893 36.4979L27.5601 40.2027C27.3505 40.472 27.1451 41.0084 27.1451 41.3441L27.1023 45.287C27.1023 45.7813 27.8567 45.8306 28.4695 45.4029C34.451 42.1314 44.7373 33.0322 46.8777 23.4303C48.6355 15.5445 44.1433 6.58456 34.0848 7.95175Z" fill="url(#paint4_linear_185_5271)"/>
<path d="M34.0848 7.95175C31.5208 8.39525 28.6334 10.1311 27.166 11.6675C27.166 11.6675 26.9725 11.8259 26.9725 12.0635C26.9725 12.1585 27.0047 12.2852 27.0209 12.3011L30.0565 20.6471C30.203 20.94 30.2364 21.3868 29.9466 21.7457C28.8146 23.1477 27.5663 24.8219 26.4676 26.2318C25.9839 26.7228 25.9337 27.2962 26.2723 27.898L30.0564 35.2039C30.3628 35.7583 30.2395 36.1317 29.9893 36.4979L27.5601 40.2027C27.3505 40.472 27.1451 41.0084 27.1451 41.3441L27.1023 45.287C27.1023 45.7813 27.8567 45.8306 28.4695 45.4029C34.451 42.1314 44.7373 33.0322 46.8777 23.4303C48.6355 15.5445 44.1433 6.58456 34.0848 7.95175Z" fill="url(#paint5_linear_185_5271)"/>
<path d="M34.0848 7.95175C31.5208 8.39525 28.6334 10.1311 27.166 11.6675C27.166 11.6675 26.9725 11.8259 26.9725 12.0635C26.9725 12.1585 27.0047 12.2852 27.0209 12.3011L30.0565 20.6471C30.203 20.94 30.2364 21.3868 29.9466 21.7457C28.8146 23.1477 27.5663 24.8219 26.4676 26.2318C25.9839 26.7228 25.9337 27.2962 26.2723 27.898L30.0564 35.2039C30.3628 35.7583 30.2395 36.1317 29.9893 36.4979L27.5601 40.2027C27.3505 40.472 27.1451 41.0084 27.1451 41.3441L27.1023 45.287C27.1023 45.7813 27.8567 45.8306 28.4695 45.4029C34.451 42.1314 44.7373 33.0322 46.8777 23.4303C48.6355 15.5445 44.1433 6.58456 34.0848 7.95175Z" fill="url(#paint6_radial_185_5271)"/>
<path d="M34.0848 7.95175C31.5208 8.39525 28.6334 10.1311 27.166 11.6675C27.166 11.6675 26.9725 11.8259 26.9725 12.0635C26.9725 12.1585 27.0047 12.2852 27.0209 12.3011L30.0565 20.6471C30.203 20.94 30.2364 21.3868 29.9466 21.7457C28.8146 23.1477 27.5663 24.8219 26.4676 26.2318C25.9839 26.7228 25.9337 27.2962 26.2723 27.898L30.0564 35.2039C30.3628 35.7583 30.2395 36.1317 29.9893 36.4979L27.5601 40.2027C27.3505 40.472 27.1451 41.0084 27.1451 41.3441L27.1023 45.287C27.1023 45.7813 27.8567 45.8306 28.4695 45.4029C34.451 42.1314 44.7373 33.0322 46.8777 23.4303C48.6355 15.5445 44.1433 6.58456 34.0848 7.95175Z" fill="url(#paint7_radial_185_5271)"/>
<g filter="url(#filter0_f_185_5271)">
<ellipse cx="38.2091" cy="19.7999" rx="6.31298" ry="8.08003" transform="rotate(41.5275 38.2091 19.7999)" fill="url(#paint8_radial_185_5271)"/>
</g>
<g filter="url(#filter1_f_185_5271)">
<ellipse cx="18.9234" cy="17.6272" rx="4.63753" ry="7.28475" transform="rotate(150.611 18.9234 17.6272)" fill="url(#paint9_radial_185_5271)"/>
</g>
<g filter="url(#filter2_f_185_5271)">
<path d="M25.6406 35.3217L21.3438 26.8256" stroke="url(#paint10_linear_185_5271)" stroke-width="0.25" stroke-linecap="round"/>
</g>
<g filter="url(#filter3_f_185_5271)">
<path d="M21.5859 25.7985L25.7852 20.6227L23.6367 14.7145" stroke="url(#paint11_linear_185_5271)" stroke-opacity="0.75" stroke-width="0.15" stroke-linecap="round"/>
</g>
<defs>
<filter id="filter0_f_185_5271" x="28.0664" y="9.44348" width="20.2852" height="20.7129" filterUnits="userSpaceOnUse" color-interpolation-filters="sRGB">
<feFlood flood-opacity="0" result="BackgroundImageFix"/>
<feBlend mode="normal" in="SourceGraphic" in2="BackgroundImageFix" result="shape"/>
<feGaussianBlur stdDeviation="1.5" result="effect1_foregroundBlur_185_5271"/>
</filter>
<filter id="filter1_f_185_5271" x="10.5273" y="7.88245" width="16.793" height="19.4895" filterUnits="userSpaceOnUse" color-interpolation-filters="sRGB">
<feFlood flood-opacity="0" result="BackgroundImageFix"/>
<feBlend mode="normal" in="SourceGraphic" in2="BackgroundImageFix" result="shape"/>
<feGaussianBlur stdDeviation="1.5" result="effect1_foregroundBlur_185_5271"/>
</filter>
<filter id="filter2_f_185_5271" x="20.8688" y="26.3506" width="5.24687" height="9.44609" filterUnits="userSpaceOnUse" color-interpolation-filters="sRGB">
<feFlood flood-opacity="0" result="BackgroundImageFix"/>
<feBlend mode="normal" in="SourceGraphic" in2="BackgroundImageFix" result="shape"/>
<feGaussianBlur stdDeviation="0.175" result="effect1_foregroundBlur_185_5271"/>
</filter>
<filter id="filter3_f_185_5271" x="21.1617" y="14.2894" width="5.05937" height="11.934" filterUnits="userSpaceOnUse" color-interpolation-filters="sRGB">
<feFlood flood-opacity="0" result="BackgroundImageFix"/>
<feBlend mode="normal" in="SourceGraphic" in2="BackgroundImageFix" result="shape"/>
<feGaussianBlur stdDeviation="0.175" result="effect1_foregroundBlur_185_5271"/>
</filter>
<linearGradient id="paint0_linear_185_5271" x1="15.2572" y1="45.7284" x2="15.2572" y2="8.06842" gradientUnits="userSpaceOnUse">
<stop offset="0.0260417" stop-color="#EC008C"/>
<stop offset="0.197917" stop-color="#FF1F50"/>
<stop offset="0.536458" stop-color="#FF2868"/>
<stop offset="1" stop-color="#EC008C"/>
</linearGradient>
<linearGradient id="paint1_linear_185_5271" x1="27.7878" y1="23.037" x2="22.3895" y2="23.037" gradientUnits="userSpaceOnUse">
<stop stop-color="#C6162A"/>
<stop offset="1" stop-color="#C6162A" stop-opacity="0"/>
</linearGradient>
<radialGradient id="paint2_radial_185_5271" cx="0" cy="0" r="1" gradientUnits="userSpaceOnUse" gradientTransform="translate(26.3627 28.0447) rotate(-138.643) scale(37.3925 22.1216)">
<stop offset="0.671096" stop-color="#FF7AF2" stop-opacity="0"/>
<stop offset="0.78503" stop-color="#FF96D7"/>
</radialGradient>
<radialGradient id="paint3_radial_185_5271" cx="0" cy="0" r="1" gradientUnits="userSpaceOnUse" gradientTransform="translate(31.8894 31.1697) rotate(178.046) scale(39.356 49.2739)">
<stop offset="0.535556" stop-color="#AB1F51" stop-opacity="0"/>
<stop offset="0.814021" stop-color="#AB1F51"/>
</radialGradient>
<linearGradient id="paint4_linear_185_5271" x1="36.4078" y1="45.7188" x2="36.4078" y2="8.05622" gradientUnits="userSpaceOnUse">
<stop stop-color="#FF2657"/>
<stop offset="0.4437" stop-color="#FF2F67"/>
<stop offset="1" stop-color="#EC008C"/>
</linearGradient>
<linearGradient id="paint5_linear_185_5271" x1="25.4422" y1="23.012" x2="29.8368" y2="23.012" gradientUnits="userSpaceOnUse">
<stop stop-color="#C01567"/>
<stop offset="1" stop-color="#C01567" stop-opacity="0"/>
</linearGradient>
<radialGradient id="paint6_radial_185_5271" cx="0" cy="0" r="1" gradientUnits="userSpaceOnUse" gradientTransform="translate(4.64146 25.2125) rotate(-9.28693) scale(62.9343 36.275)">
<stop offset="0.670089" stop-color="#FF7AF2" stop-opacity="0"/>
<stop offset="0.734955" stop-color="#FF96D7"/>
</radialGradient>
<radialGradient id="paint7_radial_185_5271" cx="0" cy="0" r="1" gradientUnits="userSpaceOnUse" gradientTransform="translate(40.0907 38.982) rotate(-128.703) scale(40.9194 108.316)">
<stop offset="0.6071" stop-color="#AB1F51" stop-opacity="0"/>
<stop offset="0.814021" stop-color="#AB1F51"/>
</radialGradient>
<radialGradient id="paint8_radial_185_5271" cx="0" cy="0" r="1" gradientUnits="userSpaceOnUse" gradientTransform="translate(39.8255 12.761) rotate(99.9325) scale(14.1925 46.1316)">
<stop stop-color="#EF6E9D"/>
<stop offset="1" stop-color="#EF6E9D" stop-opacity="0"/>
</radialGradient>
<radialGradient id="paint9_radial_185_5271" cx="0" cy="0" r="1" gradientUnits="userSpaceOnUse" gradientTransform="translate(19.4433 14.4507) rotate(96.8543) scale(13.6533 36.4942)">
<stop offset="0.229167" stop-color="#EC5A8F"/>
<stop offset="1" stop-color="#EC5A8F" stop-opacity="0"/>
</radialGradient>
<linearGradient id="paint10_linear_185_5271" x1="22.8086" y1="30.097" x2="20.006" y2="25.3407" gradientUnits="userSpaceOnUse">
<stop stop-color="#FF757B"/>
<stop offset="1" stop-color="#FF757B" stop-opacity="0"/>
</linearGradient>
<linearGradient id="paint11_linear_185_5271" x1="24.4912" y1="22.7711" x2="21.3421" y2="14.1242" gradientUnits="userSpaceOnUse">
<stop stop-color="#FF989D"/>
<stop offset="1" stop-color="#FF989D" stop-opacity="0"/>
</linearGradient>
</defs>
</svg>
