<svg width="20" height="20" viewBox="0 0 20 20" fill="none" xmlns="http://www.w3.org/2000/svg">
<g filter="url(#filter0_i_534_7413)">
<path d="M17.4441 5.00635C12.9879 5.00635 9.37539 8.61885 9.33789 12.9188L9.37539 18.2751C9.37539 18.5438 9.60664 18.7563 9.86914 18.7376C14.8191 18.4813 18.7504 14.3938 18.7504 9.38135V5.00635H17.4441Z" fill="url(#paint0_radial_534_7413)"/>
<path d="M17.4441 5.00635C12.9879 5.00635 9.37539 8.61885 9.33789 12.9188L9.37539 18.2751C9.37539 18.5438 9.60664 18.7563 9.86914 18.7376C14.8191 18.4813 18.7504 14.3938 18.7504 9.38135V5.00635H17.4441Z" fill="url(#paint1_radial_534_7413)"/>
</g>
<g filter="url(#filter1_f_534_7413)">
<path d="M11.4496 15.6145C11.5264 15.6677 11.6151 15.6972 11.7037 15.6972C11.8456 15.6972 11.9815 15.6322 12.0701 15.514L17.637 7.70733C17.7296 7.57619 17.8109 7.43901 17.8805 7.29694V5.41553H17.2868L17.2884 5.99944C17.2884 6.42493 17.1583 6.83861 16.9101 7.18728L11.3433 14.9939C11.2014 15.1949 11.2487 15.4726 11.4496 15.6145Z" fill="#C34749"/>
</g>
<g filter="url(#filter2_f_534_7413)">
<path d="M18.2617 6.21094V9.72656C18.2552 10.7487 17.8516 13.25 16.2891 15.0781" stroke="url(#paint2_linear_534_7413)" stroke-width="0.4" stroke-linecap="round"/>
</g>
<path d="M11.9128 15.5751C11.819 15.5751 11.7253 15.5438 11.644 15.4876C11.4315 15.3376 11.3815 15.0438 11.5315 14.8313L17.6365 6.31676C17.7852 6.12229 17.819 5.95834 17.819 5.6838L17.8128 2.9751C17.8128 2.71885 18.0253 2.50635 18.2815 2.50635C18.5378 2.50635 18.7503 2.7126 18.7503 2.9751L18.7628 5.94308C18.7628 6.25575 18.5592 6.61417 18.4296 6.78957L12.3003 15.3813C12.2065 15.5063 12.0628 15.5751 11.9128 15.5751Z" fill="url(#paint3_linear_534_7413)"/>
<g filter="url(#filter3_ii_534_7413)">
<path d="M3.83154 6.6375C3.83154 3.6875 6.22529 1.28125 9.07529 1.25625L12.619 1.25C12.794 1.25 12.9378 1.4 12.9253 1.58125C12.7565 4.85 10.044 7.5 6.72529 7.5H3.83154V6.6375Z" fill="url(#paint4_radial_534_7413)"/>
<path d="M3.83154 6.6375C3.83154 3.6875 6.22529 1.28125 9.07529 1.25625L12.619 1.25C12.794 1.25 12.9378 1.4 12.9253 1.58125C12.7565 4.85 10.044 7.5 6.72529 7.5H3.83154V6.6375Z" fill="url(#paint5_radial_534_7413)"/>
</g>
<path d="M10.8252 2.97486C10.8252 2.91236 10.8065 2.84986 10.769 2.79361C10.669 2.65611 10.4752 2.61861 10.3377 2.71861L4.86899 6.61861C4.62524 6.79361 4.33774 6.88736 4.03774 6.88736H2.81274C2.63774 6.88736 2.50024 7.02486 2.50024 7.19361C2.50024 7.36236 2.63774 7.50611 2.81274 7.50611H4.03774C4.46899 7.50611 4.88149 7.37486 5.23149 7.12486L10.694 3.23111C10.7815 3.16861 10.8252 3.07486 10.8252 2.97486Z" fill="url(#paint6_linear_534_7413)"/>
<path d="M10.8252 2.97486C10.8252 2.91236 10.8065 2.84986 10.769 2.79361C10.669 2.65611 10.4752 2.61861 10.3377 2.71861L4.86899 6.61861C4.62524 6.79361 4.33774 6.88736 4.03774 6.88736H2.81274C2.63774 6.88736 2.50024 7.02486 2.50024 7.19361C2.50024 7.36236 2.63774 7.50611 2.81274 7.50611H4.03774C4.46899 7.50611 4.88149 7.37486 5.23149 7.12486L10.694 3.23111C10.7815 3.16861 10.8252 3.07486 10.8252 2.97486Z" fill="url(#paint7_radial_534_7413)"/>
<g filter="url(#filter4_i_534_7413)">
<path d="M7.5003 14.3313C7.5003 12.3063 5.85654 10.6501 3.90029 10.6376L1.4628 10.6313C1.3378 10.6313 1.24405 10.7376 1.2503 10.8563C1.36905 13.1063 3.23155 15.0063 5.5128 15.0063H7.5003V14.3313Z" fill="url(#paint8_radial_534_7413)"/>
</g>
<g filter="url(#filter5_i_534_7413)">
<path d="M7.5003 14.3313C7.5003 12.3063 5.85654 10.6501 3.90029 10.6376L1.4628 10.6313C1.3378 10.6313 1.24405 10.7376 1.2503 10.8563C1.36905 13.1063 3.23155 15.0063 5.5128 15.0063H7.5003V14.3313Z" fill="url(#paint9_radial_534_7413)"/>
</g>
<path d="M7.5003 14.3313C7.5003 12.3063 5.85654 10.6501 3.90029 10.6376L1.4628 10.6313C1.3378 10.6313 1.24405 10.7376 1.2503 10.8563C1.36905 13.1063 3.23155 15.0063 5.5128 15.0063H7.5003V14.3313Z" fill="url(#paint10_radial_534_7413)"/>
<path d="M7.5003 14.3313C7.5003 12.3063 5.85654 10.6501 3.90029 10.6376L1.4628 10.6313C1.3378 10.6313 1.24405 10.7376 1.2503 10.8563C1.36905 13.1063 3.23155 15.0063 5.5128 15.0063H7.5003V14.3313Z" fill="url(#paint11_radial_534_7413)"/>
<g filter="url(#filter6_f_534_7413)">
<path d="M3.02734 10.9375H4.00391C4.43359 10.9766 5.47266 11.2266 6.19141 11.9141C7.08984 12.7734 7.22656 13.8477 7.22656 14.5508" stroke="url(#paint12_linear_534_7413)" stroke-width="0.25" stroke-linecap="round"/>
</g>
<g filter="url(#filter7_i_534_7413)">
<path d="M8.05997 14.3875H7.66622C7.36622 14.3875 7.07872 14.2938 6.83497 14.1188L4.17247 12.2188C4.03497 12.1188 3.84747 12.15 3.74747 12.2875C3.74747 12.2875 3.74747 12.2938 3.74122 12.2938C3.64122 12.4313 3.67247 12.625 3.80997 12.725L6.47247 14.625C6.82247 14.875 7.23497 15.0063 7.66622 15.0063H8.06622C8.24747 15.0063 8.38497 14.8563 8.37872 14.675C8.36622 14.5125 8.22247 14.3875 8.05997 14.3875Z" fill="#D55B3E"/>
</g>
<g filter="url(#filter8_f_534_7413)">
<path d="M18.3887 2.94922V4.92307C18.3887 5.76048 18.1259 6.57677 17.6373 7.25687L12.0605 15.0195" stroke="url(#paint13_linear_534_7413)" stroke-width="0.4" stroke-linecap="round"/>
</g>
<g filter="url(#filter9_f_534_7413)">
<path d="M3.97998 12.3384L6.24744 13.9805C6.75929 14.3512 7.37513 14.5508 8.00712 14.5508H8.08151" stroke="url(#paint14_linear_534_7413)" stroke-width="0.25" stroke-linecap="round"/>
</g>
<g filter="url(#filter10_f_534_7413)">
<path d="M2.87061 7.19633H3.38556C4.23262 7.19633 5.05782 6.92742 5.74225 6.42836L10.5404 2.92969" stroke="url(#paint15_linear_534_7413)" stroke-opacity="0.5" stroke-width="0.25" stroke-linecap="round"/>
</g>
<g filter="url(#filter11_f_534_7413)">
<path d="M12.6188 1.64355C12.5901 2.15326 12.3 3.48712 11.3696 4.74488" stroke="url(#paint16_linear_534_7413)" stroke-width="0.25" stroke-linecap="round"/>
</g>
<defs>
<filter id="filter0_i_534_7413" x="9.33789" y="5.00635" width="9.4126" height="13.7324" filterUnits="userSpaceOnUse" color-interpolation-filters="sRGB">
<feFlood flood-opacity="0" result="BackgroundImageFix"/>
<feBlend mode="normal" in="SourceGraphic" in2="BackgroundImageFix" result="shape"/>
<feColorMatrix in="SourceAlpha" type="matrix" values="0 0 0 0 0 0 0 0 0 0 0 0 0 0 0 0 0 0 127 0" result="hardAlpha"/>
<feOffset/>
<feGaussianBlur stdDeviation="0.5"/>
<feComposite in2="hardAlpha" operator="arithmetic" k2="-1" k3="1"/>
<feColorMatrix type="matrix" values="0 0 0 0 0.670833 0 0 0 0 0.167708 0 0 0 0 0.17557 0 0 0 1 0"/>
<feBlend mode="normal" in2="shape" result="effect1_innerShadow_534_7413"/>
</filter>
<filter id="filter1_f_534_7413" x="10.2615" y="4.41553" width="8.6189" height="12.2817" filterUnits="userSpaceOnUse" color-interpolation-filters="sRGB">
<feFlood flood-opacity="0" result="BackgroundImageFix"/>
<feBlend mode="normal" in="SourceGraphic" in2="BackgroundImageFix" result="shape"/>
<feGaussianBlur stdDeviation="0.5" result="effect1_foregroundBlur_534_7413"/>
</filter>
<filter id="filter2_f_534_7413" x="15.6891" y="5.61074" width="3.17256" height="10.0676" filterUnits="userSpaceOnUse" color-interpolation-filters="sRGB">
<feFlood flood-opacity="0" result="BackgroundImageFix"/>
<feBlend mode="normal" in="SourceGraphic" in2="BackgroundImageFix" result="shape"/>
<feGaussianBlur stdDeviation="0.2" result="effect1_foregroundBlur_534_7413"/>
</filter>
<filter id="filter3_ii_534_7413" x="3.58154" y="1" width="9.59448" height="6.75" filterUnits="userSpaceOnUse" color-interpolation-filters="sRGB">
<feFlood flood-opacity="0" result="BackgroundImageFix"/>
<feBlend mode="normal" in="SourceGraphic" in2="BackgroundImageFix" result="shape"/>
<feColorMatrix in="SourceAlpha" type="matrix" values="0 0 0 0 0 0 0 0 0 0 0 0 0 0 0 0 0 0 127 0" result="hardAlpha"/>
<feOffset dx="-0.25" dy="-0.25"/>
<feGaussianBlur stdDeviation="0.25"/>
<feComposite in2="hardAlpha" operator="arithmetic" k2="-1" k3="1"/>
<feColorMatrix type="matrix" values="0 0 0 0 0.819608 0 0 0 0 0.4 0 0 0 0 0.247059 0 0 0 1 0"/>
<feBlend mode="normal" in2="shape" result="effect1_innerShadow_534_7413"/>
<feColorMatrix in="SourceAlpha" type="matrix" values="0 0 0 0 0 0 0 0 0 0 0 0 0 0 0 0 0 0 127 0" result="hardAlpha"/>
<feOffset dx="0.25" dy="0.25"/>
<feGaussianBlur stdDeviation="0.25"/>
<feComposite in2="hardAlpha" operator="arithmetic" k2="-1" k3="1"/>
<feColorMatrix type="matrix" values="0 0 0 0 0.847059 0 0 0 0 0.521569 0 0 0 0 0.145098 0 0 0 1 0"/>
<feBlend mode="normal" in2="effect1_innerShadow_534_7413" result="effect2_innerShadow_534_7413"/>
</filter>
<filter id="filter4_i_534_7413" x="1.25" y="10.6313" width="6.25024" height="4.375" filterUnits="userSpaceOnUse" color-interpolation-filters="sRGB">
<feFlood flood-opacity="0" result="BackgroundImageFix"/>
<feBlend mode="normal" in="SourceGraphic" in2="BackgroundImageFix" result="shape"/>
<feColorMatrix in="SourceAlpha" type="matrix" values="0 0 0 0 0 0 0 0 0 0 0 0 0 0 0 0 0 0 127 0" result="hardAlpha"/>
<feOffset/>
<feGaussianBlur stdDeviation="0.5"/>
<feComposite in2="hardAlpha" operator="arithmetic" k2="-1" k3="1"/>
<feColorMatrix type="matrix" values="0 0 0 0 0.823529 0 0 0 0 0.372549 0 0 0 0 0.258824 0 0 0 1 0"/>
<feBlend mode="normal" in2="shape" result="effect1_innerShadow_534_7413"/>
</filter>
<filter id="filter5_i_534_7413" x="1.25" y="10.6313" width="6.25024" height="4.375" filterUnits="userSpaceOnUse" color-interpolation-filters="sRGB">
<feFlood flood-opacity="0" result="BackgroundImageFix"/>
<feBlend mode="normal" in="SourceGraphic" in2="BackgroundImageFix" result="shape"/>
<feColorMatrix in="SourceAlpha" type="matrix" values="0 0 0 0 0 0 0 0 0 0 0 0 0 0 0 0 0 0 127 0" result="hardAlpha"/>
<feOffset/>
<feGaussianBlur stdDeviation="0.5"/>
<feComposite in2="hardAlpha" operator="arithmetic" k2="-1" k3="1"/>
<feColorMatrix type="matrix" values="0 0 0 0 0.823529 0 0 0 0 0.372549 0 0 0 0 0.258824 0 0 0 1 0"/>
<feBlend mode="normal" in2="shape" result="effect1_innerShadow_534_7413"/>
</filter>
<filter id="filter6_f_534_7413" x="2.50234" y="10.4125" width="5.24922" height="4.66328" filterUnits="userSpaceOnUse" color-interpolation-filters="sRGB">
<feFlood flood-opacity="0" result="BackgroundImageFix"/>
<feBlend mode="normal" in="SourceGraphic" in2="BackgroundImageFix" result="shape"/>
<feGaussianBlur stdDeviation="0.2" result="effect1_foregroundBlur_534_7413"/>
</filter>
<filter id="filter7_i_534_7413" x="3.58262" y="12.1602" width="4.79629" height="2.94619" filterUnits="userSpaceOnUse" color-interpolation-filters="sRGB">
<feFlood flood-opacity="0" result="BackgroundImageFix"/>
<feBlend mode="normal" in="SourceGraphic" in2="BackgroundImageFix" result="shape"/>
<feColorMatrix in="SourceAlpha" type="matrix" values="0 0 0 0 0 0 0 0 0 0 0 0 0 0 0 0 0 0 127 0" result="hardAlpha"/>
<feOffset dx="-0.1" dy="0.1"/>
<feGaussianBlur stdDeviation="0.175"/>
<feComposite in2="hardAlpha" operator="arithmetic" k2="-1" k3="1"/>
<feColorMatrix type="matrix" values="0 0 0 0 0.886275 0 0 0 0 0.505882 0 0 0 0 0.164706 0 0 0 1 0"/>
<feBlend mode="normal" in2="shape" result="effect1_innerShadow_534_7413"/>
</filter>
<filter id="filter8_f_534_7413" x="11.4606" y="2.34902" width="7.52803" height="13.2707" filterUnits="userSpaceOnUse" color-interpolation-filters="sRGB">
<feFlood flood-opacity="0" result="BackgroundImageFix"/>
<feBlend mode="normal" in="SourceGraphic" in2="BackgroundImageFix" result="shape"/>
<feGaussianBlur stdDeviation="0.2" result="effect1_foregroundBlur_534_7413"/>
</filter>
<filter id="filter9_f_534_7413" x="3.60498" y="11.9634" width="4.85156" height="2.9624" filterUnits="userSpaceOnUse" color-interpolation-filters="sRGB">
<feFlood flood-opacity="0" result="BackgroundImageFix"/>
<feBlend mode="normal" in="SourceGraphic" in2="BackgroundImageFix" result="shape"/>
<feGaussianBlur stdDeviation="0.125" result="effect1_foregroundBlur_534_7413"/>
</filter>
<filter id="filter10_f_534_7413" x="2.49561" y="2.55469" width="8.41992" height="5.0166" filterUnits="userSpaceOnUse" color-interpolation-filters="sRGB">
<feFlood flood-opacity="0" result="BackgroundImageFix"/>
<feBlend mode="normal" in="SourceGraphic" in2="BackgroundImageFix" result="shape"/>
<feGaussianBlur stdDeviation="0.125" result="effect1_foregroundBlur_534_7413"/>
</filter>
<filter id="filter11_f_534_7413" x="10.9946" y="1.26855" width="1.99927" height="3.85156" filterUnits="userSpaceOnUse" color-interpolation-filters="sRGB">
<feFlood flood-opacity="0" result="BackgroundImageFix"/>
<feBlend mode="normal" in="SourceGraphic" in2="BackgroundImageFix" result="shape"/>
<feGaussianBlur stdDeviation="0.125" result="effect1_foregroundBlur_534_7413"/>
</filter>
<radialGradient id="paint0_radial_534_7413" cx="0" cy="0" r="1" gradientUnits="userSpaceOnUse" gradientTransform="translate(15.6251 8.04697) rotate(113.962) scale(8.84858 8.76529)">
<stop stop-color="#BB3F4A"/>
<stop offset="0.931229" stop-color="#D75A43"/>
</radialGradient>
<radialGradient id="paint1_radial_534_7413" cx="0" cy="0" r="1" gradientUnits="userSpaceOnUse" gradientTransform="translate(8.75008 15.7032) scale(1.95313 6.95312)">
<stop stop-color="#BE412D"/>
<stop offset="1" stop-color="#BE412D" stop-opacity="0"/>
</radialGradient>
<linearGradient id="paint2_linear_534_7413" x1="18.8005" y1="6.54095" x2="11.3754" y2="9.29897" gradientUnits="userSpaceOnUse">
<stop stop-color="#D35D5C"/>
<stop offset="1" stop-color="#D35D5C" stop-opacity="0"/>
</linearGradient>
<linearGradient id="paint3_linear_534_7413" x1="18.7628" y1="6.48447" x2="10.0105" y2="18.5412" gradientUnits="userSpaceOnUse">
<stop stop-color="#A52344"/>
<stop offset="1" stop-color="#C03C49"/>
</linearGradient>
<radialGradient id="paint4_radial_534_7413" cx="0" cy="0" r="1" gradientUnits="userSpaceOnUse" gradientTransform="translate(11.4774 3.49582) rotate(151.725) scale(6.45608 7.01619)">
<stop stop-color="#E2773A"/>
<stop offset="1" stop-color="#DC8839"/>
</radialGradient>
<radialGradient id="paint5_radial_534_7413" cx="0" cy="0" r="1" gradientUnits="userSpaceOnUse" gradientTransform="translate(10.9174 6.72637) rotate(-153.023) scale(2.84859 6.2908)">
<stop stop-color="#DD763B"/>
<stop offset="1" stop-color="#DD763B" stop-opacity="0"/>
</radialGradient>
<linearGradient id="paint6_linear_534_7413" x1="3.00775" y1="7.73423" x2="9.92181" y2="2.38267" gradientUnits="userSpaceOnUse">
<stop stop-color="#D86443"/>
<stop offset="1" stop-color="#DC7C28"/>
<stop offset="1" stop-color="#DD7E24"/>
</linearGradient>
<radialGradient id="paint7_radial_534_7413" cx="0" cy="0" r="1" gradientUnits="userSpaceOnUse" gradientTransform="translate(10.8252 2.76689) rotate(140.514) scale(0.527194 0.51006)">
<stop stop-color="#EA9759"/>
<stop offset="1" stop-color="#EA9759" stop-opacity="0"/>
</radialGradient>
<radialGradient id="paint8_radial_534_7413" cx="0" cy="0" r="1" gradientUnits="userSpaceOnUse" gradientTransform="translate(6.83594 12.8188) rotate(143.368) scale(3.06647 4.93507)">
<stop stop-color="#E4903B"/>
<stop offset="1" stop-color="#E2783C"/>
</radialGradient>
<radialGradient id="paint9_radial_534_7413" cx="0" cy="0" r="1" gradientUnits="userSpaceOnUse" gradientTransform="translate(6.83594 12.8188) rotate(143.368) scale(3.06647 4.93507)">
<stop stop-color="#E4903B"/>
<stop offset="1" stop-color="#E2783C"/>
</radialGradient>
<radialGradient id="paint10_radial_534_7413" cx="0" cy="0" r="1" gradientUnits="userSpaceOnUse" gradientTransform="translate(7.03125 12.2462) rotate(137.328) scale(1.70012 7.47383)">
<stop stop-color="#E38F3C"/>
<stop offset="1" stop-color="#E38F3C" stop-opacity="0"/>
</radialGradient>
<radialGradient id="paint11_radial_534_7413" cx="0" cy="0" r="1" gradientUnits="userSpaceOnUse" gradientTransform="translate(4.37515 13.1446) rotate(-139.989) scale(2.06572 0.851241)">
<stop stop-color="#DA6A3B"/>
<stop offset="1" stop-color="#DA6A3B" stop-opacity="0"/>
</radialGradient>
<linearGradient id="paint12_linear_534_7413" x1="5.8443" y1="11.3816" x2="3.21272" y2="10.9375" gradientUnits="userSpaceOnUse">
<stop stop-color="#EFA55A"/>
<stop offset="1" stop-color="#EFA55A" stop-opacity="0"/>
</linearGradient>
<linearGradient id="paint13_linear_534_7413" x1="20.1172" y1="3.39844" x2="4.77064" y2="16.8321" gradientUnits="userSpaceOnUse">
<stop stop-color="#C16073"/>
<stop offset="1" stop-color="#C16073" stop-opacity="0"/>
</linearGradient>
<linearGradient id="paint14_linear_534_7413" x1="4.71843" y1="12.4463" x2="9.12908" y2="16.023" gradientUnits="userSpaceOnUse">
<stop stop-color="#E6894F"/>
<stop offset="1" stop-color="#E6894F" stop-opacity="0"/>
</linearGradient>
<linearGradient id="paint15_linear_534_7413" x1="10.3677" y1="3.37667" x2="3.7611" y2="6.84658" gradientUnits="userSpaceOnUse">
<stop stop-color="#F18546"/>
<stop offset="1" stop-color="#F18546" stop-opacity="0"/>
</linearGradient>
<linearGradient id="paint16_linear_534_7413" x1="12.7695" y1="1.54664" x2="11.8346" y2="1.69225" gradientUnits="userSpaceOnUse">
<stop stop-color="#F89D66"/>
<stop offset="1" stop-color="#F89D66" stop-opacity="0"/>
</linearGradient>
</defs>
</svg>
