<svg width="28" height="28" viewBox="0 0 28 28" fill="none" xmlns="http://www.w3.org/2000/svg">
<g filter="url(#filter0_ii_1794_3245)">
<path d="M6.46777 23.6455C6.46777 25.0953 7.64303 26.2705 9.09277 26.2705H23.8379V4.35449C23.8379 2.90475 22.6626 1.72949 21.2129 1.72949H4.23926H4.16406V1.73073C4.18903 1.72991 4.2141 1.72949 4.23926 1.72949C5.47002 1.72949 6.46777 2.72723 6.46777 3.95801V23.6455Z" fill="url(#paint0_linear_1794_3245)"/>
<path d="M6.46777 23.6455C6.46777 25.0953 7.64303 26.2705 9.09277 26.2705H23.8379V4.35449C23.8379 2.90475 22.6626 1.72949 21.2129 1.72949H4.23926H4.16406V1.73073C4.18903 1.72991 4.2141 1.72949 4.23926 1.72949C5.47002 1.72949 6.46777 2.72723 6.46777 3.95801V23.6455Z" fill="url(#paint1_linear_1794_3245)"/>
<path d="M6.46777 23.6455C6.46777 25.0953 7.64303 26.2705 9.09277 26.2705H23.8379V4.35449C23.8379 2.90475 22.6626 1.72949 21.2129 1.72949H4.23926H4.16406V1.73073C4.18903 1.72991 4.2141 1.72949 4.23926 1.72949C5.47002 1.72949 6.46777 2.72723 6.46777 3.95801V23.6455Z" fill="url(#paint2_linear_1794_3245)"/>
<path d="M6.46777 23.6455C6.46777 25.0953 7.64303 26.2705 9.09277 26.2705H23.8379V4.35449C23.8379 2.90475 22.6626 1.72949 21.2129 1.72949H4.23926H4.16406V1.73073C4.18903 1.72991 4.2141 1.72949 4.23926 1.72949C5.47002 1.72949 6.46777 2.72723 6.46777 3.95801V23.6455Z" fill="url(#paint3_radial_1794_3245)"/>
<path d="M6.46777 23.6455C6.46777 25.0953 7.64303 26.2705 9.09277 26.2705H23.8379V4.35449C23.8379 2.90475 22.6626 1.72949 21.2129 1.72949H4.23926H4.16406V1.73073C4.18903 1.72991 4.2141 1.72949 4.23926 1.72949C5.47002 1.72949 6.46777 2.72723 6.46777 3.95801V23.6455Z" fill="url(#paint4_radial_1794_3245)"/>
</g>
<g filter="url(#filter1_i_1794_3245)">
<path d="M12.4761 23.7686C12.3553 23.7686 12.2573 23.8665 12.2573 23.9873V23.9981L12.2539 23.9976C12.1897 25.3902 11.0647 26.2705 9.65625 26.2705H24.0782C25.4101 26.2705 26.4897 25.1908 26.4897 23.859C26.4897 23.809 26.4493 23.7686 26.3993 23.7686H12.4761Z" fill="url(#paint5_linear_1794_3245)"/>
<path d="M12.4761 23.7686C12.3553 23.7686 12.2573 23.8665 12.2573 23.9873V23.9981L12.2539 23.9976C12.1897 25.3902 11.0647 26.2705 9.65625 26.2705H24.0782C25.4101 26.2705 26.4897 25.1908 26.4897 23.859C26.4897 23.809 26.4493 23.7686 26.3993 23.7686H12.4761Z" fill="url(#paint6_linear_1794_3245)"/>
</g>
<g filter="url(#filter2_ii_1794_3245)">
<rect x="8.96875" y="10.5991" width="12.168" height="0.885254" rx="0.442627" fill="url(#paint7_linear_1794_3245)"/>
</g>
<g filter="url(#filter3_ii_1794_3245)">
<rect x="8.96875" y="13.2173" width="12.168" height="0.885254" rx="0.442627" fill="url(#paint8_linear_1794_3245)"/>
</g>
<g filter="url(#filter4_ii_1794_3245)">
<rect x="8.96875" y="15.8354" width="12.168" height="0.885254" rx="0.442627" fill="url(#paint9_linear_1794_3245)"/>
</g>
<g filter="url(#filter5_ii_1794_3245)">
<rect x="8.96875" y="18.4536" width="7.88184" height="0.885254" rx="0.442627" fill="url(#paint10_linear_1794_3245)"/>
</g>
<defs>
<filter id="filter0_ii_1794_3245" x="4.06406" y="1.62949" width="19.8719" height="24.641" filterUnits="userSpaceOnUse" color-interpolation-filters="sRGB">
<feFlood flood-opacity="0" result="BackgroundImageFix"/>
<feBlend mode="normal" in="SourceGraphic" in2="BackgroundImageFix" result="shape"/>
<feColorMatrix in="SourceAlpha" type="matrix" values="0 0 0 0 0 0 0 0 0 0 0 0 0 0 0 0 0 0 127 0" result="hardAlpha"/>
<feOffset dx="-0.1"/>
<feGaussianBlur stdDeviation="0.125"/>
<feComposite in2="hardAlpha" operator="arithmetic" k2="-1" k3="1"/>
<feColorMatrix type="matrix" values="0 0 0 0 0.996078 0 0 0 0 0.917647 0 0 0 0 0.592157 0 0 0 1 0"/>
<feBlend mode="normal" in2="shape" result="effect1_innerShadow_1794_3245"/>
<feColorMatrix in="SourceAlpha" type="matrix" values="0 0 0 0 0 0 0 0 0 0 0 0 0 0 0 0 0 0 127 0" result="hardAlpha"/>
<feOffset dx="0.1" dy="-0.1"/>
<feGaussianBlur stdDeviation="0.125"/>
<feComposite in2="hardAlpha" operator="arithmetic" k2="-1" k3="1"/>
<feColorMatrix type="matrix" values="0 0 0 0 0.866667 0 0 0 0 0.627451 0 0 0 0 0.498039 0 0 0 1 0"/>
<feBlend mode="normal" in2="effect1_innerShadow_1794_3245" result="effect2_innerShadow_1794_3245"/>
</filter>
<filter id="filter1_i_1794_3245" x="9.65625" y="23.7686" width="16.932" height="2.50195" filterUnits="userSpaceOnUse" color-interpolation-filters="sRGB">
<feFlood flood-opacity="0" result="BackgroundImageFix"/>
<feBlend mode="normal" in="SourceGraphic" in2="BackgroundImageFix" result="shape"/>
<feColorMatrix in="SourceAlpha" type="matrix" values="0 0 0 0 0 0 0 0 0 0 0 0 0 0 0 0 0 0 127 0" result="hardAlpha"/>
<feOffset dx="0.1"/>
<feGaussianBlur stdDeviation="0.1"/>
<feComposite in2="hardAlpha" operator="arithmetic" k2="-1" k3="1"/>
<feColorMatrix type="matrix" values="0 0 0 0 0.72549 0 0 0 0 0.427451 0 0 0 0 0.203922 0 0 0 1 0"/>
<feBlend mode="normal" in2="shape" result="effect1_innerShadow_1794_3245"/>
</filter>
<filter id="filter2_ii_1794_3245" x="8.91875" y="10.5491" width="12.268" height="0.985254" filterUnits="userSpaceOnUse" color-interpolation-filters="sRGB">
<feFlood flood-opacity="0" result="BackgroundImageFix"/>
<feBlend mode="normal" in="SourceGraphic" in2="BackgroundImageFix" result="shape"/>
<feColorMatrix in="SourceAlpha" type="matrix" values="0 0 0 0 0 0 0 0 0 0 0 0 0 0 0 0 0 0 127 0" result="hardAlpha"/>
<feOffset dx="0.05" dy="-0.05"/>
<feGaussianBlur stdDeviation="0.025"/>
<feComposite in2="hardAlpha" operator="arithmetic" k2="-1" k3="1"/>
<feColorMatrix type="matrix" values="0 0 0 0 0.721569 0 0 0 0 0.384314 0 0 0 0 0.262745 0 0 0 1 0"/>
<feBlend mode="normal" in2="shape" result="effect1_innerShadow_1794_3245"/>
<feColorMatrix in="SourceAlpha" type="matrix" values="0 0 0 0 0 0 0 0 0 0 0 0 0 0 0 0 0 0 127 0" result="hardAlpha"/>
<feOffset dx="-0.05" dy="0.05"/>
<feGaussianBlur stdDeviation="0.025"/>
<feComposite in2="hardAlpha" operator="arithmetic" k2="-1" k3="1"/>
<feColorMatrix type="matrix" values="0 0 0 0 0.972549 0 0 0 0 0.635294 0 0 0 0 0.380392 0 0 0 1 0"/>
<feBlend mode="normal" in2="effect1_innerShadow_1794_3245" result="effect2_innerShadow_1794_3245"/>
</filter>
<filter id="filter3_ii_1794_3245" x="8.91875" y="13.1673" width="12.268" height="0.985254" filterUnits="userSpaceOnUse" color-interpolation-filters="sRGB">
<feFlood flood-opacity="0" result="BackgroundImageFix"/>
<feBlend mode="normal" in="SourceGraphic" in2="BackgroundImageFix" result="shape"/>
<feColorMatrix in="SourceAlpha" type="matrix" values="0 0 0 0 0 0 0 0 0 0 0 0 0 0 0 0 0 0 127 0" result="hardAlpha"/>
<feOffset dx="0.05" dy="-0.05"/>
<feGaussianBlur stdDeviation="0.025"/>
<feComposite in2="hardAlpha" operator="arithmetic" k2="-1" k3="1"/>
<feColorMatrix type="matrix" values="0 0 0 0 0.721569 0 0 0 0 0.384314 0 0 0 0 0.262745 0 0 0 1 0"/>
<feBlend mode="normal" in2="shape" result="effect1_innerShadow_1794_3245"/>
<feColorMatrix in="SourceAlpha" type="matrix" values="0 0 0 0 0 0 0 0 0 0 0 0 0 0 0 0 0 0 127 0" result="hardAlpha"/>
<feOffset dx="-0.05" dy="0.05"/>
<feGaussianBlur stdDeviation="0.025"/>
<feComposite in2="hardAlpha" operator="arithmetic" k2="-1" k3="1"/>
<feColorMatrix type="matrix" values="0 0 0 0 0.972549 0 0 0 0 0.635294 0 0 0 0 0.380392 0 0 0 1 0"/>
<feBlend mode="normal" in2="effect1_innerShadow_1794_3245" result="effect2_innerShadow_1794_3245"/>
</filter>
<filter id="filter4_ii_1794_3245" x="8.91875" y="15.7854" width="12.268" height="0.985254" filterUnits="userSpaceOnUse" color-interpolation-filters="sRGB">
<feFlood flood-opacity="0" result="BackgroundImageFix"/>
<feBlend mode="normal" in="SourceGraphic" in2="BackgroundImageFix" result="shape"/>
<feColorMatrix in="SourceAlpha" type="matrix" values="0 0 0 0 0 0 0 0 0 0 0 0 0 0 0 0 0 0 127 0" result="hardAlpha"/>
<feOffset dx="0.05" dy="-0.05"/>
<feGaussianBlur stdDeviation="0.025"/>
<feComposite in2="hardAlpha" operator="arithmetic" k2="-1" k3="1"/>
<feColorMatrix type="matrix" values="0 0 0 0 0.721569 0 0 0 0 0.384314 0 0 0 0 0.262745 0 0 0 1 0"/>
<feBlend mode="normal" in2="shape" result="effect1_innerShadow_1794_3245"/>
<feColorMatrix in="SourceAlpha" type="matrix" values="0 0 0 0 0 0 0 0 0 0 0 0 0 0 0 0 0 0 127 0" result="hardAlpha"/>
<feOffset dx="-0.05" dy="0.05"/>
<feGaussianBlur stdDeviation="0.025"/>
<feComposite in2="hardAlpha" operator="arithmetic" k2="-1" k3="1"/>
<feColorMatrix type="matrix" values="0 0 0 0 0.972549 0 0 0 0 0.635294 0 0 0 0 0.380392 0 0 0 1 0"/>
<feBlend mode="normal" in2="effect1_innerShadow_1794_3245" result="effect2_innerShadow_1794_3245"/>
</filter>
<filter id="filter5_ii_1794_3245" x="8.91875" y="18.4036" width="7.98281" height="0.985254" filterUnits="userSpaceOnUse" color-interpolation-filters="sRGB">
<feFlood flood-opacity="0" result="BackgroundImageFix"/>
<feBlend mode="normal" in="SourceGraphic" in2="BackgroundImageFix" result="shape"/>
<feColorMatrix in="SourceAlpha" type="matrix" values="0 0 0 0 0 0 0 0 0 0 0 0 0 0 0 0 0 0 127 0" result="hardAlpha"/>
<feOffset dx="0.05" dy="-0.05"/>
<feGaussianBlur stdDeviation="0.025"/>
<feComposite in2="hardAlpha" operator="arithmetic" k2="-1" k3="1"/>
<feColorMatrix type="matrix" values="0 0 0 0 0.721569 0 0 0 0 0.384314 0 0 0 0 0.262745 0 0 0 1 0"/>
<feBlend mode="normal" in2="shape" result="effect1_innerShadow_1794_3245"/>
<feColorMatrix in="SourceAlpha" type="matrix" values="0 0 0 0 0 0 0 0 0 0 0 0 0 0 0 0 0 0 127 0" result="hardAlpha"/>
<feOffset dx="-0.05" dy="0.05"/>
<feGaussianBlur stdDeviation="0.025"/>
<feComposite in2="hardAlpha" operator="arithmetic" k2="-1" k3="1"/>
<feColorMatrix type="matrix" values="0 0 0 0 0.972549 0 0 0 0 0.635294 0 0 0 0 0.380392 0 0 0 1 0"/>
<feBlend mode="normal" in2="effect1_innerShadow_1794_3245" result="effect2_innerShadow_1794_3245"/>
</filter>
<linearGradient id="paint0_linear_1794_3245" x1="7.87361" y1="14" x2="21.623" y2="18.751" gradientUnits="userSpaceOnUse">
<stop stop-color="#FFBF82"/>
<stop offset="0.736387" stop-color="#FFD8A3"/>
</linearGradient>
<linearGradient id="paint1_linear_1794_3245" x1="14.001" y1="1.72949" x2="14.001" y2="7.59473" gradientUnits="userSpaceOnUse">
<stop stop-color="#FFD27C"/>
<stop offset="1" stop-color="#FFD27C" stop-opacity="0"/>
</linearGradient>
<linearGradient id="paint2_linear_1794_3245" x1="14.001" y1="1.46973" x2="14.001" y2="3.00098" gradientUnits="userSpaceOnUse">
<stop stop-color="#F9B76C"/>
<stop offset="1" stop-color="#FFC573" stop-opacity="0"/>
</linearGradient>
<radialGradient id="paint3_radial_1794_3245" cx="0" cy="0" r="1" gradientUnits="userSpaceOnUse" gradientTransform="translate(10.2969 26.2705) rotate(-90) scale(2.7352 4.46797)">
<stop stop-color="#FFDA8D"/>
<stop offset="1" stop-color="#FFDA8D" stop-opacity="0"/>
</radialGradient>
<radialGradient id="paint4_radial_1794_3245" cx="0" cy="0" r="1" gradientUnits="userSpaceOnUse" gradientTransform="translate(19.14 24.3856) rotate(-90) scale(2.42333 18.3238)">
<stop stop-color="#FFDD93"/>
<stop offset="1" stop-color="#FFDD93" stop-opacity="0"/>
</radialGradient>
<linearGradient id="paint5_linear_1794_3245" x1="18.073" y1="23.7686" x2="18.073" y2="26.2705" gradientUnits="userSpaceOnUse">
<stop stop-color="#E58F4F"/>
<stop offset="1" stop-color="#EE9880"/>
</linearGradient>
<linearGradient id="paint6_linear_1794_3245" x1="16.1538" y1="26.2705" x2="16.1538" y2="25.4775" gradientUnits="userSpaceOnUse">
<stop stop-color="#E07E98"/>
<stop offset="1" stop-color="#E07E98" stop-opacity="0"/>
</linearGradient>
<linearGradient id="paint7_linear_1794_3245" x1="9.12598" y1="11.2861" x2="20.0908" y2="11.2861" gradientUnits="userSpaceOnUse">
<stop stop-color="#D37E48"/>
<stop offset="1" stop-color="#DE8650"/>
</linearGradient>
<linearGradient id="paint8_linear_1794_3245" x1="9.12598" y1="13.9043" x2="20.0908" y2="13.9043" gradientUnits="userSpaceOnUse">
<stop stop-color="#D37E48"/>
<stop offset="1" stop-color="#DE8650"/>
</linearGradient>
<linearGradient id="paint9_linear_1794_3245" x1="9.12598" y1="16.5225" x2="20.0908" y2="16.5225" gradientUnits="userSpaceOnUse">
<stop stop-color="#D37E48"/>
<stop offset="1" stop-color="#DE8650"/>
</linearGradient>
<linearGradient id="paint10_linear_1794_3245" x1="9.07059" y1="19.1406" x2="16.1731" y2="19.1406" gradientUnits="userSpaceOnUse">
<stop stop-color="#D37E48"/>
<stop offset="1" stop-color="#DE8650"/>
</linearGradient>
</defs>
</svg>
