<svg width="40" height="40" viewBox="0 0 40 40" fill="none" xmlns="http://www.w3.org/2000/svg">
<path d="M20.0124 27.4164C26.2256 27.4164 31.2624 22.3796 31.2624 16.1664C31.2624 9.95315 26.2256 4.91635 20.0124 4.91635C13.7992 4.91635 8.7624 9.95315 8.7624 16.1664C8.7624 22.3796 13.7992 27.4164 20.0124 27.4164Z" fill="white"/>
<path d="M20.0124 27.4164C26.2256 27.4164 31.2624 22.3796 31.2624 16.1664C31.2624 9.95315 26.2256 4.91635 20.0124 4.91635C13.7992 4.91635 8.7624 9.95315 8.7624 16.1664C8.7624 22.3796 13.7992 27.4164 20.0124 27.4164Z" fill="url(#paint0_radial_118_417)"/>
<path d="M20.0124 27.4164C26.2256 27.4164 31.2624 22.3796 31.2624 16.1664C31.2624 9.95315 26.2256 4.91635 20.0124 4.91635C13.7992 4.91635 8.7624 9.95315 8.7624 16.1664C8.7624 22.3796 13.7992 27.4164 20.0124 27.4164Z" fill="url(#paint1_radial_118_417)"/>
<g filter="url(#filter0_ii_118_417)">
<path fill-rule="evenodd" clip-rule="evenodd" d="M33.7624 27.2039C33.7624 28.7039 34.9749 29.9164 36.4749 29.9164C37.0499 29.9164 37.5124 30.3789 37.4999 30.9539V32.6289C37.4999 33.2039 37.0374 33.6664 36.4624 33.6664H3.53739C2.96238 33.6664 2.49989 33.2039 2.49989 32.6289V30.9539C2.49989 30.3789 2.96238 29.9164 3.53739 29.9164C5.03738 29.9164 6.24989 28.7039 6.24989 27.2039V16.1664H6.2624C6.2624 15.3789 6.32488 14.5789 6.46238 13.7789C7.78738 6.30387 14.9249 1.30387 22.3999 2.62887C29.0749 3.80387 33.7624 9.61637 33.7499 16.1664H33.7624V27.2039ZM31.2624 16.1664C31.2624 22.3796 26.2256 27.4164 20.0124 27.4164C13.7992 27.4164 8.7624 22.3796 8.7624 16.1664C8.7624 9.95315 13.7992 4.91635 20.0124 4.91635C26.2256 4.91635 31.2624 9.95315 31.2624 16.1664Z" fill="url(#paint2_linear_118_417)"/>
<path fill-rule="evenodd" clip-rule="evenodd" d="M33.7624 27.2039C33.7624 28.7039 34.9749 29.9164 36.4749 29.9164C37.0499 29.9164 37.5124 30.3789 37.4999 30.9539V32.6289C37.4999 33.2039 37.0374 33.6664 36.4624 33.6664H3.53739C2.96238 33.6664 2.49989 33.2039 2.49989 32.6289V30.9539C2.49989 30.3789 2.96238 29.9164 3.53739 29.9164C5.03738 29.9164 6.24989 28.7039 6.24989 27.2039V16.1664H6.2624C6.2624 15.3789 6.32488 14.5789 6.46238 13.7789C7.78738 6.30387 14.9249 1.30387 22.3999 2.62887C29.0749 3.80387 33.7624 9.61637 33.7499 16.1664H33.7624V27.2039ZM31.2624 16.1664C31.2624 22.3796 26.2256 27.4164 20.0124 27.4164C13.7992 27.4164 8.7624 22.3796 8.7624 16.1664C8.7624 9.95315 13.7992 4.91635 20.0124 4.91635C26.2256 4.91635 31.2624 9.95315 31.2624 16.1664Z" fill="url(#paint3_linear_118_417)"/>
<path fill-rule="evenodd" clip-rule="evenodd" d="M33.7624 27.2039C33.7624 28.7039 34.9749 29.9164 36.4749 29.9164C37.0499 29.9164 37.5124 30.3789 37.4999 30.9539V32.6289C37.4999 33.2039 37.0374 33.6664 36.4624 33.6664H3.53739C2.96238 33.6664 2.49989 33.2039 2.49989 32.6289V30.9539C2.49989 30.3789 2.96238 29.9164 3.53739 29.9164C5.03738 29.9164 6.24989 28.7039 6.24989 27.2039V16.1664H6.2624C6.2624 15.3789 6.32488 14.5789 6.46238 13.7789C7.78738 6.30387 14.9249 1.30387 22.3999 2.62887C29.0749 3.80387 33.7624 9.61637 33.7499 16.1664H33.7624V27.2039ZM31.2624 16.1664C31.2624 22.3796 26.2256 27.4164 20.0124 27.4164C13.7992 27.4164 8.7624 22.3796 8.7624 16.1664C8.7624 9.95315 13.7992 4.91635 20.0124 4.91635C26.2256 4.91635 31.2624 9.95315 31.2624 16.1664Z" fill="url(#paint4_linear_118_417)"/>
</g>
<g opacity="0.4" filter="url(#filter1_f_118_417)">
<path d="M20.4582 28.0874C27.2882 28.0874 32.825 22.5506 32.825 15.7206C32.825 8.89059 27.2882 3.35379 20.4582 3.35379C13.6282 3.35379 8.09137 8.89059 8.09137 15.7206C8.09137 22.5506 13.6282 28.0874 20.4582 28.0874Z" stroke="url(#paint5_linear_118_417)" stroke-width="0.4"/>
</g>
<g filter="url(#filter2_f_118_417)">
<path d="M21.0673 17.2162C20.8261 17.768 20.2755 18.1537 19.6348 18.1537C18.7718 18.1537 18.0723 17.4541 18.0723 16.5912C18.0723 15.9504 18.4579 15.3998 19.0098 15.1587V12.2162C19.0098 11.8662 19.2848 11.5912 19.6348 11.5912C19.9848 11.5912 20.2598 11.8662 20.2598 12.2162V15.1587C20.6202 15.3162 20.9098 15.6057 21.0673 15.9662H25.2598C25.6098 15.9662 25.8848 16.2412 25.8848 16.5912C25.8848 16.9412 25.5973 17.2162 25.2598 17.2162H21.0673Z" fill="url(#paint6_linear_118_417)"/>
</g>
<g filter="url(#filter3_i_118_417)">
<path d="M35.6374 33.6664H4.3874C3.3499 33.6664 2.5124 34.5039 2.5124 35.5414C2.5124 36.5789 3.3499 37.4164 4.3874 37.4164H35.6374C36.6749 37.4164 37.5124 36.5789 37.5124 35.5414C37.5124 34.5039 36.6749 33.6664 35.6374 33.6664Z" fill="url(#paint7_linear_118_417)"/>
<path d="M35.6374 33.6664H4.3874C3.3499 33.6664 2.5124 34.5039 2.5124 35.5414C2.5124 36.5789 3.3499 37.4164 4.3874 37.4164H35.6374C36.6749 37.4164 37.5124 36.5789 37.5124 35.5414C37.5124 34.5039 36.6749 33.6664 35.6374 33.6664Z" fill="url(#paint8_radial_118_417)"/>
<path d="M35.6374 33.6664H4.3874C3.3499 33.6664 2.5124 34.5039 2.5124 35.5414C2.5124 36.5789 3.3499 37.4164 4.3874 37.4164H35.6374C36.6749 37.4164 37.5124 36.5789 37.5124 35.5414C37.5124 34.5039 36.6749 33.6664 35.6374 33.6664Z" fill="url(#paint9_linear_118_417)"/>
</g>
<g filter="url(#filter4_d_118_417)">
<path fill-rule="evenodd" clip-rule="evenodd" d="M20.0124 6.16635C20.3576 6.16635 20.6374 6.44617 20.6374 6.79135V8.04135C20.6374 8.38653 20.3576 8.66635 20.0124 8.66635C19.6672 8.66635 19.3874 8.38653 19.3874 8.04135V6.79135C19.3874 6.44617 19.6672 6.16635 20.0124 6.16635Z" fill="url(#paint10_linear_118_417)"/>
<path fill-rule="evenodd" clip-rule="evenodd" d="M20.0124 6.16635C20.3576 6.16635 20.6374 6.44617 20.6374 6.79135V8.04135C20.6374 8.38653 20.3576 8.66635 20.0124 8.66635C19.6672 8.66635 19.3874 8.38653 19.3874 8.04135V6.79135C19.3874 6.44617 19.6672 6.16635 20.0124 6.16635Z" fill="url(#paint11_radial_118_417)"/>
</g>
<g filter="url(#filter5_d_118_417)">
<path fill-rule="evenodd" clip-rule="evenodd" d="M20.0124 23.7039C20.3576 23.7039 20.6374 23.9837 20.6374 24.3289V25.5789C20.6374 25.924 20.3576 26.2039 20.0124 26.2039C19.6672 26.2039 19.3874 25.924 19.3874 25.5789V24.3289C19.3874 23.9837 19.6672 23.7039 20.0124 23.7039Z" fill="url(#paint12_linear_118_417)"/>
<path fill-rule="evenodd" clip-rule="evenodd" d="M20.0124 23.7039C20.3576 23.7039 20.6374 23.9837 20.6374 24.3289V25.5789C20.6374 25.924 20.3576 26.2039 20.0124 26.2039C19.6672 26.2039 19.3874 25.924 19.3874 25.5789V24.3289C19.3874 23.9837 19.6672 23.7039 20.0124 23.7039Z" fill="url(#paint13_radial_118_417)"/>
</g>
<g filter="url(#filter6_d_118_417)">
<path fill-rule="evenodd" clip-rule="evenodd" d="M27.5249 16.1914C27.5249 15.8462 27.8047 15.5664 28.1499 15.5664H29.3999C29.745 15.5664 30.0249 15.8462 30.0249 16.1914C30.0249 16.5366 29.745 16.8164 29.3999 16.8164H28.1499C27.8047 16.8164 27.5249 16.5366 27.5249 16.1914Z" fill="url(#paint14_linear_118_417)"/>
<path fill-rule="evenodd" clip-rule="evenodd" d="M27.5249 16.1914C27.5249 15.8462 27.8047 15.5664 28.1499 15.5664H29.3999C29.745 15.5664 30.0249 15.8462 30.0249 16.1914C30.0249 16.5366 29.745 16.8164 29.3999 16.8164H28.1499C27.8047 16.8164 27.5249 16.5366 27.5249 16.1914Z" fill="url(#paint15_radial_118_417)"/>
</g>
<g filter="url(#filter7_d_118_417)">
<path fill-rule="evenodd" clip-rule="evenodd" d="M9.98737 16.1914C9.98737 15.8462 10.2672 15.5664 10.6124 15.5664H11.8624C12.2076 15.5664 12.4874 15.8462 12.4874 16.1914C12.4874 16.5366 12.2076 16.8164 11.8624 16.8164H10.6124C10.2672 16.8164 9.98737 16.5366 9.98737 16.1914Z" fill="url(#paint16_linear_118_417)"/>
<path fill-rule="evenodd" clip-rule="evenodd" d="M9.98737 16.1914C9.98737 15.8462 10.2672 15.5664 10.6124 15.5664H11.8624C12.2076 15.5664 12.4874 15.8462 12.4874 16.1914C12.4874 16.5366 12.2076 16.8164 11.8624 16.8164H10.6124C10.2672 16.8164 9.98737 16.5366 9.98737 16.1914Z" fill="url(#paint17_radial_118_417)"/>
</g>
<g filter="url(#filter8_d_118_417)">
<path fill-rule="evenodd" clip-rule="evenodd" d="M27.0887 9.09629C27.3345 9.33863 27.3373 9.73434 27.0949 9.98015L26.2199 10.8676C25.9776 11.1134 25.5819 11.1163 25.3361 10.8739C25.0903 10.6316 25.0875 10.2359 25.3298 9.99006L26.2048 9.10256C26.4471 8.85675 26.8429 8.85395 27.0887 9.09629Z" fill="url(#paint18_linear_118_417)"/>
<path fill-rule="evenodd" clip-rule="evenodd" d="M27.0887 9.09629C27.3345 9.33863 27.3373 9.73434 27.0949 9.98015L26.2199 10.8676C25.9776 11.1134 25.5819 11.1163 25.3361 10.8739C25.0903 10.6316 25.0875 10.2359 25.3298 9.99006L26.2048 9.10256C26.4471 8.85675 26.8429 8.85395 27.0887 9.09629Z" fill="url(#paint19_radial_118_417)"/>
</g>
<g filter="url(#filter9_d_118_417)">
<path fill-rule="evenodd" clip-rule="evenodd" d="M14.6918 21.4994C14.9359 21.7435 14.9359 22.1392 14.6918 22.3833L13.8043 23.2708C13.5603 23.5149 13.1645 23.5149 12.9204 23.2708C12.6764 23.0267 12.6764 22.631 12.9204 22.3869L13.8079 21.4994C14.052 21.2553 14.4478 21.2553 14.6918 21.4994Z" fill="url(#paint20_linear_118_417)"/>
<path fill-rule="evenodd" clip-rule="evenodd" d="M14.6918 21.4994C14.9359 21.7435 14.9359 22.1392 14.6918 22.3833L13.8043 23.2708C13.5603 23.5149 13.1645 23.5149 12.9204 23.2708C12.6764 23.0267 12.6764 22.631 12.9204 22.3869L13.8079 21.4994C14.052 21.2553 14.4478 21.2553 14.6918 21.4994Z" fill="url(#paint21_radial_118_417)"/>
</g>
<g filter="url(#filter10_d_118_417)">
<path fill-rule="evenodd" clip-rule="evenodd" d="M25.3361 21.4963C25.5819 21.2539 25.9776 21.2567 26.2199 21.5025L27.0949 22.3901C27.3373 22.6359 27.3345 23.0316 27.0887 23.2739C26.8429 23.5163 26.4471 23.5134 26.2048 23.2676L25.3298 22.3801C25.0875 22.1343 25.0903 21.7386 25.3361 21.4963Z" fill="url(#paint22_linear_118_417)"/>
<path fill-rule="evenodd" clip-rule="evenodd" d="M25.3361 21.4963C25.5819 21.2539 25.9776 21.2567 26.2199 21.5025L27.0949 22.3901C27.3373 22.6359 27.3345 23.0316 27.0887 23.2739C26.8429 23.5163 26.4471 23.5134 26.2048 23.2676L25.3298 22.3801C25.0875 22.1343 25.0903 21.7386 25.3361 21.4963Z" fill="url(#paint23_radial_118_417)"/>
</g>
<g filter="url(#filter11_d_118_417)">
<path fill-rule="evenodd" clip-rule="evenodd" d="M12.9204 9.09941C13.1645 8.85533 13.5603 8.85533 13.8043 9.09941L14.6918 9.98691C14.9359 10.231 14.9359 10.6267 14.6918 10.8708C14.4478 11.1149 14.052 11.1149 13.8079 10.8708L12.9204 9.98329C12.6764 9.73921 12.6764 9.34349 12.9204 9.09941Z" fill="url(#paint24_linear_118_417)"/>
<path fill-rule="evenodd" clip-rule="evenodd" d="M12.9204 9.09941C13.1645 8.85533 13.5603 8.85533 13.8043 9.09941L14.6918 9.98691C14.9359 10.231 14.9359 10.6267 14.6918 10.8708C14.4478 11.1149 14.052 11.1149 13.8079 10.8708L12.9204 9.98329C12.6764 9.73921 12.6764 9.34349 12.9204 9.09941Z" fill="url(#paint25_radial_118_417)"/>
</g>
<path d="M20.0124 16.7914C19.6624 16.7914 19.3874 16.5164 19.3874 16.1664V11.7914C19.3874 11.4414 19.6624 11.1664 20.0124 11.1664C20.3624 11.1664 20.6374 11.4414 20.6374 11.7914V16.1664C20.6374 16.5164 20.3499 16.7914 20.0124 16.7914Z" fill="url(#paint26_linear_118_417)"/>
<path d="M20.0124 16.7914C19.6624 16.7914 19.3874 16.5164 19.3874 16.1664V11.7914C19.3874 11.4414 19.6624 11.1664 20.0124 11.1664C20.3624 11.1664 20.6374 11.4414 20.6374 11.7914V16.1664C20.6374 16.5164 20.3499 16.7914 20.0124 16.7914Z" fill="url(#paint27_radial_118_417)"/>
<path d="M25.6374 16.7914H19.9999C19.6499 16.7914 19.3749 16.5164 19.3749 16.1664C19.3749 15.8164 19.6499 15.5414 19.9999 15.5414H25.6374C25.9874 15.5414 26.2624 15.8164 26.2624 16.1664C26.2624 16.5164 25.9749 16.7914 25.6374 16.7914Z" fill="url(#paint28_linear_118_417)"/>
<path d="M25.6374 16.7914H19.9999C19.6499 16.7914 19.3749 16.5164 19.3749 16.1664C19.3749 15.8164 19.6499 15.5414 19.9999 15.5414H25.6374C25.9874 15.5414 26.2624 15.8164 26.2624 16.1664C26.2624 16.5164 25.9749 16.7914 25.6374 16.7914Z" fill="url(#paint29_radial_118_417)"/>
<path d="M20.0124 17.7289C20.8753 17.7289 21.5749 17.0293 21.5749 16.1664C21.5749 15.3034 20.8753 14.6039 20.0124 14.6039C19.1494 14.6039 18.4499 15.3034 18.4499 16.1664C18.4499 17.0293 19.1494 17.7289 20.0124 17.7289Z" fill="url(#paint30_radial_118_417)"/>
<defs>
<filter id="filter0_ii_118_417" x="2.09989" y="2.41605" width="35.8002" height="31.2503" filterUnits="userSpaceOnUse" color-interpolation-filters="sRGB">
<feFlood flood-opacity="0" result="BackgroundImageFix"/>
<feBlend mode="normal" in="SourceGraphic" in2="BackgroundImageFix" result="shape"/>
<feColorMatrix in="SourceAlpha" type="matrix" values="0 0 0 0 0 0 0 0 0 0 0 0 0 0 0 0 0 0 127 0" result="hardAlpha"/>
<feOffset dx="0.4"/>
<feGaussianBlur stdDeviation="0.4"/>
<feComposite in2="hardAlpha" operator="arithmetic" k2="-1" k3="1"/>
<feColorMatrix type="matrix" values="0 0 0 0 0.32549 0 0 0 0 0.184314 0 0 0 0 0.184314 0 0 0 1 0"/>
<feBlend mode="normal" in2="shape" result="effect1_innerShadow_118_417"/>
<feColorMatrix in="SourceAlpha" type="matrix" values="0 0 0 0 0 0 0 0 0 0 0 0 0 0 0 0 0 0 127 0" result="hardAlpha"/>
<feOffset dx="-0.4"/>
<feGaussianBlur stdDeviation="0.4"/>
<feComposite in2="hardAlpha" operator="arithmetic" k2="-1" k3="1"/>
<feColorMatrix type="matrix" values="0 0 0 0 0.658824 0 0 0 0 0.435294 0 0 0 0 0.396078 0 0 0 1 0"/>
<feBlend mode="normal" in2="effect1_innerShadow_118_417" result="effect2_innerShadow_118_417"/>
</filter>
<filter id="filter1_f_118_417" x="7.49137" y="2.75378" width="25.9336" height="25.9336" filterUnits="userSpaceOnUse" color-interpolation-filters="sRGB">
<feFlood flood-opacity="0" result="BackgroundImageFix"/>
<feBlend mode="normal" in="SourceGraphic" in2="BackgroundImageFix" result="shape"/>
<feGaussianBlur stdDeviation="0.2" result="effect1_foregroundBlur_118_417"/>
</filter>
<filter id="filter2_f_118_417" x="17.4223" y="10.9412" width="9.11252" height="7.8625" filterUnits="userSpaceOnUse" color-interpolation-filters="sRGB">
<feFlood flood-opacity="0" result="BackgroundImageFix"/>
<feBlend mode="normal" in="SourceGraphic" in2="BackgroundImageFix" result="shape"/>
<feGaussianBlur stdDeviation="0.325" result="effect1_foregroundBlur_118_417"/>
</filter>
<filter id="filter3_i_118_417" x="2.5124" y="33.2664" width="35.4" height="4.15" filterUnits="userSpaceOnUse" color-interpolation-filters="sRGB">
<feFlood flood-opacity="0" result="BackgroundImageFix"/>
<feBlend mode="normal" in="SourceGraphic" in2="BackgroundImageFix" result="shape"/>
<feColorMatrix in="SourceAlpha" type="matrix" values="0 0 0 0 0 0 0 0 0 0 0 0 0 0 0 0 0 0 127 0" result="hardAlpha"/>
<feOffset dx="0.4" dy="-0.4"/>
<feGaussianBlur stdDeviation="0.4"/>
<feComposite in2="hardAlpha" operator="arithmetic" k2="-1" k3="1"/>
<feColorMatrix type="matrix" values="0 0 0 0 0.898039 0 0 0 0 0.564706 0 0 0 0 0.258824 0 0 0 1 0"/>
<feBlend mode="normal" in2="shape" result="effect1_innerShadow_118_417"/>
</filter>
<filter id="filter4_d_118_417" x="19.0874" y="6.06635" width="1.65" height="2.9" filterUnits="userSpaceOnUse" color-interpolation-filters="sRGB">
<feFlood flood-opacity="0" result="BackgroundImageFix"/>
<feColorMatrix in="SourceAlpha" type="matrix" values="0 0 0 0 0 0 0 0 0 0 0 0 0 0 0 0 0 0 127 0" result="hardAlpha"/>
<feOffset dx="-0.1" dy="0.1"/>
<feGaussianBlur stdDeviation="0.1"/>
<feComposite in2="hardAlpha" operator="out"/>
<feColorMatrix type="matrix" values="0 0 0 0 0.705882 0 0 0 0 0.533333 0 0 0 0 0.541176 0 0 0 1 0"/>
<feBlend mode="normal" in2="BackgroundImageFix" result="effect1_dropShadow_118_417"/>
<feBlend mode="normal" in="SourceGraphic" in2="effect1_dropShadow_118_417" result="shape"/>
</filter>
<filter id="filter5_d_118_417" x="19.0874" y="23.6039" width="1.65" height="2.9" filterUnits="userSpaceOnUse" color-interpolation-filters="sRGB">
<feFlood flood-opacity="0" result="BackgroundImageFix"/>
<feColorMatrix in="SourceAlpha" type="matrix" values="0 0 0 0 0 0 0 0 0 0 0 0 0 0 0 0 0 0 127 0" result="hardAlpha"/>
<feOffset dx="-0.1" dy="0.1"/>
<feGaussianBlur stdDeviation="0.1"/>
<feComposite in2="hardAlpha" operator="out"/>
<feColorMatrix type="matrix" values="0 0 0 0 0.705882 0 0 0 0 0.533333 0 0 0 0 0.541176 0 0 0 1 0"/>
<feBlend mode="normal" in2="BackgroundImageFix" result="effect1_dropShadow_118_417"/>
<feBlend mode="normal" in="SourceGraphic" in2="effect1_dropShadow_118_417" result="shape"/>
</filter>
<filter id="filter6_d_118_417" x="27.2249" y="15.4664" width="2.9" height="1.65" filterUnits="userSpaceOnUse" color-interpolation-filters="sRGB">
<feFlood flood-opacity="0" result="BackgroundImageFix"/>
<feColorMatrix in="SourceAlpha" type="matrix" values="0 0 0 0 0 0 0 0 0 0 0 0 0 0 0 0 0 0 127 0" result="hardAlpha"/>
<feOffset dx="-0.1" dy="0.1"/>
<feGaussianBlur stdDeviation="0.1"/>
<feComposite in2="hardAlpha" operator="out"/>
<feColorMatrix type="matrix" values="0 0 0 0 0.705882 0 0 0 0 0.533333 0 0 0 0 0.541176 0 0 0 1 0"/>
<feBlend mode="normal" in2="BackgroundImageFix" result="effect1_dropShadow_118_417"/>
<feBlend mode="normal" in="SourceGraphic" in2="effect1_dropShadow_118_417" result="shape"/>
</filter>
<filter id="filter7_d_118_417" x="9.68737" y="15.4664" width="2.9" height="1.65" filterUnits="userSpaceOnUse" color-interpolation-filters="sRGB">
<feFlood flood-opacity="0" result="BackgroundImageFix"/>
<feColorMatrix in="SourceAlpha" type="matrix" values="0 0 0 0 0 0 0 0 0 0 0 0 0 0 0 0 0 0 127 0" result="hardAlpha"/>
<feOffset dx="-0.1" dy="0.1"/>
<feGaussianBlur stdDeviation="0.1"/>
<feComposite in2="hardAlpha" operator="out"/>
<feColorMatrix type="matrix" values="0 0 0 0 0.705882 0 0 0 0 0.533333 0 0 0 0 0.541176 0 0 0 1 0"/>
<feBlend mode="normal" in2="BackgroundImageFix" result="effect1_dropShadow_118_417"/>
<feBlend mode="normal" in="SourceGraphic" in2="effect1_dropShadow_118_417" result="shape"/>
</filter>
<filter id="filter8_d_118_417" x="24.8499" y="8.81635" width="2.525" height="2.53751" filterUnits="userSpaceOnUse" color-interpolation-filters="sRGB">
<feFlood flood-opacity="0" result="BackgroundImageFix"/>
<feColorMatrix in="SourceAlpha" type="matrix" values="0 0 0 0 0 0 0 0 0 0 0 0 0 0 0 0 0 0 127 0" result="hardAlpha"/>
<feOffset dx="-0.1" dy="0.1"/>
<feGaussianBlur stdDeviation="0.1"/>
<feComposite in2="hardAlpha" operator="out"/>
<feColorMatrix type="matrix" values="0 0 0 0 0.705882 0 0 0 0 0.533333 0 0 0 0 0.541176 0 0 0 1 0"/>
<feBlend mode="normal" in2="BackgroundImageFix" result="effect1_dropShadow_118_417"/>
<feBlend mode="normal" in="SourceGraphic" in2="effect1_dropShadow_118_417" result="shape"/>
</filter>
<filter id="filter9_d_118_417" x="12.4374" y="21.2163" width="2.5375" height="2.53751" filterUnits="userSpaceOnUse" color-interpolation-filters="sRGB">
<feFlood flood-opacity="0" result="BackgroundImageFix"/>
<feColorMatrix in="SourceAlpha" type="matrix" values="0 0 0 0 0 0 0 0 0 0 0 0 0 0 0 0 0 0 127 0" result="hardAlpha"/>
<feOffset dx="-0.1" dy="0.1"/>
<feGaussianBlur stdDeviation="0.1"/>
<feComposite in2="hardAlpha" operator="out"/>
<feColorMatrix type="matrix" values="0 0 0 0 0.705882 0 0 0 0 0.533333 0 0 0 0 0.541176 0 0 0 1 0"/>
<feBlend mode="normal" in2="BackgroundImageFix" result="effect1_dropShadow_118_417"/>
<feBlend mode="normal" in="SourceGraphic" in2="effect1_dropShadow_118_417" result="shape"/>
</filter>
<filter id="filter10_d_118_417" x="24.8499" y="21.2163" width="2.525" height="2.53751" filterUnits="userSpaceOnUse" color-interpolation-filters="sRGB">
<feFlood flood-opacity="0" result="BackgroundImageFix"/>
<feColorMatrix in="SourceAlpha" type="matrix" values="0 0 0 0 0 0 0 0 0 0 0 0 0 0 0 0 0 0 127 0" result="hardAlpha"/>
<feOffset dx="-0.1" dy="0.1"/>
<feGaussianBlur stdDeviation="0.1"/>
<feComposite in2="hardAlpha" operator="out"/>
<feColorMatrix type="matrix" values="0 0 0 0 0.705882 0 0 0 0 0.533333 0 0 0 0 0.541176 0 0 0 1 0"/>
<feBlend mode="normal" in2="BackgroundImageFix" result="effect1_dropShadow_118_417"/>
<feBlend mode="normal" in="SourceGraphic" in2="effect1_dropShadow_118_417" result="shape"/>
</filter>
<filter id="filter11_d_118_417" x="12.5374" y="8.81635" width="2.5375" height="2.53751" filterUnits="userSpaceOnUse" color-interpolation-filters="sRGB">
<feFlood flood-opacity="0" result="BackgroundImageFix"/>
<feColorMatrix in="SourceAlpha" type="matrix" values="0 0 0 0 0 0 0 0 0 0 0 0 0 0 0 0 0 0 127 0" result="hardAlpha"/>
<feOffset dy="0.1"/>
<feGaussianBlur stdDeviation="0.1"/>
<feComposite in2="hardAlpha" operator="out"/>
<feColorMatrix type="matrix" values="0 0 0 0 0.705882 0 0 0 0 0.533333 0 0 0 0 0.541176 0 0 0 1 0"/>
<feBlend mode="normal" in2="BackgroundImageFix" result="effect1_dropShadow_118_417"/>
<feBlend mode="normal" in="SourceGraphic" in2="effect1_dropShadow_118_417" result="shape"/>
</filter>
<radialGradient id="paint0_radial_118_417" cx="0" cy="0" r="1" gradientUnits="userSpaceOnUse" gradientTransform="translate(13.9886 23.1348) rotate(-45.2915) scale(16.8809)">
<stop stop-color="#F8E9FE"/>
<stop offset="1" stop-color="#E3D5E8"/>
</radialGradient>
<radialGradient id="paint1_radial_118_417" cx="0" cy="0" r="1" gradientUnits="userSpaceOnUse" gradientTransform="translate(11.3966 21.1799) rotate(-28.664) scale(21.8229 16.6355)">
<stop offset="0.936217" stop-color="#967A97" stop-opacity="0"/>
<stop offset="0.984294" stop-color="#967A97"/>
</radialGradient>
<linearGradient id="paint2_linear_118_417" x1="20" y1="2.41605" x2="20" y2="33.6664" gradientUnits="userSpaceOnUse">
<stop stop-color="#AA6D67"/>
<stop offset="1" stop-color="#724043"/>
</linearGradient>
<linearGradient id="paint3_linear_118_417" x1="20.791" y1="33.6664" x2="20.791" y2="32.0743" gradientUnits="userSpaceOnUse">
<stop stop-color="#612B33"/>
<stop offset="1" stop-color="#612B33" stop-opacity="0"/>
</linearGradient>
<linearGradient id="paint4_linear_118_417" x1="35.1143" y1="2.41605" x2="26.6975" y2="10.737" gradientUnits="userSpaceOnUse">
<stop stop-color="#C78A7B"/>
<stop offset="1" stop-color="#C78A7B" stop-opacity="0"/>
</linearGradient>
<linearGradient id="paint5_linear_118_417" x1="11.3458" y1="22.7668" x2="29.0601" y2="8.22667" gradientUnits="userSpaceOnUse">
<stop stop-color="#A2716C"/>
<stop offset="0.286458" stop-color="#A2716C" stop-opacity="0"/>
<stop offset="0.865314" stop-color="#A2716C" stop-opacity="0"/>
<stop offset="1" stop-color="#C4877B"/>
</linearGradient>
<linearGradient id="paint6_linear_118_417" x1="21.9785" y1="11.5912" x2="21.9785" y2="18.1537" gradientUnits="userSpaceOnUse">
<stop stop-color="#98869F"/>
<stop offset="1" stop-color="#B791AB"/>
</linearGradient>
<linearGradient id="paint7_linear_118_417" x1="5.10109" y1="37.4163" x2="32.6011" y2="37.4163" gradientUnits="userSpaceOnUse">
<stop stop-color="#FFB745"/>
<stop offset="1" stop-color="#FFBE45"/>
</linearGradient>
<radialGradient id="paint8_radial_118_417" cx="0" cy="0" r="1" gradientUnits="userSpaceOnUse" gradientTransform="translate(2.5124 35.5414) scale(34.5238 17.1925)">
<stop offset="0.973795" stop-color="#FFDF73" stop-opacity="0.0145131"/>
<stop offset="1" stop-color="#FFDF73"/>
</radialGradient>
<linearGradient id="paint9_linear_118_417" x1="20.0124" y1="33.3933" x2="20.0124" y2="34.2683" gradientUnits="userSpaceOnUse">
<stop stop-color="#FEA102"/>
<stop offset="1" stop-color="#FEA102" stop-opacity="0"/>
</linearGradient>
<linearGradient id="paint10_linear_118_417" x1="20.0124" y1="6.16635" x2="20.0124" y2="7.90417" gradientUnits="userSpaceOnUse">
<stop stop-color="#F09D25"/>
<stop offset="1" stop-color="#F8A433"/>
</linearGradient>
<radialGradient id="paint11_radial_118_417" cx="0" cy="0" r="1" gradientUnits="userSpaceOnUse" gradientTransform="translate(20.1987 7.25964) rotate(90) scale(1.21094 0.555013)">
<stop stop-color="#FFC06C"/>
<stop offset="1" stop-color="#FFC06C" stop-opacity="0"/>
</radialGradient>
<linearGradient id="paint12_linear_118_417" x1="20.0124" y1="23.7039" x2="20.0124" y2="25.4417" gradientUnits="userSpaceOnUse">
<stop stop-color="#F09D25"/>
<stop offset="1" stop-color="#F8A433"/>
</linearGradient>
<radialGradient id="paint13_radial_118_417" cx="0" cy="0" r="1" gradientUnits="userSpaceOnUse" gradientTransform="translate(20.1987 24.7971) rotate(90) scale(1.21094 0.555013)">
<stop stop-color="#FFC06C"/>
<stop offset="1" stop-color="#FFC06C" stop-opacity="0"/>
</radialGradient>
<linearGradient id="paint14_linear_118_417" x1="28.7749" y1="15.5664" x2="28.7749" y2="16.4353" gradientUnits="userSpaceOnUse">
<stop stop-color="#F09D25"/>
<stop offset="1" stop-color="#F8A433"/>
</linearGradient>
<radialGradient id="paint15_radial_118_417" cx="0" cy="0" r="1" gradientUnits="userSpaceOnUse" gradientTransform="translate(29.1476 16.113) rotate(90) scale(0.605469 1.11003)">
<stop stop-color="#FFC06C"/>
<stop offset="1" stop-color="#FFC06C" stop-opacity="0"/>
</radialGradient>
<linearGradient id="paint16_linear_118_417" x1="11.2374" y1="15.5664" x2="11.2374" y2="16.4353" gradientUnits="userSpaceOnUse">
<stop stop-color="#F09D25"/>
<stop offset="1" stop-color="#F8A433"/>
</linearGradient>
<radialGradient id="paint17_radial_118_417" cx="0" cy="0" r="1" gradientUnits="userSpaceOnUse" gradientTransform="translate(11.6101 16.113) rotate(90) scale(0.605469 1.11003)">
<stop stop-color="#FFC06C"/>
<stop offset="1" stop-color="#FFC06C" stop-opacity="0"/>
</radialGradient>
<linearGradient id="paint18_linear_118_417" x1="26.2124" y1="8.91635" x2="26.2124" y2="10.4022" gradientUnits="userSpaceOnUse">
<stop stop-color="#F09D25"/>
<stop offset="1" stop-color="#F8A433"/>
</linearGradient>
<radialGradient id="paint19_radial_118_417" cx="0" cy="0" r="1" gradientUnits="userSpaceOnUse" gradientTransform="translate(26.5292 9.85112) rotate(90) scale(1.03535 0.94352)">
<stop stop-color="#FFC06C"/>
<stop offset="1" stop-color="#FFC06C" stop-opacity="0"/>
</radialGradient>
<linearGradient id="paint20_linear_118_417" x1="13.8061" y1="21.3163" x2="13.8061" y2="22.8022" gradientUnits="userSpaceOnUse">
<stop stop-color="#F09D25"/>
<stop offset="1" stop-color="#F8A433"/>
</linearGradient>
<radialGradient id="paint21_radial_118_417" cx="0" cy="0" r="1" gradientUnits="userSpaceOnUse" gradientTransform="translate(14.1248 22.2511) rotate(90) scale(1.03535 0.949072)">
<stop stop-color="#FFC06C"/>
<stop offset="1" stop-color="#FFC06C" stop-opacity="0"/>
</radialGradient>
<linearGradient id="paint22_linear_118_417" x1="26.2124" y1="21.3163" x2="26.2124" y2="22.8022" gradientUnits="userSpaceOnUse">
<stop stop-color="#F09D25"/>
<stop offset="1" stop-color="#F8A433"/>
</linearGradient>
<radialGradient id="paint23_radial_118_417" cx="0" cy="0" r="1" gradientUnits="userSpaceOnUse" gradientTransform="translate(26.5292 22.2511) rotate(90) scale(1.03535 0.94352)">
<stop stop-color="#FFC06C"/>
<stop offset="1" stop-color="#FFC06C" stop-opacity="0"/>
</radialGradient>
<linearGradient id="paint24_linear_118_417" x1="13.8061" y1="8.91635" x2="13.8061" y2="10.4022" gradientUnits="userSpaceOnUse">
<stop stop-color="#F09D25"/>
<stop offset="1" stop-color="#F8A433"/>
</linearGradient>
<radialGradient id="paint25_radial_118_417" cx="0" cy="0" r="1" gradientUnits="userSpaceOnUse" gradientTransform="translate(14.1248 9.85112) rotate(90) scale(1.03535 0.949072)">
<stop stop-color="#FFC06C"/>
<stop offset="1" stop-color="#FFC06C" stop-opacity="0"/>
</radialGradient>
<linearGradient id="paint26_linear_118_417" x1="19.3874" y1="13.5497" x2="20.6374" y2="13.5497" gradientUnits="userSpaceOnUse">
<stop stop-color="#322333"/>
<stop offset="1" stop-color="#613460"/>
</linearGradient>
<radialGradient id="paint27_radial_118_417" cx="0" cy="0" r="1" gradientUnits="userSpaceOnUse" gradientTransform="translate(20.6374 11.5982) rotate(90) scale(1.18274 0.864007)">
<stop stop-color="#6D3F6A"/>
<stop offset="1" stop-color="#6D3F6A" stop-opacity="0"/>
</radialGradient>
<linearGradient id="paint28_linear_118_417" x1="21.922" y1="16.071" x2="26.2624" y2="16.071" gradientUnits="userSpaceOnUse">
<stop stop-color="#322333"/>
<stop offset="1" stop-color="#613460"/>
</linearGradient>
<radialGradient id="paint29_radial_118_417" cx="0" cy="0" r="1" gradientUnits="userSpaceOnUse" gradientTransform="translate(26.2624 15.6392) rotate(90) scale(0.946194 1.91574)">
<stop stop-color="#6D3F6A"/>
<stop offset="1" stop-color="#6D3F6A" stop-opacity="0"/>
</radialGradient>
<radialGradient id="paint30_radial_118_417" cx="0" cy="0" r="1" gradientUnits="userSpaceOnUse" gradientTransform="translate(21.1359 15.4755) rotate(142.515) scale(2.89997 2.73604)">
<stop stop-color="#FFDF73"/>
<stop offset="1" stop-color="#FB9F2F"/>
</radialGradient>
</defs>
</svg>
