<svg width="24" height="24" viewBox="0 0 24 24" fill="none" xmlns="http://www.w3.org/2000/svg">
<g filter="url(#filter0_iii_138_1717)">
<path d="M11.8659 8.32948C11.7381 8.82584 11.3041 9.19611 10.7911 9.45261C9.3369 9.95575 8.18823 10.4398 7.23775 10.9096C6.39631 11.3256 6.40443 12.6401 7.2486 13.0505C8.23493 13.53 9.4733 13.9899 10.8486 14.5351C11.2184 14.6817 11.741 15.0958 11.8711 15.6049C12.272 17.1737 12.8174 18.8344 13.418 20.3676C13.8842 21.5577 15.0368 21.5568 15.5053 20.3676C16.1135 18.8238 16.5755 17.1562 17.097 15.5697C17.2218 15.0798 17.5912 14.6924 18.0677 14.5236C19.3555 14.0675 20.5968 13.5527 21.6087 13.107C22.5536 12.6908 22.5731 11.3396 21.64 10.8976C20.6436 10.4255 19.4041 9.87887 18.0616 9.39104C17.589 9.21933 17.2255 8.85698 17.0575 8.34261C16.4916 6.6094 16.133 5.13995 15.5318 3.61395C15.0633 2.42471 13.8334 2.46132 13.3649 3.65055C12.7659 5.17092 12.3478 6.68425 11.8659 8.32948Z" fill="url(#paint0_linear_138_1717)"/>
</g>
<g filter="url(#filter1_ii_138_1717)">
<path d="M5.826 4.36221C5.78486 4.52197 5.64519 4.64114 5.48008 4.7237C5.01202 4.88564 4.64231 5.04143 4.3364 5.19265C4.06557 5.32653 4.06819 5.74961 4.33989 5.8817C4.65735 6.03603 5.05592 6.18405 5.49859 6.35953C5.61761 6.40671 5.78581 6.54001 5.82768 6.70386C5.9567 7.20878 6.13225 7.74331 6.32555 8.23675C6.4756 8.61981 6.84658 8.61952 6.99737 8.23675C7.19311 7.73988 7.34182 7.20317 7.50966 6.69251C7.54982 6.53485 7.66874 6.41017 7.8221 6.35585C8.23658 6.20902 8.63611 6.04333 8.96178 5.89988C9.26591 5.76593 9.27217 5.33105 8.97185 5.18877C8.65116 5.03683 8.25223 4.86089 7.82012 4.70388C7.66802 4.64861 7.55102 4.53199 7.49696 4.36644C7.31482 3.80859 7.19941 3.33564 7.00591 2.84448C6.85511 2.46172 6.45926 2.4735 6.30847 2.85626C6.11568 3.34561 5.9811 3.83268 5.826 4.36221Z" fill="url(#paint1_linear_138_1717)"/>
</g>
<path d="M5.826 4.36221C5.78486 4.52197 5.64519 4.64114 5.48008 4.7237C5.01202 4.88564 4.64231 5.04143 4.3364 5.19265C4.06557 5.32653 4.06819 5.74961 4.33989 5.8817C4.65735 6.03603 5.05592 6.18405 5.49859 6.35953C5.61761 6.40671 5.78581 6.54001 5.82768 6.70386C5.9567 7.20878 6.13225 7.74331 6.32555 8.23675C6.4756 8.61981 6.84658 8.61952 6.99737 8.23675C7.19311 7.73988 7.34182 7.20317 7.50966 6.69251C7.54982 6.53485 7.66874 6.41017 7.8221 6.35585C8.23658 6.20902 8.63611 6.04333 8.96178 5.89988C9.26591 5.76593 9.27217 5.33105 8.97185 5.18877C8.65116 5.03683 8.25223 4.86089 7.82012 4.70388C7.66802 4.64861 7.55102 4.53199 7.49696 4.36644C7.31482 3.80859 7.19941 3.33564 7.00591 2.84448C6.85511 2.46172 6.45926 2.4735 6.30847 2.85626C6.11568 3.34561 5.9811 3.83268 5.826 4.36221Z" fill="url(#paint2_linear_138_1717)"/>
<g filter="url(#filter2_i_138_1717)">
<path d="M3.91951 15.0492C3.86214 15.272 3.66737 15.4382 3.43713 15.5533C2.78445 15.7791 2.26891 15.9964 1.84232 16.2073C1.46467 16.3939 1.46832 16.9839 1.84719 17.1681C2.28987 17.3833 2.84567 17.5897 3.46294 17.8344C3.62891 17.9002 3.86345 18.0861 3.92184 18.3146C4.10177 19.0186 4.34655 19.764 4.6161 20.4521C4.82535 20.9863 5.34265 20.9859 5.55292 20.4521C5.82587 19.7592 6.03324 19.0108 6.26729 18.2987C6.3233 18.0789 6.48912 17.905 6.70297 17.8293C7.28094 17.6245 7.83807 17.3935 8.29221 17.1934C8.71629 17.0067 8.72503 16.4002 8.30625 16.2018C7.85905 15.99 7.30277 15.7446 6.7002 15.5257C6.48811 15.4486 6.32496 15.286 6.24958 15.0551C5.99559 14.2772 5.83465 13.6177 5.56483 12.9328C5.35455 12.3991 4.80256 12.4155 4.59228 12.9493C4.32346 13.6316 4.13578 14.3108 3.91951 15.0492Z" fill="url(#paint3_radial_138_1717)"/>
</g>
<defs>
<filter id="filter0_iii_138_1717" x="6.21105" y="2.49011" width="16.3677" height="19.0197" filterUnits="userSpaceOnUse" color-interpolation-filters="sRGB">
<feFlood flood-opacity="0" result="BackgroundImageFix"/>
<feBlend mode="normal" in="SourceGraphic" in2="BackgroundImageFix" result="shape"/>
<feColorMatrix in="SourceAlpha" type="matrix" values="0 0 0 0 0 0 0 0 0 0 0 0 0 0 0 0 0 0 127 0" result="hardAlpha"/>
<feOffset dx="0.25" dy="-0.25"/>
<feGaussianBlur stdDeviation="0.25"/>
<feComposite in2="hardAlpha" operator="arithmetic" k2="-1" k3="1"/>
<feColorMatrix type="matrix" values="0 0 0 0 0.937255 0 0 0 0 0.482353 0 0 0 0 0.329412 0 0 0 1 0"/>
<feBlend mode="normal" in2="shape" result="effect1_innerShadow_138_1717"/>
<feColorMatrix in="SourceAlpha" type="matrix" values="0 0 0 0 0 0 0 0 0 0 0 0 0 0 0 0 0 0 127 0" result="hardAlpha"/>
<feOffset dx="0.25" dy="0.25"/>
<feGaussianBlur stdDeviation="0.5"/>
<feComposite in2="hardAlpha" operator="arithmetic" k2="-1" k3="1"/>
<feColorMatrix type="matrix" values="0 0 0 0 0.737255 0 0 0 0 0.615686 0 0 0 0 0.415686 0 0 0 1 0"/>
<feBlend mode="normal" in2="effect1_innerShadow_138_1717" result="effect2_innerShadow_138_1717"/>
<feColorMatrix in="SourceAlpha" type="matrix" values="0 0 0 0 0 0 0 0 0 0 0 0 0 0 0 0 0 0 127 0" result="hardAlpha"/>
<feOffset dx="-0.4" dy="0.25"/>
<feGaussianBlur stdDeviation="0.2"/>
<feComposite in2="hardAlpha" operator="arithmetic" k2="-1" k3="1"/>
<feColorMatrix type="matrix" values="0 0 0 0 1 0 0 0 0 0.901961 0 0 0 0 0.458824 0 0 0 1 0"/>
<feBlend mode="normal" in2="effect2_innerShadow_138_1717" result="effect3_innerShadow_138_1717"/>
</filter>
<filter id="filter1_ii_138_1717" x="4.03469" y="2.56323" width="5.25884" height="6.06069" filterUnits="userSpaceOnUse" color-interpolation-filters="sRGB">
<feFlood flood-opacity="0" result="BackgroundImageFix"/>
<feBlend mode="normal" in="SourceGraphic" in2="BackgroundImageFix" result="shape"/>
<feColorMatrix in="SourceAlpha" type="matrix" values="0 0 0 0 0 0 0 0 0 0 0 0 0 0 0 0 0 0 127 0" result="hardAlpha"/>
<feOffset dx="0.1" dy="0.1"/>
<feGaussianBlur stdDeviation="0.1"/>
<feComposite in2="hardAlpha" operator="arithmetic" k2="-1" k3="1"/>
<feColorMatrix type="matrix" values="0 0 0 0 0.803922 0 0 0 0 0.6 0 0 0 0 0.262745 0 0 0 1 0"/>
<feBlend mode="normal" in2="shape" result="effect1_innerShadow_138_1717"/>
<feColorMatrix in="SourceAlpha" type="matrix" values="0 0 0 0 0 0 0 0 0 0 0 0 0 0 0 0 0 0 127 0" result="hardAlpha"/>
<feOffset dx="-0.1" dy="0.1"/>
<feGaussianBlur stdDeviation="0.1"/>
<feComposite in2="hardAlpha" operator="arithmetic" k2="-1" k3="1"/>
<feColorMatrix type="matrix" values="0 0 0 0 1 0 0 0 0 0.882353 0 0 0 0 0.423529 0 0 0 1 0"/>
<feBlend mode="normal" in2="effect1_innerShadow_138_1717" result="effect2_innerShadow_138_1717"/>
</filter>
<filter id="filter2_i_138_1717" x="1.56105" y="12.3906" width="7.20431" height="8.46189" filterUnits="userSpaceOnUse" color-interpolation-filters="sRGB">
<feFlood flood-opacity="0" result="BackgroundImageFix"/>
<feBlend mode="normal" in="SourceGraphic" in2="BackgroundImageFix" result="shape"/>
<feColorMatrix in="SourceAlpha" type="matrix" values="0 0 0 0 0 0 0 0 0 0 0 0 0 0 0 0 0 0 127 0" result="hardAlpha"/>
<feOffset dx="0.15" dy="-0.15"/>
<feGaussianBlur stdDeviation="0.15"/>
<feComposite in2="hardAlpha" operator="arithmetic" k2="-1" k3="1"/>
<feColorMatrix type="matrix" values="0 0 0 0 1 0 0 0 0 0.458824 0 0 0 0 0.462745 0 0 0 1 0"/>
<feBlend mode="normal" in2="shape" result="effect1_innerShadow_138_1717"/>
</filter>
<linearGradient id="paint0_linear_138_1717" x1="19.5965" y1="8.45342" x2="11.2893" y2="17.1985" gradientUnits="userSpaceOnUse">
<stop stop-color="#FFCF5A"/>
<stop offset="1" stop-color="#FFF173"/>
</linearGradient>
<linearGradient id="paint1_linear_138_1717" x1="8.31416" y1="4.4021" x2="5.64043" y2="7.21677" gradientUnits="userSpaceOnUse">
<stop stop-color="#FFDA72"/>
<stop offset="1" stop-color="#F7A967"/>
</linearGradient>
<linearGradient id="paint2_linear_138_1717" x1="6.66411" y1="8.98523" x2="6.66411" y2="5.89148" gradientUnits="userSpaceOnUse">
<stop stop-color="#FFF173"/>
<stop offset="1" stop-color="#FFF173" stop-opacity="0"/>
</linearGradient>
<radialGradient id="paint3_radial_138_1717" cx="0" cy="0" r="1" gradientUnits="userSpaceOnUse" gradientTransform="translate(7.51014 13.9253) rotate(127.221) scale(5.30699 5.168)">
<stop offset="0.364601" stop-color="#FFBC64"/>
<stop offset="1" stop-color="#FFF173"/>
</radialGradient>
</defs>
</svg>
