<svg width="24" height="24" viewBox="0 0 24 24" fill="none" xmlns="http://www.w3.org/2000/svg">
<g filter="url(#filter0_i_138_1692)">
<path d="M14.0148 18.6415C14.3442 18.4979 14.4812 18.2877 14.5803 18.164C15.4693 17.0536 13.5725 13.7577 10.8644 11.8506C7.99433 9.35149 4.83419 8.49989 3.9452 9.6103C3.79261 9.80087 3.67304 10.0605 3.62323 10.3534L1.93573 20.0624C1.87714 21.246 2.32951 21.6958 2.5559 21.9155C2.96612 22.3137 3.76386 22.6523 4.59589 22.3593C7.80683 21.123 10.8149 20.0366 14.0148 18.6415Z" fill="url(#paint0_linear_138_1692)"/>
</g>
<path d="M14.0148 18.6415C14.3442 18.4979 14.4812 18.2877 14.5803 18.164C15.4693 17.0536 13.5725 13.7577 10.8644 11.8506C7.99433 9.35149 4.83419 8.49989 3.9452 9.6103C3.79261 9.80087 3.67304 10.0605 3.62323 10.3534L1.93573 20.0624C1.87714 21.246 2.32951 21.6958 2.5559 21.9155C2.96612 22.3137 3.76386 22.6523 4.59589 22.3593C7.80683 21.123 10.8149 20.0366 14.0148 18.6415Z" fill="url(#paint1_linear_138_1692)"/>
<path d="M14.0148 18.6415C14.3442 18.4979 14.4812 18.2877 14.5803 18.164C15.4693 17.0536 13.5725 13.7577 10.8644 11.8506C7.99433 9.35149 4.83419 8.49989 3.9452 9.6103C3.79261 9.80087 3.67304 10.0605 3.62323 10.3534L1.93573 20.0624C1.87714 21.246 2.32951 21.6958 2.5559 21.9155C2.96612 22.3137 3.76386 22.6523 4.59589 22.3593C7.80683 21.123 10.8149 20.0366 14.0148 18.6415Z" fill="url(#paint2_linear_138_1692)"/>
<path d="M14.0148 18.6415C14.3442 18.4979 14.4812 18.2877 14.5803 18.164C15.4693 17.0536 13.5725 13.7577 10.8644 11.8506C7.99433 9.35149 4.83419 8.49989 3.9452 9.6103C3.79261 9.80087 3.67304 10.0605 3.62323 10.3534L1.93573 20.0624C1.87714 21.246 2.32951 21.6958 2.5559 21.9155C2.96612 22.3137 3.76386 22.6523 4.59589 22.3593C7.80683 21.123 10.8149 20.0366 14.0148 18.6415Z" fill="url(#paint3_linear_138_1692)"/>
<g filter="url(#filter1_f_138_1692)">
<ellipse cx="9.22362" cy="13.9678" rx="6.57932" ry="2.59816" transform="rotate(39.7456 9.22362 13.9678)" fill="url(#paint4_linear_138_1692)"/>
</g>
<g filter="url(#filter2_f_138_1692)">
<ellipse cx="9.41592" cy="13.6401" rx="6.09767" ry="2.18652" transform="rotate(39.7456 9.41592 13.6401)" fill="url(#paint5_linear_138_1692)"/>
<ellipse cx="9.41592" cy="13.6401" rx="6.09767" ry="2.18652" transform="rotate(39.7456 9.41592 13.6401)" fill="url(#paint6_radial_138_1692)"/>
<ellipse cx="9.41592" cy="13.6401" rx="6.09767" ry="2.18652" transform="rotate(39.7456 9.41592 13.6401)" fill="url(#paint7_radial_138_1692)"/>
</g>
<circle cx="11.217" cy="12" r="0.902344" fill="url(#paint8_radial_138_1692)"/>
<circle cx="11.217" cy="12" r="0.902344" fill="url(#paint9_radial_138_1692)"/>
<circle cx="18.6232" cy="17.1797" r="0.902344" fill="url(#paint10_radial_138_1692)"/>
<circle cx="18.6232" cy="17.1797" r="0.902344" fill="url(#paint11_radial_138_1692)"/>
<circle cx="18.6232" cy="17.1797" r="0.902344" fill="url(#paint12_radial_138_1692)"/>
<circle cx="17.8674" cy="5.26172" r="0.902344" fill="url(#paint13_radial_138_1692)"/>
<circle cx="17.8674" cy="5.26172" r="0.902344" fill="url(#paint14_radial_138_1692)"/>
<circle cx="7.49316" cy="2.52539" r="0.902344" fill="url(#paint15_radial_138_1692)"/>
<circle cx="7.49316" cy="2.52539" r="0.902344" fill="url(#paint16_radial_138_1692)"/>
<circle cx="7.49316" cy="2.52539" r="0.902344" fill="url(#paint17_radial_138_1692)"/>
<ellipse cx="3.69629" cy="6.08203" rx="0.902344" ry="0.902344" fill="url(#paint18_radial_138_1692)"/>
<ellipse cx="3.69629" cy="6.08203" rx="0.902344" ry="0.902344" fill="url(#paint19_radial_138_1692)"/>
<path d="M11.9644 19.5069C10.0099 19.3711 8.6391 18.7861 6.41815 16.9512C4.50759 15.3727 3.55904 13.9723 3.24245 12.5443L2.87567 14.6546C3.02557 15.4805 3.6701 16.6348 4.94745 17.7891C6.61807 19.2988 8.28143 20.3672 9.92638 20.3204C10.6034 20.056 11.2814 19.7864 11.9644 19.5069Z" fill="url(#paint20_radial_138_1692)"/>
<path d="M7.84271 21.1222C6.90335 21.1745 5.63299 20.4082 4.31463 19.3125C3.18963 18.3398 2.63471 17.2831 2.51792 16.7129L2.14545 18.8559C2.23758 19.2182 2.51816 19.7106 3.33026 20.543C4.23835 21.4738 5.15155 21.836 5.69386 21.939C6.07866 21.7923 6.46114 21.6471 6.842 21.5025C7.17666 21.3754 7.51007 21.2488 7.84271 21.1222Z" fill="url(#paint21_radial_138_1692)"/>
<g filter="url(#filter3_i_138_1692)">
<path fill-rule="evenodd" clip-rule="evenodd" d="M20.9274 9.83147C18.229 9.30433 16.6345 10.5405 16.1291 11.095C15.8361 11.4164 15.338 11.4394 15.0166 11.1464C14.6951 10.8534 14.6721 10.3553 14.9651 10.0339C15.7488 9.17427 17.8691 7.62926 21.2293 8.28569C21.6562 8.36908 21.9346 8.78272 21.8512 9.20957C21.7678 9.63643 21.3542 9.91486 20.9274 9.83147Z" fill="url(#paint22_radial_138_1692)"/>
<path fill-rule="evenodd" clip-rule="evenodd" d="M20.9274 9.83147C18.229 9.30433 16.6345 10.5405 16.1291 11.095C15.8361 11.4164 15.338 11.4394 15.0166 11.1464C14.6951 10.8534 14.6721 10.3553 14.9651 10.0339C15.7488 9.17427 17.8691 7.62926 21.2293 8.28569C21.6562 8.36908 21.9346 8.78272 21.8512 9.20957C21.7678 9.63643 21.3542 9.91486 20.9274 9.83147Z" fill="url(#paint23_radial_138_1692)"/>
</g>
<path fill-rule="evenodd" clip-rule="evenodd" d="M14.328 1.5617C14.7211 1.58008 15.0248 1.91363 15.0065 2.3067C14.9812 2.84789 14.8827 3.74944 14.6476 4.71245C14.4511 5.51739 14.1485 6.41018 13.6827 7.17561C13.7953 7.77276 13.7983 8.47738 13.6747 9.27859C13.6147 9.66749 13.2507 9.9341 12.8618 9.87407C12.4729 9.81405 12.2063 9.45013 12.2664 9.06123C12.294 8.88196 12.3136 8.71409 12.3263 8.55698C12.188 8.62909 12.0463 8.68562 11.9017 8.72602C11.3369 8.88384 10.7952 8.77446 10.3714 8.49217C9.56636 7.95588 9.19515 6.78229 9.8183 5.82284C10.4111 4.91011 11.6466 4.66196 12.5861 5.31134C12.6944 5.38621 12.7962 5.47058 12.8909 5.56419C13.0408 5.18513 13.1641 4.78065 13.2632 4.3745C13.4741 3.51066 13.5615 2.70091 13.583 2.24015C13.6014 1.84708 13.9349 1.54333 14.328 1.5617ZM12.1177 6.91707C12.0095 6.69183 11.881 6.55627 11.7758 6.48356C11.4819 6.28041 11.1588 6.37502 11.0134 6.59902C10.8574 6.8392 10.9399 7.15862 11.1615 7.30622C11.251 7.36589 11.3658 7.39618 11.5183 7.35359C11.6562 7.31505 11.8673 7.20314 12.1177 6.91707Z" fill="url(#paint24_linear_138_1692)"/>
<path fill-rule="evenodd" clip-rule="evenodd" d="M14.328 1.5617C14.7211 1.58008 15.0248 1.91363 15.0065 2.3067C14.9812 2.84789 14.8827 3.74944 14.6476 4.71245C14.4511 5.51739 14.1485 6.41018 13.6827 7.17561C13.7953 7.77276 13.7983 8.47738 13.6747 9.27859C13.6147 9.66749 13.2507 9.9341 12.8618 9.87407C12.4729 9.81405 12.2063 9.45013 12.2664 9.06123C12.294 8.88196 12.3136 8.71409 12.3263 8.55698C12.188 8.62909 12.0463 8.68562 11.9017 8.72602C11.3369 8.88384 10.7952 8.77446 10.3714 8.49217C9.56636 7.95588 9.19515 6.78229 9.8183 5.82284C10.4111 4.91011 11.6466 4.66196 12.5861 5.31134C12.6944 5.38621 12.7962 5.47058 12.8909 5.56419C13.0408 5.18513 13.1641 4.78065 13.2632 4.3745C13.4741 3.51066 13.5615 2.70091 13.583 2.24015C13.6014 1.84708 13.9349 1.54333 14.328 1.5617ZM12.1177 6.91707C12.0095 6.69183 11.881 6.55627 11.7758 6.48356C11.4819 6.28041 11.1588 6.37502 11.0134 6.59902C10.8574 6.8392 10.9399 7.15862 11.1615 7.30622C11.251 7.36589 11.3658 7.39618 11.5183 7.35359C11.6562 7.31505 11.8673 7.20314 12.1177 6.91707Z" fill="url(#paint25_radial_138_1692)"/>
<path fill-rule="evenodd" clip-rule="evenodd" d="M14.328 1.5617C14.7211 1.58008 15.0248 1.91363 15.0065 2.3067C14.9812 2.84789 14.8827 3.74944 14.6476 4.71245C14.4511 5.51739 14.1485 6.41018 13.6827 7.17561C13.7953 7.77276 13.7983 8.47738 13.6747 9.27859C13.6147 9.66749 13.2507 9.9341 12.8618 9.87407C12.4729 9.81405 12.2063 9.45013 12.2664 9.06123C12.294 8.88196 12.3136 8.71409 12.3263 8.55698C12.188 8.62909 12.0463 8.68562 11.9017 8.72602C11.3369 8.88384 10.7952 8.77446 10.3714 8.49217C9.56636 7.95588 9.19515 6.78229 9.8183 5.82284C10.4111 4.91011 11.6466 4.66196 12.5861 5.31134C12.6944 5.38621 12.7962 5.47058 12.8909 5.56419C13.0408 5.18513 13.1641 4.78065 13.2632 4.3745C13.4741 3.51066 13.5615 2.70091 13.583 2.24015C13.6014 1.84708 13.9349 1.54333 14.328 1.5617ZM12.1177 6.91707C12.0095 6.69183 11.881 6.55627 11.7758 6.48356C11.4819 6.28041 11.1588 6.37502 11.0134 6.59902C10.8574 6.8392 10.9399 7.15862 11.1615 7.30622C11.251 7.36589 11.3658 7.39618 11.5183 7.35359C11.6562 7.31505 11.8673 7.20314 12.1177 6.91707Z" fill="url(#paint26_radial_138_1692)"/>
<path fill-rule="evenodd" clip-rule="evenodd" d="M14.328 1.5617C14.7211 1.58008 15.0248 1.91363 15.0065 2.3067C14.9812 2.84789 14.8827 3.74944 14.6476 4.71245C14.4511 5.51739 14.1485 6.41018 13.6827 7.17561C13.7953 7.77276 13.7983 8.47738 13.6747 9.27859C13.6147 9.66749 13.2507 9.9341 12.8618 9.87407C12.4729 9.81405 12.2063 9.45013 12.2664 9.06123C12.294 8.88196 12.3136 8.71409 12.3263 8.55698C12.188 8.62909 12.0463 8.68562 11.9017 8.72602C11.3369 8.88384 10.7952 8.77446 10.3714 8.49217C9.56636 7.95588 9.19515 6.78229 9.8183 5.82284C10.4111 4.91011 11.6466 4.66196 12.5861 5.31134C12.6944 5.38621 12.7962 5.47058 12.8909 5.56419C13.0408 5.18513 13.1641 4.78065 13.2632 4.3745C13.4741 3.51066 13.5615 2.70091 13.583 2.24015C13.6014 1.84708 13.9349 1.54333 14.328 1.5617ZM12.1177 6.91707C12.0095 6.69183 11.881 6.55627 11.7758 6.48356C11.4819 6.28041 11.1588 6.37502 11.0134 6.59902C10.8574 6.8392 10.9399 7.15862 11.1615 7.30622C11.251 7.36589 11.3658 7.39618 11.5183 7.35359C11.6562 7.31505 11.8673 7.20314 12.1177 6.91707Z" fill="url(#paint27_radial_138_1692)"/>
<path fill-rule="evenodd" clip-rule="evenodd" d="M10.3812 16.9546C9.86802 16.6709 9.33312 16.3273 8.7951 15.9306C9.60986 14.9206 11.0653 13.5961 12.963 12.6395C16.0811 11.0678 19.519 11.9208 20.9199 12.4762C21.4012 12.667 21.6367 13.2119 21.4459 13.6932C21.2551 14.1745 20.7102 14.41 20.2289 14.2192C19.0282 13.7432 16.2205 13.0972 13.807 14.3138C12.2151 15.1162 11.0314 16.195 10.3812 16.9546Z" fill="url(#paint28_linear_138_1692)"/>
<path fill-rule="evenodd" clip-rule="evenodd" d="M10.3812 16.9546C9.86802 16.6709 9.33312 16.3273 8.7951 15.9306C9.60986 14.9206 11.0653 13.5961 12.963 12.6395C16.0811 11.0678 19.519 11.9208 20.9199 12.4762C21.4012 12.667 21.6367 13.2119 21.4459 13.6932C21.2551 14.1745 20.7102 14.41 20.2289 14.2192C19.0282 13.7432 16.2205 13.0972 13.807 14.3138C12.2151 15.1162 11.0314 16.195 10.3812 16.9546Z" fill="url(#paint29_radial_138_1692)"/>
<path fill-rule="evenodd" clip-rule="evenodd" d="M10.3812 16.9546C9.86802 16.6709 9.33312 16.3273 8.7951 15.9306C9.60986 14.9206 11.0653 13.5961 12.963 12.6395C16.0811 11.0678 19.519 11.9208 20.9199 12.4762C21.4012 12.667 21.6367 13.2119 21.4459 13.6932C21.2551 14.1745 20.7102 14.41 20.2289 14.2192C19.0282 13.7432 16.2205 13.0972 13.807 14.3138C12.2151 15.1162 11.0314 16.195 10.3812 16.9546Z" fill="url(#paint30_radial_138_1692)"/>
<path fill-rule="evenodd" clip-rule="evenodd" d="M10.3812 16.9546C9.86802 16.6709 9.33312 16.3273 8.7951 15.9306C9.60986 14.9206 11.0653 13.5961 12.963 12.6395C16.0811 11.0678 19.519 11.9208 20.9199 12.4762C21.4012 12.667 21.6367 13.2119 21.4459 13.6932C21.2551 14.1745 20.7102 14.41 20.2289 14.2192C19.0282 13.7432 16.2205 13.0972 13.807 14.3138C12.2151 15.1162 11.0314 16.195 10.3812 16.9546Z" fill="url(#paint31_radial_138_1692)"/>
<g filter="url(#filter4_i_138_1692)">
<path fill-rule="evenodd" clip-rule="evenodd" d="M7.64393 4.99C7.39217 4.53756 6.82131 4.37488 6.36887 4.62664C5.91643 4.8784 5.75375 5.44926 6.00551 5.9017C6.38569 6.58491 6.85379 7.54941 6.9137 8.79132C6.96591 9.87363 6.71105 11.2463 5.67487 12.8929C6.03339 13.3674 6.46634 13.8591 6.96157 14.3475C8.4225 12.2224 8.86458 10.319 8.78652 8.70097C8.70581 7.02784 8.07235 5.75991 7.64393 4.99Z" fill="url(#paint32_radial_138_1692)"/>
<path fill-rule="evenodd" clip-rule="evenodd" d="M7.64393 4.99C7.39217 4.53756 6.82131 4.37488 6.36887 4.62664C5.91643 4.8784 5.75375 5.44926 6.00551 5.9017C6.38569 6.58491 6.85379 7.54941 6.9137 8.79132C6.96591 9.87363 6.71105 11.2463 5.67487 12.8929C6.03339 13.3674 6.46634 13.8591 6.96157 14.3475C8.4225 12.2224 8.86458 10.319 8.78652 8.70097C8.70581 7.02784 8.07235 5.75991 7.64393 4.99Z" fill="url(#paint33_radial_138_1692)"/>
</g>
<path d="M9.6413 6.15867C9.68736 6.04481 9.74554 5.93246 9.8167 5.82291C10.4095 4.91018 11.645 4.66203 12.5845 5.31141C12.6928 5.38629 12.7946 5.47065 12.8893 5.56427C12.92 5.48681 12.9495 5.4083 12.9779 5.32893C12.9793 5.33373 12.9807 5.3385 12.982 5.34325C12.7891 5.95116 12.356 6.60192 12.1155 6.91588C12.0074 6.6914 11.8792 6.55621 11.7742 6.48364C11.4803 6.28048 11.1572 6.3751 11.0118 6.59909C11.0061 6.6078 11.0008 6.61662 10.9957 6.62554L9.6413 6.15867Z" fill="url(#paint34_radial_138_1692)"/>
<path d="M9.6413 6.15867C9.68736 6.04481 9.74554 5.93246 9.8167 5.82291C10.4095 4.91018 11.645 4.66203 12.5845 5.31141C12.6928 5.38629 12.7946 5.47065 12.8893 5.56427C12.92 5.48681 12.9495 5.4083 12.9779 5.32893C12.9793 5.33373 12.9807 5.3385 12.982 5.34325C12.7891 5.95116 12.356 6.60192 12.1155 6.91588C12.0074 6.6914 11.8792 6.55621 11.7742 6.48364C11.4803 6.28048 11.1572 6.3751 11.0118 6.59909C11.0061 6.6078 11.0008 6.61662 10.9957 6.62554L9.6413 6.15867Z" fill="url(#paint35_radial_138_1692)"/>
<g filter="url(#filter5_i_138_1692)">
<path d="M13.6812 7.17627C13.7938 7.77328 13.7967 8.47768 13.6731 9.2786C13.6131 9.6675 13.2492 9.93411 12.8603 9.87408C12.4714 9.81406 12.2048 9.45014 12.2648 9.06124C12.2924 8.8823 12.312 8.71473 12.3246 8.55786C13.0611 8.09547 13.5473 7.48023 13.6812 7.17627Z" fill="#44B6FF"/>
</g>
<path d="M13.6812 7.17627C13.7938 7.77328 13.7967 8.47768 13.6731 9.2786C13.6131 9.6675 13.2492 9.93411 12.8603 9.87408C12.4714 9.81406 12.2048 9.45014 12.2648 9.06124C12.2924 8.8823 12.312 8.71473 12.3246 8.55786C13.0611 8.09547 13.5473 7.48023 13.6812 7.17627Z" fill="url(#paint36_radial_138_1692)"/>
<g filter="url(#filter6_f_138_1692)">
<path d="M12.4123 6.12891C12.2131 5.85939 11.5744 5.37891 10.7716 5.87694C10.5024 6.04401 10.3439 6.67383 10.467 7.10156" stroke="url(#paint37_linear_138_1692)" stroke-width="0.3" stroke-linecap="round"/>
</g>
<g filter="url(#filter7_f_138_1692)">
<path d="M14.6037 2.26172C14.5412 3.39453 14.0506 6.06797 12.5881 7.69922" stroke="url(#paint38_linear_138_1692)" stroke-width="0.3" stroke-linecap="round"/>
</g>
<defs>
<filter id="filter0_i_138_1692" x="1.93054" y="8.63159" width="12.8713" height="13.8382" filterUnits="userSpaceOnUse" color-interpolation-filters="sRGB">
<feFlood flood-opacity="0" result="BackgroundImageFix"/>
<feBlend mode="normal" in="SourceGraphic" in2="BackgroundImageFix" result="shape"/>
<feColorMatrix in="SourceAlpha" type="matrix" values="0 0 0 0 0 0 0 0 0 0 0 0 0 0 0 0 0 0 127 0" result="hardAlpha"/>
<feOffset dy="-0.5"/>
<feGaussianBlur stdDeviation="0.5"/>
<feComposite in2="hardAlpha" operator="arithmetic" k2="-1" k3="1"/>
<feColorMatrix type="matrix" values="0 0 0 0 0.92549 0 0 0 0 0.34902 0 0 0 0 0.384314 0 0 0 1 0"/>
<feBlend mode="normal" in2="shape" result="effect1_innerShadow_138_1692"/>
</filter>
<filter id="filter1_f_138_1692" x="3.39764" y="8.80981" width="11.652" height="10.316" filterUnits="userSpaceOnUse" color-interpolation-filters="sRGB">
<feFlood flood-opacity="0" result="BackgroundImageFix"/>
<feBlend mode="normal" in="SourceGraphic" in2="BackgroundImageFix" result="shape"/>
<feGaussianBlur stdDeviation="0.25" result="effect1_foregroundBlur_138_1692"/>
</filter>
<filter id="filter2_f_138_1692" x="4.32222" y="9.19331" width="10.1874" height="8.89365" filterUnits="userSpaceOnUse" color-interpolation-filters="sRGB">
<feFlood flood-opacity="0" result="BackgroundImageFix"/>
<feBlend mode="normal" in="SourceGraphic" in2="BackgroundImageFix" result="shape"/>
<feGaussianBlur stdDeviation="0.1" result="effect1_foregroundBlur_138_1692"/>
</filter>
<filter id="filter3_i_138_1692" x="14.7596" y="7.87756" width="7.35638" height="3.47437" filterUnits="userSpaceOnUse" color-interpolation-filters="sRGB">
<feFlood flood-opacity="0" result="BackgroundImageFix"/>
<feBlend mode="normal" in="SourceGraphic" in2="BackgroundImageFix" result="shape"/>
<feColorMatrix in="SourceAlpha" type="matrix" values="0 0 0 0 0 0 0 0 0 0 0 0 0 0 0 0 0 0 127 0" result="hardAlpha"/>
<feOffset dx="0.25" dy="-0.25"/>
<feGaussianBlur stdDeviation="0.25"/>
<feComposite in2="hardAlpha" operator="arithmetic" k2="-1" k3="1"/>
<feColorMatrix type="matrix" values="0 0 0 0 0.721569 0 0 0 0 0.270588 0 0 0 0 0.470588 0 0 0 1 0"/>
<feBlend mode="normal" in2="shape" result="effect1_innerShadow_138_1692"/>
</filter>
<filter id="filter4_i_138_1692" x="5.67487" y="4.50818" width="3.27024" height="10.0894" filterUnits="userSpaceOnUse" color-interpolation-filters="sRGB">
<feFlood flood-opacity="0" result="BackgroundImageFix"/>
<feBlend mode="normal" in="SourceGraphic" in2="BackgroundImageFix" result="shape"/>
<feColorMatrix in="SourceAlpha" type="matrix" values="0 0 0 0 0 0 0 0 0 0 0 0 0 0 0 0 0 0 127 0" result="hardAlpha"/>
<feOffset dx="0.15" dy="0.25"/>
<feGaussianBlur stdDeviation="0.5"/>
<feComposite in2="hardAlpha" operator="arithmetic" k2="-1" k3="1"/>
<feColorMatrix type="matrix" values="0 0 0 0 0.721569 0 0 0 0 0.184314 0 0 0 0 0.447059 0 0 0 1 0"/>
<feBlend mode="normal" in2="shape" result="effect1_innerShadow_138_1692"/>
</filter>
<filter id="filter5_i_138_1692" x="12.2563" y="6.92627" width="2.0094" height="2.9563" filterUnits="userSpaceOnUse" color-interpolation-filters="sRGB">
<feFlood flood-opacity="0" result="BackgroundImageFix"/>
<feBlend mode="normal" in="SourceGraphic" in2="BackgroundImageFix" result="shape"/>
<feColorMatrix in="SourceAlpha" type="matrix" values="0 0 0 0 0 0 0 0 0 0 0 0 0 0 0 0 0 0 127 0" result="hardAlpha"/>
<feOffset dx="0.5" dy="-0.25"/>
<feGaussianBlur stdDeviation="0.325"/>
<feComposite in2="hardAlpha" operator="arithmetic" k2="-1" k3="1"/>
<feColorMatrix type="matrix" values="0 0 0 0 0.239216 0 0 0 0 0.439216 0 0 0 0 0.768627 0 0 0 1 0"/>
<feBlend mode="normal" in2="shape" result="effect1_innerShadow_138_1692"/>
</filter>
<filter id="filter6_f_138_1692" x="9.97466" y="5.21038" width="2.88766" height="2.34121" filterUnits="userSpaceOnUse" color-interpolation-filters="sRGB">
<feFlood flood-opacity="0" result="BackgroundImageFix"/>
<feBlend mode="normal" in="SourceGraphic" in2="BackgroundImageFix" result="shape"/>
<feGaussianBlur stdDeviation="0.15" result="effect1_foregroundBlur_138_1692"/>
</filter>
<filter id="filter7_f_138_1692" x="11.988" y="1.66169" width="3.21567" height="6.63755" filterUnits="userSpaceOnUse" color-interpolation-filters="sRGB">
<feFlood flood-opacity="0" result="BackgroundImageFix"/>
<feBlend mode="normal" in="SourceGraphic" in2="BackgroundImageFix" result="shape"/>
<feGaussianBlur stdDeviation="0.225" result="effect1_foregroundBlur_138_1692"/>
</filter>
<linearGradient id="paint0_linear_138_1692" x1="3.1662" y1="14.9882" x2="9.21308" y2="20.2382" gradientUnits="userSpaceOnUse">
<stop stop-color="#B3843C"/>
<stop offset="1" stop-color="#F17A61"/>
</linearGradient>
<linearGradient id="paint1_linear_138_1692" x1="2.49802" y1="15.8007" x2="4.26776" y2="16.1601" gradientUnits="userSpaceOnUse">
<stop stop-color="#B1853B"/>
<stop offset="1" stop-color="#B1853B" stop-opacity="0"/>
</linearGradient>
<linearGradient id="paint2_linear_138_1692" x1="14.8018" y1="17.871" x2="11.8146" y2="18.3632" gradientUnits="userSpaceOnUse">
<stop stop-color="#F9C26C"/>
<stop offset="1" stop-color="#F9C26C" stop-opacity="0"/>
</linearGradient>
<linearGradient id="paint3_linear_138_1692" x1="8.36619" y1="9.2929" x2="6.44745" y2="12.5507" gradientUnits="userSpaceOnUse">
<stop stop-color="#E6BF69"/>
<stop offset="1" stop-color="#E6BF69" stop-opacity="0"/>
</linearGradient>
<linearGradient id="paint4_linear_138_1692" x1="9.24234" y1="16.3528" x2="10.0141" y2="11.1924" gradientUnits="userSpaceOnUse">
<stop stop-color="#FCCB57"/>
<stop offset="1" stop-color="#F5BD55"/>
</linearGradient>
<linearGradient id="paint5_linear_138_1692" x1="3.86058" y1="13.3984" x2="16.2205" y2="14.0025" gradientUnits="userSpaceOnUse">
<stop stop-color="#F3AB2C"/>
<stop offset="1" stop-color="#B57F1E"/>
</linearGradient>
<radialGradient id="paint6_radial_138_1692" cx="0" cy="0" r="1" gradientUnits="userSpaceOnUse" gradientTransform="translate(6.34021 15.3906) rotate(-109.125) scale(4.85812 1.3607)">
<stop offset="0.423414" stop-color="#CA851E"/>
<stop offset="1" stop-color="#CA851E" stop-opacity="0"/>
</radialGradient>
<radialGradient id="paint7_radial_138_1692" cx="0" cy="0" r="1" gradientUnits="userSpaceOnUse" gradientTransform="translate(11.4266 15.4589) rotate(-73.0972) scale(4.88215 2.85904)">
<stop stop-color="#BC7F28"/>
<stop offset="1" stop-color="#BC7F28" stop-opacity="0"/>
</radialGradient>
<radialGradient id="paint8_radial_138_1692" cx="0" cy="0" r="1" gradientUnits="userSpaceOnUse" gradientTransform="translate(11.6154 11.7539) rotate(138.668) scale(1.29533)">
<stop stop-color="#5AC0FF"/>
<stop offset="1" stop-color="#3279B6"/>
</radialGradient>
<radialGradient id="paint9_radial_138_1692" cx="0" cy="0" r="1" gradientUnits="userSpaceOnUse" gradientTransform="translate(11.3945 11.8757) rotate(160.051) scale(1.30079 1.42583)">
<stop offset="0.534713" stop-color="#3A619E" stop-opacity="0"/>
<stop offset="1" stop-color="#3A619E"/>
</radialGradient>
<radialGradient id="paint10_radial_138_1692" cx="0" cy="0" r="1" gradientUnits="userSpaceOnUse" gradientTransform="translate(19.1461 16.7984) rotate(134.569) scale(1.48315)">
<stop stop-color="#FDD46C"/>
<stop offset="1" stop-color="#F09C53"/>
</radialGradient>
<radialGradient id="paint11_radial_138_1692" cx="0" cy="0" r="1" gradientUnits="userSpaceOnUse" gradientTransform="translate(18.7912 16.7195) rotate(100.827) scale(1.46912)">
<stop offset="0.792052" stop-color="#E76260" stop-opacity="0"/>
<stop offset="0.964251" stop-color="#E76260"/>
</radialGradient>
<radialGradient id="paint12_radial_138_1692" cx="0" cy="0" r="1" gradientUnits="userSpaceOnUse" gradientTransform="translate(19.0537 17.3286) rotate(-147.558) scale(1.48779 1.75207)">
<stop offset="0.482355" stop-color="#AA885A" stop-opacity="0"/>
<stop offset="0.90682" stop-color="#AA885A"/>
</radialGradient>
<radialGradient id="paint13_radial_138_1692" cx="0" cy="0" r="1" gradientUnits="userSpaceOnUse" gradientTransform="translate(18.5136 4.9106) rotate(132.387) scale(1.54509)">
<stop stop-color="#FF46AA"/>
<stop offset="1" stop-color="#E3189D"/>
</radialGradient>
<radialGradient id="paint14_radial_138_1692" cx="0" cy="0" r="1" gradientUnits="userSpaceOnUse" gradientTransform="translate(18.2482 5.42578) rotate(-173.29) scale(1.40415 1.87919)">
<stop offset="0.522105" stop-color="#B63173" stop-opacity="0"/>
<stop offset="1" stop-color="#B63173"/>
</radialGradient>
<radialGradient id="paint15_radial_138_1692" cx="0" cy="0" r="1" gradientUnits="userSpaceOnUse" gradientTransform="translate(8.08442 2.1642) rotate(139.574) scale(1.38089)">
<stop stop-color="#FFF46F"/>
<stop offset="1" stop-color="#EFB93C"/>
</radialGradient>
<radialGradient id="paint16_radial_138_1692" cx="0" cy="0" r="1" gradientUnits="userSpaceOnUse" gradientTransform="translate(7.8869 2.37927) rotate(-178.519) scale(1.43598 1.36723)">
<stop offset="0.558644" stop-color="#AA904B" stop-opacity="0"/>
<stop offset="0.943632" stop-color="#AA904B"/>
</radialGradient>
<radialGradient id="paint17_radial_138_1692" cx="0" cy="0" r="1" gradientUnits="userSpaceOnUse" gradientTransform="translate(7.72482 2.01563) rotate(102.339) scale(1.53547)">
<stop offset="0.771901" stop-color="#C47072" stop-opacity="0"/>
<stop offset="1" stop-color="#C47072"/>
</radialGradient>
<radialGradient id="paint18_radial_138_1692" cx="0" cy="0" r="1" gradientUnits="userSpaceOnUse" gradientTransform="translate(4.34247 5.73091) rotate(132.387) scale(1.54509)">
<stop stop-color="#FF46AA"/>
<stop offset="1" stop-color="#E3189D"/>
</radialGradient>
<radialGradient id="paint19_radial_138_1692" cx="0" cy="0" r="1" gradientUnits="userSpaceOnUse" gradientTransform="translate(4.07715 6.24609) rotate(-173.29) scale(1.40415 1.87919)">
<stop offset="0.522105" stop-color="#B63173" stop-opacity="0"/>
<stop offset="1" stop-color="#B63173"/>
</radialGradient>
<radialGradient id="paint20_radial_138_1692" cx="0" cy="0" r="1" gradientUnits="userSpaceOnUse" gradientTransform="translate(8.4162 18.8086) rotate(133.21) scale(3.18353 6.97013)">
<stop stop-color="#3365FF"/>
<stop offset="1" stop-color="#356DB9"/>
</radialGradient>
<radialGradient id="paint21_radial_138_1692" cx="0" cy="0" r="1" gradientUnits="userSpaceOnUse" gradientTransform="translate(5.55682 21.0117) rotate(131.598) scale(1.96513 4.97095)">
<stop stop-color="#3365FF"/>
<stop offset="1" stop-color="#356DB9"/>
</radialGradient>
<radialGradient id="paint22_radial_138_1692" cx="0" cy="0" r="1" gradientUnits="userSpaceOnUse" gradientTransform="translate(20.6506 8.91796) rotate(168.283) scale(3.2314 1.20556)">
<stop stop-color="#FF3BA9"/>
<stop offset="1" stop-color="#F422A7"/>
</radialGradient>
<radialGradient id="paint23_radial_138_1692" cx="0" cy="0" r="1" gradientUnits="userSpaceOnUse" gradientTransform="translate(18.3128 11.4961) rotate(-127.355) scale(3.3318 5.93796)">
<stop offset="0.752144" stop-color="#B8306F" stop-opacity="0"/>
<stop offset="1" stop-color="#B8306F"/>
</radialGradient>
<linearGradient id="paint24_linear_138_1692" x1="14.2967" y1="1.56091" x2="10.9353" y2="9.61716" gradientUnits="userSpaceOnUse">
<stop stop-color="#20B2EE"/>
<stop offset="1" stop-color="#2689DA"/>
</linearGradient>
<radialGradient id="paint25_radial_138_1692" cx="0" cy="0" r="1" gradientUnits="userSpaceOnUse" gradientTransform="translate(13.5589 4.17797) rotate(128.217) scale(5.82048 3.56025)">
<stop offset="0.80204" stop-color="#4274D2" stop-opacity="0"/>
<stop offset="0.950917" stop-color="#4274D2"/>
</radialGradient>
<radialGradient id="paint26_radial_138_1692" cx="0" cy="0" r="1" gradientUnits="userSpaceOnUse" gradientTransform="translate(13.2677 3.50389) rotate(12.0948) scale(0.838935 2.81637)">
<stop stop-color="#4D8EC0"/>
<stop offset="1" stop-color="#4D8EC0" stop-opacity="0"/>
</radialGradient>
<radialGradient id="paint27_radial_138_1692" cx="0" cy="0" r="1" gradientUnits="userSpaceOnUse" gradientTransform="translate(14.9318 1.68749) rotate(141.953) scale(1.02678 0.923144)">
<stop stop-color="#5ADEFF"/>
<stop offset="1" stop-color="#5ADEFF" stop-opacity="0"/>
</radialGradient>
<linearGradient id="paint28_linear_138_1692" x1="10.8378" y1="16.2712" x2="20.8946" y2="13.6356" gradientUnits="userSpaceOnUse">
<stop stop-color="#3797E2"/>
<stop offset="1" stop-color="#37AEFF"/>
</linearGradient>
<radialGradient id="paint29_radial_138_1692" cx="0" cy="0" r="1" gradientUnits="userSpaceOnUse" gradientTransform="translate(14.5577 17.9157) rotate(-129.838) scale(5.98501 15.0027)">
<stop offset="0.622552" stop-color="#526579" stop-opacity="0"/>
<stop offset="0.962126" stop-color="#526579"/>
</radialGradient>
<radialGradient id="paint30_radial_138_1692" cx="0" cy="0" r="1" gradientUnits="userSpaceOnUse" gradientTransform="translate(17.9191 14.6856) rotate(94.3987) scale(2.0544 4.13039)">
<stop offset="0.396078" stop-color="#6972FF"/>
<stop offset="1" stop-color="#6972FF" stop-opacity="0"/>
</radialGradient>
<radialGradient id="paint31_radial_138_1692" cx="0" cy="0" r="1" gradientUnits="userSpaceOnUse" gradientTransform="translate(20.9654 12.9589) rotate(-68.8186) scale(0.563273 0.444206)">
<stop stop-color="#55BFFF"/>
<stop offset="1" stop-color="#55BFFF" stop-opacity="0"/>
</radialGradient>
<radialGradient id="paint32_radial_138_1692" cx="0" cy="0" r="1" gradientUnits="userSpaceOnUse" gradientTransform="translate(8.13281 4.82718) rotate(99.4229) scale(5.48388 2.05448)">
<stop stop-color="#FF3AAA"/>
<stop offset="1" stop-color="#FD2F89"/>
</radialGradient>
<radialGradient id="paint33_radial_138_1692" cx="0" cy="0" r="1" gradientUnits="userSpaceOnUse" gradientTransform="translate(5.26964 10.4821) rotate(31.1757) scale(3.60634 11.3177)">
<stop offset="0.803698" stop-color="#DB2C6E" stop-opacity="0"/>
<stop offset="1" stop-color="#DB2C6E"/>
</radialGradient>
<radialGradient id="paint34_radial_138_1692" cx="0" cy="0" r="1" gradientUnits="userSpaceOnUse" gradientTransform="translate(12.3145 7.13976) rotate(-119.23) scale(2.05376 1.5352)">
<stop stop-color="#336BAF"/>
<stop offset="1" stop-color="#336BAF" stop-opacity="0"/>
</radialGradient>
<radialGradient id="paint35_radial_138_1692" cx="0" cy="0" r="1" gradientUnits="userSpaceOnUse" gradientTransform="translate(12.982 5.58982) rotate(-127.657) scale(1.39133 0.563706)">
<stop stop-color="#49A4D4"/>
<stop offset="1" stop-color="#49A4D4" stop-opacity="0"/>
</radialGradient>
<radialGradient id="paint36_radial_138_1692" cx="0" cy="0" r="1" gradientUnits="userSpaceOnUse" gradientTransform="translate(13.6076 7.11328) rotate(94.8498) scale(1.94054 1.08)">
<stop stop-color="#4AB5F8"/>
<stop offset="1" stop-color="#4AB5F8" stop-opacity="0"/>
</radialGradient>
<linearGradient id="paint37_linear_138_1692" x1="10.1974" y1="6.14199" x2="12.2834" y2="5.63083" gradientUnits="userSpaceOnUse">
<stop stop-color="#4EAFF2"/>
<stop offset="1" stop-color="#4EAFF2" stop-opacity="0"/>
</linearGradient>
<linearGradient id="paint38_linear_138_1692" x1="14.4396" y1="1.46484" x2="11.5099" y2="8.21484" gradientUnits="userSpaceOnUse">
<stop stop-color="#5BDDFF"/>
<stop offset="1" stop-color="#5BDDFF" stop-opacity="0"/>
</linearGradient>
</defs>
</svg>
