<svg width="42" height="42" viewBox="0 0 42 42" fill="none" xmlns="http://www.w3.org/2000/svg">
<g filter="url(#filter0_iii_1985_9743)">
<path d="M33.9284 3.53768C34.0288 3.43966 34.1835 3.41314 34.2919 3.50216C34.5192 3.68871 34.7402 4.01811 34.7402 4.54175V34.1294C34.7402 37.2101 32.2428 39.7075 29.1621 39.7075H9.76172V38.6206H8.59277V4.27587C8.65968 3.85954 8.87903 3.59809 9.08623 3.45215C9.19225 3.37747 9.33279 3.40513 9.42745 3.49375L10.6514 4.6396C10.8564 4.8315 11.176 4.82814 11.3769 4.63199L12.7448 3.29642C12.8461 3.19748 12.9822 3.14209 13.1237 3.14209C13.2614 3.14209 13.3939 3.19444 13.4945 3.28853L14.9375 4.6396C15.1425 4.8315 15.4622 4.82814 15.6631 4.63199L17.0309 3.29642C17.1323 3.19748 17.2683 3.14209 17.4099 3.14209C17.5476 3.14209 17.6801 3.19444 17.7806 3.28853L19.2237 4.6396C19.4287 4.8315 19.7483 4.82814 19.9492 4.63199L21.3171 3.29642C21.4184 3.19748 21.5544 3.14209 21.696 3.14209C21.8337 3.14209 21.9662 3.19444 22.0667 3.28853L23.5098 4.6396C23.7148 4.8315 24.0344 4.82814 24.2353 4.63199L25.6032 3.29642C25.7045 3.19748 25.8406 3.14209 25.9821 3.14209C26.1198 3.14209 26.2523 3.19444 26.3529 3.28853L27.7959 4.6396C28.0009 4.8315 28.3206 4.82814 28.5215 4.63199L29.8893 3.29642C29.9907 3.19748 30.1267 3.14209 30.2682 3.14209C30.406 3.14209 30.5385 3.19444 30.639 3.28853L32.0821 4.6396C32.2871 4.8315 32.6067 4.82814 32.8076 4.63199L33.9284 3.53768Z" fill="url(#paint0_linear_1985_9743)"/>
<path d="M33.9284 3.53768C34.0288 3.43966 34.1835 3.41314 34.2919 3.50216C34.5192 3.68871 34.7402 4.01811 34.7402 4.54175V34.1294C34.7402 37.2101 32.2428 39.7075 29.1621 39.7075H9.76172V38.6206H8.59277V4.27587C8.65968 3.85954 8.87903 3.59809 9.08623 3.45215C9.19225 3.37747 9.33279 3.40513 9.42745 3.49375L10.6514 4.6396C10.8564 4.8315 11.176 4.82814 11.3769 4.63199L12.7448 3.29642C12.8461 3.19748 12.9822 3.14209 13.1237 3.14209C13.2614 3.14209 13.3939 3.19444 13.4945 3.28853L14.9375 4.6396C15.1425 4.8315 15.4622 4.82814 15.6631 4.63199L17.0309 3.29642C17.1323 3.19748 17.2683 3.14209 17.4099 3.14209C17.5476 3.14209 17.6801 3.19444 17.7806 3.28853L19.2237 4.6396C19.4287 4.8315 19.7483 4.82814 19.9492 4.63199L21.3171 3.29642C21.4184 3.19748 21.5544 3.14209 21.696 3.14209C21.8337 3.14209 21.9662 3.19444 22.0667 3.28853L23.5098 4.6396C23.7148 4.8315 24.0344 4.82814 24.2353 4.63199L25.6032 3.29642C25.7045 3.19748 25.8406 3.14209 25.9821 3.14209C26.1198 3.14209 26.2523 3.19444 26.3529 3.28853L27.7959 4.6396C28.0009 4.8315 28.3206 4.82814 28.5215 4.63199L29.8893 3.29642C29.9907 3.19748 30.1267 3.14209 30.2682 3.14209C30.406 3.14209 30.5385 3.19444 30.639 3.28853L32.0821 4.6396C32.2871 4.8315 32.6067 4.82814 32.8076 4.63199L33.9284 3.53768Z" fill="url(#paint1_radial_1985_9743)"/>
</g>
<g filter="url(#filter1_ii_1985_9743)">
<path d="M24.4624 34.4985C24.4624 33.7737 23.8748 33.186 23.1499 33.186H5.95957C5.23923 33.186 4.65527 33.77 4.65527 34.4903C4.65527 37.3717 6.99109 39.7075 9.87246 39.7075H28.4436C25.2997 39.4283 24.4946 36.3631 24.4624 34.6139V34.4985Z" fill="url(#paint2_linear_1985_9743)"/>
<path d="M24.4624 34.4985C24.4624 33.7737 23.8748 33.186 23.1499 33.186H5.95957C5.23923 33.186 4.65527 33.77 4.65527 34.4903C4.65527 37.3717 6.99109 39.7075 9.87246 39.7075H28.4436C25.2997 39.4283 24.4946 36.3631 24.4624 34.6139V34.4985Z" fill="url(#paint3_linear_1985_9743)"/>
</g>
<rect x="12.5303" y="8.35107" width="18.3135" height="2.56348" rx="0.976562" fill="#97939D"/>
<rect x="12.5303" y="13.5601" width="11.7305" height="1.35352" rx="0.676758" fill="#97939D"/>
<rect x="12.5303" y="17.4565" width="11.7305" height="1.35352" rx="0.676758" fill="#97939D"/>
<rect x="12.5303" y="21.4248" width="11.7305" height="1.35352" rx="0.676758" fill="#97939D"/>
<rect x="12.5303" y="25.3931" width="11.7305" height="1.35352" rx="0.676758" fill="#97939D"/>
<rect x="12.5303" y="29.3613" width="11.7305" height="1.35352" rx="0.676758" fill="#97929F"/>
<rect x="25.6143" y="17.4565" width="5.22949" height="1.35352" rx="0.676758" fill="#97939D"/>
<rect x="25.6143" y="13.5601" width="5.22949" height="1.35352" rx="0.676758" fill="#97939D"/>
<rect x="25.6143" y="21.4248" width="5.22949" height="1.35352" rx="0.676758" fill="#97939D"/>
<rect x="25.6143" y="25.3931" width="5.22949" height="1.35352" rx="0.676758" fill="#97939D"/>
<rect x="25.6143" y="29.3613" width="5.22949" height="1.35352" rx="0.676758" fill="#9893A0"/>
<defs>
<filter id="filter0_iii_1985_9743" x="8.44277" y="2.99209" width="26.4475" height="36.7154" filterUnits="userSpaceOnUse" color-interpolation-filters="sRGB">
<feFlood flood-opacity="0" result="BackgroundImageFix"/>
<feBlend mode="normal" in="SourceGraphic" in2="BackgroundImageFix" result="shape"/>
<feColorMatrix in="SourceAlpha" type="matrix" values="0 0 0 0 0 0 0 0 0 0 0 0 0 0 0 0 0 0 127 0" result="hardAlpha"/>
<feOffset dx="-0.15" dy="-0.15"/>
<feGaussianBlur stdDeviation="0.175"/>
<feComposite in2="hardAlpha" operator="arithmetic" k2="-1" k3="1"/>
<feColorMatrix type="matrix" values="0 0 0 0 1 0 0 0 0 1 0 0 0 0 1 0 0 0 1 0"/>
<feBlend mode="normal" in2="shape" result="effect1_innerShadow_1985_9743"/>
<feColorMatrix in="SourceAlpha" type="matrix" values="0 0 0 0 0 0 0 0 0 0 0 0 0 0 0 0 0 0 127 0" result="hardAlpha"/>
<feOffset dx="-0.15"/>
<feGaussianBlur stdDeviation="0.125"/>
<feComposite in2="hardAlpha" operator="arithmetic" k2="-1" k3="1"/>
<feColorMatrix type="matrix" values="0 0 0 0 1 0 0 0 0 1 0 0 0 0 1 0 0 0 1 0"/>
<feBlend mode="normal" in2="effect1_innerShadow_1985_9743" result="effect2_innerShadow_1985_9743"/>
<feColorMatrix in="SourceAlpha" type="matrix" values="0 0 0 0 0 0 0 0 0 0 0 0 0 0 0 0 0 0 127 0" result="hardAlpha"/>
<feOffset dx="0.15"/>
<feGaussianBlur stdDeviation="0.175"/>
<feComposite in2="hardAlpha" operator="arithmetic" k2="-1" k3="1"/>
<feColorMatrix type="matrix" values="0 0 0 0 0.733333 0 0 0 0 0.713726 0 0 0 0 0.764706 0 0 0 1 0"/>
<feBlend mode="normal" in2="effect2_innerShadow_1985_9743" result="effect3_innerShadow_1985_9743"/>
</filter>
<filter id="filter1_ii_1985_9743" x="4.50527" y="33.186" width="24.0386" height="6.52148" filterUnits="userSpaceOnUse" color-interpolation-filters="sRGB">
<feFlood flood-opacity="0" result="BackgroundImageFix"/>
<feBlend mode="normal" in="SourceGraphic" in2="BackgroundImageFix" result="shape"/>
<feColorMatrix in="SourceAlpha" type="matrix" values="0 0 0 0 0 0 0 0 0 0 0 0 0 0 0 0 0 0 127 0" result="hardAlpha"/>
<feOffset dx="-0.15"/>
<feGaussianBlur stdDeviation="0.125"/>
<feComposite in2="hardAlpha" operator="arithmetic" k2="-1" k3="1"/>
<feColorMatrix type="matrix" values="0 0 0 0 1 0 0 0 0 1 0 0 0 0 1 0 0 0 1 0"/>
<feBlend mode="normal" in2="shape" result="effect1_innerShadow_1985_9743"/>
<feColorMatrix in="SourceAlpha" type="matrix" values="0 0 0 0 0 0 0 0 0 0 0 0 0 0 0 0 0 0 127 0" result="hardAlpha"/>
<feOffset dx="0.1"/>
<feGaussianBlur stdDeviation="0.2"/>
<feComposite in2="hardAlpha" operator="arithmetic" k2="-1" k3="1"/>
<feColorMatrix type="matrix" values="0 0 0 0 0.666667 0 0 0 0 0.6 0 0 0 0 0.74902 0 0 0 1 0"/>
<feBlend mode="normal" in2="effect1_innerShadow_1985_9743" result="effect2_innerShadow_1985_9743"/>
</filter>
<linearGradient id="paint0_linear_1985_9743" x1="11.1562" y1="22.3169" x2="34.7402" y2="22.3169" gradientUnits="userSpaceOnUse">
<stop stop-color="#DFD8E8"/>
<stop offset="1" stop-color="#E0DBEA"/>
</linearGradient>
<radialGradient id="paint1_radial_1985_9743" cx="0" cy="0" r="1" gradientUnits="userSpaceOnUse" gradientTransform="translate(24.8555 41.5942) rotate(-60.0013) scale(9.18787 14.4066)">
<stop stop-color="#F9F3FE"/>
<stop offset="1" stop-color="#F9F3FE" stop-opacity="0"/>
</radialGradient>
<linearGradient id="paint2_linear_1985_9743" x1="16.5494" y1="33.186" x2="16.5494" y2="39.7075" gradientUnits="userSpaceOnUse">
<stop stop-color="#DCD4E8"/>
<stop offset="1" stop-color="#C9BADD"/>
</linearGradient>
<linearGradient id="paint3_linear_1985_9743" x1="20.0156" y1="39.7075" x2="20.0156" y2="36.4468" gradientUnits="userSpaceOnUse">
<stop stop-color="#A58BC5"/>
<stop offset="1" stop-color="#C7B7DD" stop-opacity="0"/>
</linearGradient>
</defs>
</svg>
