<svg width="20" height="20" viewBox="0 0 20 20" fill="none" xmlns="http://www.w3.org/2000/svg">
<path d="M4.32495 9.99687V8.48438" stroke="#433B6B" stroke-miterlimit="10" stroke-linecap="round" stroke-linejoin="round"/>
<path d="M3.125 9.12793L6.35 11.9467" stroke="#433B6B" stroke-miterlimit="10" stroke-linecap="round" stroke-linejoin="round"/>
<path d="M16.2188 9.99687V8.48438" stroke="#433B6B" stroke-miterlimit="10" stroke-linecap="round" stroke-linejoin="round"/>
<path d="M17.4188 9.12793L14.1875 11.9467" stroke="#433B6B" stroke-miterlimit="10" stroke-linecap="round" stroke-linejoin="round"/>
<path d="M15.4375 10.9658H16.8375" stroke="#433B6B" stroke-miterlimit="10" stroke-linecap="round" stroke-linejoin="round"/>
<path d="M3.6687 10.9595H5.0687" stroke="#433B6B" stroke-miterlimit="10" stroke-linecap="round" stroke-linejoin="round"/>
<path d="M16.6626 14.522C16.6626 18.0407 13.8063 18.772 10.2876 18.772C6.76885 18.772 3.9126 18.0407 3.9126 14.522C3.9126 11.0032 6.76885 8.14697 10.2876 8.14697C13.8063 8.14697 16.6626 11.0032 16.6626 14.522Z" fill="url(#paint0_radial_536_7009)"/>
<path d="M11.2188 15.6343C11.0501 15.6343 10.9126 15.4968 10.9126 15.328V14.6905C10.9126 14.5218 11.0501 14.3843 11.2188 14.3843C11.3876 14.3843 11.5251 14.5218 11.5251 14.6905V15.328C11.5251 15.4968 11.3876 15.6343 11.2188 15.6343Z" fill="url(#paint1_linear_536_7009)"/>
<path d="M12.475 15.6405C12.3062 15.6405 12.1687 15.503 12.1687 15.3343V14.6905C12.1687 14.5218 12.3062 14.3843 12.475 14.3843C12.6437 14.3843 12.7812 14.5218 12.7812 14.6905V15.3343C12.7812 15.4968 12.6437 15.6405 12.475 15.6405Z" fill="url(#paint2_linear_536_7009)"/>
<path d="M13.7188 15.6405C13.5501 15.6405 13.4126 15.503 13.4126 15.3343V14.6905C13.4126 14.5218 13.5501 14.3843 13.7188 14.3843C13.8876 14.3843 14.0251 14.5218 14.0251 14.6905V15.3343C14.0313 15.4968 13.8876 15.6405 13.7188 15.6405Z" fill="url(#paint3_linear_536_7009)"/>
<path d="M13.6313 15.022H11.3C11.075 15.022 10.8938 14.8407 10.8938 14.6157V11.272H14.0375V14.6157C14.0375 14.8407 13.8563 15.022 13.6313 15.022Z" fill="url(#paint4_linear_536_7009)"/>
<path d="M14.7374 9.80949C14.7374 12.2657 12.7437 12.5532 10.2874 12.5532C7.83115 12.5532 5.8374 12.2657 5.8374 9.80949C5.8374 7.35324 7.83115 9.40949 10.2874 9.40949C12.7437 9.40949 14.7374 7.35324 14.7374 9.80949Z" fill="url(#paint5_linear_536_7009)"/>
<path d="M14.7125 7.59687C14.7125 10.0406 12.7062 10.0031 10.2562 10.0031C7.8062 10.0031 5.8562 10.0469 5.8562 7.59687C5.8562 5.14687 7.83745 3.17188 10.2812 3.17188C12.725 3.17188 14.7125 5.15312 14.7125 7.59687Z" fill="url(#paint6_radial_536_7009)"/>
<path d="M10.3063 3.15305L6.85008 4.6343L6.36258 3.50305C6.08758 2.8593 6.38133 2.11555 7.02508 1.84055L8.15633 1.35305C8.80008 1.07805 9.53758 1.3718 9.81258 2.01555L10.3063 3.15305Z" fill="url(#paint7_linear_536_7009)"/>
<path d="M9.9438 3.30947L7.21255 4.48447C7.01255 4.56572 6.7813 4.47822 6.6938 4.27822L6.36255 3.50322L9.8188 2.02197L10.15 2.79697C10.2313 2.99072 10.1438 3.22197 9.9438 3.30947Z" fill="url(#paint8_linear_536_7009)"/>
<path d="M10.6438 3.5092L6.86255 5.12795C6.63755 5.22795 6.37505 5.1217 6.27505 4.8967C6.1813 4.6717 6.28755 4.40295 6.51255 4.3092L10.2876 2.69045C10.5126 2.59045 10.7751 2.6967 10.8751 2.92795C10.9751 3.1467 10.8688 3.4092 10.6438 3.5092Z" fill="url(#paint9_linear_536_7009)"/>
<path d="M9.35 6.15313C9.20625 6.15313 9.09375 6.04688 9.09375 5.91563V5.47188C9.09375 5.34063 9.2125 5.23438 9.35 5.23438C9.4875 5.23438 9.60625 5.34063 9.60625 5.47188V5.91563C9.60625 6.04688 9.49375 6.15313 9.35 6.15313Z" fill="#433B6B"/>
<path d="M11.225 6.15313C11.0812 6.15313 10.9688 6.04688 10.9688 5.91563V5.47188C10.9688 5.34063 11.0875 5.23438 11.225 5.23438C11.3625 5.23438 11.4812 5.34063 11.4812 5.47188V5.91563C11.4812 6.04688 11.3687 6.15313 11.225 6.15313Z" fill="#433B6B"/>
<path d="M12.8812 6.95928L10.3437 6.69678C10.0624 6.69678 9.8374 6.92178 9.8374 7.20303C9.8374 7.48428 10.0624 7.70928 10.3437 7.70928L12.8812 7.44678C13.0187 7.44678 13.1312 7.33428 13.1312 7.19678C13.1312 7.05928 13.0187 6.95928 12.8812 6.95928Z" fill="url(#paint10_linear_536_7009)"/>
<path d="M16.55 2.94063H16.425L16.5125 2.85312C16.6375 2.72187 16.6375 2.51562 16.5125 2.38437C16.3813 2.25312 16.175 2.25312 16.0438 2.38437L15.9563 2.47188V2.34687C15.9563 2.16562 15.8063 2.01562 15.625 2.01562C15.4438 2.01562 15.2937 2.16562 15.2937 2.34687V2.47188L15.2063 2.38437C15.0813 2.25312 14.8688 2.25312 14.7375 2.38437C14.6063 2.51562 14.6063 2.72187 14.7375 2.85312L14.825 2.94063H14.7C14.525 2.94063 14.375 3.09062 14.375 3.27187C14.375 3.45312 14.525 3.60312 14.7063 3.60312H14.8312L14.7438 3.69063C14.6125 3.82188 14.6125 4.02813 14.7438 4.15938C14.8688 4.29063 15.0813 4.29063 15.2125 4.15938L15.3 4.07188V4.19688C15.3 4.37813 15.45 4.52812 15.6313 4.52812C15.8125 4.52812 15.9625 4.37813 15.9625 4.19688V4.06562L16.05 4.15312C16.175 4.28437 16.3875 4.28437 16.5188 4.15312C16.6438 4.02187 16.6438 3.81563 16.5188 3.68438L16.4313 3.59687H16.5563C16.7375 3.59687 16.8875 3.44687 16.8875 3.26562C16.8813 3.09062 16.7313 2.94063 16.55 2.94063Z" fill="url(#paint11_radial_536_7009)"/>
<path d="M3.425 6.06572H3.3L3.3875 5.97822C3.5125 5.84697 3.5125 5.64072 3.3875 5.50947C3.25625 5.37822 3.05 5.37822 2.91875 5.50947L2.83125 5.60322V5.47822C2.83125 5.29697 2.68125 5.14697 2.5 5.14697C2.31875 5.14697 2.16875 5.29697 2.16875 5.47822V5.60322L2.08125 5.50947C1.95625 5.37822 1.74375 5.37822 1.6125 5.50947C1.48125 5.64072 1.48125 5.84697 1.6125 5.97822L1.70625 6.06572H1.58125C1.4 6.06572 1.25 6.21572 1.25 6.39697C1.25 6.57822 1.4 6.72822 1.58125 6.72822H1.70625L1.61875 6.81572C1.4875 6.94697 1.4875 7.15322 1.61875 7.28447C1.74375 7.41572 1.95625 7.41572 2.0875 7.28447L2.175 7.19072V7.31572C2.175 7.49697 2.325 7.64697 2.50625 7.64697C2.6875 7.64697 2.8375 7.49697 2.8375 7.31572V7.19072L2.925 7.27822C3.05 7.40947 3.2625 7.40947 3.39375 7.27822C3.51875 7.14697 3.51875 6.94072 3.39375 6.80947L3.3 6.72822H3.425C3.60625 6.72822 3.75625 6.57822 3.75625 6.39697C3.75625 6.21572 3.60625 6.06572 3.425 6.06572Z" fill="url(#paint12_radial_536_7009)"/>
<path d="M17.3251 6.20908H17.2563L17.3063 6.15908C17.3751 6.09033 17.3751 5.97783 17.3063 5.90908C17.2376 5.84033 17.1251 5.84033 17.0563 5.90908L17.0063 5.95908V5.89033C17.0063 5.79658 16.9251 5.71533 16.8313 5.71533C16.7376 5.71533 16.6563 5.79658 16.6563 5.89033V5.95908L16.6063 5.90908C16.5376 5.84033 16.4251 5.84033 16.3563 5.90908C16.2876 5.97783 16.2876 6.09033 16.3563 6.15908L16.4063 6.20908H16.3376C16.2438 6.20908 16.1626 6.29033 16.1626 6.38408C16.1626 6.47783 16.2438 6.55908 16.3376 6.55908H16.4063L16.3563 6.60908C16.2876 6.67783 16.2876 6.79033 16.3563 6.85908C16.4251 6.92783 16.5376 6.92783 16.6063 6.85908L16.6563 6.80908V6.87783C16.6563 6.97158 16.7376 7.05283 16.8313 7.05283C16.9251 7.05283 17.0063 6.97158 17.0063 6.87783V6.80908L17.0563 6.85908C17.1251 6.92783 17.2376 6.92783 17.3063 6.85908C17.3751 6.79033 17.3751 6.67783 17.3063 6.60908L17.2563 6.55908H17.3251C17.4188 6.55908 17.5001 6.47783 17.5001 6.38408C17.5001 6.28408 17.4251 6.20908 17.3251 6.20908Z" fill="url(#paint13_radial_536_7009)"/>
<path d="M4.24365 3.09678H4.18115L4.23115 3.04678C4.2999 2.97803 4.2999 2.86553 4.23115 2.79678C4.1624 2.72803 4.0499 2.72803 3.98115 2.79678L3.93115 2.84678V2.77803C3.93115 2.68428 3.8499 2.60303 3.75615 2.60303C3.6624 2.60303 3.58115 2.68428 3.58115 2.77803V2.84678L3.53115 2.79678C3.4624 2.72803 3.3499 2.72803 3.28115 2.79678C3.2124 2.86553 3.2124 2.97803 3.28115 3.04678L3.33115 3.09678H3.2624C3.16865 3.09678 3.0874 3.17803 3.0874 3.27178C3.0874 3.36553 3.16865 3.44678 3.2624 3.44678H3.33115L3.28115 3.49678C3.2124 3.56553 3.2124 3.67803 3.28115 3.74678C3.3499 3.81553 3.4624 3.81553 3.53115 3.74678L3.58115 3.69678V3.76553C3.58115 3.85928 3.6624 3.94053 3.75615 3.94053C3.8499 3.94053 3.93115 3.85928 3.93115 3.76553V3.69678L3.98115 3.74678C4.0499 3.81553 4.1624 3.81553 4.23115 3.74678C4.2999 3.67803 4.2999 3.56553 4.23115 3.49678L4.18115 3.44678H4.2499C4.34365 3.44678 4.4249 3.36553 4.4249 3.27178C4.4249 3.17803 4.34365 3.09678 4.24365 3.09678Z" fill="url(#paint14_radial_536_7009)"/>
<path d="M2.9125 12.4591H2.84375L2.89375 12.4091C2.9625 12.3403 2.9625 12.2278 2.89375 12.1591C2.825 12.0903 2.7125 12.0903 2.64375 12.1591L2.59375 12.2091V12.1403C2.59375 12.0466 2.5125 11.9653 2.41875 11.9653C2.325 11.9653 2.24375 12.0466 2.24375 12.1403V12.2091L2.19375 12.1591C2.125 12.0903 2.0125 12.0903 1.94375 12.1591C1.875 12.2278 1.875 12.3403 1.94375 12.4091L1.99375 12.4591H1.925C1.83125 12.4591 1.75 12.5403 1.75 12.6341C1.75 12.7278 1.83125 12.8091 1.925 12.8091H1.99375L1.94375 12.8591C1.875 12.9278 1.875 13.0403 1.94375 13.1091C2.0125 13.1778 2.125 13.1778 2.19375 13.1091L2.24375 13.0591V13.1278C2.24375 13.2216 2.325 13.3028 2.41875 13.3028C2.5125 13.3028 2.59375 13.2216 2.59375 13.1278V13.0591L2.64375 13.1091C2.7125 13.1778 2.825 13.1778 2.89375 13.1091C2.9625 13.0403 2.9625 12.9278 2.89375 12.8591L2.84375 12.8153H2.9125C3.00625 12.8153 3.0875 12.7341 3.0875 12.6403C3.0875 12.5403 3.00625 12.4591 2.9125 12.4591Z" fill="url(#paint15_radial_536_7009)"/>
<path d="M17.9938 14.3468H17.925L17.975 14.2968C18.0438 14.228 18.0438 14.1155 17.975 14.0468C17.9063 13.978 17.7938 13.978 17.725 14.0468L17.675 14.0968V14.028C17.675 13.9343 17.5938 13.853 17.5 13.853C17.4063 13.853 17.325 13.9343 17.325 14.028V14.0968L17.275 14.0468C17.2063 13.978 17.0938 13.978 17.025 14.0468C16.9563 14.1155 16.9563 14.228 17.025 14.2968L17.075 14.3468H17.0063C16.9125 14.3468 16.8313 14.428 16.8313 14.5218C16.8313 14.6155 16.9125 14.6968 17.0063 14.6968H17.075L17.025 14.7468C16.9563 14.8155 16.9563 14.928 17.025 14.9968C17.0938 15.0655 17.2063 15.0655 17.275 14.9968L17.325 14.9468V15.0155C17.325 15.1093 17.4063 15.1905 17.5 15.1905C17.5938 15.1905 17.675 15.1093 17.675 15.0155V14.9468L17.725 14.9968C17.7938 15.0655 17.9063 15.0655 17.975 14.9968C18.0438 14.928 18.0438 14.8155 17.975 14.7468L17.925 14.6968H17.9938C18.0875 14.6968 18.1688 14.6155 18.1688 14.5218C18.1688 14.428 18.0938 14.3468 17.9938 14.3468Z" fill="url(#paint16_radial_536_7009)"/>
<defs>
<radialGradient id="paint0_radial_536_7009" cx="0" cy="0" r="1" gradientUnits="userSpaceOnUse" gradientTransform="translate(13.3109 12.6394) scale(11.6095)">
<stop stop-color="#F1F2F2"/>
<stop offset="1" stop-color="#BCBEC0"/>
</radialGradient>
<linearGradient id="paint1_linear_536_7009" x1="11.5292" y1="15.8602" x2="11.0993" y2="14.6782" gradientUnits="userSpaceOnUse">
<stop offset="0.4804" stop-color="#1B75BB"/>
<stop offset="0.9888" stop-color="#2B3990"/>
</linearGradient>
<linearGradient id="paint2_linear_536_7009" x1="12.786" y1="15.8645" x2="12.3539" y2="14.6765" gradientUnits="userSpaceOnUse">
<stop offset="0.4804" stop-color="#1B75BB"/>
<stop offset="0.9888" stop-color="#2B3990"/>
</linearGradient>
<linearGradient id="paint3_linear_536_7009" x1="14.0323" y1="15.8645" x2="13.6002" y2="14.6765" gradientUnits="userSpaceOnUse">
<stop offset="0.4804" stop-color="#1B75BB"/>
<stop offset="0.9888" stop-color="#2B3990"/>
</linearGradient>
<linearGradient id="paint4_linear_536_7009" x1="13.0936" y1="16.4413" x2="12.1795" y2="11.372" gradientUnits="userSpaceOnUse">
<stop offset="0.4804" stop-color="#1B75BB"/>
<stop offset="0.9888" stop-color="#2B3990"/>
</linearGradient>
<linearGradient id="paint5_linear_536_7009" x1="17.9182" y1="12.4479" x2="2.51272" y2="8.07293" gradientUnits="userSpaceOnUse">
<stop offset="0.4804" stop-color="#1B75BB"/>
<stop offset="0.9888" stop-color="#2B3990"/>
</linearGradient>
<radialGradient id="paint6_radial_536_7009" cx="0" cy="0" r="1" gradientUnits="userSpaceOnUse" gradientTransform="translate(11.4358 4.96194) scale(6.69056)">
<stop stop-color="#F1F2F2"/>
<stop offset="1" stop-color="#BCBEC0"/>
</radialGradient>
<linearGradient id="paint7_linear_536_7009" x1="6.35546" y1="3.48792" x2="9.80947" y2="2.00596" gradientUnits="userSpaceOnUse">
<stop offset="0.00558659" stop-color="#513468"/>
<stop offset="1" stop-color="#1C1C1C"/>
</linearGradient>
<linearGradient id="paint8_linear_536_7009" x1="10.686" y1="2.46154" x2="5.62217" y2="4.30066" gradientUnits="userSpaceOnUse">
<stop offset="0.4804" stop-color="#1B75BB"/>
<stop offset="0.9888" stop-color="#2B3990"/>
</linearGradient>
<linearGradient id="paint9_linear_536_7009" x1="6.27652" y1="4.89392" x2="10.875" y2="2.92092" gradientUnits="userSpaceOnUse">
<stop offset="0.00558659" stop-color="#513468"/>
<stop offset="1" stop-color="#1C1C1C"/>
</linearGradient>
<linearGradient id="paint10_linear_536_7009" x1="9.83665" y1="7.20846" x2="13.1302" y2="7.20846" gradientUnits="userSpaceOnUse">
<stop stop-color="#FF2C00"/>
<stop offset="1" stop-color="#FF8C00"/>
</linearGradient>
<radialGradient id="paint11_radial_536_7009" cx="0" cy="0" r="1" gradientUnits="userSpaceOnUse" gradientTransform="translate(15.8127 2.45269) scale(7.46488 7.46487)">
<stop stop-color="#F1F2F2"/>
<stop offset="1" stop-color="#BCBEC0"/>
</radialGradient>
<radialGradient id="paint12_radial_536_7009" cx="0" cy="0" r="1" gradientUnits="userSpaceOnUse" gradientTransform="translate(2.68769 5.57779) scale(7.46488 7.46487)">
<stop stop-color="#F1F2F2"/>
<stop offset="1" stop-color="#BCBEC0"/>
</radialGradient>
<radialGradient id="paint13_radial_536_7009" cx="0" cy="0" r="1" gradientUnits="userSpaceOnUse" gradientTransform="translate(16.933 5.94614) scale(3.98425 3.98425)">
<stop stop-color="#F1F2F2"/>
<stop offset="1" stop-color="#BCBEC0"/>
</radialGradient>
<radialGradient id="paint14_radial_536_7009" cx="0" cy="0" r="1" gradientUnits="userSpaceOnUse" gradientTransform="translate(3.85284 2.83446) scale(3.98425)">
<stop stop-color="#F1F2F2"/>
<stop offset="1" stop-color="#BCBEC0"/>
</radialGradient>
<radialGradient id="paint15_radial_536_7009" cx="0" cy="0" r="1" gradientUnits="userSpaceOnUse" gradientTransform="translate(2.51656 12.2) scale(3.98425 3.98425)">
<stop stop-color="#F1F2F2"/>
<stop offset="1" stop-color="#BCBEC0"/>
</radialGradient>
<radialGradient id="paint16_radial_536_7009" cx="0" cy="0" r="1" gradientUnits="userSpaceOnUse" gradientTransform="translate(17.6011 14.0845) scale(3.98425)">
<stop stop-color="#F1F2F2"/>
<stop offset="1" stop-color="#BCBEC0"/>
</radialGradient>
</defs>
</svg>
