<svg width="28" height="28" viewBox="0 0 28 28" fill="none" xmlns="http://www.w3.org/2000/svg">
<g filter="url(#filter0_iii_182_6039)">
<path d="M12.6365 5.68465L1.55896 24.8734C1.11271 25.6521 1.67271 26.6321 2.57396 26.6321H24.729C25.6302 26.6321 26.1902 25.6609 25.744 24.8734L14.6665 5.68465C14.2115 4.9059 13.0915 4.9059 12.6365 5.68465Z" fill="url(#paint0_linear_182_6039)"/>
</g>
<g filter="url(#filter1_i_182_6039)">
<path d="M12.4258 19.3679C12.4258 20.0416 12.9683 20.5929 13.6508 20.5929C14.3333 20.5929 14.8758 20.0416 14.8758 19.3591V11.3441C14.8758 10.6704 14.3333 10.1191 13.6508 10.1191C12.977 10.1191 12.4258 10.6616 12.4258 11.3441V19.3679Z" fill="#4A4351"/>
<path d="M14.8758 22.8504C14.8758 23.527 14.3273 24.0754 13.6508 24.0754C12.9742 24.0754 12.4258 23.527 12.4258 22.8504C12.4258 22.1739 12.9742 21.6254 13.6508 21.6254C14.3273 21.6254 14.8758 22.1739 14.8758 22.8504Z" fill="#4A4351"/>
</g>
<defs>
<filter id="filter0_iii_182_6039" x="0.952344" y="4.70059" width="25.55" height="21.9315" filterUnits="userSpaceOnUse" color-interpolation-filters="sRGB">
<feFlood flood-opacity="0" result="BackgroundImageFix"/>
<feBlend mode="normal" in="SourceGraphic" in2="BackgroundImageFix" result="shape"/>
<feColorMatrix in="SourceAlpha" type="matrix" values="0 0 0 0 0 0 0 0 0 0 0 0 0 0 0 0 0 0 127 0" result="hardAlpha"/>
<feOffset dx="-0.45"/>
<feGaussianBlur stdDeviation="0.3"/>
<feComposite in2="hardAlpha" operator="arithmetic" k2="-1" k3="1"/>
<feColorMatrix type="matrix" values="0 0 0 0 1 0 0 0 0 0.996078 0 0 0 0 0.458824 0 0 0 1 0"/>
<feBlend mode="normal" in2="shape" result="effect1_innerShadow_182_6039"/>
<feColorMatrix in="SourceAlpha" type="matrix" values="0 0 0 0 0 0 0 0 0 0 0 0 0 0 0 0 0 0 127 0" result="hardAlpha"/>
<feOffset dx="0.6" dy="-0.4"/>
<feGaussianBlur stdDeviation="0.4"/>
<feComposite in2="hardAlpha" operator="arithmetic" k2="-1" k3="1"/>
<feColorMatrix type="matrix" values="0 0 0 0 0.929412 0 0 0 0 0.411765 0 0 0 0 0.313726 0 0 0 1 0"/>
<feBlend mode="normal" in2="effect1_innerShadow_182_6039" result="effect2_innerShadow_182_6039"/>
<feColorMatrix in="SourceAlpha" type="matrix" values="0 0 0 0 0 0 0 0 0 0 0 0 0 0 0 0 0 0 127 0" result="hardAlpha"/>
<feOffset dx="0.3"/>
<feGaussianBlur stdDeviation="0.3"/>
<feComposite in2="hardAlpha" operator="arithmetic" k2="-1" k3="1"/>
<feColorMatrix type="matrix" values="0 0 0 0 0.737255 0 0 0 0 0.564706 0 0 0 0 0.239216 0 0 0 1 0"/>
<feBlend mode="normal" in2="effect2_innerShadow_182_6039" result="effect3_innerShadow_182_6039"/>
</filter>
<filter id="filter1_i_182_6039" x="11.6758" y="10.1191" width="3.19922" height="14.7063" filterUnits="userSpaceOnUse" color-interpolation-filters="sRGB">
<feFlood flood-opacity="0" result="BackgroundImageFix"/>
<feBlend mode="normal" in="SourceGraphic" in2="BackgroundImageFix" result="shape"/>
<feColorMatrix in="SourceAlpha" type="matrix" values="0 0 0 0 0 0 0 0 0 0 0 0 0 0 0 0 0 0 127 0" result="hardAlpha"/>
<feOffset dx="-0.75" dy="0.75"/>
<feGaussianBlur stdDeviation="0.6"/>
<feComposite in2="hardAlpha" operator="arithmetic" k2="-1" k3="1"/>
<feColorMatrix type="matrix" values="0 0 0 0 0.180392 0 0 0 0 0.145098 0 0 0 0 0.223529 0 0 0 1 0"/>
<feBlend mode="normal" in2="shape" result="effect1_innerShadow_182_6039"/>
</filter>
<linearGradient id="paint0_linear_182_6039" x1="13.6515" y1="5.10059" x2="13.6515" y2="26.6321" gradientUnits="userSpaceOnUse">
<stop stop-color="#FFD758"/>
<stop offset="1" stop-color="#FFA956"/>
</linearGradient>
</defs>
</svg>
