<svg width="42" height="42" viewBox="0 0 42 42" fill="none" xmlns="http://www.w3.org/2000/svg">
<g filter="url(#filter0_i_86_1208)">
<path d="M6.18408 12.089C6.18408 10.904 7.11116 9.96077 8.21221 9.52286C9.53809 8.99552 10.9921 7.91756 11.8888 5.69754C12.3622 4.52564 13.4027 3.60278 14.6666 3.60278H24.9096C26.1997 3.60278 27.2516 4.56867 27.7746 5.74803C28.6561 7.7355 30.166 8.94403 31.5073 9.597C32.5567 10.1079 33.4515 11.0905 33.4515 12.2577V16.4846C33.4515 25.6033 30.5978 31.1078 23.0781 37.4261C21.5657 38.6968 19.3773 38.7639 17.8007 37.5738C10.8908 32.3578 6.18408 26.1801 6.18408 16.4846V12.089Z" fill="#378AED"/>
<path d="M6.18408 12.089C6.18408 10.904 7.11116 9.96077 8.21221 9.52286C9.53809 8.99552 10.9921 7.91756 11.8888 5.69754C12.3622 4.52564 13.4027 3.60278 14.6666 3.60278H24.9096C26.1997 3.60278 27.2516 4.56867 27.7746 5.74803C28.6561 7.7355 30.166 8.94403 31.5073 9.597C32.5567 10.1079 33.4515 11.0905 33.4515 12.2577V16.4846C33.4515 25.6033 30.5978 31.1078 23.0781 37.4261C21.5657 38.6968 19.3773 38.7639 17.8007 37.5738C10.8908 32.3578 6.18408 26.1801 6.18408 16.4846V12.089Z" fill="url(#paint0_radial_86_1208)"/>
</g>
<path d="M20.3595 38.4245V3.60278H24.9096C26.1997 3.60278 27.2516 4.56867 27.7746 5.74803C28.656 7.73551 30.166 8.94403 31.5072 9.597C32.5567 10.1079 33.4514 11.0905 33.4514 12.2577V16.4846C33.4514 25.6033 30.5978 31.1078 23.0781 37.4261C22.2938 38.085 21.3278 38.4203 20.3595 38.4245Z" fill="#3C88F0" fill-opacity="0.5"/>
<g filter="url(#filter1_i_86_1208)">
<path d="M20.3595 38.4084V3.60278H25.4366C26.7631 3.60278 27.8445 4.56867 28.3823 5.74803C29.2886 7.73551 30.841 8.94403 32.22 9.597C33.299 10.1079 34.2189 11.0905 34.2189 12.2577V16.4846C34.2189 25.6033 31.285 31.1078 23.5536 37.4261C22.6394 38.1731 21.485 38.5042 20.3595 38.4084Z" fill="url(#paint1_radial_86_1208)"/>
<path d="M20.3595 38.4084V3.60278H25.4366C26.7631 3.60278 27.8445 4.56867 28.3823 5.74803C29.2886 7.73551 30.841 8.94403 32.22 9.597C33.299 10.1079 34.2189 11.0905 34.2189 12.2577V16.4846C34.2189 25.6033 31.285 31.1078 23.5536 37.4261C22.6394 38.1731 21.485 38.5042 20.3595 38.4084Z" fill="url(#paint2_radial_86_1208)"/>
</g>
<g filter="url(#filter2_iii_86_1208)">
<path fill-rule="evenodd" clip-rule="evenodd" d="M14.6665 2.68408H26.0525C27.7959 2.68408 29.1124 3.94322 29.6821 5.35349C30.4751 7.31668 31.7284 8.22455 32.8464 8.6692C34.1438 9.1852 35.4537 10.3862 35.4537 12.089V16.4846C35.4537 26.5658 30.5209 32.9862 23.4719 38.3071C22.5477 39.0047 21.4522 39.3473 20.3595 39.3433C19.2668 39.3473 18.1712 39.0047 17.2471 38.3071C10.1981 32.9862 5.26526 26.5658 5.26526 16.4846V12.089C5.26526 10.3862 6.57522 9.1852 7.8726 8.6692C8.99057 8.22455 10.2439 7.31668 11.0369 5.35349C11.6066 3.94322 12.9231 2.68408 14.6665 2.68408ZM20.3595 37.5058C21.0647 37.5095 21.7709 37.2889 22.3649 36.8405C29.1357 31.7296 33.6162 25.7944 33.6162 16.4846V12.089C33.6162 11.422 33.072 10.7364 32.1673 10.3766C30.6335 9.76659 28.9788 8.51853 27.9783 6.0417C27.6012 5.10816 26.8368 4.52158 26.0525 4.52158H14.6665C13.8822 4.52158 13.1177 5.10816 12.7406 6.0417C11.7402 8.51853 10.0855 9.76659 8.55168 10.3766C7.64696 10.7364 7.10276 11.422 7.10276 12.089V16.4846C7.10276 25.7944 11.5833 31.7296 18.3541 36.8405C18.9481 37.2889 19.6543 37.5095 20.3595 37.5058Z" fill="url(#paint3_linear_86_1208)"/>
</g>
<path fill-rule="evenodd" clip-rule="evenodd" d="M14.6665 2.68408H26.0525C27.7959 2.68408 29.1124 3.94322 29.6821 5.35349C30.4751 7.31668 31.7284 8.22455 32.8464 8.6692C34.1438 9.1852 35.4537 10.3862 35.4537 12.089V16.4846C35.4537 26.5658 30.5209 32.9862 23.4719 38.3071C22.5477 39.0047 21.4522 39.3473 20.3595 39.3433C19.2668 39.3473 18.1712 39.0047 17.2471 38.3071C10.1981 32.9862 5.26526 26.5658 5.26526 16.4846V12.089C5.26526 10.3862 6.57522 9.1852 7.8726 8.6692C8.99057 8.22455 10.2439 7.31668 11.0369 5.35349C11.6066 3.94322 12.9231 2.68408 14.6665 2.68408ZM20.3595 37.5058C21.0647 37.5095 21.7709 37.2889 22.3649 36.8405C29.1357 31.7296 33.6162 25.7944 33.6162 16.4846V12.089C33.6162 11.422 33.072 10.7364 32.1673 10.3766C30.6335 9.76659 28.9788 8.51853 27.9783 6.0417C27.6012 5.10816 26.8368 4.52158 26.0525 4.52158H14.6665C13.8822 4.52158 13.1177 5.10816 12.7406 6.0417C11.7402 8.51853 10.0855 9.76659 8.55168 10.3766C7.64696 10.7364 7.10276 11.422 7.10276 12.089V16.4846C7.10276 25.7944 11.5833 31.7296 18.3541 36.8405C18.9481 37.2889 19.6543 37.5095 20.3595 37.5058Z" fill="url(#paint4_radial_86_1208)"/>
<path fill-rule="evenodd" clip-rule="evenodd" d="M14.6665 2.68408H26.0525C27.7959 2.68408 29.1124 3.94322 29.6821 5.35349C30.4751 7.31668 31.7284 8.22455 32.8464 8.6692C34.1438 9.1852 35.4537 10.3862 35.4537 12.089V16.4846C35.4537 26.5658 30.5209 32.9862 23.4719 38.3071C22.5477 39.0047 21.4522 39.3473 20.3595 39.3433C19.2668 39.3473 18.1712 39.0047 17.2471 38.3071C10.1981 32.9862 5.26526 26.5658 5.26526 16.4846V12.089C5.26526 10.3862 6.57522 9.1852 7.8726 8.6692C8.99057 8.22455 10.2439 7.31668 11.0369 5.35349C11.6066 3.94322 12.9231 2.68408 14.6665 2.68408ZM20.3595 37.5058C21.0647 37.5095 21.7709 37.2889 22.3649 36.8405C29.1357 31.7296 33.6162 25.7944 33.6162 16.4846V12.089C33.6162 11.422 33.072 10.7364 32.1673 10.3766C30.6335 9.76659 28.9788 8.51853 27.9783 6.0417C27.6012 5.10816 26.8368 4.52158 26.0525 4.52158H14.6665C13.8822 4.52158 13.1177 5.10816 12.7406 6.0417C11.7402 8.51853 10.0855 9.76659 8.55168 10.3766C7.64696 10.7364 7.10276 11.422 7.10276 12.089V16.4846C7.10276 25.7944 11.5833 31.7296 18.3541 36.8405C18.9481 37.2889 19.6543 37.5095 20.3595 37.5058Z" fill="url(#paint5_radial_86_1208)"/>
<defs>
<filter id="filter0_i_86_1208" x="6.18408" y="3.60278" width="28.0175" height="35.5618" filterUnits="userSpaceOnUse" color-interpolation-filters="sRGB">
<feFlood flood-opacity="0" result="BackgroundImageFix"/>
<feBlend mode="normal" in="SourceGraphic" in2="BackgroundImageFix" result="shape"/>
<feColorMatrix in="SourceAlpha" type="matrix" values="0 0 0 0 0 0 0 0 0 0 0 0 0 0 0 0 0 0 127 0" result="hardAlpha"/>
<feOffset dx="0.75" dy="0.74"/>
<feGaussianBlur stdDeviation="0.5"/>
<feComposite in2="hardAlpha" operator="arithmetic" k2="-1" k3="1"/>
<feColorMatrix type="matrix" values="0 0 0 0 0.0627451 0 0 0 0 0.337255 0 0 0 0 0.713726 0 0 0 1 0"/>
<feBlend mode="normal" in2="shape" result="effect1_innerShadow_86_1208"/>
</filter>
<filter id="filter1_i_86_1208" x="19.9595" y="3.60278" width="14.2595" height="35.5718" filterUnits="userSpaceOnUse" color-interpolation-filters="sRGB">
<feFlood flood-opacity="0" result="BackgroundImageFix"/>
<feBlend mode="normal" in="SourceGraphic" in2="BackgroundImageFix" result="shape"/>
<feColorMatrix in="SourceAlpha" type="matrix" values="0 0 0 0 0 0 0 0 0 0 0 0 0 0 0 0 0 0 127 0" result="hardAlpha"/>
<feOffset dx="-0.4" dy="0.8"/>
<feGaussianBlur stdDeviation="0.375"/>
<feComposite in2="hardAlpha" operator="arithmetic" k2="-1" k3="1"/>
<feColorMatrix type="matrix" values="0 0 0 0 0.121569 0 0 0 0 0.478431 0 0 0 0 0.843137 0 0 0 1 0"/>
<feBlend mode="normal" in2="shape" result="effect1_innerShadow_86_1208"/>
</filter>
<filter id="filter2_iii_86_1208" x="5.01526" y="2.43408" width="30.6885" height="37.0592" filterUnits="userSpaceOnUse" color-interpolation-filters="sRGB">
<feFlood flood-opacity="0" result="BackgroundImageFix"/>
<feBlend mode="normal" in="SourceGraphic" in2="BackgroundImageFix" result="shape"/>
<feColorMatrix in="SourceAlpha" type="matrix" values="0 0 0 0 0 0 0 0 0 0 0 0 0 0 0 0 0 0 127 0" result="hardAlpha"/>
<feOffset dx="0.25"/>
<feGaussianBlur stdDeviation="0.25"/>
<feComposite in2="hardAlpha" operator="arithmetic" k2="-1" k3="1"/>
<feColorMatrix type="matrix" values="0 0 0 0 0.635294 0 0 0 0 0.588235 0 0 0 0 0.596078 0 0 0 1 0"/>
<feBlend mode="normal" in2="shape" result="effect1_innerShadow_86_1208"/>
<feColorMatrix in="SourceAlpha" type="matrix" values="0 0 0 0 0 0 0 0 0 0 0 0 0 0 0 0 0 0 127 0" result="hardAlpha"/>
<feOffset dy="-0.25"/>
<feGaussianBlur stdDeviation="0.25"/>
<feComposite in2="hardAlpha" operator="arithmetic" k2="-1" k3="1"/>
<feColorMatrix type="matrix" values="0 0 0 0 0.647059 0 0 0 0 0.501961 0 0 0 0 0.745098 0 0 0 1 0"/>
<feBlend mode="normal" in2="effect1_innerShadow_86_1208" result="effect2_innerShadow_86_1208"/>
<feColorMatrix in="SourceAlpha" type="matrix" values="0 0 0 0 0 0 0 0 0 0 0 0 0 0 0 0 0 0 127 0" result="hardAlpha"/>
<feOffset dx="-0.25" dy="0.15"/>
<feGaussianBlur stdDeviation="0.15"/>
<feComposite in2="hardAlpha" operator="arithmetic" k2="-1" k3="1"/>
<feColorMatrix type="matrix" values="0 0 0 0 0.854902 0 0 0 0 0.85098 0 0 0 0 0.862745 0 0 0 1 0"/>
<feBlend mode="normal" in2="effect2_innerShadow_86_1208" result="effect3_innerShadow_86_1208"/>
</filter>
<radialGradient id="paint0_radial_86_1208" cx="0" cy="0" r="1" gradientUnits="userSpaceOnUse" gradientTransform="translate(24.9556 22.0284) rotate(139.976) scale(17.1797 24.0613)">
<stop offset="0.792317" stop-color="#3782E8" stop-opacity="0"/>
<stop offset="0.943177" stop-color="#286ACA"/>
</radialGradient>
<radialGradient id="paint1_radial_86_1208" cx="0" cy="0" r="1" gradientUnits="userSpaceOnUse" gradientTransform="translate(20.3595 21.0136) scale(13.2814 29.4339)">
<stop stop-color="#52C9FF"/>
<stop offset="1" stop-color="#59CBFF"/>
</radialGradient>
<radialGradient id="paint2_radial_86_1208" cx="0" cy="0" r="1" gradientUnits="userSpaceOnUse" gradientTransform="translate(21.7709 18.8533) rotate(12.0483) scale(12.0861 20.7891)">
<stop offset="0.796802" stop-color="#44AAFF" stop-opacity="0"/>
<stop offset="0.96638" stop-color="#1B7CE2"/>
</radialGradient>
<linearGradient id="paint3_linear_86_1208" x1="6.34881" y1="23.4665" x2="28.8918" y2="23.4665" gradientUnits="userSpaceOnUse">
<stop stop-color="#B8B3BE"/>
<stop offset="1" stop-color="#BBB3C4"/>
</linearGradient>
<radialGradient id="paint4_radial_86_1208" cx="0" cy="0" r="1" gradientUnits="userSpaceOnUse" gradientTransform="translate(11.0638 8.42115) rotate(-126.254) scale(1.10494 6.87393)">
<stop offset="0.278875" stop-color="#B8B1C0"/>
<stop offset="1" stop-color="#B8B1C0" stop-opacity="0"/>
</radialGradient>
<radialGradient id="paint5_radial_86_1208" cx="0" cy="0" r="1" gradientUnits="userSpaceOnUse" gradientTransform="translate(13.6787 6.48053) rotate(-126.69) scale(2.60861 3.21481)">
<stop offset="0.359827" stop-color="#B8B1C0"/>
<stop offset="1" stop-color="#B8B1C0" stop-opacity="0"/>
</radialGradient>
</defs>
</svg>
