<svg width="42" height="42" viewBox="0 0 42 42" fill="none" xmlns="http://www.w3.org/2000/svg">
<g filter="url(#filter0_i_88_292)">
<path d="M4.96289 12.7456C4.96289 12.5205 5.07824 12.3111 5.26849 12.1909L20.4443 2.59787C20.6584 2.46249 20.9314 2.46249 21.1456 2.59787L36.3214 12.1909C36.5116 12.3111 36.627 12.5205 36.627 12.7456V29.4903C36.627 29.718 36.5089 29.9295 36.3151 30.049L21.1393 39.406C20.9282 39.5362 20.6617 39.5362 20.4505 39.406L5.27472 30.049C5.08091 29.9295 4.96289 29.718 4.96289 29.4904V12.7456Z" fill="url(#paint0_linear_88_292)"/>
<path d="M4.96289 12.7456C4.96289 12.5205 5.07824 12.3111 5.26849 12.1909L20.4443 2.59787C20.6584 2.46249 20.9314 2.46249 21.1456 2.59787L36.3214 12.1909C36.5116 12.3111 36.627 12.5205 36.627 12.7456V29.4903C36.627 29.718 36.5089 29.9295 36.3151 30.049L21.1393 39.406C20.9282 39.5362 20.6617 39.5362 20.4505 39.406L5.27472 30.049C5.08091 29.9295 4.96289 29.718 4.96289 29.4904V12.7456Z" fill="url(#paint1_linear_88_292)"/>
</g>
<g filter="url(#filter1_i_88_292)">
<path d="M20.6719 39.492C20.5947 39.4773 20.5196 39.4486 20.4505 39.406L5.27472 30.0489C5.08091 29.9294 4.96289 29.718 4.96289 29.4903V12.752L20.362 22.3223C20.5547 22.442 20.6719 22.6528 20.6719 22.8796V39.492Z" fill="url(#paint2_linear_88_292)"/>
</g>
<path d="M36.5898 12.5278C36.6141 12.5968 36.627 12.6703 36.627 12.7456V29.4903C36.627 29.718 36.5089 29.9294 36.3151 30.0489L21.1393 39.406C20.9973 39.4936 20.8303 39.5223 20.6719 39.4921V22.7692C20.6719 22.5423 20.789 22.3316 20.9817 22.2118L36.468 12.5874C36.5074 12.5628 36.5482 12.5431 36.5898 12.5278Z" fill="url(#paint3_linear_88_292)"/>
<path d="M36.5898 12.5278C36.6141 12.5968 36.627 12.6703 36.627 12.7456V29.4903C36.627 29.718 36.5089 29.9294 36.3151 30.0489L21.1393 39.406C20.9973 39.4936 20.8303 39.5223 20.6719 39.4921V22.7692C20.6719 22.5423 20.789 22.3316 20.9817 22.2118L36.468 12.5874C36.5074 12.5628 36.5482 12.5431 36.5898 12.5278Z" fill="url(#paint4_linear_88_292)"/>
<g filter="url(#filter2_i_88_292)">
<path d="M14.1504 29.9703C14.1504 29.6615 14.4897 29.4728 14.752 29.6359L18.8548 32.1865C19.0474 32.3062 19.1646 32.517 19.1646 32.7438V35.7107C19.1646 36.0195 18.8252 36.2081 18.5629 36.0451L14.4602 33.4945C14.2675 33.3747 14.1504 33.164 14.1504 32.9372V29.9703Z" fill="url(#paint5_linear_88_292)"/>
</g>
<g filter="url(#filter3_i_88_292)">
<path d="M10.8281 16.8821V20.4847L14.6631 22.7816V19.43C14.6631 18.982 14.8894 18.5664 15.2669 18.3249C20.5035 14.9752 29.9382 8.86234 30.167 8.64144C30.3772 8.48763 30.6558 8.56282 30.7412 8.68245C30.7412 8.43636 30.6113 8.29281 30.5464 8.25179L26.9503 6.0568C26.7353 5.92554 26.4641 5.92897 26.2525 6.06562L11.5488 15.5589C11.0995 15.849 10.8281 16.3473 10.8281 16.8821Z" fill="#966957"/>
<path d="M10.8281 16.8821V20.4847L14.6631 22.7816V19.43C14.6631 18.982 14.8894 18.5664 15.2669 18.3249C20.5035 14.9752 29.9382 8.86234 30.167 8.64144C30.3772 8.48763 30.6558 8.56282 30.7412 8.68245C30.7412 8.43636 30.6113 8.29281 30.5464 8.25179L26.9503 6.0568C26.7353 5.92554 26.4641 5.92897 26.2525 6.06562L11.5488 15.5589C11.0995 15.849 10.8281 16.3473 10.8281 16.8821Z" fill="url(#paint6_linear_88_292)"/>
<path d="M10.8281 16.8821V20.4847L14.6631 22.7816V19.43C14.6631 18.982 14.8894 18.5664 15.2669 18.3249C20.5035 14.9752 29.9382 8.86234 30.167 8.64144C30.3772 8.48763 30.6558 8.56282 30.7412 8.68245C30.7412 8.43636 30.6113 8.29281 30.5464 8.25179L26.9503 6.0568C26.7353 5.92554 26.4641 5.92897 26.2525 6.06562L11.5488 15.5589C11.0995 15.849 10.8281 16.3473 10.8281 16.8821Z" fill="url(#paint7_linear_88_292)"/>
</g>
<g filter="url(#filter4_f_88_292)">
<path d="M30.4746 8.39526C30.3721 8.32143 30.2131 8.36449 30.1465 8.39526L14.9912 18.28C14.9536 18.3039 14.8569 18.3856 14.7708 18.521" stroke="#A47E73" stroke-width="0.05"/>
</g>
<g filter="url(#filter5_f_88_292)">
<path d="M21 22.1458L36.2578 12.6301" stroke="#F4CAA3" stroke-width="0.2" stroke-linecap="round"/>
</g>
<defs>
<filter id="filter0_i_88_292" x="4.96289" y="2.49634" width="31.6641" height="37.1073" filterUnits="userSpaceOnUse" color-interpolation-filters="sRGB">
<feFlood flood-opacity="0" result="BackgroundImageFix"/>
<feBlend mode="normal" in="SourceGraphic" in2="BackgroundImageFix" result="shape"/>
<feColorMatrix in="SourceAlpha" type="matrix" values="0 0 0 0 0 0 0 0 0 0 0 0 0 0 0 0 0 0 127 0" result="hardAlpha"/>
<feOffset dy="0.1"/>
<feGaussianBlur stdDeviation="0.15"/>
<feComposite in2="hardAlpha" operator="arithmetic" k2="-1" k3="1"/>
<feColorMatrix type="matrix" values="0 0 0 0 0.843137 0 0 0 0 0.694118 0 0 0 0 0.52549 0 0 0 1 0"/>
<feBlend mode="normal" in2="shape" result="effect1_innerShadow_88_292"/>
</filter>
<filter id="filter1_i_88_292" x="4.96289" y="12.752" width="16.709" height="27.74" filterUnits="userSpaceOnUse" color-interpolation-filters="sRGB">
<feFlood flood-opacity="0" result="BackgroundImageFix"/>
<feBlend mode="normal" in="SourceGraphic" in2="BackgroundImageFix" result="shape"/>
<feColorMatrix in="SourceAlpha" type="matrix" values="0 0 0 0 0 0 0 0 0 0 0 0 0 0 0 0 0 0 127 0" result="hardAlpha"/>
<feOffset dx="1" dy="1"/>
<feGaussianBlur stdDeviation="1.5"/>
<feComposite in2="hardAlpha" operator="arithmetic" k2="-1" k3="1"/>
<feColorMatrix type="matrix" values="0 0 0 0 0.831373 0 0 0 0 0.670588 0 0 0 0 0.545098 0 0 0 1 0"/>
<feBlend mode="normal" in2="shape" result="effect1_innerShadow_88_292"/>
</filter>
<filter id="filter2_i_88_292" x="14.0504" y="29.5759" width="5.11416" height="6.52905" filterUnits="userSpaceOnUse" color-interpolation-filters="sRGB">
<feFlood flood-opacity="0" result="BackgroundImageFix"/>
<feBlend mode="normal" in="SourceGraphic" in2="BackgroundImageFix" result="shape"/>
<feColorMatrix in="SourceAlpha" type="matrix" values="0 0 0 0 0 0 0 0 0 0 0 0 0 0 0 0 0 0 127 0" result="hardAlpha"/>
<feOffset dx="-0.15"/>
<feGaussianBlur stdDeviation="0.05"/>
<feComposite in2="hardAlpha" operator="arithmetic" k2="-1" k3="1"/>
<feColorMatrix type="matrix" values="0 0 0 0 0.760103 0 0 0 0 0.683293 0 0 0 0 0.795016 0 0 0 1 0"/>
<feBlend mode="normal" in2="shape" result="effect1_innerShadow_88_292"/>
</filter>
<filter id="filter3_i_88_292" x="10.7281" y="5.96069" width="20.0131" height="16.8208" filterUnits="userSpaceOnUse" color-interpolation-filters="sRGB">
<feFlood flood-opacity="0" result="BackgroundImageFix"/>
<feBlend mode="normal" in="SourceGraphic" in2="BackgroundImageFix" result="shape"/>
<feColorMatrix in="SourceAlpha" type="matrix" values="0 0 0 0 0 0 0 0 0 0 0 0 0 0 0 0 0 0 127 0" result="hardAlpha"/>
<feOffset dx="-0.1"/>
<feGaussianBlur stdDeviation="0.05"/>
<feComposite in2="hardAlpha" operator="arithmetic" k2="-1" k3="1"/>
<feColorMatrix type="matrix" values="0 0 0 0 0.47451 0 0 0 0 0.266667 0 0 0 0 0.301961 0 0 0 1 0"/>
<feBlend mode="normal" in2="shape" result="effect1_innerShadow_88_292"/>
</filter>
<filter id="filter4_f_88_292" x="14.6498" y="8.22959" width="15.9395" height="10.4048" filterUnits="userSpaceOnUse" color-interpolation-filters="sRGB">
<feFlood flood-opacity="0" result="BackgroundImageFix"/>
<feBlend mode="normal" in="SourceGraphic" in2="BackgroundImageFix" result="shape"/>
<feGaussianBlur stdDeviation="0.05" result="effect1_foregroundBlur_88_292"/>
</filter>
<filter id="filter5_f_88_292" x="20.6499" y="12.28" width="15.958" height="10.2158" filterUnits="userSpaceOnUse" color-interpolation-filters="sRGB">
<feFlood flood-opacity="0" result="BackgroundImageFix"/>
<feBlend mode="normal" in="SourceGraphic" in2="BackgroundImageFix" result="shape"/>
<feGaussianBlur stdDeviation="0.125" result="effect1_foregroundBlur_88_292"/>
</filter>
<linearGradient id="paint0_linear_88_292" x1="20.7949" y1="2.49634" x2="20.7949" y2="39.5037" gradientUnits="userSpaceOnUse">
<stop stop-color="#DEB586"/>
<stop offset="1" stop-color="#D7AA82"/>
</linearGradient>
<linearGradient id="paint1_linear_88_292" x1="13.9453" y1="18.4749" x2="14.54" y2="17.5315" gradientUnits="userSpaceOnUse">
<stop offset="0.0656074" stop-color="#C99D78"/>
<stop offset="1" stop-color="#DCB185" stop-opacity="0"/>
</linearGradient>
<linearGradient id="paint2_linear_88_292" x1="7.0562" y1="19.909" x2="18.1994" y2="38.55" gradientUnits="userSpaceOnUse">
<stop stop-color="#B98875"/>
<stop offset="1" stop-color="#AA684F"/>
</linearGradient>
<linearGradient id="paint3_linear_88_292" x1="21.7793" y1="21.9817" x2="32.2793" y2="32.8918" gradientUnits="userSpaceOnUse">
<stop stop-color="#D7A585"/>
<stop offset="1" stop-color="#BD7943"/>
</linearGradient>
<linearGradient id="paint4_linear_88_292" x1="20.2447" y1="33.0921" x2="21.7654" y2="33.0077" gradientUnits="userSpaceOnUse">
<stop stop-color="#B46C4B"/>
<stop offset="1" stop-color="#BD7E61" stop-opacity="0"/>
</linearGradient>
<linearGradient id="paint5_linear_88_292" x1="14.8854" y1="29.8509" x2="18.3236" y2="36.4788" gradientUnits="userSpaceOnUse">
<stop stop-color="#CAB6CD"/>
<stop offset="1" stop-color="#D1BED7"/>
</linearGradient>
<linearGradient id="paint6_linear_88_292" x1="11.5664" y1="20.8128" x2="14.1914" y2="16.9163" gradientUnits="userSpaceOnUse">
<stop offset="0.649314" stop-color="#8D6D6C"/>
<stop offset="0.725768" stop-color="#83554C"/>
<stop offset="0.825328" stop-color="#83554C"/>
<stop offset="1" stop-color="#976A58" stop-opacity="0"/>
</linearGradient>
<linearGradient id="paint7_linear_88_292" x1="29.7363" y1="7.58529" x2="28.4238" y2="9.06185" gradientUnits="userSpaceOnUse">
<stop stop-color="#9C6F5D"/>
<stop offset="1" stop-color="#9C6F5D" stop-opacity="0"/>
</linearGradient>
</defs>
</svg>
