<svg width="42" height="42" viewBox="0 0 42 42" fill="none" xmlns="http://www.w3.org/2000/svg">
<g filter="url(#filter0_ii_158_1818)">
<path d="M2.70121 25.3693L7.12434 16.9562C7.50496 16.2343 8.25309 15.7881 9.06684 15.7881H18.0912C18.1741 15.7881 18.2412 15.8552 18.2412 15.9381V28.831L2.49121 26.4062C2.49121 26.0518 2.55684 25.6975 2.70121 25.3693Z" fill="url(#paint0_linear_158_1818)"/>
</g>
<path d="M2.70121 25.3693L7.12434 16.9562C7.50496 16.2343 8.25309 15.7881 9.06684 15.7881H18.0912C18.1741 15.7881 18.2412 15.8552 18.2412 15.9381V28.831L2.49121 26.4062C2.49121 26.0518 2.55684 25.6975 2.70121 25.3693Z" fill="url(#paint1_linear_158_1818)"/>
<path d="M2.70121 25.3693L7.12434 16.9562C7.50496 16.2343 8.25309 15.7881 9.06684 15.7881H18.0912C18.1741 15.7881 18.2412 15.8552 18.2412 15.9381V28.831L2.49121 26.4062C2.49121 26.0518 2.55684 25.6975 2.70121 25.3693Z" fill="url(#paint2_linear_158_1818)"/>
<g filter="url(#filter1_ii_158_1818)">
<path d="M35.3037 9.22559H22.1787C20 9.22559 18.2412 10.9843 18.2412 13.1631V27.9305H39.2412V13.1631C39.2412 10.9843 37.4825 9.22559 35.3037 9.22559Z" fill="url(#paint3_linear_158_1818)"/>
</g>
<path d="M35.3037 9.22559H22.1787C20 9.22559 18.2412 10.9843 18.2412 13.1631V27.9305H39.2412V13.1631C39.2412 10.9843 37.4825 9.22559 35.3037 9.22559Z" fill="url(#paint4_linear_158_1818)"/>
<path d="M35.3037 9.22559H22.1787C20 9.22559 18.2412 10.9843 18.2412 13.1631V27.9305H39.2412V13.1631C39.2412 10.9843 37.4825 9.22559 35.3037 9.22559Z" fill="url(#paint5_linear_158_1818)"/>
<path d="M2.89844 24.9754H11.5478C12.3484 24.9754 12.9916 24.3323 12.9916 23.5316V18.5573C12.9916 17.7567 12.3484 17.1135 11.5478 17.1135H7.05906L2.89844 24.9754Z" fill="url(#paint6_linear_158_1818)"/>
<path d="M2.89844 24.9754H11.5478C12.3484 24.9754 12.9916 24.3323 12.9916 23.5316V18.5573C12.9916 17.7567 12.3484 17.1135 11.5478 17.1135H7.05906L2.89844 24.9754Z" fill="url(#paint7_linear_158_1818)"/>
<path d="M2.89844 24.9754H11.5478C12.3484 24.9754 12.9916 24.3323 12.9916 23.5316V18.5573C12.9916 17.7567 12.3484 17.1135 11.5478 17.1135H7.05906L2.89844 24.9754Z" fill="url(#paint8_linear_158_1818)"/>
<path d="M18.2412 35.4821V26.2815H39.2412V33.1196C39.2412 34.419 38.1781 35.4821 36.8787 35.4821H18.2412Z" fill="url(#paint9_linear_158_1818)"/>
<path d="M18.2412 35.4821V26.2815H39.2412V33.1196C39.2412 34.419 38.1781 35.4821 36.8787 35.4821H18.2412Z" fill="url(#paint10_linear_158_1818)"/>
<path d="M18.2412 35.4821V26.2815H39.2412V33.1196C39.2412 34.419 38.1781 35.4821 36.8787 35.4821H18.2412Z" fill="url(#paint11_linear_158_1818)"/>
<g filter="url(#filter2_ii_158_1818)">
<path d="M30.71 36.7881C31.7973 36.7881 32.6787 35.9066 32.6787 34.8193C32.6787 33.732 31.7973 32.8506 30.71 32.8506C29.6226 32.8506 28.7412 33.732 28.7412 34.8193C28.7412 35.9066 29.6226 36.7881 30.71 36.7881Z" fill="#D9C3F0"/>
</g>
<path d="M39.2414 28.9131H38.5852C37.4696 28.9131 36.5639 29.845 36.6164 30.9737C36.6689 32.0368 37.5877 32.8506 38.6508 32.8506H39.2414V28.9131Z" fill="url(#paint12_linear_158_1818)"/>
<path d="M18.2412 26.2881H2.49121V33.1525C2.49121 34.4387 3.54119 35.4887 4.8275 35.4887H18.2412V26.2881Z" fill="url(#paint13_linear_158_1818)"/>
<path d="M18.2412 26.2881H2.49121V33.1525C2.49121 34.4387 3.54119 35.4887 4.8275 35.4887H18.2412V26.2881Z" fill="url(#paint14_linear_158_1818)"/>
<path d="M18.2412 26.2881H2.49121V33.1525C2.49121 34.4387 3.54119 35.4887 4.8275 35.4887H18.2412V26.2881Z" fill="url(#paint15_linear_158_1818)"/>
<path d="M18.2412 26.2881H2.49121V33.1525C2.49121 34.4387 3.54119 35.4887 4.8275 35.4887H18.2412V26.2881Z" fill="url(#paint16_linear_158_1818)"/>
<path fill-rule="evenodd" clip-rule="evenodd" d="M16.3785 35.4886C16.407 35.2696 16.4217 35.0461 16.4217 34.8193C16.4217 31.9829 14.1224 29.6836 11.2861 29.6836C8.44971 29.6836 6.15039 31.9829 6.15039 34.8193C6.15039 35.0461 6.1651 35.2696 6.19362 35.4886H16.3785Z" fill="url(#paint17_linear_158_1818)"/>
<path fill-rule="evenodd" clip-rule="evenodd" d="M35.8024 35.4886C35.8309 35.2696 35.8456 35.0461 35.8456 34.8193C35.8456 31.9829 33.5463 29.6836 30.7099 29.6836C27.8735 29.6836 25.5742 31.9829 25.5742 34.8193C25.5742 35.0461 25.5889 35.2696 25.6174 35.4886H35.8024Z" fill="url(#paint18_linear_158_1818)"/>
<g filter="url(#filter3_ii_158_1818)">
<path d="M30.7482 39.375C33.2643 39.375 35.304 37.3353 35.304 34.8192C35.304 32.3031 33.2643 30.2634 30.7482 30.2634C28.2321 30.2634 26.1924 32.3031 26.1924 34.8192C26.1924 37.3353 28.2321 39.375 30.7482 39.375Z" fill="url(#paint19_linear_158_1818)"/>
<path d="M30.7482 39.375C33.2643 39.375 35.304 37.3353 35.304 34.8192C35.304 32.3031 33.2643 30.2634 30.7482 30.2634C28.2321 30.2634 26.1924 32.3031 26.1924 34.8192C26.1924 37.3353 28.2321 39.375 30.7482 39.375Z" fill="url(#paint20_radial_158_1818)"/>
</g>
<g filter="url(#filter4_ii_158_1818)">
<path d="M30.7508 36.5007C31.6795 36.5007 32.4323 35.7479 32.4323 34.8192C32.4323 33.8905 31.6795 33.1377 30.7508 33.1377C29.8222 33.1377 29.0693 33.8905 29.0693 34.8192C29.0693 35.7479 29.8222 36.5007 30.7508 36.5007Z" fill="#D9C3F0"/>
</g>
<path d="M3.68559 32.8506H2.49121V27.6006H3.68559C4.47309 27.6006 5.11621 28.2437 5.11621 29.0312V31.42C5.11621 32.2075 4.47309 32.8506 3.68559 32.8506Z" fill="#F8DA4B"/>
<g filter="url(#filter5_ii_158_1818)">
<path d="M11.2858 39.375C13.8019 39.375 15.8416 37.3353 15.8416 34.8192C15.8416 32.3031 13.8019 30.2634 11.2858 30.2634C8.76968 30.2634 6.72998 32.3031 6.72998 34.8192C6.72998 37.3353 8.76968 39.375 11.2858 39.375Z" fill="url(#paint21_linear_158_1818)"/>
<path d="M11.2858 39.375C13.8019 39.375 15.8416 37.3353 15.8416 34.8192C15.8416 32.3031 13.8019 30.2634 11.2858 30.2634C8.76968 30.2634 6.72998 32.3031 6.72998 34.8192C6.72998 37.3353 8.76968 39.375 11.2858 39.375Z" fill="url(#paint22_radial_158_1818)"/>
</g>
<g filter="url(#filter6_ii_158_1818)">
<path d="M11.2889 36.5007C12.2176 36.5007 12.9704 35.7479 12.9704 34.8192C12.9704 33.8905 12.2176 33.1377 11.2889 33.1377C10.3603 33.1377 9.60742 33.8905 9.60742 34.8192C9.60742 35.7479 10.3603 36.5007 11.2889 36.5007Z" fill="#D9C3F0"/>
</g>
<g filter="url(#filter7_f_158_1818)">
<ellipse cx="11.4917" cy="34.3713" rx="3.14546" ry="3.14546" stroke="url(#paint23_linear_158_1818)" stroke-width="0.85"/>
</g>
<g filter="url(#filter8_f_158_1818)">
<circle cx="31.0102" cy="34.3713" r="3.14546" stroke="url(#paint24_linear_158_1818)" stroke-width="0.85"/>
</g>
<defs>
<filter id="filter0_ii_158_1818" x="1.99121" y="15.7881" width="16.75" height="13.243" filterUnits="userSpaceOnUse" color-interpolation-filters="sRGB">
<feFlood flood-opacity="0" result="BackgroundImageFix"/>
<feBlend mode="normal" in="SourceGraphic" in2="BackgroundImageFix" result="shape"/>
<feColorMatrix in="SourceAlpha" type="matrix" values="0 0 0 0 0 0 0 0 0 0 0 0 0 0 0 0 0 0 127 0" result="hardAlpha"/>
<feOffset dx="-1" dy="0.2"/>
<feGaussianBlur stdDeviation="0.25"/>
<feComposite in2="hardAlpha" operator="arithmetic" k2="-1" k3="1"/>
<feColorMatrix type="matrix" values="0 0 0 0 1 0 0 0 0 0.945098 0 0 0 0 0.996078 0 0 0 1 0"/>
<feBlend mode="normal" in2="shape" result="effect1_innerShadow_158_1818"/>
<feColorMatrix in="SourceAlpha" type="matrix" values="0 0 0 0 0 0 0 0 0 0 0 0 0 0 0 0 0 0 127 0" result="hardAlpha"/>
<feOffset dx="0.5"/>
<feGaussianBlur stdDeviation="0.25"/>
<feComposite in2="hardAlpha" operator="arithmetic" k2="-1" k3="1"/>
<feColorMatrix type="matrix" values="0 0 0 0 0.678431 0 0 0 0 0.639216 0 0 0 0 0.643137 0 0 0 1 0"/>
<feBlend mode="normal" in2="effect1_innerShadow_158_1818" result="effect2_innerShadow_158_1818"/>
</filter>
<filter id="filter1_ii_158_1818" x="17.7412" y="9.22559" width="22" height="18.7048" filterUnits="userSpaceOnUse" color-interpolation-filters="sRGB">
<feFlood flood-opacity="0" result="BackgroundImageFix"/>
<feBlend mode="normal" in="SourceGraphic" in2="BackgroundImageFix" result="shape"/>
<feColorMatrix in="SourceAlpha" type="matrix" values="0 0 0 0 0 0 0 0 0 0 0 0 0 0 0 0 0 0 127 0" result="hardAlpha"/>
<feOffset dx="0.8"/>
<feGaussianBlur stdDeviation="0.25"/>
<feComposite in2="hardAlpha" operator="arithmetic" k2="-1" k3="1"/>
<feColorMatrix type="matrix" values="0 0 0 0 0.784314 0 0 0 0 0.615686 0 0 0 0 0.258824 0 0 0 1 0"/>
<feBlend mode="normal" in2="shape" result="effect1_innerShadow_158_1818"/>
<feColorMatrix in="SourceAlpha" type="matrix" values="0 0 0 0 0 0 0 0 0 0 0 0 0 0 0 0 0 0 127 0" result="hardAlpha"/>
<feOffset dx="-1"/>
<feGaussianBlur stdDeviation="0.25"/>
<feComposite in2="hardAlpha" operator="arithmetic" k2="-1" k3="1"/>
<feColorMatrix type="matrix" values="0 0 0 0 0.909804 0 0 0 0 0.756863 0 0 0 0 0.27451 0 0 0 1 0"/>
<feBlend mode="normal" in2="effect1_innerShadow_158_1818" result="effect2_innerShadow_158_1818"/>
</filter>
<filter id="filter2_ii_158_1818" x="28.6912" y="32.8006" width="4.0375" height="4.0375" filterUnits="userSpaceOnUse" color-interpolation-filters="sRGB">
<feFlood flood-opacity="0" result="BackgroundImageFix"/>
<feBlend mode="normal" in="SourceGraphic" in2="BackgroundImageFix" result="shape"/>
<feColorMatrix in="SourceAlpha" type="matrix" values="0 0 0 0 0 0 0 0 0 0 0 0 0 0 0 0 0 0 127 0" result="hardAlpha"/>
<feOffset dx="0.05" dy="-0.05"/>
<feGaussianBlur stdDeviation="0.05"/>
<feComposite in2="hardAlpha" operator="arithmetic" k2="-1" k3="1"/>
<feColorMatrix type="matrix" values="0 0 0 0 0.478431 0 0 0 0 0.364706 0 0 0 0 0.584314 0 0 0 1 0"/>
<feBlend mode="normal" in2="shape" result="effect1_innerShadow_158_1818"/>
<feColorMatrix in="SourceAlpha" type="matrix" values="0 0 0 0 0 0 0 0 0 0 0 0 0 0 0 0 0 0 127 0" result="hardAlpha"/>
<feOffset dx="-0.05" dy="0.05"/>
<feGaussianBlur stdDeviation="0.05"/>
<feComposite in2="hardAlpha" operator="arithmetic" k2="-1" k3="1"/>
<feColorMatrix type="matrix" values="0 0 0 0 0.807843 0 0 0 0 0.764706 0 0 0 0 0.858824 0 0 0 1 0"/>
<feBlend mode="normal" in2="effect1_innerShadow_158_1818" result="effect2_innerShadow_158_1818"/>
</filter>
<filter id="filter3_ii_158_1818" x="26.1924" y="30.2634" width="9.11182" height="9.26157" filterUnits="userSpaceOnUse" color-interpolation-filters="sRGB">
<feFlood flood-opacity="0" result="BackgroundImageFix"/>
<feBlend mode="normal" in="SourceGraphic" in2="BackgroundImageFix" result="shape"/>
<feColorMatrix in="SourceAlpha" type="matrix" values="0 0 0 0 0 0 0 0 0 0 0 0 0 0 0 0 0 0 127 0" result="hardAlpha"/>
<feOffset/>
<feGaussianBlur stdDeviation="0.5"/>
<feComposite in2="hardAlpha" operator="arithmetic" k2="-1" k3="1"/>
<feColorMatrix type="matrix" values="0 0 0 0 0.145098 0 0 0 0 0.0823529 0 0 0 0 0.215686 0 0 0 1 0"/>
<feBlend mode="normal" in2="shape" result="effect1_innerShadow_158_1818"/>
<feColorMatrix in="SourceAlpha" type="matrix" values="0 0 0 0 0 0 0 0 0 0 0 0 0 0 0 0 0 0 127 0" result="hardAlpha"/>
<feOffset dy="0.15"/>
<feGaussianBlur stdDeviation="0.125"/>
<feComposite in2="hardAlpha" operator="arithmetic" k2="-1" k3="1"/>
<feColorMatrix type="matrix" values="0 0 0 0 0.207843 0 0 0 0 0.0313726 0 0 0 0 0.235294 0 0 0 1 0"/>
<feBlend mode="normal" in2="effect1_innerShadow_158_1818" result="effect2_innerShadow_158_1818"/>
</filter>
<filter id="filter4_ii_158_1818" x="29.0193" y="33.0877" width="3.46279" height="3.46304" filterUnits="userSpaceOnUse" color-interpolation-filters="sRGB">
<feFlood flood-opacity="0" result="BackgroundImageFix"/>
<feBlend mode="normal" in="SourceGraphic" in2="BackgroundImageFix" result="shape"/>
<feColorMatrix in="SourceAlpha" type="matrix" values="0 0 0 0 0 0 0 0 0 0 0 0 0 0 0 0 0 0 127 0" result="hardAlpha"/>
<feOffset dx="0.05" dy="-0.05"/>
<feGaussianBlur stdDeviation="0.05"/>
<feComposite in2="hardAlpha" operator="arithmetic" k2="-1" k3="1"/>
<feColorMatrix type="matrix" values="0 0 0 0 0.478431 0 0 0 0 0.364706 0 0 0 0 0.584314 0 0 0 1 0"/>
<feBlend mode="normal" in2="shape" result="effect1_innerShadow_158_1818"/>
<feColorMatrix in="SourceAlpha" type="matrix" values="0 0 0 0 0 0 0 0 0 0 0 0 0 0 0 0 0 0 127 0" result="hardAlpha"/>
<feOffset dx="-0.05" dy="0.05"/>
<feGaussianBlur stdDeviation="0.05"/>
<feComposite in2="hardAlpha" operator="arithmetic" k2="-1" k3="1"/>
<feColorMatrix type="matrix" values="0 0 0 0 0.807843 0 0 0 0 0.764706 0 0 0 0 0.858824 0 0 0 1 0"/>
<feBlend mode="normal" in2="effect1_innerShadow_158_1818" result="effect2_innerShadow_158_1818"/>
</filter>
<filter id="filter5_ii_158_1818" x="6.72998" y="30.2634" width="9.11182" height="9.26157" filterUnits="userSpaceOnUse" color-interpolation-filters="sRGB">
<feFlood flood-opacity="0" result="BackgroundImageFix"/>
<feBlend mode="normal" in="SourceGraphic" in2="BackgroundImageFix" result="shape"/>
<feColorMatrix in="SourceAlpha" type="matrix" values="0 0 0 0 0 0 0 0 0 0 0 0 0 0 0 0 0 0 127 0" result="hardAlpha"/>
<feOffset/>
<feGaussianBlur stdDeviation="0.5"/>
<feComposite in2="hardAlpha" operator="arithmetic" k2="-1" k3="1"/>
<feColorMatrix type="matrix" values="0 0 0 0 0.145098 0 0 0 0 0.0823529 0 0 0 0 0.215686 0 0 0 1 0"/>
<feBlend mode="normal" in2="shape" result="effect1_innerShadow_158_1818"/>
<feColorMatrix in="SourceAlpha" type="matrix" values="0 0 0 0 0 0 0 0 0 0 0 0 0 0 0 0 0 0 127 0" result="hardAlpha"/>
<feOffset dy="0.15"/>
<feGaussianBlur stdDeviation="0.125"/>
<feComposite in2="hardAlpha" operator="arithmetic" k2="-1" k3="1"/>
<feColorMatrix type="matrix" values="0 0 0 0 0.207843 0 0 0 0 0.0313726 0 0 0 0 0.235294 0 0 0 1 0"/>
<feBlend mode="normal" in2="effect1_innerShadow_158_1818" result="effect2_innerShadow_158_1818"/>
</filter>
<filter id="filter6_ii_158_1818" x="9.55742" y="33.0877" width="3.46279" height="3.46304" filterUnits="userSpaceOnUse" color-interpolation-filters="sRGB">
<feFlood flood-opacity="0" result="BackgroundImageFix"/>
<feBlend mode="normal" in="SourceGraphic" in2="BackgroundImageFix" result="shape"/>
<feColorMatrix in="SourceAlpha" type="matrix" values="0 0 0 0 0 0 0 0 0 0 0 0 0 0 0 0 0 0 127 0" result="hardAlpha"/>
<feOffset dx="0.05" dy="-0.05"/>
<feGaussianBlur stdDeviation="0.05"/>
<feComposite in2="hardAlpha" operator="arithmetic" k2="-1" k3="1"/>
<feColorMatrix type="matrix" values="0 0 0 0 0.478431 0 0 0 0 0.364706 0 0 0 0 0.584314 0 0 0 1 0"/>
<feBlend mode="normal" in2="shape" result="effect1_innerShadow_158_1818"/>
<feColorMatrix in="SourceAlpha" type="matrix" values="0 0 0 0 0 0 0 0 0 0 0 0 0 0 0 0 0 0 127 0" result="hardAlpha"/>
<feOffset dx="-0.05" dy="0.05"/>
<feGaussianBlur stdDeviation="0.05"/>
<feComposite in2="hardAlpha" operator="arithmetic" k2="-1" k3="1"/>
<feColorMatrix type="matrix" values="0 0 0 0 0.807843 0 0 0 0 0.764706 0 0 0 0 0.858824 0 0 0 1 0"/>
<feBlend mode="normal" in2="effect1_innerShadow_158_1818" result="effect2_innerShadow_158_1818"/>
</filter>
<filter id="filter7_f_158_1818" x="7.17139" y="30.0508" width="8.64062" height="8.64087" filterUnits="userSpaceOnUse" color-interpolation-filters="sRGB">
<feFlood flood-opacity="0" result="BackgroundImageFix"/>
<feBlend mode="normal" in="SourceGraphic" in2="BackgroundImageFix" result="shape"/>
<feGaussianBlur stdDeviation="0.375" result="effect1_foregroundBlur_158_1818"/>
</filter>
<filter id="filter8_f_158_1818" x="26.6899" y="30.0508" width="8.64062" height="8.64087" filterUnits="userSpaceOnUse" color-interpolation-filters="sRGB">
<feFlood flood-opacity="0" result="BackgroundImageFix"/>
<feBlend mode="normal" in="SourceGraphic" in2="BackgroundImageFix" result="shape"/>
<feGaussianBlur stdDeviation="0.375" result="effect1_foregroundBlur_158_1818"/>
</filter>
<linearGradient id="paint0_linear_158_1818" x1="3.22949" y1="21.0965" x2="18.2412" y2="21.0965" gradientUnits="userSpaceOnUse">
<stop stop-color="#C9BDD1"/>
<stop offset="1" stop-color="#EBDDF3"/>
</linearGradient>
<linearGradient id="paint1_linear_158_1818" x1="11.158" y1="15.5727" x2="11.158" y2="16.5798" gradientUnits="userSpaceOnUse">
<stop stop-color="#C8C6C5"/>
<stop offset="0.495041" stop-color="#C8C6C5" stop-opacity="0"/>
</linearGradient>
<linearGradient id="paint2_linear_158_1818" x1="18.2412" y1="20.751" x2="17.9711" y2="20.751" gradientUnits="userSpaceOnUse">
<stop stop-color="#604114"/>
<stop offset="1" stop-color="#604114" stop-opacity="0"/>
</linearGradient>
<linearGradient id="paint3_linear_158_1818" x1="19.2398" y1="27.5973" x2="39.2412" y2="16.5182" gradientUnits="userSpaceOnUse">
<stop stop-color="#F1C147"/>
<stop offset="1" stop-color="#E0B343"/>
</linearGradient>
<linearGradient id="paint4_linear_158_1818" x1="28.7412" y1="9.22559" x2="28.7412" y2="11.9688" gradientUnits="userSpaceOnUse">
<stop stop-color="#EAC439"/>
<stop offset="1" stop-color="#EAC439" stop-opacity="0"/>
</linearGradient>
<linearGradient id="paint5_linear_158_1818" x1="39.2412" y1="19.8896" x2="38.8618" y2="19.8896" gradientUnits="userSpaceOnUse">
<stop stop-color="#DDBE7A"/>
<stop offset="1" stop-color="#DDBE7A" stop-opacity="0"/>
</linearGradient>
<linearGradient id="paint6_linear_158_1818" x1="12.2533" y1="18.2488" x2="4.29625" y2="24.9754" gradientUnits="userSpaceOnUse">
<stop stop-color="#35A5E2"/>
<stop offset="1" stop-color="#4AD3F9"/>
</linearGradient>
<linearGradient id="paint7_linear_158_1818" x1="7.945" y1="17.1135" x2="7.945" y2="22.1408" gradientUnits="userSpaceOnUse">
<stop stop-color="#1D95DD"/>
<stop offset="1" stop-color="#1D95DD" stop-opacity="0"/>
</linearGradient>
<linearGradient id="paint8_linear_158_1818" x1="13.534" y1="21.7243" x2="11.6598" y2="21.7243" gradientUnits="userSpaceOnUse">
<stop stop-color="#48B8E6"/>
<stop offset="1" stop-color="#48B8E6" stop-opacity="0"/>
</linearGradient>
<linearGradient id="paint9_linear_158_1818" x1="24.58" y1="26.2815" x2="24.6396" y2="34.2451" gradientUnits="userSpaceOnUse">
<stop stop-color="#FD6E33"/>
<stop offset="1" stop-color="#EB3C3D"/>
</linearGradient>
<linearGradient id="paint10_linear_158_1818" x1="18.2412" y1="29.6811" x2="19.6854" y2="29.6811" gradientUnits="userSpaceOnUse">
<stop offset="0.512547" stop-color="#EA3A0C"/>
<stop offset="1" stop-color="#EA3A0C" stop-opacity="0"/>
</linearGradient>
<linearGradient id="paint11_linear_158_1818" x1="28.7412" y1="36.6174" x2="28.7412" y2="33.2541" gradientUnits="userSpaceOnUse">
<stop stop-color="#BC2447"/>
<stop offset="1" stop-color="#BC2447" stop-opacity="0"/>
</linearGradient>
<linearGradient id="paint12_linear_158_1818" x1="36.6143" y1="29.6513" x2="38.7082" y2="32.0713" gradientUnits="userSpaceOnUse">
<stop stop-color="#BD0663"/>
<stop offset="1" stop-color="#C8166A"/>
</linearGradient>
<linearGradient id="paint13_linear_158_1818" x1="10.3662" y1="25.7138" x2="10.3662" y2="35.4887" gradientUnits="userSpaceOnUse">
<stop stop-color="#FF7233"/>
<stop offset="1" stop-color="#EE3124"/>
</linearGradient>
<linearGradient id="paint14_linear_158_1818" x1="18.2412" y1="31.0869" x2="15.8213" y2="31.0869" gradientUnits="userSpaceOnUse">
<stop stop-color="#FF7B3D"/>
<stop offset="1" stop-color="#FF7B3D" stop-opacity="0"/>
</linearGradient>
<linearGradient id="paint15_linear_158_1818" x1="10.3662" y1="35.4887" x2="10.3662" y2="33.2607" gradientUnits="userSpaceOnUse">
<stop stop-color="#BC2447"/>
<stop offset="1" stop-color="#BC2447" stop-opacity="0"/>
</linearGradient>
<linearGradient id="paint16_linear_158_1818" x1="18.2412" y1="29.7889" x2="17.9711" y2="29.7889" gradientUnits="userSpaceOnUse">
<stop stop-color="#BC2303"/>
<stop offset="1" stop-color="#BC2303" stop-opacity="0"/>
</linearGradient>
<linearGradient id="paint17_linear_158_1818" x1="11.2861" y1="29.6836" x2="11.2861" y2="35.4886" gradientUnits="userSpaceOnUse">
<stop stop-color="#99160C"/>
<stop offset="1" stop-color="#AC0819"/>
</linearGradient>
<linearGradient id="paint18_linear_158_1818" x1="30.7099" y1="29.6836" x2="30.7099" y2="35.4886" gradientUnits="userSpaceOnUse">
<stop stop-color="#99160C"/>
<stop offset="1" stop-color="#AC0819"/>
</linearGradient>
<linearGradient id="paint19_linear_158_1818" x1="28.6474" y1="33.6737" x2="35.4904" y2="33.6737" gradientUnits="userSpaceOnUse">
<stop offset="0.239044" stop-color="#34214F"/>
<stop offset="1" stop-color="#241337"/>
</linearGradient>
<radialGradient id="paint20_radial_158_1818" cx="0" cy="0" r="1" gradientUnits="userSpaceOnUse" gradientTransform="translate(30.7482 34.4115) rotate(-65.5366) scale(2.48577 2.5963)">
<stop offset="0.523134" stop-color="#2D114D"/>
<stop offset="1" stop-color="#2B1249" stop-opacity="0"/>
</radialGradient>
<linearGradient id="paint21_linear_158_1818" x1="9.18503" y1="33.6737" x2="16.028" y2="33.6737" gradientUnits="userSpaceOnUse">
<stop offset="0.239044" stop-color="#34214F"/>
<stop offset="1" stop-color="#241337"/>
</linearGradient>
<radialGradient id="paint22_radial_158_1818" cx="0" cy="0" r="1" gradientUnits="userSpaceOnUse" gradientTransform="translate(11.2858 34.4115) rotate(-65.5366) scale(2.48577 2.5963)">
<stop offset="0.523134" stop-color="#2D114D"/>
<stop offset="1" stop-color="#2B1249" stop-opacity="0"/>
</radialGradient>
<linearGradient id="paint23_linear_158_1818" x1="13.2054" y1="31.8757" x2="9.38407" y2="37.1528" gradientUnits="userSpaceOnUse">
<stop offset="0.0830122" stop-color="#615B6B"/>
<stop offset="0.390771" stop-color="#615B6B" stop-opacity="0"/>
<stop offset="0.692394" stop-color="#615B6B" stop-opacity="0"/>
<stop offset="0.934982" stop-color="#615B6B"/>
</linearGradient>
<linearGradient id="paint24_linear_158_1818" x1="32.724" y1="31.8757" x2="28.9026" y2="37.1528" gradientUnits="userSpaceOnUse">
<stop offset="0.0830122" stop-color="#615B6B"/>
<stop offset="0.390771" stop-color="#615B6B" stop-opacity="0"/>
<stop offset="0.692394" stop-color="#615B6B" stop-opacity="0"/>
<stop offset="0.934982" stop-color="#615B6B"/>
</linearGradient>
</defs>
</svg>
