<svg width="64" height="64" viewBox="0 0 64 64" fill="none" xmlns="http://www.w3.org/2000/svg">
<circle cx="32" cy="32" r="32" fill="#00B33C"/>
<g clip-path="url(#clip0_167_402)">
<path fill-rule="evenodd" clip-rule="evenodd" d="M14.8344 35.4046H12.6783C9.31494 35.4046 11.7584 28.3307 14.59 28.3307H17.9966C18.5428 28.3307 19.5058 28.4303 19.9801 27.0924L20.7132 25.0143H16.0418C13.512 25.0143 11.5428 25.8968 10.1199 27.377C7.66197 29.9105 6.82831 33.8674 7.41763 35.7605C7.97819 37.5111 9.50179 38.6641 11.8878 38.6925L13.742 38.7067H16.0274L16.588 37.0415C17.0048 35.8601 16.0705 35.4046 14.8344 35.4046ZM41.0806 32.4725L41.7848 30.2095H34.2675C33.017 30.2095 32.4564 30.5511 32.2408 31.2627L31.5365 33.5258H39.0539C40.3043 33.5258 40.8649 33.1842 41.0806 32.4725ZM30.4153 36.4579L29.711 38.721H37.2284C38.4646 38.721 39.0395 38.3794 39.2551 37.6677L39.9594 35.4046H32.442C31.2059 35.4046 30.6453 35.7462 30.4153 36.4579ZM42.8341 27.2916L43.5386 25.0285H36.021C34.7706 25.0285 34.21 25.3701 33.9944 26.0818L33.2901 28.3449H40.8074C42.0437 28.3449 42.6041 28.0033 42.8341 27.2916ZM31.479 27.7471C31.1628 25.6406 30.0272 25.0285 27.2675 25.0285H22.2368L19.3046 33.5258H21.1588C22.2655 33.5258 22.8261 33.5401 23.4154 31.9744L24.6372 28.3307H26.5057C28.1012 28.3307 27.7419 30.3091 26.9369 32.2306C26.2183 33.9243 24.9678 35.4189 23.4585 35.4189H20.3395C19.089 35.4189 18.514 35.7605 18.284 36.4721L17.5079 38.7352H19.7933L22.0356 38.721C24.0191 38.7067 25.6433 38.5644 27.5406 36.8707C29.5529 35.063 31.8815 30.4229 31.479 27.7471ZM56.7479 25.0143H52.3927L48.2961 29.327C47.8217 29.8251 47.333 30.3233 46.8586 30.9069H46.8154L48.8565 25.0143H45.3065L40.52 38.721H44.0703L45.5937 34.4083L47.1748 33.0846L48.4255 36.9845C48.8134 38.1943 49.2161 38.721 50.0786 38.721H52.7951L50.0065 31.0635L56.7479 25.0143Z" fill="white"/>
</g>
<defs>
<clipPath id="clip0_167_402">
<rect width="50" height="14" fill="white" transform="translate(7 25)"/>
</clipPath>
</defs>
</svg>
