<svg width="40" height="40" viewBox="0 0 40 40" fill="none" xmlns="http://www.w3.org/2000/svg">
<path d="M20.0127 27.4163C26.2259 27.4163 31.2627 22.3795 31.2627 16.1663C31.2627 9.95306 26.2259 4.91626 20.0127 4.91626C13.7995 4.91626 8.7627 9.95306 8.7627 16.1663C8.7627 22.3795 13.7995 27.4163 20.0127 27.4163Z" fill="white"/>
<path d="M20.0127 27.4163C26.2259 27.4163 31.2627 22.3795 31.2627 16.1663C31.2627 9.95306 26.2259 4.91626 20.0127 4.91626C13.7995 4.91626 8.7627 9.95306 8.7627 16.1663C8.7627 22.3795 13.7995 27.4163 20.0127 27.4163Z" fill="url(#paint0_radial_174_1288)"/>
<path d="M20.0127 27.4163C26.2259 27.4163 31.2627 22.3795 31.2627 16.1663C31.2627 9.95306 26.2259 4.91626 20.0127 4.91626C13.7995 4.91626 8.7627 9.95306 8.7627 16.1663C8.7627 22.3795 13.7995 27.4163 20.0127 27.4163Z" fill="url(#paint1_radial_174_1288)"/>
<g filter="url(#filter0_ii_174_1288)">
<path fill-rule="evenodd" clip-rule="evenodd" d="M33.7625 27.2038C33.7625 28.7038 34.975 29.9163 36.475 29.9163C37.05 29.9163 37.5125 30.3788 37.5 30.9538V32.6288C37.5 33.2038 37.0375 33.6663 36.4625 33.6663H3.5375C2.96249 33.6663 2.5 33.2038 2.5 32.6288V30.9538C2.5 30.3788 2.96249 29.9163 3.5375 29.9163C5.0375 29.9163 6.25 28.7038 6.25 27.2038V16.1663H6.26251C6.26251 15.3788 6.325 14.5788 6.4625 13.7788C7.78749 6.30384 14.925 1.30384 22.4 2.62884C29.075 3.80384 33.7625 9.61634 33.75 16.1663H33.7625V27.2038ZM31.2625 16.1663C31.2625 22.3795 26.2257 27.4163 20.0125 27.4163C13.7993 27.4163 8.76251 22.3795 8.76251 16.1663C8.76251 9.95312 13.7993 4.91632 20.0125 4.91632C26.2257 4.91632 31.2625 9.95312 31.2625 16.1663Z" fill="url(#paint2_linear_174_1288)"/>
<path fill-rule="evenodd" clip-rule="evenodd" d="M33.7625 27.2038C33.7625 28.7038 34.975 29.9163 36.475 29.9163C37.05 29.9163 37.5125 30.3788 37.5 30.9538V32.6288C37.5 33.2038 37.0375 33.6663 36.4625 33.6663H3.5375C2.96249 33.6663 2.5 33.2038 2.5 32.6288V30.9538C2.5 30.3788 2.96249 29.9163 3.5375 29.9163C5.0375 29.9163 6.25 28.7038 6.25 27.2038V16.1663H6.26251C6.26251 15.3788 6.325 14.5788 6.4625 13.7788C7.78749 6.30384 14.925 1.30384 22.4 2.62884C29.075 3.80384 33.7625 9.61634 33.75 16.1663H33.7625V27.2038ZM31.2625 16.1663C31.2625 22.3795 26.2257 27.4163 20.0125 27.4163C13.7993 27.4163 8.76251 22.3795 8.76251 16.1663C8.76251 9.95312 13.7993 4.91632 20.0125 4.91632C26.2257 4.91632 31.2625 9.95312 31.2625 16.1663Z" fill="url(#paint3_linear_174_1288)"/>
<path fill-rule="evenodd" clip-rule="evenodd" d="M33.7625 27.2038C33.7625 28.7038 34.975 29.9163 36.475 29.9163C37.05 29.9163 37.5125 30.3788 37.5 30.9538V32.6288C37.5 33.2038 37.0375 33.6663 36.4625 33.6663H3.5375C2.96249 33.6663 2.5 33.2038 2.5 32.6288V30.9538C2.5 30.3788 2.96249 29.9163 3.5375 29.9163C5.0375 29.9163 6.25 28.7038 6.25 27.2038V16.1663H6.26251C6.26251 15.3788 6.325 14.5788 6.4625 13.7788C7.78749 6.30384 14.925 1.30384 22.4 2.62884C29.075 3.80384 33.7625 9.61634 33.75 16.1663H33.7625V27.2038ZM31.2625 16.1663C31.2625 22.3795 26.2257 27.4163 20.0125 27.4163C13.7993 27.4163 8.76251 22.3795 8.76251 16.1663C8.76251 9.95312 13.7993 4.91632 20.0125 4.91632C26.2257 4.91632 31.2625 9.95312 31.2625 16.1663Z" fill="url(#paint4_linear_174_1288)"/>
</g>
<g opacity="0.4" filter="url(#filter1_f_174_1288)">
<path d="M20.4586 28.0873C27.2886 28.0873 32.8254 22.5505 32.8254 15.7206C32.8254 8.89056 27.2886 3.35376 20.4586 3.35376C13.6286 3.35376 8.0918 8.89056 8.0918 15.7206C8.0918 22.5505 13.6286 28.0873 20.4586 28.0873Z" stroke="url(#paint5_linear_174_1288)" stroke-width="0.4"/>
</g>
<g filter="url(#filter2_f_174_1288)">
<path d="M21.0673 17.2161C20.8262 17.7679 20.2755 18.1536 19.6348 18.1536C18.7718 18.1536 18.0723 17.454 18.0723 16.5911C18.0723 15.9503 18.4579 15.3997 19.0098 15.1586V12.2161C19.0098 11.8661 19.2848 11.5911 19.6348 11.5911C19.9848 11.5911 20.2598 11.8661 20.2598 12.2161V15.1586C20.6202 15.3161 20.9098 15.6056 21.0673 15.9661H25.2598C25.6098 15.9661 25.8848 16.2411 25.8848 16.5911C25.8848 16.9411 25.5973 17.2161 25.2598 17.2161H21.0673Z" fill="url(#paint6_linear_174_1288)"/>
</g>
<g filter="url(#filter3_i_174_1288)">
<path d="M35.6377 33.6663H4.3877C3.3502 33.6663 2.5127 34.5038 2.5127 35.5413C2.5127 36.5788 3.3502 37.4163 4.3877 37.4163H35.6377C36.6752 37.4163 37.5127 36.5788 37.5127 35.5413C37.5127 34.5038 36.6752 33.6663 35.6377 33.6663Z" fill="url(#paint7_linear_174_1288)"/>
<path d="M35.6377 33.6663H4.3877C3.3502 33.6663 2.5127 34.5038 2.5127 35.5413C2.5127 36.5788 3.3502 37.4163 4.3877 37.4163H35.6377C36.6752 37.4163 37.5127 36.5788 37.5127 35.5413C37.5127 34.5038 36.6752 33.6663 35.6377 33.6663Z" fill="url(#paint8_radial_174_1288)"/>
<path d="M35.6377 33.6663H4.3877C3.3502 33.6663 2.5127 34.5038 2.5127 35.5413C2.5127 36.5788 3.3502 37.4163 4.3877 37.4163H35.6377C36.6752 37.4163 37.5127 36.5788 37.5127 35.5413C37.5127 34.5038 36.6752 33.6663 35.6377 33.6663Z" fill="url(#paint9_linear_174_1288)"/>
</g>
<g filter="url(#filter4_d_174_1288)">
<path fill-rule="evenodd" clip-rule="evenodd" d="M20.0127 6.16626C20.3579 6.16626 20.6377 6.44608 20.6377 6.79126V8.04126C20.6377 8.38644 20.3579 8.66626 20.0127 8.66626C19.6675 8.66626 19.3877 8.38644 19.3877 8.04126V6.79126C19.3877 6.44608 19.6675 6.16626 20.0127 6.16626Z" fill="url(#paint10_linear_174_1288)"/>
<path fill-rule="evenodd" clip-rule="evenodd" d="M20.0127 6.16626C20.3579 6.16626 20.6377 6.44608 20.6377 6.79126V8.04126C20.6377 8.38644 20.3579 8.66626 20.0127 8.66626C19.6675 8.66626 19.3877 8.38644 19.3877 8.04126V6.79126C19.3877 6.44608 19.6675 6.16626 20.0127 6.16626Z" fill="url(#paint11_radial_174_1288)"/>
</g>
<g filter="url(#filter5_d_174_1288)">
<path fill-rule="evenodd" clip-rule="evenodd" d="M20.0127 23.7039C20.3579 23.7039 20.6377 23.9837 20.6377 24.3289V25.5789C20.6377 25.924 20.3579 26.2039 20.0127 26.2039C19.6675 26.2039 19.3877 25.924 19.3877 25.5789V24.3289C19.3877 23.9837 19.6675 23.7039 20.0127 23.7039Z" fill="url(#paint12_linear_174_1288)"/>
<path fill-rule="evenodd" clip-rule="evenodd" d="M20.0127 23.7039C20.3579 23.7039 20.6377 23.9837 20.6377 24.3289V25.5789C20.6377 25.924 20.3579 26.2039 20.0127 26.2039C19.6675 26.2039 19.3877 25.924 19.3877 25.5789V24.3289C19.3877 23.9837 19.6675 23.7039 20.0127 23.7039Z" fill="url(#paint13_radial_174_1288)"/>
</g>
<g filter="url(#filter6_d_174_1288)">
<path fill-rule="evenodd" clip-rule="evenodd" d="M27.5244 16.1914C27.5244 15.8462 27.8042 15.5664 28.1494 15.5664H29.3994C29.7446 15.5664 30.0244 15.8462 30.0244 16.1914C30.0244 16.5366 29.7446 16.8164 29.3994 16.8164H28.1494C27.8042 16.8164 27.5244 16.5366 27.5244 16.1914Z" fill="url(#paint14_linear_174_1288)"/>
<path fill-rule="evenodd" clip-rule="evenodd" d="M27.5244 16.1914C27.5244 15.8462 27.8042 15.5664 28.1494 15.5664H29.3994C29.7446 15.5664 30.0244 15.8462 30.0244 16.1914C30.0244 16.5366 29.7446 16.8164 29.3994 16.8164H28.1494C27.8042 16.8164 27.5244 16.5366 27.5244 16.1914Z" fill="url(#paint15_radial_174_1288)"/>
</g>
<g filter="url(#filter7_d_174_1288)">
<path fill-rule="evenodd" clip-rule="evenodd" d="M9.9873 16.1914C9.9873 15.8462 10.2671 15.5664 10.6123 15.5664H11.8623C12.2075 15.5664 12.4873 15.8462 12.4873 16.1914C12.4873 16.5366 12.2075 16.8164 11.8623 16.8164H10.6123C10.2671 16.8164 9.9873 16.5366 9.9873 16.1914Z" fill="url(#paint16_linear_174_1288)"/>
<path fill-rule="evenodd" clip-rule="evenodd" d="M9.9873 16.1914C9.9873 15.8462 10.2671 15.5664 10.6123 15.5664H11.8623C12.2075 15.5664 12.4873 15.8462 12.4873 16.1914C12.4873 16.5366 12.2075 16.8164 11.8623 16.8164H10.6123C10.2671 16.8164 9.9873 16.5366 9.9873 16.1914Z" fill="url(#paint17_radial_174_1288)"/>
</g>
<g filter="url(#filter8_d_174_1288)">
<path fill-rule="evenodd" clip-rule="evenodd" d="M27.0882 9.09619C27.334 9.33853 27.3368 9.73425 27.0945 9.98005L26.2195 10.8676C25.9771 11.1134 25.5814 11.1162 25.3356 10.8738C25.0898 10.6315 25.087 10.2358 25.3293 9.98996L26.2043 9.10246C26.4467 8.85666 26.8424 8.85385 27.0882 9.09619Z" fill="url(#paint18_linear_174_1288)"/>
<path fill-rule="evenodd" clip-rule="evenodd" d="M27.0882 9.09619C27.334 9.33853 27.3368 9.73425 27.0945 9.98005L26.2195 10.8676C25.9771 11.1134 25.5814 11.1162 25.3356 10.8738C25.0898 10.6315 25.087 10.2358 25.3293 9.98996L26.2043 9.10246C26.4467 8.85666 26.8424 8.85385 27.0882 9.09619Z" fill="url(#paint19_radial_174_1288)"/>
</g>
<g filter="url(#filter9_d_174_1288)">
<path fill-rule="evenodd" clip-rule="evenodd" d="M14.6917 21.4995C14.9358 21.7435 14.9358 22.1393 14.6917 22.3833L13.8042 23.2708C13.5602 23.5149 13.1644 23.5149 12.9204 23.2708C12.6763 23.0268 12.6763 22.631 12.9204 22.387L13.8079 21.4995C14.0519 21.2554 14.4477 21.2554 14.6917 21.4995Z" fill="url(#paint20_linear_174_1288)"/>
<path fill-rule="evenodd" clip-rule="evenodd" d="M14.6917 21.4995C14.9358 21.7435 14.9358 22.1393 14.6917 22.3833L13.8042 23.2708C13.5602 23.5149 13.1644 23.5149 12.9204 23.2708C12.6763 23.0268 12.6763 22.631 12.9204 22.387L13.8079 21.4995C14.0519 21.2554 14.4477 21.2554 14.6917 21.4995Z" fill="url(#paint21_radial_174_1288)"/>
</g>
<g filter="url(#filter10_d_174_1288)">
<path fill-rule="evenodd" clip-rule="evenodd" d="M25.3356 21.4963C25.5814 21.254 25.9771 21.2568 26.2195 21.5026L27.0945 22.3901C27.3368 22.6359 27.334 23.0316 27.0882 23.274C26.8424 23.5163 26.4467 23.5135 26.2043 23.2677L25.3293 22.3802C25.087 22.1344 25.0898 21.7387 25.3356 21.4963Z" fill="url(#paint22_linear_174_1288)"/>
<path fill-rule="evenodd" clip-rule="evenodd" d="M25.3356 21.4963C25.5814 21.254 25.9771 21.2568 26.2195 21.5026L27.0945 22.3901C27.3368 22.6359 27.334 23.0316 27.0882 23.274C26.8424 23.5163 26.4467 23.5135 26.2043 23.2677L25.3293 22.3802C25.087 22.1344 25.0898 21.7387 25.3356 21.4963Z" fill="url(#paint23_radial_174_1288)"/>
</g>
<g filter="url(#filter11_d_174_1288)">
<path fill-rule="evenodd" clip-rule="evenodd" d="M12.9204 9.09932C13.1644 8.85524 13.5602 8.85524 13.8042 9.09932L14.6917 9.98682C14.9358 10.2309 14.9358 10.6266 14.6917 10.8707C14.4477 11.1148 14.0519 11.1148 13.8079 10.8707L12.9204 9.9832C12.6763 9.73912 12.6763 9.3434 12.9204 9.09932Z" fill="url(#paint24_linear_174_1288)"/>
<path fill-rule="evenodd" clip-rule="evenodd" d="M12.9204 9.09932C13.1644 8.85524 13.5602 8.85524 13.8042 9.09932L14.6917 9.98682C14.9358 10.2309 14.9358 10.6266 14.6917 10.8707C14.4477 11.1148 14.0519 11.1148 13.8079 10.8707L12.9204 9.9832C12.6763 9.73912 12.6763 9.3434 12.9204 9.09932Z" fill="url(#paint25_radial_174_1288)"/>
</g>
<path d="M20.0127 16.7913C19.6627 16.7913 19.3877 16.5163 19.3877 16.1663V11.7913C19.3877 11.4413 19.6627 11.1663 20.0127 11.1663C20.3627 11.1663 20.6377 11.4413 20.6377 11.7913V16.1663C20.6377 16.5163 20.3502 16.7913 20.0127 16.7913Z" fill="url(#paint26_linear_174_1288)"/>
<path d="M20.0127 16.7913C19.6627 16.7913 19.3877 16.5163 19.3877 16.1663V11.7913C19.3877 11.4413 19.6627 11.1663 20.0127 11.1663C20.3627 11.1663 20.6377 11.4413 20.6377 11.7913V16.1663C20.6377 16.5163 20.3502 16.7913 20.0127 16.7913Z" fill="url(#paint27_radial_174_1288)"/>
<path d="M25.6375 16.7913H20C19.65 16.7913 19.375 16.5163 19.375 16.1663C19.375 15.8163 19.65 15.5413 20 15.5413H25.6375C25.9875 15.5413 26.2625 15.8163 26.2625 16.1663C26.2625 16.5163 25.975 16.7913 25.6375 16.7913Z" fill="url(#paint28_linear_174_1288)"/>
<path d="M25.6375 16.7913H20C19.65 16.7913 19.375 16.5163 19.375 16.1663C19.375 15.8163 19.65 15.5413 20 15.5413H25.6375C25.9875 15.5413 26.2625 15.8163 26.2625 16.1663C26.2625 16.5163 25.975 16.7913 25.6375 16.7913Z" fill="url(#paint29_radial_174_1288)"/>
<path d="M20.0127 17.7288C20.8756 17.7288 21.5752 17.0292 21.5752 16.1663C21.5752 15.3033 20.8756 14.6038 20.0127 14.6038C19.1498 14.6038 18.4502 15.3033 18.4502 16.1663C18.4502 17.0292 19.1498 17.7288 20.0127 17.7288Z" fill="url(#paint30_radial_174_1288)"/>
<defs>
<filter id="filter0_ii_174_1288" x="2.1" y="2.41602" width="35.8" height="31.2502" filterUnits="userSpaceOnUse" color-interpolation-filters="sRGB">
<feFlood flood-opacity="0" result="BackgroundImageFix"/>
<feBlend mode="normal" in="SourceGraphic" in2="BackgroundImageFix" result="shape"/>
<feColorMatrix in="SourceAlpha" type="matrix" values="0 0 0 0 0 0 0 0 0 0 0 0 0 0 0 0 0 0 127 0" result="hardAlpha"/>
<feOffset dx="0.4"/>
<feGaussianBlur stdDeviation="0.4"/>
<feComposite in2="hardAlpha" operator="arithmetic" k2="-1" k3="1"/>
<feColorMatrix type="matrix" values="0 0 0 0 0.32549 0 0 0 0 0.184314 0 0 0 0 0.184314 0 0 0 1 0"/>
<feBlend mode="normal" in2="shape" result="effect1_innerShadow_174_1288"/>
<feColorMatrix in="SourceAlpha" type="matrix" values="0 0 0 0 0 0 0 0 0 0 0 0 0 0 0 0 0 0 127 0" result="hardAlpha"/>
<feOffset dx="-0.4"/>
<feGaussianBlur stdDeviation="0.4"/>
<feComposite in2="hardAlpha" operator="arithmetic" k2="-1" k3="1"/>
<feColorMatrix type="matrix" values="0 0 0 0 0.658824 0 0 0 0 0.435294 0 0 0 0 0.396078 0 0 0 1 0"/>
<feBlend mode="normal" in2="effect1_innerShadow_174_1288" result="effect2_innerShadow_174_1288"/>
</filter>
<filter id="filter1_f_174_1288" x="7.4916" y="2.75381" width="25.9338" height="25.9335" filterUnits="userSpaceOnUse" color-interpolation-filters="sRGB">
<feFlood flood-opacity="0" result="BackgroundImageFix"/>
<feBlend mode="normal" in="SourceGraphic" in2="BackgroundImageFix" result="shape"/>
<feGaussianBlur stdDeviation="0.2" result="effect1_foregroundBlur_174_1288"/>
</filter>
<filter id="filter2_f_174_1288" x="17.4223" y="10.9411" width="9.1125" height="7.8625" filterUnits="userSpaceOnUse" color-interpolation-filters="sRGB">
<feFlood flood-opacity="0" result="BackgroundImageFix"/>
<feBlend mode="normal" in="SourceGraphic" in2="BackgroundImageFix" result="shape"/>
<feGaussianBlur stdDeviation="0.325" result="effect1_foregroundBlur_174_1288"/>
</filter>
<filter id="filter3_i_174_1288" x="2.5127" y="33.2663" width="35.4" height="4.15" filterUnits="userSpaceOnUse" color-interpolation-filters="sRGB">
<feFlood flood-opacity="0" result="BackgroundImageFix"/>
<feBlend mode="normal" in="SourceGraphic" in2="BackgroundImageFix" result="shape"/>
<feColorMatrix in="SourceAlpha" type="matrix" values="0 0 0 0 0 0 0 0 0 0 0 0 0 0 0 0 0 0 127 0" result="hardAlpha"/>
<feOffset dx="0.4" dy="-0.4"/>
<feGaussianBlur stdDeviation="0.4"/>
<feComposite in2="hardAlpha" operator="arithmetic" k2="-1" k3="1"/>
<feColorMatrix type="matrix" values="0 0 0 0 0.898039 0 0 0 0 0.564706 0 0 0 0 0.258824 0 0 0 1 0"/>
<feBlend mode="normal" in2="shape" result="effect1_innerShadow_174_1288"/>
</filter>
<filter id="filter4_d_174_1288" x="19.0877" y="6.06626" width="1.65" height="2.9" filterUnits="userSpaceOnUse" color-interpolation-filters="sRGB">
<feFlood flood-opacity="0" result="BackgroundImageFix"/>
<feColorMatrix in="SourceAlpha" type="matrix" values="0 0 0 0 0 0 0 0 0 0 0 0 0 0 0 0 0 0 127 0" result="hardAlpha"/>
<feOffset dx="-0.1" dy="0.1"/>
<feGaussianBlur stdDeviation="0.1"/>
<feComposite in2="hardAlpha" operator="out"/>
<feColorMatrix type="matrix" values="0 0 0 0 0.705882 0 0 0 0 0.533333 0 0 0 0 0.541176 0 0 0 1 0"/>
<feBlend mode="normal" in2="BackgroundImageFix" result="effect1_dropShadow_174_1288"/>
<feBlend mode="normal" in="SourceGraphic" in2="effect1_dropShadow_174_1288" result="shape"/>
</filter>
<filter id="filter5_d_174_1288" x="19.0877" y="23.6039" width="1.65" height="2.9" filterUnits="userSpaceOnUse" color-interpolation-filters="sRGB">
<feFlood flood-opacity="0" result="BackgroundImageFix"/>
<feColorMatrix in="SourceAlpha" type="matrix" values="0 0 0 0 0 0 0 0 0 0 0 0 0 0 0 0 0 0 127 0" result="hardAlpha"/>
<feOffset dx="-0.1" dy="0.1"/>
<feGaussianBlur stdDeviation="0.1"/>
<feComposite in2="hardAlpha" operator="out"/>
<feColorMatrix type="matrix" values="0 0 0 0 0.705882 0 0 0 0 0.533333 0 0 0 0 0.541176 0 0 0 1 0"/>
<feBlend mode="normal" in2="BackgroundImageFix" result="effect1_dropShadow_174_1288"/>
<feBlend mode="normal" in="SourceGraphic" in2="effect1_dropShadow_174_1288" result="shape"/>
</filter>
<filter id="filter6_d_174_1288" x="27.2244" y="15.4664" width="2.9" height="1.65" filterUnits="userSpaceOnUse" color-interpolation-filters="sRGB">
<feFlood flood-opacity="0" result="BackgroundImageFix"/>
<feColorMatrix in="SourceAlpha" type="matrix" values="0 0 0 0 0 0 0 0 0 0 0 0 0 0 0 0 0 0 127 0" result="hardAlpha"/>
<feOffset dx="-0.1" dy="0.1"/>
<feGaussianBlur stdDeviation="0.1"/>
<feComposite in2="hardAlpha" operator="out"/>
<feColorMatrix type="matrix" values="0 0 0 0 0.705882 0 0 0 0 0.533333 0 0 0 0 0.541176 0 0 0 1 0"/>
<feBlend mode="normal" in2="BackgroundImageFix" result="effect1_dropShadow_174_1288"/>
<feBlend mode="normal" in="SourceGraphic" in2="effect1_dropShadow_174_1288" result="shape"/>
</filter>
<filter id="filter7_d_174_1288" x="9.6873" y="15.4664" width="2.9" height="1.65" filterUnits="userSpaceOnUse" color-interpolation-filters="sRGB">
<feFlood flood-opacity="0" result="BackgroundImageFix"/>
<feColorMatrix in="SourceAlpha" type="matrix" values="0 0 0 0 0 0 0 0 0 0 0 0 0 0 0 0 0 0 127 0" result="hardAlpha"/>
<feOffset dx="-0.1" dy="0.1"/>
<feGaussianBlur stdDeviation="0.1"/>
<feComposite in2="hardAlpha" operator="out"/>
<feColorMatrix type="matrix" values="0 0 0 0 0.705882 0 0 0 0 0.533333 0 0 0 0 0.541176 0 0 0 1 0"/>
<feBlend mode="normal" in2="BackgroundImageFix" result="effect1_dropShadow_174_1288"/>
<feBlend mode="normal" in="SourceGraphic" in2="effect1_dropShadow_174_1288" result="shape"/>
</filter>
<filter id="filter8_d_174_1288" x="24.8494" y="8.81626" width="2.525" height="2.53745" filterUnits="userSpaceOnUse" color-interpolation-filters="sRGB">
<feFlood flood-opacity="0" result="BackgroundImageFix"/>
<feColorMatrix in="SourceAlpha" type="matrix" values="0 0 0 0 0 0 0 0 0 0 0 0 0 0 0 0 0 0 127 0" result="hardAlpha"/>
<feOffset dx="-0.1" dy="0.1"/>
<feGaussianBlur stdDeviation="0.1"/>
<feComposite in2="hardAlpha" operator="out"/>
<feColorMatrix type="matrix" values="0 0 0 0 0.705882 0 0 0 0 0.533333 0 0 0 0 0.541176 0 0 0 1 0"/>
<feBlend mode="normal" in2="BackgroundImageFix" result="effect1_dropShadow_174_1288"/>
<feBlend mode="normal" in="SourceGraphic" in2="effect1_dropShadow_174_1288" result="shape"/>
</filter>
<filter id="filter9_d_174_1288" x="12.4373" y="21.2164" width="2.5377" height="2.53745" filterUnits="userSpaceOnUse" color-interpolation-filters="sRGB">
<feFlood flood-opacity="0" result="BackgroundImageFix"/>
<feColorMatrix in="SourceAlpha" type="matrix" values="0 0 0 0 0 0 0 0 0 0 0 0 0 0 0 0 0 0 127 0" result="hardAlpha"/>
<feOffset dx="-0.1" dy="0.1"/>
<feGaussianBlur stdDeviation="0.1"/>
<feComposite in2="hardAlpha" operator="out"/>
<feColorMatrix type="matrix" values="0 0 0 0 0.705882 0 0 0 0 0.533333 0 0 0 0 0.541176 0 0 0 1 0"/>
<feBlend mode="normal" in2="BackgroundImageFix" result="effect1_dropShadow_174_1288"/>
<feBlend mode="normal" in="SourceGraphic" in2="effect1_dropShadow_174_1288" result="shape"/>
</filter>
<filter id="filter10_d_174_1288" x="24.8494" y="21.2164" width="2.525" height="2.53745" filterUnits="userSpaceOnUse" color-interpolation-filters="sRGB">
<feFlood flood-opacity="0" result="BackgroundImageFix"/>
<feColorMatrix in="SourceAlpha" type="matrix" values="0 0 0 0 0 0 0 0 0 0 0 0 0 0 0 0 0 0 127 0" result="hardAlpha"/>
<feOffset dx="-0.1" dy="0.1"/>
<feGaussianBlur stdDeviation="0.1"/>
<feComposite in2="hardAlpha" operator="out"/>
<feColorMatrix type="matrix" values="0 0 0 0 0.705882 0 0 0 0 0.533333 0 0 0 0 0.541176 0 0 0 1 0"/>
<feBlend mode="normal" in2="BackgroundImageFix" result="effect1_dropShadow_174_1288"/>
<feBlend mode="normal" in="SourceGraphic" in2="effect1_dropShadow_174_1288" result="shape"/>
</filter>
<filter id="filter11_d_174_1288" x="12.5373" y="8.81626" width="2.5377" height="2.53745" filterUnits="userSpaceOnUse" color-interpolation-filters="sRGB">
<feFlood flood-opacity="0" result="BackgroundImageFix"/>
<feColorMatrix in="SourceAlpha" type="matrix" values="0 0 0 0 0 0 0 0 0 0 0 0 0 0 0 0 0 0 127 0" result="hardAlpha"/>
<feOffset dy="0.1"/>
<feGaussianBlur stdDeviation="0.1"/>
<feComposite in2="hardAlpha" operator="out"/>
<feColorMatrix type="matrix" values="0 0 0 0 0.705882 0 0 0 0 0.533333 0 0 0 0 0.541176 0 0 0 1 0"/>
<feBlend mode="normal" in2="BackgroundImageFix" result="effect1_dropShadow_174_1288"/>
<feBlend mode="normal" in="SourceGraphic" in2="effect1_dropShadow_174_1288" result="shape"/>
</filter>
<radialGradient id="paint0_radial_174_1288" cx="0" cy="0" r="1" gradientUnits="userSpaceOnUse" gradientTransform="translate(13.9889 23.1347) rotate(-45.2915) scale(16.8809)">
<stop stop-color="#F8E9FE"/>
<stop offset="1" stop-color="#E3D5E8"/>
</radialGradient>
<radialGradient id="paint1_radial_174_1288" cx="0" cy="0" r="1" gradientUnits="userSpaceOnUse" gradientTransform="translate(11.3969 21.1798) rotate(-28.664) scale(21.8229 16.6355)">
<stop offset="0.936217" stop-color="#967A97" stop-opacity="0"/>
<stop offset="0.984294" stop-color="#967A97"/>
</radialGradient>
<linearGradient id="paint2_linear_174_1288" x1="20.0001" y1="2.41602" x2="20.0001" y2="33.6663" gradientUnits="userSpaceOnUse">
<stop stop-color="#AA6D67"/>
<stop offset="1" stop-color="#724043"/>
</linearGradient>
<linearGradient id="paint3_linear_174_1288" x1="20.7911" y1="33.6663" x2="20.7911" y2="32.0743" gradientUnits="userSpaceOnUse">
<stop stop-color="#612B33"/>
<stop offset="1" stop-color="#612B33" stop-opacity="0"/>
</linearGradient>
<linearGradient id="paint4_linear_174_1288" x1="35.1144" y1="2.41602" x2="26.6976" y2="10.7369" gradientUnits="userSpaceOnUse">
<stop stop-color="#C78A7B"/>
<stop offset="1" stop-color="#C78A7B" stop-opacity="0"/>
</linearGradient>
<linearGradient id="paint5_linear_174_1288" x1="11.3462" y1="22.7668" x2="29.0606" y2="8.22664" gradientUnits="userSpaceOnUse">
<stop stop-color="#A2716C"/>
<stop offset="0.286458" stop-color="#A2716C" stop-opacity="0"/>
<stop offset="0.865314" stop-color="#A2716C" stop-opacity="0"/>
<stop offset="1" stop-color="#C4877B"/>
</linearGradient>
<linearGradient id="paint6_linear_174_1288" x1="21.9785" y1="11.5911" x2="21.9785" y2="18.1536" gradientUnits="userSpaceOnUse">
<stop stop-color="#98869F"/>
<stop offset="1" stop-color="#B791AB"/>
</linearGradient>
<linearGradient id="paint7_linear_174_1288" x1="5.10139" y1="37.4163" x2="32.6014" y2="37.4163" gradientUnits="userSpaceOnUse">
<stop stop-color="#FFB745"/>
<stop offset="1" stop-color="#FFBE45"/>
</linearGradient>
<radialGradient id="paint8_radial_174_1288" cx="0" cy="0" r="1" gradientUnits="userSpaceOnUse" gradientTransform="translate(2.5127 35.5413) scale(34.5238 17.1925)">
<stop offset="0.973795" stop-color="#FFDF73" stop-opacity="0.0145131"/>
<stop offset="1" stop-color="#FFDF73"/>
</radialGradient>
<linearGradient id="paint9_linear_174_1288" x1="20.0127" y1="33.3933" x2="20.0127" y2="34.2682" gradientUnits="userSpaceOnUse">
<stop stop-color="#FEA102"/>
<stop offset="1" stop-color="#FEA102" stop-opacity="0"/>
</linearGradient>
<linearGradient id="paint10_linear_174_1288" x1="20.0127" y1="6.16626" x2="20.0127" y2="7.90408" gradientUnits="userSpaceOnUse">
<stop stop-color="#F09D25"/>
<stop offset="1" stop-color="#F8A433"/>
</linearGradient>
<radialGradient id="paint11_radial_174_1288" cx="0" cy="0" r="1" gradientUnits="userSpaceOnUse" gradientTransform="translate(20.1991 7.25955) rotate(90) scale(1.21094 0.555013)">
<stop stop-color="#FFC06C"/>
<stop offset="1" stop-color="#FFC06C" stop-opacity="0"/>
</radialGradient>
<linearGradient id="paint12_linear_174_1288" x1="20.0127" y1="23.7039" x2="20.0127" y2="25.4417" gradientUnits="userSpaceOnUse">
<stop stop-color="#F09D25"/>
<stop offset="1" stop-color="#F8A433"/>
</linearGradient>
<radialGradient id="paint13_radial_174_1288" cx="0" cy="0" r="1" gradientUnits="userSpaceOnUse" gradientTransform="translate(20.1991 24.7971) rotate(90) scale(1.21094 0.555013)">
<stop stop-color="#FFC06C"/>
<stop offset="1" stop-color="#FFC06C" stop-opacity="0"/>
</radialGradient>
<linearGradient id="paint14_linear_174_1288" x1="28.7744" y1="15.5664" x2="28.7744" y2="16.4353" gradientUnits="userSpaceOnUse">
<stop stop-color="#F09D25"/>
<stop offset="1" stop-color="#F8A433"/>
</linearGradient>
<radialGradient id="paint15_radial_174_1288" cx="0" cy="0" r="1" gradientUnits="userSpaceOnUse" gradientTransform="translate(29.1471 16.1131) rotate(90) scale(0.605469 1.11003)">
<stop stop-color="#FFC06C"/>
<stop offset="1" stop-color="#FFC06C" stop-opacity="0"/>
</radialGradient>
<linearGradient id="paint16_linear_174_1288" x1="11.2373" y1="15.5664" x2="11.2373" y2="16.4353" gradientUnits="userSpaceOnUse">
<stop stop-color="#F09D25"/>
<stop offset="1" stop-color="#F8A433"/>
</linearGradient>
<radialGradient id="paint17_radial_174_1288" cx="0" cy="0" r="1" gradientUnits="userSpaceOnUse" gradientTransform="translate(11.61 16.1131) rotate(90) scale(0.605469 1.11003)">
<stop stop-color="#FFC06C"/>
<stop offset="1" stop-color="#FFC06C" stop-opacity="0"/>
</radialGradient>
<linearGradient id="paint18_linear_174_1288" x1="26.2119" y1="8.91626" x2="26.2119" y2="10.4021" gradientUnits="userSpaceOnUse">
<stop stop-color="#F09D25"/>
<stop offset="1" stop-color="#F8A433"/>
</linearGradient>
<radialGradient id="paint19_radial_174_1288" cx="0" cy="0" r="1" gradientUnits="userSpaceOnUse" gradientTransform="translate(26.5287 9.85102) rotate(90) scale(1.03535 0.94352)">
<stop stop-color="#FFC06C"/>
<stop offset="1" stop-color="#FFC06C" stop-opacity="0"/>
</radialGradient>
<linearGradient id="paint20_linear_174_1288" x1="13.8061" y1="21.3164" x2="13.8061" y2="22.8022" gradientUnits="userSpaceOnUse">
<stop stop-color="#F09D25"/>
<stop offset="1" stop-color="#F8A433"/>
</linearGradient>
<radialGradient id="paint21_radial_174_1288" cx="0" cy="0" r="1" gradientUnits="userSpaceOnUse" gradientTransform="translate(14.1247 22.2512) rotate(90) scale(1.03535 0.949072)">
<stop stop-color="#FFC06C"/>
<stop offset="1" stop-color="#FFC06C" stop-opacity="0"/>
</radialGradient>
<linearGradient id="paint22_linear_174_1288" x1="26.2119" y1="21.3164" x2="26.2119" y2="22.8022" gradientUnits="userSpaceOnUse">
<stop stop-color="#F09D25"/>
<stop offset="1" stop-color="#F8A433"/>
</linearGradient>
<radialGradient id="paint23_radial_174_1288" cx="0" cy="0" r="1" gradientUnits="userSpaceOnUse" gradientTransform="translate(26.5287 22.2512) rotate(90) scale(1.03535 0.94352)">
<stop stop-color="#FFC06C"/>
<stop offset="1" stop-color="#FFC06C" stop-opacity="0"/>
</radialGradient>
<linearGradient id="paint24_linear_174_1288" x1="13.8061" y1="8.91626" x2="13.8061" y2="10.4021" gradientUnits="userSpaceOnUse">
<stop stop-color="#F09D25"/>
<stop offset="1" stop-color="#F8A433"/>
</linearGradient>
<radialGradient id="paint25_radial_174_1288" cx="0" cy="0" r="1" gradientUnits="userSpaceOnUse" gradientTransform="translate(14.1247 9.85102) rotate(90) scale(1.03535 0.949072)">
<stop stop-color="#FFC06C"/>
<stop offset="1" stop-color="#FFC06C" stop-opacity="0"/>
</radialGradient>
<linearGradient id="paint26_linear_174_1288" x1="19.3877" y1="13.5496" x2="20.6377" y2="13.5496" gradientUnits="userSpaceOnUse">
<stop stop-color="#322333"/>
<stop offset="1" stop-color="#613460"/>
</linearGradient>
<radialGradient id="paint27_radial_174_1288" cx="0" cy="0" r="1" gradientUnits="userSpaceOnUse" gradientTransform="translate(20.6377 11.5981) rotate(90) scale(1.18274 0.864007)">
<stop stop-color="#6D3F6A"/>
<stop offset="1" stop-color="#6D3F6A" stop-opacity="0"/>
</radialGradient>
<linearGradient id="paint28_linear_174_1288" x1="21.9221" y1="16.0709" x2="26.2625" y2="16.0709" gradientUnits="userSpaceOnUse">
<stop stop-color="#322333"/>
<stop offset="1" stop-color="#613460"/>
</linearGradient>
<radialGradient id="paint29_radial_174_1288" cx="0" cy="0" r="1" gradientUnits="userSpaceOnUse" gradientTransform="translate(26.2625 15.6391) rotate(90) scale(0.946194 1.91574)">
<stop stop-color="#6D3F6A"/>
<stop offset="1" stop-color="#6D3F6A" stop-opacity="0"/>
</radialGradient>
<radialGradient id="paint30_radial_174_1288" cx="0" cy="0" r="1" gradientUnits="userSpaceOnUse" gradientTransform="translate(21.1363 15.4754) rotate(142.515) scale(2.89997 2.73604)">
<stop stop-color="#FFDF73"/>
<stop offset="1" stop-color="#FB9F2F"/>
</radialGradient>
</defs>
</svg>
