<svg width="40" height="40" viewBox="0 0 40 40" fill="none" xmlns="http://www.w3.org/2000/svg">
<path d="M31.1145 19.3691C26.4895 17.0566 20.627 18.9816 18.202 23.7566L17.7645 24.6066C17.6561 24.815 17.6756 25.0511 17.7933 25.2335C17.6242 25.3444 17.5145 25.5355 17.5145 25.7566V26.7066C17.5145 32.0566 21.8645 36.4316 27.027 36.4691L33.4645 36.4816C33.7895 36.4816 34.0395 36.2066 34.027 35.8816C33.8705 32.9027 32.558 30.2121 30.5301 28.2678C33.2106 27.4493 35.5912 25.6473 37.077 23.0691C37.2395 22.7816 37.1395 22.4316 36.852 22.2816L31.1145 19.3691Z" fill="url(#paint0_linear_118_510)"/>
<path d="M31.1145 19.3691C26.4895 17.0566 20.627 18.9816 18.202 23.7566L17.7645 24.6066C17.6561 24.815 17.6756 25.0511 17.7933 25.2335C17.6242 25.3444 17.5145 25.5355 17.5145 25.7566V26.7066C17.5145 32.0566 21.8645 36.4316 27.027 36.4691L33.4645 36.4816C33.7895 36.4816 34.0395 36.2066 34.027 35.8816C33.8705 32.9027 32.558 30.2121 30.5301 28.2678C33.2106 27.4493 35.5912 25.6473 37.077 23.0691C37.2395 22.7816 37.1395 22.4316 36.852 22.2816L31.1145 19.3691Z" fill="url(#paint1_radial_118_510)"/>
<path d="M30.5311 28.2688H25.2402V18.5445C27.1958 18.1946 29.2551 18.4394 31.1145 19.3691L36.852 22.2816C37.1395 22.4316 37.2395 22.7816 37.077 23.0691C35.5912 25.6473 33.2107 27.4493 30.5301 28.2678L30.5311 28.2688Z" fill="#589550"/>
<path d="M30.5311 28.2688H25.2402V18.5445C27.1958 18.1946 29.2551 18.4394 31.1145 19.3691L36.852 22.2816C37.1395 22.4316 37.2395 22.7816 37.077 23.0691C35.5912 25.6473 33.2107 27.4493 30.5301 28.2678L30.5311 28.2688Z" fill="url(#paint2_radial_118_510)"/>
<path d="M30.5311 28.2688H25.2402V18.5445C27.1958 18.1946 29.2551 18.4394 31.1145 19.3691L36.852 22.2816C37.1395 22.4316 37.2395 22.7816 37.077 23.0691C35.5912 25.6473 33.2107 27.4493 30.5301 28.2678L30.5311 28.2688Z" fill="url(#paint3_radial_118_510)"/>
<path d="M30.6895 10.1612C28.727 9.11254 26.502 9.12502 24.627 9.98645C24.8145 7.96397 24.127 5.87908 22.527 4.38095C19.777 1.80916 15.452 1.94649 12.8645 4.69306C11.3895 6.2661 10.827 8.35099 11.1145 10.336C9.23954 9.68682 7.08954 9.8616 5.27704 10.9852C2.07704 12.9702 1.08954 17.1775 3.07704 20.386C4.08954 22.0214 5.68954 23.0701 7.42704 23.4446C6.53954 24.8928 6.18954 26.6781 6.58954 28.4634C7.40204 32.1463 11.052 34.4684 14.7395 33.6444C16.402 33.2823 17.7895 32.3335 18.727 31.0601C19.777 32.2586 21.252 33.1076 22.9645 33.3448C26.702 33.8441 30.1395 31.2224 30.652 27.4896C30.8895 25.7293 30.427 24.0314 29.477 22.6831C31.1395 22.1712 32.6145 21.0351 33.502 19.3747C35.277 16.0664 34.0145 11.934 30.6895 10.1612Z" fill="url(#paint4_linear_118_510)"/>
<path d="M30.6895 10.1612C28.727 9.11254 26.502 9.12502 24.627 9.98645C24.8145 7.96397 24.127 5.87908 22.527 4.38095C19.777 1.80916 15.452 1.94649 12.8645 4.69306C11.3895 6.2661 10.827 8.35099 11.1145 10.336C9.23954 9.68682 7.08954 9.8616 5.27704 10.9852C2.07704 12.9702 1.08954 17.1775 3.07704 20.386C4.08954 22.0214 5.68954 23.0701 7.42704 23.4446C6.53954 24.8928 6.18954 26.6781 6.58954 28.4634C7.40204 32.1463 11.052 34.4684 14.7395 33.6444C16.402 33.2823 17.7895 32.3335 18.727 31.0601C19.777 32.2586 21.252 33.1076 22.9645 33.3448C26.702 33.8441 30.1395 31.2224 30.652 27.4896C30.8895 25.7293 30.427 24.0314 29.477 22.6831C31.1395 22.1712 32.6145 21.0351 33.502 19.3747C35.277 16.0664 34.0145 11.934 30.6895 10.1612Z" fill="url(#paint5_radial_118_510)"/>
<g filter="url(#filter0_f_118_510)">
<path d="M29.746 10.7368C27.9315 9.76598 25.8743 9.77754 24.1407 10.575C24.314 8.70271 23.6784 6.77265 22.1991 5.38577C19.6565 3.00497 15.6576 3.1321 13.2653 5.6747C11.9015 7.13092 11.3814 9.06099 11.6473 10.8986C9.91366 10.2976 7.92581 10.4594 6.25 11.4996C3.29133 13.3372 2.37831 17.232 4.21592 20.2022C5.15206 21.7162 7.27075 22.4023 8.87721 22.749C8.05664 24.0896 7.09368 26.0271 7.46352 27.6798C8.21474 31.0892 11.5895 33.2388 14.9989 32.4761C16.536 32.1409 17.8188 31.2625 18.6856 30.0837C19.6565 31.1932 21.0202 31.9791 22.6036 32.1987C26.0592 32.661 29.2374 30.2339 29.7113 26.7783C29.9309 25.1487 29.5033 23.5769 28.6249 22.3288C30.162 21.8549 31.5258 20.8032 32.3464 19.2661C33.9875 16.2034 32.8202 12.3779 29.746 10.7368Z" fill="url(#paint6_radial_118_510)"/>
</g>
<g filter="url(#filter1_f_118_510)">
<path d="M18.6523 25.2734V30.3906C24.2773 35.5078 30.1367 29.5312 29.5898 25.2734C29.1523 21.8672 26.4909 20.7292 25.2148 20.5859L18.6523 25.2734Z" fill="url(#paint7_linear_118_510)"/>
</g>
<g filter="url(#filter2_f_118_510)">
<path d="M21.9747 12.8989C21.8752 12.8928 21.787 12.8314 21.7468 12.7401C20.9951 11.032 19.2876 9.83942 17.3016 9.83942C15.2752 9.83942 13.5389 11.0811 12.8117 12.8451C12.7744 12.9356 12.6899 12.9986 12.5925 13.0087C10.1492 13.2616 8.24394 15.3268 8.24394 17.837C8.24394 19.3409 8.92797 20.6851 10.0018 21.5756C10.0776 21.6384 10.1126 21.7382 10.0927 21.8346C10.0269 22.1533 9.99224 22.4833 9.99224 22.8215C9.99224 25.5024 12.1656 27.6758 14.8466 27.6758C15.809 27.6758 16.706 27.3957 17.4606 26.9126C17.5441 26.8591 17.6508 26.8565 17.7369 26.9058C18.4471 27.3129 19.2699 27.5456 20.1472 27.5456C22.8282 27.5456 25.0016 25.3722 25.0016 22.6913C25.0016 22.3086 24.9573 21.9363 24.8736 21.5792C24.8517 21.4855 24.882 21.3871 24.9529 21.3221C25.9202 20.4347 26.5267 19.1602 26.5267 17.744C26.5267 15.1645 24.5148 13.055 21.9747 12.8989Z" fill="#F03EBD"/>
</g>
<path d="M22.9883 12.1577C22.8888 12.1517 22.8005 12.0903 22.7605 11.999C21.9727 10.2012 20.1776 8.94531 18.0891 8.94531C15.9583 8.94531 14.1329 10.2527 13.3711 12.1091C13.334 12.1997 13.2494 12.2627 13.152 12.2726C10.5824 12.5345 8.57742 14.705 8.57742 17.3438C8.57742 18.926 9.29839 20.3399 10.4296 21.2749C10.5055 21.3377 10.5405 21.4375 10.5205 21.5339C10.4503 21.871 10.4134 22.2202 10.4134 22.5781C10.4134 25.3935 12.6957 27.6758 15.511 27.6758C16.5246 27.6758 17.4692 27.3799 18.263 26.8699C18.3464 26.8163 18.4531 26.8137 18.5391 26.8631C19.2865 27.2931 20.1532 27.5391 21.0774 27.5391C23.8927 27.5391 26.1751 25.2568 26.1751 22.4414C26.1751 22.0368 26.128 21.6433 26.0389 21.2659C26.0168 21.1723 26.0471 21.0738 26.1181 21.0089C27.1373 20.0768 27.7766 18.7361 27.7766 17.2461C27.7766 14.5346 25.6596 12.3176 22.9883 12.1577Z" fill="#EA2195"/>
<g filter="url(#filter3_f_118_510)">
<path d="M22.4844 12.826C22.3849 12.8197 22.2967 12.7583 22.2563 12.6672C21.5503 11.0731 19.9544 9.96094 18.0987 9.96094C16.2052 9.96094 14.5821 11.119 13.899 12.7655C13.8615 12.856 13.7771 12.9189 13.6797 12.9292C11.3971 13.1707 9.61853 15.1019 9.61853 17.4486C9.61853 18.853 10.2556 20.1086 11.2564 20.9423C11.332 21.0053 11.367 21.105 11.3473 21.2015C11.2871 21.4967 11.2554 21.8023 11.2554 22.1153C11.2554 24.6254 13.2902 26.6602 15.8002 26.6602C16.6975 26.6602 17.5342 26.4001 18.2388 25.9512C18.3225 25.8979 18.4291 25.8953 18.5153 25.9444C19.1781 26.3223 19.9453 26.5383 20.763 26.5383C23.273 26.5383 25.3078 24.5035 25.3078 21.9934C25.3078 21.6387 25.2672 21.2934 25.1903 20.962C25.1685 20.8683 25.1988 20.7699 25.2696 20.7047C26.1709 19.8742 26.7357 18.6838 26.7357 17.3615C26.7357 14.9501 24.8576 12.9773 22.4844 12.826Z" fill="url(#paint8_radial_118_510)"/>
</g>
<g filter="url(#filter4_f_118_510)">
<path d="M17.5197 18.3594L11.3282 20.8789C10.6511 20.3451 9.90229 18.7305 9.90234 16.6602C9.9024 14.1631 12.0509 12.9427 13.2228 12.6953L17.5197 18.3594Z" fill="url(#paint9_linear_118_510)"/>
</g>
<g filter="url(#filter5_f_118_510)">
<path d="M18.3789 19.4922V26.2891C19.2513 26.9922 21.5664 27.9766 23.8477 26.2891C26.1289 24.6016 25.8138 21.0547 25.3711 19.4922H18.3789Z" fill="url(#paint10_linear_118_510)"/>
</g>
<g filter="url(#filter6_f_118_510)">
<path d="M17.9684 21.0045C19.4298 21.0045 20.6145 19.8197 20.6145 18.3583C20.6145 16.8969 19.4298 15.7122 17.9684 15.7122C16.507 15.7122 15.3223 16.8969 15.3223 18.3583C15.3223 19.8197 16.507 21.0045 17.9684 21.0045Z" fill="#E52A8A"/>
</g>
<path d="M18.177 20.5943C19.5232 20.5943 20.6145 19.503 20.6145 18.1568C20.6145 16.8106 19.5232 15.7193 18.177 15.7193C16.8308 15.7193 15.7395 16.8106 15.7395 18.1568C15.7395 19.503 16.8308 20.5943 18.177 20.5943Z" fill="url(#paint11_radial_118_510)"/>
<path d="M18.177 20.5943C19.5232 20.5943 20.6145 19.503 20.6145 18.1568C20.6145 16.8106 19.5232 15.7193 18.177 15.7193C16.8308 15.7193 15.7395 16.8106 15.7395 18.1568C15.7395 19.503 16.8308 20.5943 18.177 20.5943Z" fill="url(#paint12_radial_118_510)"/>
<path d="M18.1146 18.8442C17.9396 18.8442 17.7646 18.7692 17.6396 18.6317L12.9146 13.2192C12.6896 12.9567 12.7146 12.5567 12.9771 12.3317C13.2396 12.1067 13.6271 12.1317 13.8646 12.3942L18.6021 17.8067C18.8271 18.0692 18.8021 18.4567 18.5396 18.6942C18.4146 18.7817 18.2646 18.8442 18.1146 18.8442Z" fill="url(#paint13_linear_118_510)"/>
<circle cx="12.6196" cy="11.9385" r="0.709062" fill="url(#paint14_radial_118_510)"/>
<circle cx="14.1468" cy="11.9931" r="0.709062" fill="url(#paint15_radial_118_510)"/>
<circle cx="14.8886" cy="13.3566" r="0.709062" fill="url(#paint16_radial_118_510)"/>
<circle cx="13.6777" cy="14.3166" r="0.709062" fill="url(#paint17_radial_118_510)"/>
<circle cx="12.4941" cy="13.4603" r="0.709062" fill="url(#paint18_radial_118_510)"/>
<g filter="url(#filter7_f_118_510)">
<path d="M25.4687 21.2109C25.6771 22.4479 25.7227 24.9219 23.2227 26.1719" stroke="url(#paint19_linear_118_510)" stroke-width="0.4" stroke-linecap="round"/>
</g>
<g filter="url(#filter8_f_118_510)">
<path d="M22.1289 12.4219C21.9336 11.4323 20.4883 9.49218 17.8711 9.6289" stroke="url(#paint20_linear_118_510)" stroke-width="0.4" stroke-linecap="round"/>
</g>
<g filter="url(#filter9_f_118_510)">
<path d="M24.2969 13.0859C25.6836 13.4961 28.1016 15.3008 26.6797 19.2383" stroke="url(#paint21_radial_118_510)" stroke-width="0.3" stroke-linecap="round"/>
</g>
<g filter="url(#filter10_f_118_510)">
<path d="M4.16016 13.2812C5.1237 11.9271 8.00391 9.67187 11.8164 11.4844" stroke="url(#paint22_linear_118_510)" stroke-width="0.4" stroke-linecap="round"/>
</g>
<g filter="url(#filter11_f_118_510)">
<path d="M17.6758 3.20312C19.707 3.17708 23.793 4.42969 23.8867 9.64844" stroke="url(#paint23_radial_118_510)" stroke-width="0.4" stroke-linecap="round"/>
</g>
<g filter="url(#filter12_f_118_510)">
<path d="M29.3945 10.2734C31.2565 10.8073 34.9414 14.2188 33.1055 19.2578" stroke="url(#paint24_radial_118_510)" stroke-width="0.4" stroke-linecap="round"/>
</g>
<g filter="url(#filter13_f_118_510)">
<path d="M28.0273 22.3438C28.7305 23.099 29.9414 24.6328 29.6289 27.3828C29.3164 30.1328 26.7773 31.4323 25.6055 31.7969" stroke="url(#paint25_linear_118_510)" stroke-width="0.4" stroke-linecap="round"/>
</g>
<g filter="url(#filter14_f_118_510)">
<path d="M13.6914 32.4609C14.694 32.4479 17.0195 31.9141 18.3008 29.8828" stroke="url(#paint26_linear_118_510)" stroke-width="0.4" stroke-linecap="round"/>
</g>
<g filter="url(#filter15_f_118_510)">
<path d="M15.3711 14.8047L18.2227 18.0859" stroke="url(#paint27_linear_118_510)" stroke-width="0.2" stroke-linecap="round"/>
</g>
<g filter="url(#filter16_f_118_510)">
<path d="M30.5337 28.797C31.485 29.8043 33.4145 32.5978 33.522 35.7137" stroke="url(#paint28_linear_118_510)" stroke-width="0.3" stroke-linecap="round"/>
</g>
<g filter="url(#filter17_f_118_510)">
<path d="M32.959 20.7812L36.748 22.6953" stroke="url(#paint29_linear_118_510)" stroke-opacity="0.6" stroke-width="0.2" stroke-linecap="round"/>
</g>
<defs>
<filter id="filter0_f_118_510" x="2.76706" y="3.18066" width="30.8228" height="29.9492" filterUnits="userSpaceOnUse" color-interpolation-filters="sRGB">
<feFlood flood-opacity="0" result="BackgroundImageFix"/>
<feBlend mode="normal" in="SourceGraphic" in2="BackgroundImageFix" result="shape"/>
<feGaussianBlur stdDeviation="0.25" result="effect1_foregroundBlur_118_510"/>
</filter>
<filter id="filter1_f_118_510" x="18.1523" y="20.0859" width="11.973" height="12.776" filterUnits="userSpaceOnUse" color-interpolation-filters="sRGB">
<feFlood flood-opacity="0" result="BackgroundImageFix"/>
<feBlend mode="normal" in="SourceGraphic" in2="BackgroundImageFix" result="shape"/>
<feGaussianBlur stdDeviation="0.25" result="effect1_foregroundBlur_118_510"/>
</filter>
<filter id="filter2_f_118_510" x="7.24394" y="8.83942" width="20.2827" height="19.8364" filterUnits="userSpaceOnUse" color-interpolation-filters="sRGB">
<feFlood flood-opacity="0" result="BackgroundImageFix"/>
<feBlend mode="normal" in="SourceGraphic" in2="BackgroundImageFix" result="shape"/>
<feGaussianBlur stdDeviation="0.5" result="effect1_foregroundBlur_118_510"/>
</filter>
<filter id="filter3_f_118_510" x="9.36853" y="9.71094" width="17.6171" height="17.1992" filterUnits="userSpaceOnUse" color-interpolation-filters="sRGB">
<feFlood flood-opacity="0" result="BackgroundImageFix"/>
<feBlend mode="normal" in="SourceGraphic" in2="BackgroundImageFix" result="shape"/>
<feGaussianBlur stdDeviation="0.125" result="effect1_foregroundBlur_118_510"/>
</filter>
<filter id="filter4_f_118_510" x="9.40234" y="12.1953" width="8.61734" height="9.18359" filterUnits="userSpaceOnUse" color-interpolation-filters="sRGB">
<feFlood flood-opacity="0" result="BackgroundImageFix"/>
<feBlend mode="normal" in="SourceGraphic" in2="BackgroundImageFix" result="shape"/>
<feGaussianBlur stdDeviation="0.25" result="effect1_foregroundBlur_118_510"/>
</filter>
<filter id="filter5_f_118_510" x="18.1289" y="19.2422" width="7.80621" height="8.22864" filterUnits="userSpaceOnUse" color-interpolation-filters="sRGB">
<feFlood flood-opacity="0" result="BackgroundImageFix"/>
<feBlend mode="normal" in="SourceGraphic" in2="BackgroundImageFix" result="shape"/>
<feGaussianBlur stdDeviation="0.125" result="effect1_foregroundBlur_118_510"/>
</filter>
<filter id="filter6_f_118_510" x="14.8223" y="15.2122" width="6.29225" height="6.29225" filterUnits="userSpaceOnUse" color-interpolation-filters="sRGB">
<feFlood flood-opacity="0" result="BackgroundImageFix"/>
<feBlend mode="normal" in="SourceGraphic" in2="BackgroundImageFix" result="shape"/>
<feGaussianBlur stdDeviation="0.25" result="effect1_foregroundBlur_118_510"/>
</filter>
<filter id="filter7_f_118_510" x="22.6226" y="20.6109" width="3.53463" height="6.16101" filterUnits="userSpaceOnUse" color-interpolation-filters="sRGB">
<feFlood flood-opacity="0" result="BackgroundImageFix"/>
<feBlend mode="normal" in="SourceGraphic" in2="BackgroundImageFix" result="shape"/>
<feGaussianBlur stdDeviation="0.2" result="effect1_foregroundBlur_118_510"/>
</filter>
<filter id="filter8_f_118_510" x="17.2711" y="9.02204" width="5.45786" height="3.99986" filterUnits="userSpaceOnUse" color-interpolation-filters="sRGB">
<feFlood flood-opacity="0" result="BackgroundImageFix"/>
<feBlend mode="normal" in="SourceGraphic" in2="BackgroundImageFix" result="shape"/>
<feGaussianBlur stdDeviation="0.2" result="effect1_foregroundBlur_118_510"/>
</filter>
<filter id="filter9_f_118_510" x="23.8468" y="12.6359" width="3.71587" height="7.05242" filterUnits="userSpaceOnUse" color-interpolation-filters="sRGB">
<feFlood flood-opacity="0" result="BackgroundImageFix"/>
<feBlend mode="normal" in="SourceGraphic" in2="BackgroundImageFix" result="shape"/>
<feGaussianBlur stdDeviation="0.15" result="effect1_foregroundBlur_118_510"/>
</filter>
<filter id="filter10_f_118_510" x="3.56014" y="10.2069" width="8.85631" height="3.67434" filterUnits="userSpaceOnUse" color-interpolation-filters="sRGB">
<feFlood flood-opacity="0" result="BackgroundImageFix"/>
<feBlend mode="normal" in="SourceGraphic" in2="BackgroundImageFix" result="shape"/>
<feGaussianBlur stdDeviation="0.2" result="effect1_foregroundBlur_118_510"/>
</filter>
<filter id="filter11_f_118_510" x="17.0758" y="2.60273" width="7.41094" height="7.6457" filterUnits="userSpaceOnUse" color-interpolation-filters="sRGB">
<feFlood flood-opacity="0" result="BackgroundImageFix"/>
<feBlend mode="normal" in="SourceGraphic" in2="BackgroundImageFix" result="shape"/>
<feGaussianBlur stdDeviation="0.2" result="effect1_foregroundBlur_118_510"/>
</filter>
<filter id="filter12_f_118_510" x="28.7945" y="9.67338" width="5.40996" height="10.1845" filterUnits="userSpaceOnUse" color-interpolation-filters="sRGB">
<feFlood flood-opacity="0" result="BackgroundImageFix"/>
<feBlend mode="normal" in="SourceGraphic" in2="BackgroundImageFix" result="shape"/>
<feGaussianBlur stdDeviation="0.2" result="effect1_foregroundBlur_118_510"/>
</filter>
<filter id="filter13_f_118_510" x="25.0054" y="21.7438" width="5.27405" height="10.6532" filterUnits="userSpaceOnUse" color-interpolation-filters="sRGB">
<feFlood flood-opacity="0" result="BackgroundImageFix"/>
<feBlend mode="normal" in="SourceGraphic" in2="BackgroundImageFix" result="shape"/>
<feGaussianBlur stdDeviation="0.2" result="effect1_foregroundBlur_118_510"/>
</filter>
<filter id="filter14_f_118_510" x="13.0914" y="29.2828" width="5.8094" height="3.77815" filterUnits="userSpaceOnUse" color-interpolation-filters="sRGB">
<feFlood flood-opacity="0" result="BackgroundImageFix"/>
<feBlend mode="normal" in="SourceGraphic" in2="BackgroundImageFix" result="shape"/>
<feGaussianBlur stdDeviation="0.2" result="effect1_foregroundBlur_118_510"/>
</filter>
<filter id="filter15_f_118_510" x="15.0711" y="14.5047" width="3.45157" height="3.88126" filterUnits="userSpaceOnUse" color-interpolation-filters="sRGB">
<feFlood flood-opacity="0" result="BackgroundImageFix"/>
<feBlend mode="normal" in="SourceGraphic" in2="BackgroundImageFix" result="shape"/>
<feGaussianBlur stdDeviation="0.1" result="effect1_foregroundBlur_118_510"/>
</filter>
<filter id="filter16_f_118_510" x="29.9837" y="28.247" width="4.08828" height="8.01669" filterUnits="userSpaceOnUse" color-interpolation-filters="sRGB">
<feFlood flood-opacity="0" result="BackgroundImageFix"/>
<feBlend mode="normal" in="SourceGraphic" in2="BackgroundImageFix" result="shape"/>
<feGaussianBlur stdDeviation="0.2" result="effect1_foregroundBlur_118_510"/>
</filter>
<filter id="filter17_f_118_510" x="32.659" y="20.4812" width="4.38911" height="2.51411" filterUnits="userSpaceOnUse" color-interpolation-filters="sRGB">
<feFlood flood-opacity="0" result="BackgroundImageFix"/>
<feBlend mode="normal" in="SourceGraphic" in2="BackgroundImageFix" result="shape"/>
<feGaussianBlur stdDeviation="0.1" result="effect1_foregroundBlur_118_510"/>
</filter>
<linearGradient id="paint0_linear_118_510" x1="30.03" y1="35.6465" x2="27.3347" y2="28.3269" gradientUnits="userSpaceOnUse">
<stop stop-color="#76A04A"/>
<stop offset="0.930605" stop-color="#567343"/>
</linearGradient>
<radialGradient id="paint1_radial_118_510" cx="0" cy="0" r="1" gradientUnits="userSpaceOnUse" gradientTransform="translate(31.3731 28.5955) rotate(118.61) scale(5.0485 8.17593)">
<stop stop-color="#5C9452"/>
<stop offset="1" stop-color="#5C9452" stop-opacity="0"/>
</radialGradient>
<radialGradient id="paint2_radial_118_510" cx="0" cy="0" r="1" gradientUnits="userSpaceOnUse" gradientTransform="translate(31.1975 20.9766) rotate(82.8037) scale(6.81147 9.89379)">
<stop offset="0.658881" stop-color="#4D844D" stop-opacity="0"/>
<stop offset="1" stop-color="#4D844D"/>
</radialGradient>
<radialGradient id="paint3_radial_118_510" cx="0" cy="0" r="1" gradientUnits="userSpaceOnUse" gradientTransform="translate(28.6133 23.0078) rotate(42.3102) scale(4.12012 5.98456)">
<stop stop-color="#4D844D"/>
<stop offset="1" stop-color="#4D844D" stop-opacity="0"/>
</radialGradient>
<linearGradient id="paint4_linear_118_510" x1="6.04097" y1="28.5589" x2="49.2052" y2="-0.163554" gradientUnits="userSpaceOnUse">
<stop stop-color="#FE65D5"/>
<stop offset="1" stop-color="#FF7CD0"/>
</linearGradient>
<radialGradient id="paint5_radial_118_510" cx="0" cy="0" r="1" gradientUnits="userSpaceOnUse" gradientTransform="translate(11.0352 5.50411) rotate(18.1169) scale(2.3838 9.17127)">
<stop stop-color="#FF9BD8"/>
<stop offset="1" stop-color="#FF9BD8" stop-opacity="0"/>
</radialGradient>
<radialGradient id="paint6_radial_118_510" cx="0" cy="0" r="1" gradientUnits="userSpaceOnUse" gradientTransform="translate(9.88081 31.9559) rotate(-52.0378) scale(21.3081 54.0616)">
<stop stop-color="#FF83E8"/>
<stop offset="1" stop-color="#FF67D9"/>
</radialGradient>
<linearGradient id="paint7_linear_118_510" x1="19.043" y1="28.3984" x2="26.4258" y2="28.3984" gradientUnits="userSpaceOnUse">
<stop stop-color="#F058C6"/>
<stop offset="1" stop-color="#F058C6" stop-opacity="0"/>
</linearGradient>
<radialGradient id="paint8_radial_118_510" cx="0" cy="0" r="1" gradientUnits="userSpaceOnUse" gradientTransform="translate(15.5664 22.4219) rotate(-54.4623) scale(14.7852 28.899)">
<stop stop-color="#ED49A5"/>
<stop offset="1" stop-color="#ED4AA5" stop-opacity="0"/>
</radialGradient>
<linearGradient id="paint9_linear_118_510" x1="15.293" y1="19.7266" x2="12.168" y2="12.6953" gradientUnits="userSpaceOnUse">
<stop stop-color="#E73790"/>
<stop offset="1" stop-color="#ED3FA3" stop-opacity="0"/>
</linearGradient>
<linearGradient id="paint10_linear_118_510" x1="18.3789" y1="23.75" x2="24.1211" y2="23.3565" gradientUnits="userSpaceOnUse">
<stop stop-color="#E32D95"/>
<stop offset="1" stop-color="#E32D95" stop-opacity="0"/>
</linearGradient>
<radialGradient id="paint11_radial_118_510" cx="0" cy="0" r="1" gradientUnits="userSpaceOnUse" gradientTransform="translate(19.5508 17.4805) rotate(151.213) scale(2.02796 1.99146)">
<stop stop-color="#FFEF81"/>
<stop offset="1" stop-color="#FFC94C"/>
</radialGradient>
<radialGradient id="paint12_radial_118_510" cx="0" cy="0" r="1" gradientUnits="userSpaceOnUse" gradientTransform="translate(17.5061 17.465) rotate(-119.985) scale(2.01546 1.33172)">
<stop stop-color="#F5C72A"/>
<stop offset="1" stop-color="#F5C72A" stop-opacity="0"/>
</radialGradient>
<linearGradient id="paint13_linear_118_510" x1="13.8086" y1="13.125" x2="18.7551" y2="18.8442" gradientUnits="userSpaceOnUse">
<stop stop-color="#FFB236"/>
<stop offset="1" stop-color="#FFE646"/>
</linearGradient>
<radialGradient id="paint14_radial_118_510" cx="0" cy="0" r="1" gradientUnits="userSpaceOnUse" gradientTransform="translate(13.0192 11.7418) rotate(151.213) scale(0.589928 0.579309)">
<stop stop-color="#FFEF81"/>
<stop offset="1" stop-color="#FFC94C"/>
</radialGradient>
<radialGradient id="paint15_radial_118_510" cx="0" cy="0" r="1" gradientUnits="userSpaceOnUse" gradientTransform="translate(14.5464 11.7963) rotate(151.213) scale(0.589928 0.579309)">
<stop stop-color="#FFEF81"/>
<stop offset="1" stop-color="#FFC94C"/>
</radialGradient>
<radialGradient id="paint16_radial_118_510" cx="0" cy="0" r="1" gradientUnits="userSpaceOnUse" gradientTransform="translate(15.2882 13.1599) rotate(151.213) scale(0.589928 0.579309)">
<stop stop-color="#FFEF81"/>
<stop offset="1" stop-color="#FFC94C"/>
</radialGradient>
<radialGradient id="paint17_radial_118_510" cx="0" cy="0" r="1" gradientUnits="userSpaceOnUse" gradientTransform="translate(14.0774 14.1198) rotate(151.213) scale(0.589928 0.579309)">
<stop stop-color="#FFEF81"/>
<stop offset="1" stop-color="#FFC94C"/>
</radialGradient>
<radialGradient id="paint18_radial_118_510" cx="0" cy="0" r="1" gradientUnits="userSpaceOnUse" gradientTransform="translate(12.8937 13.2635) rotate(151.213) scale(0.589928 0.579309)">
<stop stop-color="#FFEF81"/>
<stop offset="1" stop-color="#FFC94C"/>
</radialGradient>
<linearGradient id="paint19_linear_118_510" x1="26.1133" y1="22.0312" x2="22.6562" y2="28.4961" gradientUnits="userSpaceOnUse">
<stop stop-color="#FF78BC"/>
<stop offset="1" stop-color="#FF78BC" stop-opacity="0"/>
</linearGradient>
<linearGradient id="paint20_linear_118_510" x1="22.7344" y1="11.543" x2="19.9266" y2="13.2377" gradientUnits="userSpaceOnUse">
<stop stop-color="#FF78BC"/>
<stop offset="1" stop-color="#FF78BC" stop-opacity="0"/>
</linearGradient>
<radialGradient id="paint21_radial_118_510" cx="0" cy="0" r="1" gradientUnits="userSpaceOnUse" gradientTransform="translate(26.9141 14.6289) rotate(145.548) scale(2.03697 4.4395)">
<stop stop-color="#FF78BC"/>
<stop offset="1" stop-color="#FF78BC" stop-opacity="0"/>
</radialGradient>
<linearGradient id="paint22_linear_118_510" x1="12.207" y1="11.4844" x2="3.53516" y2="13.9844" gradientUnits="userSpaceOnUse">
<stop stop-color="#FFA8E0"/>
<stop offset="1" stop-color="#FF88D5" stop-opacity="0"/>
</linearGradient>
<radialGradient id="paint23_radial_118_510" cx="0" cy="0" r="1" gradientUnits="userSpaceOnUse" gradientTransform="translate(22.207 4.10156) rotate(97.3057) scale(3.07181 17.8102)">
<stop stop-color="#FFA8E0"/>
<stop offset="0.0001" stop-color="#FFA8E0"/>
<stop offset="1" stop-color="#FF88D5" stop-opacity="0"/>
</radialGradient>
<radialGradient id="paint24_radial_118_510" cx="0" cy="0" r="1" gradientUnits="userSpaceOnUse" gradientTransform="translate(32.3052 11.4664) rotate(93.5507) scale(4.05156 11.512)">
<stop stop-color="#FFA8E0"/>
<stop offset="0.0001" stop-color="#FFA8E0"/>
<stop offset="1" stop-color="#FF88D5" stop-opacity="0"/>
</radialGradient>
<linearGradient id="paint25_linear_118_510" x1="31.3477" y1="21.4844" x2="25.4715" y2="21.1762" gradientUnits="userSpaceOnUse">
<stop stop-color="#FFA8E0"/>
<stop offset="1" stop-color="#FF88D5" stop-opacity="0"/>
</linearGradient>
<linearGradient id="paint26_linear_118_510" x1="18.536" y1="30.5879" x2="13.0338" y2="31.5041" gradientUnits="userSpaceOnUse">
<stop stop-color="#FF8FD8"/>
<stop offset="1" stop-color="#FF88D5" stop-opacity="0"/>
</linearGradient>
<linearGradient id="paint27_linear_118_510" x1="18.6914" y1="18.0859" x2="18.6773" y2="14.7923" gradientUnits="userSpaceOnUse">
<stop stop-color="#FFEE64"/>
<stop offset="1" stop-color="#FFEE64" stop-opacity="0"/>
</linearGradient>
<linearGradient id="paint28_linear_118_510" x1="34.0132" y1="35.7137" x2="33.9532" y2="28.7713" gradientUnits="userSpaceOnUse">
<stop stop-color="#7DAF70"/>
<stop offset="1" stop-color="#8FBF69"/>
</linearGradient>
<linearGradient id="paint29_linear_118_510" x1="37.3709" y1="22.6953" x2="37.3673" y2="20.774" gradientUnits="userSpaceOnUse">
<stop stop-color="#7DAF70"/>
<stop offset="1" stop-color="#8FBF69" stop-opacity="0"/>
</linearGradient>
</defs>
</svg>
