<?xml version="1.0"?>
<svg xmlns="http://www.w3.org/2000/svg" xmlns:xlink="http://www.w3.org/1999/xlink" version="1.1" xml:space="preserve">
	<defs>

		<symbol id="loader" width="100%" height="100%" viewBox="22 22 44 44">
            <circle cx="44" cy="44" r="20.2" fill="none" stroke="currentColor" stroke-width="4"></circle>
        </symbol>

        <symbol id="burger" width="100%" height="100%" viewBox="0 0 48 48">
            <path d="M41,14H7a2,2,0,0,1,0-4H41A2,2,0,0,1,41,14Z" fill="currentColor"/>
            <path d="M41,26H7a2,2,0,0,1,0-4H41A2,2,0,0,1,41,26Z" fill="currentColor"/>
            <path d="M41,38H7a2,2,0,0,1,0-4H41A2,2,0,0,1,41,38Z" fill="currentColor"/>
        </symbol>

        <symbol id="burger" width="100%" height="100%" viewBox="0 0 48 48">
            <path d="M41,14H7a2,2,0,0,1,0-4H41A2,2,0,0,1,41,14Z" fill="currentColor"/>
            <path d="M41,26H7a2,2,0,0,1,0-4H41A2,2,0,0,1,41,26Z" fill="currentColor"/>
            <path d="M41,38H7a2,2,0,0,1,0-4H41A2,2,0,0,1,41,38Z" fill="currentColor"/>
        </symbol>

        <symbol id="success" width="100%" height="100%" viewBox="0 0 68 68">
            <path fill-rule="evenodd" clip-rule="evenodd" d="M34 68C52.7777 68 68 52.7777 68 34C68 15.2223 52.7777 0 34 0C15.2223 0 0 15.2223 0 34C0 52.7777 15.2223 68 34 68ZM49.7552 28.5052C51.4149 26.8455 51.4149 24.1545 49.7552 22.4948C48.0955 20.8351 45.4045 20.8351 43.7448 22.4948L29.75 36.4896L24.2552 30.9948C22.5955 29.3351 19.9045 29.3351 18.2448 30.9948C16.5851 32.6545 16.5851 35.3455 18.2448 37.0052L26.7448 45.5052C28.4045 47.1649 31.0955 47.1649 32.7552 45.5052L49.7552 28.5052Z" fill="currentColor"/>
        </symbol>

		<symbol id="arrow-left" width="100%" height="100%" viewBox="0 0 11 18">
            <path d="M3.76777 9L9.88388 2.88388C10.372 2.39573 10.372 1.60427 9.88388 1.11612C9.39573 0.627961 8.60427 0.627961 8.11612 1.11612L1.11612 8.11612C0.62796 8.60427 0.62796 9.39573 1.11612 9.88388L8.11612 16.8839C8.60427 17.372 9.39573 17.372 9.88388 16.8839C10.372 16.3957 10.372 15.6043 9.88388 15.1161L3.76777 9Z" fill="currentColor"/>
        </symbol>

        <symbol id="arrow-right" width="100%" height="100%" viewBox="0 0 11 18">
            <path d="M7.23223 9L1.11612 2.88388C0.627961 2.39573 0.627961 1.60427 1.11612 1.11612C1.60427 0.627961 2.39573 0.627961 2.88388 1.11612L9.88388 8.11612C10.372 8.60427 10.372 9.39573 9.88388 9.88388L2.88388 16.8839C2.39573 17.372 1.60427 17.372 1.11612 16.8839C0.627961 16.3957 0.627961 15.6043 1.11612 15.1161L7.23223 9Z" fill="currentColor"/>
        </symbol>

        <symbol id="gal-ochka" width="100%" height="100%" viewBox="0 0 12 10">
			<path d="M6.23497 8.79946C5.9649 9.16602 5.54433 9.3913 5.0896 9.41369C4.63487 9.43632 4.19445 9.25304 3.88975 8.91464L1.15929 5.88456C0.725328 5.40328 0.763876 4.6614 1.24515 4.22744C1.72689 3.79348 2.46831 3.83226 2.90227 4.31377L4.83407 6.45771C4.8627 6.48956 4.90425 6.50664 4.94695 6.50456C4.98988 6.50249 5.02912 6.48102 5.05475 6.44686L9.02546 1.0614C9.40979 0.539728 10.1443 0.428699 10.6662 0.813259C11.1876 1.19782 11.2984 1.93232 10.9139 2.45376L6.23497 8.79946Z" fill="currentColor" />
		</symbol>

        <symbol id="triangle-right" width="100%" height="100%" viewBox="0 0 8 12">
			<path d="M7.73333 6.2L1.28 11.04C0.75261 11.4355 -8.68819e-07 11.0592 -8.09356e-07 10.4L-1.5607e-08 1.6C4.38553e-08 0.940764 0.752611 0.564457 1.28 0.959998L7.73333 5.8C7.86667 5.9 7.86667 6.1 7.73333 6.2Z" fill="currentColor"/>
		</symbol>

        <symbol id="cross" width="100%" height="100%" viewBox="0 0 16 16">
			<path d="M1 15L15 1M1 1L15 15" fill="none" stroke="currentColor" stroke-width="2" stroke-linecap="round" stroke-linejoin="round" />
		</symbol>

        <symbol id="phone" width="100%" height="100%" viewBox="0 0 18 18">
            <path d="M9.6 4.7998C9.2688 4.7998 9 5.0686 9 5.3998C9 5.731 9.2688 5.9998 9.6 5.9998C10.9236 5.9998 12 7.0762 12 8.3998C12 8.731 12.2688 8.9998 12.6 8.9998C12.9312 8.9998 13.2 8.731 13.2 8.3998C13.2 6.415 11.5848 4.7998 9.6 4.7998Z" fill="currentColor"/>
            <path d="M9.6 2.3999C9.2688 2.3999 9 2.6687 9 2.9999C9 3.3311 9.2688 3.5999 9.6 3.5999C12.2472 3.5999 14.4 5.7527 14.4 8.3999C14.4 8.7311 14.6688 8.9999 15 8.9999C15.3312 8.9999 15.6 8.7311 15.6 8.3999C15.6 5.0915 12.9084 2.3999 9.6 2.3999Z" fill="currentColor"/>
            <path d="M9.6 0C9.2688 0 9 0.2688 9 0.6C9 0.9312 9.2688 1.2 9.6 1.2C13.5708 1.2 16.8 4.4292 16.8 8.4C16.8 8.7312 17.0688 9 17.4 9C17.7312 9 18 8.7312 18 8.4C18 3.768 14.2308 0 9.6 0Z" fill="currentColor"/>
            <path d="M16.2 13.2002C14.4576 13.2002 12.798 12.821 11.268 12.0734C11.124 12.0014 10.9584 11.993 10.8084 12.0458C10.6572 12.0986 10.5336 12.209 10.464 12.3518L9.5208 14.3042C7.08 12.9422 5.0592 10.9226 3.6984 8.48179L5.6496 7.53619C5.7936 7.46659 5.9028 7.34299 5.9556 7.19179C6.0072 7.04179 5.9976 6.87619 5.9268 6.73219C5.1792 5.20219 4.8 3.54259 4.8 1.8002C4.8 1.469 4.5312 1.2002 4.2 1.2002H0.6C0.2688 1.2002 0 1.469 0 1.8002C0 10.733 7.2672 18.0002 16.2 18.0002C16.5312 18.0002 16.8 17.7314 16.8 17.4002V13.8002C16.8 13.469 16.5312 13.2002 16.2 13.2002Z" fill="currentColor"/>
        </symbol>

        <symbol id="wb" width="100%" height="100%" viewBox="0 0 20 20">
            <path d="M10.6798 11.2996C10.4511 11.5285 10.0802 11.5285 9.85128 11.2996L7.18862 8.63693C7.07875 8.52707 7.01696 8.37799 7.01696 8.22266C7.01696 8.06717 7.07875 7.91824 7.18862 7.80823L7.66195 7.33505L6.27172 5.94482L5.1328 7.08374C4.7495 7.46704 4.74965 8.09067 5.1328 8.47397L10.0142 13.3557C10.1987 13.5402 10.4456 13.6417 10.7094 13.6417C10.9733 13.6417 11.2201 13.54 11.4046 13.3556L12.5435 12.2168L11.1533 10.8264L10.6798 11.2996Z" fill="currentColor"/>
            <path d="M19.1595 7.05902C19.1595 5.18051 18.4235 3.40988 17.0865 2.07306C15.7497 0.736237 13.979 0 12.1007 0H7.91809C7.91809 0 7.91809 0 7.91794 0C6.03973 0 4.2691 0.736237 2.93243 2.07291C1.59561 3.40973 0.859375 5.18051 0.859375 7.05887V10.3465C0.859375 11.8011 1.3031 13.2005 2.14264 14.3933C2.8833 15.4456 3.87939 16.2674 5.04074 16.7886V18.6771C5.04074 19.6535 5.58746 19.9998 6.0556 20C6.39008 20 6.7247 19.8349 7.05032 19.5094L9.15405 17.4054H12.1008C13.9792 17.4054 15.7498 16.6692 17.0866 15.3323C18.4235 13.9955 19.1597 12.2249 19.1597 10.3465L19.1595 7.05902ZM13.7866 12.6311L12.2333 14.1843C11.8274 14.5901 11.2863 14.8134 10.7095 14.8134C10.1328 14.8134 9.59167 14.59 9.18579 14.1843L4.3042 9.30252C3.4642 8.46222 3.4642 7.09518 4.3042 6.25504L5.85754 4.70184C5.96741 4.59183 6.11633 4.53018 6.27182 4.53018C6.42715 4.53018 6.57623 4.59183 6.6861 4.70184L8.90503 6.92078C9.01489 7.03064 9.07654 7.17972 9.07654 7.33505C9.07654 7.49039 9.01489 7.63947 8.90488 7.74933L8.4317 8.2225L10.2658 10.0566L10.7391 9.58328C10.968 9.35455 11.339 9.35455 11.5677 9.58344L13.7866 11.8024C13.8966 11.9122 13.9583 12.0613 13.9583 12.2166C13.9583 12.3721 13.8966 12.5212 13.7866 12.6311ZM9.56573 5.68832C9.56573 5.36484 9.82803 5.10239 10.1517 5.10239C12.1819 5.10239 13.8336 6.754 13.8336 8.78403C13.8336 9.10767 13.5713 9.36996 13.2477 9.36996C12.9242 9.36996 12.6617 9.10767 12.6617 8.78403C12.6617 7.40021 11.5358 6.27426 10.1517 6.27426C9.82803 6.27426 9.56573 6.01196 9.56573 5.68832ZM15.7579 9.37027C15.4343 9.37027 15.172 9.10782 15.172 8.78433C15.1721 7.44324 14.6498 6.18256 13.7016 5.23422C12.7533 4.28604 11.4926 3.76373 10.1515 3.76373C9.82803 3.76373 9.56558 3.50143 9.56558 3.1778C9.56558 2.85431 9.82803 2.59186 10.1515 2.59186C11.8056 2.59186 13.3606 3.23608 14.5302 4.40567C15.6999 5.57526 16.344 7.13028 16.3438 8.78433C16.3438 9.10782 16.0815 9.37027 15.7579 9.37027Z" fill="currentColor"/>
        </symbol>

        <symbol id="wa" width="100%" height="100%" viewBox="0 0 20 20">
            <path d="M9.99461 0.00610832C4.47503 0.00727951 0.00146076 4.48276 0.00263194 10.0023C0.00302233 11.9136 0.551487 13.7846 1.58291 15.3937L0.0280075 19.428C-0.054795 19.6425 0.0520168 19.8836 0.266577 19.9664C0.314557 19.9849 0.365503 19.9944 0.416918 19.9943C0.464624 19.9946 0.511979 19.9864 0.556835 19.9702L4.72105 18.4835C9.40625 21.4015 15.5699 19.9689 18.4878 15.2837C21.4058 10.5984 19.9732 4.43486 15.288 1.51689C13.6998 0.527714 11.8657 0.00427347 9.99461 0.00610832Z" fill="currentColor"/>
            <path d="M14.7593 11.7076C14.7593 11.7076 13.7391 11.2079 13.1003 10.8748C12.3774 10.5025 11.5279 11.1996 11.1281 11.596C10.506 11.357 9.93772 10.9963 9.45663 10.535C8.99523 10.054 8.6345 9.48573 8.39558 8.86348C8.79203 8.46289 9.48744 7.61422 9.11684 6.89132C8.78785 6.2517 8.28401 5.23149 8.28401 5.23149C8.21331 5.09118 8.06968 5.0026 7.91255 5.00244H7.07972C5.86684 5.21193 4.98498 6.27021 4.99763 7.50096C4.99763 8.80851 6.56253 11.3204 7.61776 12.3764C8.673 13.4324 11.1848 14.9965 12.4932 14.9965C13.724 15.0092 14.7822 14.1273 14.9917 12.9144V12.0816C14.9918 11.9228 14.9017 11.7778 14.7593 11.7076Z" fill="#F7F7F7"/>
        </symbol>

        <symbol id="tg" width="100%" height="100%" viewBox="0 0 20 20">
            <path d="M7.8476 12.651L7.51677 17.3043C7.9901 17.3043 8.1951 17.101 8.44094 16.8568L10.6601 14.736L15.2584 18.1035C16.1018 18.5735 16.6959 18.326 16.9234 17.3277L19.9418 3.18434L19.9426 3.18351C20.2101 1.93684 19.4918 1.44934 18.6701 1.75518L0.928436 8.54768C-0.282398 9.01768 -0.264064 9.69268 0.722602 9.99851L5.25844 11.4093L15.7943 4.81684C16.2901 4.48851 16.7409 4.67018 16.3701 4.99851L7.8476 12.651Z" fill="currentColor"/>
        </symbol>

        <symbol id="user" width="100%" height="100%" viewBox="0 0 24 24">
            <path d="M12 11C14.2091 11 16 9.20914 16 7C16 4.79086 14.2091 3 12 3C9.79086 3 8 4.79086 8 7C8 9.20914 9.79086 11 12 11Z" fill="rgba(0, 0, 0, 0)" stroke="currentColor" stroke-width="2" stroke-linecap="round" stroke-linejoin="round"/>
            <path d="M6 21V19C6 17.9391 6.42143 16.9217 7.17157 16.1716C7.92172 15.4214 8.93913 15 10 15H14C15.0609 15 16.0783 15.4214 16.8284 16.1716C17.5786 16.9217 18 17.9391 18 19V21" stroke="currentColor" fill="rgba(0, 0, 0, 0)" stroke-width="2" stroke-linecap="round" stroke-linejoin="round"/>
        </symbol>

        <symbol id="lines" width="100%" height="100%" viewBox="0 0 13 12">
            <line x1="0.65" y1="1.35" x2="12.35" y2="1.35" stroke="currentColor" stroke-width="1.3" stroke-linecap="round"/>
            <line x1="0.65" y1="6.35" x2="12.35" y2="6.35" stroke="currentColor" stroke-width="1.3" stroke-linecap="round"/>
            <line x1="6.65" y1="11.35" x2="12.35" y2="11.35" stroke="currentColor" stroke-width="1.3" stroke-linecap="round"/>
        </symbol>

        <symbol id="search" width="100%" height="100%" viewBox="0 0 24 24">
            <path d="M21 21L15 15M17 10C17 13.866 13.866 17 10 17C6.13401 17 3 13.866 3 10C3 6.13401 6.13401 3 10 3C13.866 3 17 6.13401 17 10Z" fill="rgba(0, 0, 0, 0)" stroke="currentColor" stroke-width="2" stroke-linecap="round" stroke-linejoin="round"/>
        </symbol>

        <symbol id="like" width="100%" height="100%" viewBox="0 0 20 18">
            <path d="M2.31802 2.31802C0.56066 4.07538 0.56066 6.92462 2.31802 8.68198L10.0001 16.364L17.682 8.68198C19.4393 6.92462 19.4393 4.07538 17.682 2.31802C15.9246 0.56066 13.0754 0.56066 11.318 2.31802L10.0001 3.63609L8.68198 2.31802C6.92462 0.56066 4.07538 0.56066 2.31802 2.31802Z" stroke-width="2" stroke-linecap="round" stroke-linejoin="round"/>
        </symbol>

        <symbol id="basket" width="100%" height="100%" viewBox="0 0 24 24">
            <path d="M3 3H5L5.4 5M7 13H17L21 5H5.4M7 13L5.4 5M7 13L4.70711 15.2929C4.07714 15.9229 4.52331 17 5.41421 17H17M17 17C15.8954 17 15 17.8954 15 19C15 20.1046 15.8954 21 17 21C18.1046 21 19 20.1046 19 19C19 17.8954 18.1046 17 17 17ZM9 19C9 20.1046 8.10457 21 7 21C5.89543 21 5 20.1046 5 19C5 17.8954 5.89543 17 7 17C8.10457 17 9 17.8954 9 19Z" stroke="currentColor" stroke-width="2" stroke-linecap="round" stroke-linejoin="round" fill="rgba(0, 0, 0, 0)"/>
        </symbol>

        <symbol id="eye-visible" width="100%" height="100%" viewBox="0 0 24 24">
            <path fill-rule="evenodd" clip-rule="evenodd" d="M20.771 12C20.771 11.6412 20.5769 11.4056 20.1888 10.9343C18.7687 9.21014 15.6365 6 12.0007 6C8.36501 6 5.2328 9.21014 3.81271 10.9343C3.42455 11.4056 3.23047 11.6412 3.23047 12C3.23047 12.3588 3.42455 12.5944 3.81271 13.0657C5.2328 14.7899 8.36501 18 12.0007 18C15.6365 18 18.7687 14.7899 20.1888 13.0657C20.5769 12.5944 20.771 12.3588 20.771 12ZM12.0007 15C13.6576 15 15.0007 13.6569 15.0007 12C15.0007 10.3431 13.6576 9 12.0007 9C10.3439 9 9.00075 10.3431 9.00075 12C9.00075 13.6569 10.3439 15 12.0007 15Z" fill="currentColor"/>
        </symbol>

        <symbol id="eye-hidden" width="100%" height="100%" viewBox="0 0 24 24">
            <path fill-rule="evenodd" clip-rule="evenodd" d="M18.2378 15.1157C19.0491 14.3833 19.7144 13.6416 20.1888 13.0657C20.5769 12.5944 20.771 12.3588 20.771 12C20.771 11.6412 20.5769 11.4056 20.1888 10.9343C18.7687 9.21014 15.6365 6 12.0007 6C11.1613 6 10.3486 6.17115 9.57769 6.45563L12.1246 9.00251C13.6829 9.06577 14.935 10.3178 14.9982 11.8762L18.2378 15.1157ZM9.39381 10.5144C9.14368 10.9524 9.00074 11.4595 9.00074 12C9.00074 13.6569 10.3439 15 12.0007 15C12.5412 15 13.0484 14.8571 13.4863 14.6069L15.7879 16.9085C14.6368 17.5555 13.3536 18 12.0007 18C8.36501 18 5.2328 14.7899 3.81271 13.0657C3.42455 12.5944 3.23047 12.3588 3.23047 12C3.23047 11.6412 3.42455 11.4056 3.81271 10.9343C4.48614 10.1167 5.54458 8.96489 6.85916 7.97974L9.39381 10.5144Z" fill="currentColor"/>
            <path d="M5 2L21 18" stroke="currentColor" stroke-width="2"/>
        </symbol>
		
	</defs>
</svg>
