<svg width="54" height="54" viewBox="0 0 54 54" fill="none" xmlns="http://www.w3.org/2000/svg">
<path d="M51.2109 8.62484V45.0832C51.2109 48.2915 48.5859 50.9165 45.3776 50.9165H8.91927C7.46094 50.9165 6.0026 50.3332 4.83593 49.1665C3.66927 47.9999 3.08594 46.5415 3.08594 45.0832V8.62484C3.08594 5.4165 5.71094 2.7915 8.91927 2.7915H45.3776C48.5859 2.7915 51.2109 5.4165 51.2109 8.62484Z" stroke="#99A7B8" stroke-width="4.375" stroke-miterlimit="10" stroke-linecap="round" stroke-linejoin="round"/>
<path d="M32.543 50.9164H8.62631C7.16797 50.9164 5.70964 50.3331 4.54297 49.1664L13.5846 40.1248C15.918 37.7914 19.418 37.7914 21.7513 40.1248L23.2096 41.5831L32.543 50.9164Z" stroke="#99A7B8" stroke-width="4.375" stroke-miterlimit="10" stroke-linecap="round" stroke-linejoin="round"/>
<path d="M51.2122 36.3332V45.3749C51.2122 48.5833 48.5872 51.2083 45.3789 51.2083H32.8372L23.5039 41.8749L36.0456 29.3333C38.3789 26.9999 41.8789 26.9999 44.2123 29.3333L51.2122 36.3332Z" stroke="#99A7B8" stroke-width="4.375" stroke-miterlimit="10" stroke-linecap="round" stroke-linejoin="round"/>
<path d="M17.9622 19.9999C19.2509 19.9999 20.2956 18.9553 20.2956 17.6666C20.2956 16.3779 19.2509 15.3333 17.9622 15.3333C16.6736 15.3333 15.6289 16.3779 15.6289 17.6666C15.6289 18.9553 16.6736 19.9999 17.9622 19.9999Z" fill="#99A7B8"/>
</svg>
