<svg width="42" height="42" viewBox="0 0 42 42" fill="none" xmlns="http://www.w3.org/2000/svg">
<g filter="url(#filter0_iii_1985_9953)">
<rect x="2.4668" y="3.03516" width="36.5859" height="36.5859" rx="3.6" fill="url(#paint0_linear_1985_9953)"/>
<rect x="2.4668" y="3.03516" width="36.5859" height="36.5859" rx="3.6" fill="url(#paint1_radial_1985_9953)"/>
</g>
<g filter="url(#filter1_f_1985_9953)">
<path d="M36.8379 6.31641V36.3398" stroke="url(#paint2_linear_1985_9953)" stroke-width="1.5" stroke-linecap="round"/>
</g>
<g filter="url(#filter2_f_1985_9953)">
<path d="M7.01318 5.41406H35.6011" stroke="url(#paint3_linear_1985_9953)" stroke-width="1.5" stroke-linecap="round"/>
</g>
<path fill-rule="evenodd" clip-rule="evenodd" d="M11.2549 22.9373H10.0475C8.16402 22.9373 9.53239 18.8951 11.1181 18.8951H13.0257C13.3316 18.8951 13.8709 18.952 14.1365 18.1875L14.547 17H11.931C10.5144 17 9.41164 17.5043 8.61478 18.3501C7.23836 19.7979 6.77151 22.0589 7.10153 23.1407C7.41545 24.1411 8.26866 24.7999 9.60482 24.8161L10.6432 24.8243H11.923L12.2369 23.8727C12.4703 23.1976 11.9471 22.9373 11.2549 22.9373ZM25.9528 21.2619L26.3471 19.9687H22.1374C21.4372 19.9687 21.1232 20.1639 21.0025 20.5705L20.6081 21.8637H24.8178C25.5181 21.8637 25.832 21.6685 25.9528 21.2619ZM19.9802 23.5392L19.5858 24.8324H23.7956C24.4878 24.8324 24.8098 24.6372 24.9305 24.2305L25.3249 22.9373H21.1152C20.423 22.9373 20.109 23.1325 19.9802 23.5392ZM26.9347 18.3013L27.3292 17.0081H23.1194C22.4192 17.0081 22.1052 17.2033 21.9845 17.61L21.5901 18.9032H25.7998C26.4921 18.9032 26.8059 18.708 26.9347 18.3013ZM20.5759 18.5616C20.3988 17.3579 19.7629 17.0081 18.2175 17.0081H15.4003L13.7582 21.8637H14.7966C15.4163 21.8637 15.7303 21.8719 16.0603 20.9772L16.7445 18.8951H17.7909C18.6843 18.8951 18.4831 20.0256 18.0323 21.1236C17.6299 22.0915 16.9296 22.9455 16.0844 22.9455H14.3378C13.6375 22.9455 13.3155 23.1407 13.1867 23.5473L12.7521 24.8405H14.0319L15.2876 24.8324C16.3984 24.8243 17.3079 24.7429 18.3704 23.7751C19.4973 22.7421 20.8013 20.0907 20.5759 18.5616ZM34.7265 17H32.2876L29.9935 19.4644C29.7278 19.7491 29.4542 20.0337 29.1884 20.3672H29.1643L30.3073 17H28.3193L25.6388 24.8324H27.627L28.4801 22.368L29.3655 21.6116L30.0659 23.8401C30.2831 24.5315 30.5087 24.8324 30.9916 24.8324H32.5129L30.9513 20.4567L34.7265 17Z" fill="white"/>
<defs>
<filter id="filter0_iii_1985_9953" x="1.9668" y="2.03516" width="39.0859" height="38.0859" filterUnits="userSpaceOnUse" color-interpolation-filters="sRGB">
<feFlood flood-opacity="0" result="BackgroundImageFix"/>
<feBlend mode="normal" in="SourceGraphic" in2="BackgroundImageFix" result="shape"/>
<feColorMatrix in="SourceAlpha" type="matrix" values="0 0 0 0 0 0 0 0 0 0 0 0 0 0 0 0 0 0 127 0" result="hardAlpha"/>
<feOffset dx="2" dy="-1"/>
<feGaussianBlur stdDeviation="1.5"/>
<feComposite in2="hardAlpha" operator="arithmetic" k2="-1" k3="1"/>
<feColorMatrix type="matrix" values="0 0 0 0 0.176471 0 0 0 0 0.521569 0 0 0 0 0.309804 0 0 0 1 0"/>
<feBlend mode="normal" in2="shape" result="effect1_innerShadow_1985_9953"/>
<feColorMatrix in="SourceAlpha" type="matrix" values="0 0 0 0 0 0 0 0 0 0 0 0 0 0 0 0 0 0 127 0" result="hardAlpha"/>
<feOffset dy="-1"/>
<feGaussianBlur stdDeviation="1.5"/>
<feComposite in2="hardAlpha" operator="arithmetic" k2="-1" k3="1"/>
<feColorMatrix type="matrix" values="0 0 0 0 0.25098 0 0 0 0 0.490196 0 0 0 0 0.462745 0 0 0 1 0"/>
<feBlend mode="normal" in2="effect1_innerShadow_1985_9953" result="effect2_innerShadow_1985_9953"/>
<feColorMatrix in="SourceAlpha" type="matrix" values="0 0 0 0 0 0 0 0 0 0 0 0 0 0 0 0 0 0 127 0" result="hardAlpha"/>
<feOffset dx="-0.5" dy="0.5"/>
<feGaussianBlur stdDeviation="0.5"/>
<feComposite in2="hardAlpha" operator="arithmetic" k2="-1" k3="1"/>
<feColorMatrix type="matrix" values="0 0 0 0 0.356863 0 0 0 0 0.905882 0 0 0 0 0.560784 0 0 0 1 0"/>
<feBlend mode="normal" in2="effect2_innerShadow_1985_9953" result="effect3_innerShadow_1985_9953"/>
</filter>
<filter id="filter1_f_1985_9953" x="34.0879" y="3.56641" width="5.5" height="35.5234" filterUnits="userSpaceOnUse" color-interpolation-filters="sRGB">
<feFlood flood-opacity="0" result="BackgroundImageFix"/>
<feBlend mode="normal" in="SourceGraphic" in2="BackgroundImageFix" result="shape"/>
<feGaussianBlur stdDeviation="1" result="effect1_foregroundBlur_1985_9953"/>
</filter>
<filter id="filter2_f_1985_9953" x="4.26318" y="2.66406" width="34.0879" height="5.5" filterUnits="userSpaceOnUse" color-interpolation-filters="sRGB">
<feFlood flood-opacity="0" result="BackgroundImageFix"/>
<feBlend mode="normal" in="SourceGraphic" in2="BackgroundImageFix" result="shape"/>
<feGaussianBlur stdDeviation="1" result="effect1_foregroundBlur_1985_9953"/>
</filter>
<linearGradient id="paint0_linear_1985_9953" x1="20.7598" y1="7.7267" x2="20.7598" y2="51.3708" gradientUnits="userSpaceOnUse">
<stop stop-color="#5AD98F"/>
<stop offset="1" stop-color="#51C685"/>
</linearGradient>
<radialGradient id="paint1_radial_1985_9953" cx="0" cy="0" r="1" gradientUnits="userSpaceOnUse" gradientTransform="translate(36.1406 5.7832) rotate(136.771) scale(2.81458 3.28736)">
<stop stop-color="#80FFB3"/>
<stop offset="1" stop-color="#80FFB3" stop-opacity="0"/>
</radialGradient>
<linearGradient id="paint2_linear_1985_9953" x1="37.3379" y1="6.31641" x2="37.3379" y2="36.3398" gradientUnits="userSpaceOnUse">
<stop stop-color="#74FCA8"/>
<stop offset="1" stop-color="#61DB90"/>
</linearGradient>
<linearGradient id="paint3_linear_1985_9953" x1="37.1187" y1="5.66408" x2="3.60889" y2="5.66408" gradientUnits="userSpaceOnUse">
<stop stop-color="#66F39D"/>
<stop offset="1" stop-color="#60E496"/>
</linearGradient>
</defs>
</svg>
