<svg width="42" height="42" viewBox="0 0 42 42" fill="none" xmlns="http://www.w3.org/2000/svg">
<path d="M2.62646 11.0878C2.62646 7.60845 5.44707 4.78784 8.92646 4.78784H32.6262C36.1056 4.78784 38.9262 7.60845 38.9262 11.0878V34.2575C38.9262 37.012 36.6933 39.245 33.9387 39.245H7.61396C4.85944 39.245 2.62646 37.012 2.62646 34.2575V11.0878Z" fill="#477FF4"/>
<path d="M2.62646 11.0878C2.62646 7.60845 5.44707 4.78784 8.92646 4.78784H32.6262C36.1056 4.78784 38.9262 7.60845 38.9262 11.0878V34.2575C38.9262 37.012 36.6933 39.245 33.9387 39.245H7.61396C4.85944 39.245 2.62646 37.012 2.62646 34.2575V11.0878Z" fill="url(#paint0_linear_88_276)"/>
<path d="M2.62646 11.0878C2.62646 7.60845 5.44707 4.78784 8.92646 4.78784H32.6262C36.1056 4.78784 38.9262 7.60845 38.9262 11.0878V34.2575C38.9262 37.012 36.6933 39.245 33.9387 39.245H7.61396C4.85944 39.245 2.62646 37.012 2.62646 34.2575V11.0878Z" fill="url(#paint1_linear_88_276)"/>
<path d="M2.62646 11.0878C2.62646 7.60845 5.44707 4.78784 8.92646 4.78784H32.6262C36.1056 4.78784 38.9262 7.60845 38.9262 11.0878V34.2575C38.9262 37.012 36.6933 39.245 33.9387 39.245H7.61396C4.85944 39.245 2.62646 37.012 2.62646 34.2575V11.0878Z" fill="url(#paint2_linear_88_276)"/>
<path d="M2.62646 11.0878C2.62646 7.60845 5.44707 4.78784 8.92646 4.78784H32.6262C36.1056 4.78784 38.9262 7.60845 38.9262 11.0878V34.2575C38.9262 37.012 36.6933 39.245 33.9387 39.245H7.61396C4.85944 39.245 2.62646 37.012 2.62646 34.2575V11.0878Z" fill="url(#paint3_radial_88_276)"/>
<g filter="url(#filter0_f_88_276)">
<path d="M13.8561 15.488L9.77726 6.16647C9.41685 5.34282 10.0404 4.42969 10.9633 4.42969H11.2193C11.727 4.42969 12.2143 4.62336 12.5758 4.96884L20.8015 12.8287C20.9491 12.9697 20.9229 13.2072 20.7479 13.3148L16.1074 16.1683C15.3012 16.664 14.229 16.3399 13.8561 15.488Z" fill="#3453D2"/>
</g>
<g filter="url(#filter1_f_88_276)">
<path d="M27.5718 15.488L31.6507 6.16647C32.0111 5.34282 31.3876 4.42969 30.4647 4.42969H30.2086C29.701 4.42969 29.2137 4.62336 28.8522 4.96884L20.6265 12.8287C20.4789 12.9697 20.5051 13.2072 20.68 13.3148L25.3206 16.1683C26.1267 16.664 27.199 16.3399 27.5718 15.488Z" fill="#3453D2"/>
</g>
<path d="M5.65405 38.8451V5.70343C6.0873 5.43955 6.5549 5.22648 7.04858 5.07251V39.2133C6.55874 39.158 6.09039 39.0317 5.65405 38.8451Z" fill="url(#paint4_linear_88_276)"/>
<path d="M10.863 39.245V4.78784H12.2576V39.245H10.863Z" fill="url(#paint5_linear_88_276)"/>
<path d="M29.3201 39.245V4.78784H30.7146V39.245H29.3201Z" fill="url(#paint6_linear_88_276)"/>
<path d="M34.8777 39.1567V5.2019C35.376 5.39263 35.844 5.64483 36.2722 5.94922V38.6666C35.841 38.8952 35.3723 39.0625 34.8777 39.1567Z" fill="url(#paint7_linear_88_276)"/>
<path d="M16.1929 39.245V4.78784H25.3599V39.245H16.1929Z" fill="url(#paint8_linear_88_276)"/>
<path d="M16.1929 39.245V4.78784H25.3599V39.245H16.1929Z" fill="url(#paint9_linear_88_276)"/>
<path d="M16.1929 39.245V4.78784H20.5303V39.245H16.1929Z" fill="url(#paint10_radial_88_276)"/>
<path d="M20.8577 14.2595L10.6448 2.79565H31.1731L20.8577 14.2595Z" fill="url(#paint11_linear_88_276)"/>
<path d="M20.8577 14.2595L10.6448 2.79565H31.1731L20.8577 14.2595Z" fill="url(#paint12_linear_88_276)"/>
<path d="M13.8633 39.2449L18.7852 16.6064L22.7637 15.6614L27.9316 39.2449H13.8633Z" fill="url(#paint13_linear_88_276)"/>
<path d="M13.8633 39.2449L18.7852 16.6064L22.7637 15.6614L27.9316 39.2449H13.8633Z" fill="url(#paint14_linear_88_276)"/>
<path d="M13.8633 39.2449L18.7852 16.6064L22.7637 15.6614L27.9316 39.2449H13.8633Z" fill="url(#paint15_radial_88_276)"/>
<path d="M13.8633 39.2449L18.7852 16.6064L22.7637 15.6614L27.9316 39.2449H13.8633Z" fill="url(#paint16_linear_88_276)"/>
<g filter="url(#filter2_i_88_276)">
<path d="M18.0943 16.5474L16.6729 14.2053L18.6006 11.5803L20.8872 11.8601L21.6973 11.5803L25.3271 13.8567L23.6412 16.5608C23.4015 16.9453 22.9805 17.179 22.5275 17.179H19.2163C18.7576 17.179 18.3322 16.9395 18.0943 16.5474Z" fill="url(#paint17_linear_88_276)"/>
<path d="M18.0943 16.5474L16.6729 14.2053L18.6006 11.5803L20.8872 11.8601L21.6973 11.5803L25.3271 13.8567L23.6412 16.5608C23.4015 16.9453 22.9805 17.179 22.5275 17.179H19.2163C18.7576 17.179 18.3322 16.9395 18.0943 16.5474Z" fill="url(#paint18_radial_88_276)"/>
<path d="M18.0943 16.5474L16.6729 14.2053L18.6006 11.5803L20.8872 11.8601L21.6973 11.5803L25.3271 13.8567L23.6412 16.5608C23.4015 16.9453 22.9805 17.179 22.5275 17.179H19.2163C18.7576 17.179 18.3322 16.9395 18.0943 16.5474Z" fill="url(#paint19_radial_88_276)"/>
</g>
<path d="M13.7238 14.4161L9.56827 4.62074C9.20109 3.75521 9.83635 2.79565 10.7765 2.79565H11.0374C11.5546 2.79565 12.051 2.99917 12.4194 3.36222L20.7996 11.6217C20.95 11.7698 20.9233 12.0194 20.745 12.1324L16.0173 15.1311C15.196 15.652 14.1036 15.3114 13.7238 14.4161Z" fill="url(#paint20_linear_88_276)"/>
<path d="M13.7238 14.4161L9.56827 4.62074C9.20109 3.75521 9.83635 2.79565 10.7765 2.79565H11.0374C11.5546 2.79565 12.051 2.99917 12.4194 3.36222L20.7996 11.6217C20.95 11.7698 20.9233 12.0194 20.745 12.1324L16.0173 15.1311C15.196 15.652 14.1036 15.3114 13.7238 14.4161Z" fill="url(#paint21_linear_88_276)"/>
<path d="M13.7238 14.4161L9.56827 4.62074C9.20109 3.75521 9.83635 2.79565 10.7765 2.79565H11.0374C11.5546 2.79565 12.051 2.99917 12.4194 3.36222L20.7996 11.6217C20.95 11.7698 20.9233 12.0194 20.745 12.1324L16.0173 15.1311C15.196 15.652 14.1036 15.3114 13.7238 14.4161Z" fill="url(#paint22_linear_88_276)"/>
<path d="M13.7238 14.4161L9.56827 4.62074C9.20109 3.75521 9.83635 2.79565 10.7765 2.79565H11.0374C11.5546 2.79565 12.051 2.99917 12.4194 3.36222L20.7996 11.6217C20.95 11.7698 20.9233 12.0194 20.745 12.1324L16.0173 15.1311C15.196 15.652 14.1036 15.3114 13.7238 14.4161Z" fill="url(#paint23_linear_88_276)"/>
<path d="M13.7238 14.4161L9.56827 4.62074C9.20109 3.75521 9.83635 2.79565 10.7765 2.79565H11.0374C11.5546 2.79565 12.051 2.99917 12.4194 3.36222L20.7996 11.6217C20.95 11.7698 20.9233 12.0194 20.745 12.1324L16.0173 15.1311C15.196 15.652 14.1036 15.3114 13.7238 14.4161Z" fill="url(#paint24_linear_88_276)"/>
<path d="M13.7238 14.4161L9.56827 4.62074C9.20109 3.75521 9.83635 2.79565 10.7765 2.79565H11.0374C11.5546 2.79565 12.051 2.99917 12.4194 3.36222L20.7996 11.6217C20.95 11.7698 20.9233 12.0194 20.745 12.1324L16.0173 15.1311C15.196 15.652 14.1036 15.3114 13.7238 14.4161Z" fill="url(#paint25_linear_88_276)"/>
<path d="M28.0711 14.4161L32.2266 4.62074C32.5938 3.75521 31.9586 2.79565 31.0184 2.79565H30.7575C30.2403 2.79565 29.7439 2.99917 29.3755 3.36222L20.9953 11.6217C20.845 11.7698 20.8716 12.0194 21.0499 12.1324L25.7776 15.1311C26.5989 15.652 27.6913 15.3114 28.0711 14.4161Z" fill="url(#paint26_linear_88_276)"/>
<path d="M28.0711 14.4161L32.2266 4.62074C32.5938 3.75521 31.9586 2.79565 31.0184 2.79565H30.7575C30.2403 2.79565 29.7439 2.99917 29.3755 3.36222L20.9953 11.6217C20.845 11.7698 20.8716 12.0194 21.0499 12.1324L25.7776 15.1311C26.5989 15.652 27.6913 15.3114 28.0711 14.4161Z" fill="url(#paint27_linear_88_276)"/>
<path d="M28.0711 14.4161L32.2266 4.62074C32.5938 3.75521 31.9586 2.79565 31.0184 2.79565H30.7575C30.2403 2.79565 29.7439 2.99917 29.3755 3.36222L20.9953 11.6217C20.845 11.7698 20.8716 12.0194 21.0499 12.1324L25.7776 15.1311C26.5989 15.652 27.6913 15.3114 28.0711 14.4161Z" fill="url(#paint28_linear_88_276)"/>
<defs>
<filter id="filter0_f_88_276" x="8.87358" y="3.62969" width="12.8239" height="13.5722" filterUnits="userSpaceOnUse" color-interpolation-filters="sRGB">
<feFlood flood-opacity="0" result="BackgroundImageFix"/>
<feBlend mode="normal" in="SourceGraphic" in2="BackgroundImageFix" result="shape"/>
<feGaussianBlur stdDeviation="0.4" result="effect1_foregroundBlur_88_276"/>
</filter>
<filter id="filter1_f_88_276" x="19.7305" y="3.62969" width="12.8239" height="13.5722" filterUnits="userSpaceOnUse" color-interpolation-filters="sRGB">
<feFlood flood-opacity="0" result="BackgroundImageFix"/>
<feBlend mode="normal" in="SourceGraphic" in2="BackgroundImageFix" result="shape"/>
<feGaussianBlur stdDeviation="0.4" result="effect1_foregroundBlur_88_276"/>
</filter>
<filter id="filter2_i_88_276" x="16.6729" y="11.5803" width="9.0543" height="5.59863" filterUnits="userSpaceOnUse" color-interpolation-filters="sRGB">
<feFlood flood-opacity="0" result="BackgroundImageFix"/>
<feBlend mode="normal" in="SourceGraphic" in2="BackgroundImageFix" result="shape"/>
<feColorMatrix in="SourceAlpha" type="matrix" values="0 0 0 0 0 0 0 0 0 0 0 0 0 0 0 0 0 0 127 0" result="hardAlpha"/>
<feOffset dx="0.4"/>
<feGaussianBlur stdDeviation="0.4"/>
<feComposite in2="hardAlpha" operator="arithmetic" k2="-1" k3="1"/>
<feColorMatrix type="matrix" values="0 0 0 0 0.160784 0 0 0 0 0.133333 0 0 0 0 0.4 0 0 0 1 0"/>
<feBlend mode="normal" in2="shape" result="effect1_innerShadow_88_276"/>
</filter>
<linearGradient id="paint0_linear_88_276" x1="25.6285" y1="39.245" x2="25.6285" y2="34.4532" gradientUnits="userSpaceOnUse">
<stop offset="0.178281" stop-color="#5562F6"/>
<stop offset="1" stop-color="#5562F6" stop-opacity="0"/>
</linearGradient>
<linearGradient id="paint1_linear_88_276" x1="39.7379" y1="27.9727" x2="32.7652" y2="27.9727" gradientUnits="userSpaceOnUse">
<stop stop-color="#6AA9FF"/>
<stop offset="1" stop-color="#6AA9FF" stop-opacity="0"/>
</linearGradient>
<linearGradient id="paint2_linear_88_276" x1="2.62646" y1="24.6094" x2="7.2535" y2="24.6094" gradientUnits="userSpaceOnUse">
<stop stop-color="#4C76BF"/>
<stop offset="1" stop-color="#4C76BF" stop-opacity="0"/>
</linearGradient>
<radialGradient id="paint3_radial_88_276" cx="0" cy="0" r="1" gradientUnits="userSpaceOnUse" gradientTransform="translate(20.7764 29.6133) rotate(-90) scale(25.9219 67.3199)">
<stop offset="0.803798" stop-color="#529EF8" stop-opacity="0"/>
<stop offset="1" stop-color="#529EF8"/>
</radialGradient>
<linearGradient id="paint4_linear_88_276" x1="6.35132" y1="5.07251" x2="6.35132" y2="39.2133" gradientUnits="userSpaceOnUse">
<stop stop-color="#51D8F2"/>
<stop offset="0.195016" stop-color="#35BFFF"/>
<stop offset="0.860574" stop-color="#35BFFF"/>
<stop offset="1" stop-color="#4A96FF"/>
</linearGradient>
<linearGradient id="paint5_linear_88_276" x1="12.7087" y1="6.6446" x2="11.5603" y2="39.245" gradientUnits="userSpaceOnUse">
<stop offset="0.03152" stop-color="#2E8DF9"/>
<stop offset="0.200742" stop-color="#35BFFF"/>
<stop offset="0.82149" stop-color="#41CEFF"/>
<stop offset="1" stop-color="#629BFF"/>
</linearGradient>
<linearGradient id="paint6_linear_88_276" x1="31.1658" y1="6.6446" x2="30.0173" y2="39.245" gradientUnits="userSpaceOnUse">
<stop stop-color="#40D1FF"/>
<stop offset="0.200742" stop-color="#41D7FF"/>
<stop offset="0.82149" stop-color="#42D5FF"/>
<stop offset="1" stop-color="#429AFF"/>
</linearGradient>
<linearGradient id="paint7_linear_88_276" x1="35.575" y1="5.2019" x2="35.575" y2="39.1567" gradientUnits="userSpaceOnUse">
<stop stop-color="#59FFFF"/>
<stop offset="0.195016" stop-color="#4DEDFF"/>
<stop offset="0.832484" stop-color="#4FECFF"/>
<stop offset="1" stop-color="#49ABFF"/>
</linearGradient>
<linearGradient id="paint8_linear_88_276" x1="17.5074" y1="20.0977" x2="25.3599" y2="20.0977" gradientUnits="userSpaceOnUse">
<stop stop-color="#3DBCFF"/>
<stop offset="1" stop-color="#40D1FF"/>
</linearGradient>
<linearGradient id="paint9_linear_88_276" x1="25.3599" y1="13.8223" x2="23.6187" y2="16.9395" gradientUnits="userSpaceOnUse">
<stop offset="0.22822" stop-color="#2B8AFD"/>
<stop offset="1" stop-color="#2B8AFD" stop-opacity="0"/>
</linearGradient>
<radialGradient id="paint10_radial_88_276" cx="0" cy="0" r="1" gradientUnits="userSpaceOnUse" gradientTransform="translate(16.1929 18.7032) scale(2.58603 12.7148)">
<stop stop-color="#297FF4" stop-opacity="0"/>
<stop offset="1" stop-color="#297FF4"/>
</radialGradient>
<linearGradient id="paint11_linear_88_276" x1="20.9089" y1="2.79565" x2="20.9089" y2="12.3685" gradientUnits="userSpaceOnUse">
<stop stop-color="#CBCBCC"/>
<stop offset="0.399815" stop-color="#CECBD2"/>
<stop offset="1" stop-color="#9C8AAD"/>
</linearGradient>
<linearGradient id="paint12_linear_88_276" x1="23.8905" y1="9.30544" x2="23.2086" y2="8.52759" gradientUnits="userSpaceOnUse">
<stop offset="0.196951" stop-color="#9B8AAC"/>
<stop offset="1" stop-color="#B1A4BD" stop-opacity="0"/>
</linearGradient>
<linearGradient id="paint13_linear_88_276" x1="20.8975" y1="15.6614" x2="20.8975" y2="37.6903" gradientUnits="userSpaceOnUse">
<stop stop-color="#332C70"/>
<stop offset="1" stop-color="#501069"/>
</linearGradient>
<linearGradient id="paint14_linear_88_276" x1="15.6328" y1="28.6633" x2="17.6192" y2="29.1497" gradientUnits="userSpaceOnUse">
<stop stop-color="#142C63"/>
<stop offset="1" stop-color="#381D62" stop-opacity="0"/>
</linearGradient>
<radialGradient id="paint15_radial_88_276" cx="0" cy="0" r="1" gradientUnits="userSpaceOnUse" gradientTransform="translate(23.6145 18.2279) rotate(77.5695) scale(21.0643 3.42894)">
<stop stop-color="#40457D"/>
<stop offset="1" stop-color="#40457D" stop-opacity="0"/>
</radialGradient>
<linearGradient id="paint16_linear_88_276" x1="23.9264" y1="20.5488" x2="23.2702" y2="20.7334" gradientUnits="userSpaceOnUse">
<stop stop-color="#1B3D78"/>
<stop offset="1" stop-color="#1B3D78" stop-opacity="0"/>
</linearGradient>
<linearGradient id="paint17_linear_88_276" x1="21" y1="11.5803" x2="21" y2="17.179" gradientUnits="userSpaceOnUse">
<stop offset="0.114726" stop-color="#362865"/>
<stop offset="1" stop-color="#461368"/>
</linearGradient>
<radialGradient id="paint18_radial_88_276" cx="0" cy="0" r="1" gradientUnits="userSpaceOnUse" gradientTransform="translate(23.0036 12.9609) rotate(120.964) scale(2.86992 4.43629)">
<stop offset="0.117574" stop-color="#4B3D74"/>
<stop offset="1" stop-color="#4B3D74" stop-opacity="0"/>
</radialGradient>
<radialGradient id="paint19_radial_88_276" cx="0" cy="0" r="1" gradientUnits="userSpaceOnUse" gradientTransform="translate(23.3317 12.9199) rotate(124.186) scale(1.31394 5.40556)">
<stop offset="0.255785" stop-color="#291A5D"/>
<stop offset="1" stop-color="#291A5D" stop-opacity="0"/>
</radialGradient>
<linearGradient id="paint20_linear_88_276" x1="16.8593" y1="8.02192" x2="14.1614" y2="12.0687" gradientUnits="userSpaceOnUse">
<stop offset="0.0341881" stop-color="#E1DEE5"/>
<stop offset="1" stop-color="#CAAEE6"/>
</linearGradient>
<linearGradient id="paint21_linear_88_276" x1="11.9132" y1="12.0687" x2="14.1114" y2="10.7198" gradientUnits="userSpaceOnUse">
<stop stop-color="#9F8CC4"/>
<stop offset="1" stop-color="#BFA4DB" stop-opacity="0"/>
</linearGradient>
<linearGradient id="paint22_linear_88_276" x1="17.259" y1="14.7166" x2="16.3597" y2="13.1179" gradientUnits="userSpaceOnUse">
<stop stop-color="#B688EA"/>
<stop offset="1" stop-color="#C8A6EA" stop-opacity="0"/>
</linearGradient>
<linearGradient id="paint23_linear_88_276" x1="16.8593" y1="8.02192" x2="14.1614" y2="12.0687" gradientUnits="userSpaceOnUse">
<stop offset="0.0341881" stop-color="#E1DEE5"/>
<stop offset="1" stop-color="#CAAEE6"/>
</linearGradient>
<linearGradient id="paint24_linear_88_276" x1="11.9132" y1="12.0687" x2="14.1114" y2="10.7198" gradientUnits="userSpaceOnUse">
<stop stop-color="#9F8CC4"/>
<stop offset="1" stop-color="#BFA4DB" stop-opacity="0"/>
</linearGradient>
<linearGradient id="paint25_linear_88_276" x1="17.259" y1="14.7166" x2="16.3597" y2="13.1179" gradientUnits="userSpaceOnUse">
<stop stop-color="#B688EA"/>
<stop offset="1" stop-color="#C8A6EA" stop-opacity="0"/>
</linearGradient>
<linearGradient id="paint26_linear_88_276" x1="30.8983" y1="9.72058" x2="22.8546" y2="9.08611" gradientUnits="userSpaceOnUse">
<stop stop-color="#F6F2FC"/>
<stop offset="1" stop-color="#CAAEE6"/>
</linearGradient>
<linearGradient id="paint27_linear_88_276" x1="24.3035" y1="7.62224" x2="25.8023" y2="9.08611" gradientUnits="userSpaceOnUse">
<stop stop-color="#C6C3C9"/>
<stop offset="1" stop-color="#D8D0E2" stop-opacity="0"/>
</linearGradient>
<linearGradient id="paint28_linear_88_276" x1="24.536" y1="14.7166" x2="25.4353" y2="13.1179" gradientUnits="userSpaceOnUse">
<stop stop-color="#B688EA"/>
<stop offset="1" stop-color="#C8A6EA" stop-opacity="0"/>
</linearGradient>
</defs>
</svg>
