<svg width="42" height="42" viewBox="0 0 42 42" fill="none" xmlns="http://www.w3.org/2000/svg">
<g filter="url(#filter0_i_74_215)">
<path d="M32.8125 8.40015V5.1189H9.1875V8.40015C9.1875 13.6501 12.8625 17.9814 17.7188 19.1626C18.1125 19.2939 18.375 19.6876 18.375 20.0814V21.6564C18.375 22.0501 18.1125 22.4439 17.7188 22.4439C12.8625 23.6251 9.1875 27.9564 9.1875 33.2064V36.7502H32.8125V33.2064C32.8125 27.9564 29.1375 23.6251 24.2812 22.4439C23.8875 22.3126 23.625 22.0501 23.625 21.6564V20.0814C23.625 19.6876 23.8875 19.2939 24.2812 19.2939C29.1375 17.9814 32.8125 13.6501 32.8125 8.40015Z" fill="#9FD6FF"/>
<path d="M32.8125 8.40015V5.1189H9.1875V8.40015C9.1875 13.6501 12.8625 17.9814 17.7188 19.1626C18.1125 19.2939 18.375 19.6876 18.375 20.0814V21.6564C18.375 22.0501 18.1125 22.4439 17.7188 22.4439C12.8625 23.6251 9.1875 27.9564 9.1875 33.2064V36.7502H32.8125V33.2064C32.8125 27.9564 29.1375 23.6251 24.2812 22.4439C23.8875 22.3126 23.625 22.0501 23.625 21.6564V20.0814C23.625 19.6876 23.8875 19.2939 24.2812 19.2939C29.1375 17.9814 32.8125 13.6501 32.8125 8.40015Z" fill="url(#paint0_radial_74_215)"/>
<path d="M32.8125 8.40015V5.1189H9.1875V8.40015C9.1875 13.6501 12.8625 17.9814 17.7188 19.1626C18.1125 19.2939 18.375 19.6876 18.375 20.0814V21.6564C18.375 22.0501 18.1125 22.4439 17.7188 22.4439C12.8625 23.6251 9.1875 27.9564 9.1875 33.2064V36.7502H32.8125V33.2064C32.8125 27.9564 29.1375 23.6251 24.2812 22.4439C23.8875 22.3126 23.625 22.0501 23.625 21.6564V20.0814C23.625 19.6876 23.8875 19.2939 24.2812 19.2939C29.1375 17.9814 32.8125 13.6501 32.8125 8.40015Z" fill="url(#paint1_radial_74_215)"/>
</g>
<path d="M32.8125 5.25H9.1875C8.4 5.25 7.875 4.725 7.875 3.9375C7.875 3.15 8.4 2.625 9.1875 2.625H32.8125C33.6 2.625 34.125 3.15 34.125 3.9375C34.125 4.725 33.6 5.25 32.8125 5.25Z" fill="url(#paint2_radial_74_215)"/>
<path d="M32.8125 5.25H9.1875C8.4 5.25 7.875 4.725 7.875 3.9375C7.875 3.15 8.4 2.625 9.1875 2.625H32.8125C33.6 2.625 34.125 3.15 34.125 3.9375C34.125 4.725 33.6 5.25 32.8125 5.25Z" fill="url(#paint3_linear_74_215)"/>
<path d="M32.8125 5.25H9.1875C8.4 5.25 7.875 4.725 7.875 3.9375C7.875 3.15 8.4 2.625 9.1875 2.625H32.8125C33.6 2.625 34.125 3.15 34.125 3.9375C34.125 4.725 33.6 5.25 32.8125 5.25Z" fill="url(#paint4_linear_74_215)"/>
<path d="M32.8125 39.375H9.1875C8.4 39.375 7.875 38.85 7.875 38.0625C7.875 37.275 8.4 36.75 9.1875 36.75H32.8125C33.6 36.75 34.125 37.275 34.125 38.0625C34.125 38.85 33.6 39.375 32.8125 39.375Z" fill="url(#paint5_radial_74_215)"/>
<path d="M32.8125 39.375H9.1875C8.4 39.375 7.875 38.85 7.875 38.0625C7.875 37.275 8.4 36.75 9.1875 36.75H32.8125C33.6 36.75 34.125 37.275 34.125 38.0625C34.125 38.85 33.6 39.375 32.8125 39.375Z" fill="url(#paint6_linear_74_215)"/>
<path d="M32.8125 39.375H9.1875C8.4 39.375 7.875 38.85 7.875 38.0625C7.875 37.275 8.4 36.75 9.1875 36.75H32.8125C33.6 36.75 34.125 37.275 34.125 38.0625C34.125 38.85 33.6 39.375 32.8125 39.375Z" fill="url(#paint7_linear_74_215)"/>
<path d="M29.3999 35.1751C28.7437 35.1751 28.2187 34.6501 28.2187 33.9938C27.9562 31.5001 26.6437 28.0876 23.4937 26.9063C22.8374 26.6438 22.5749 25.9876 22.8374 25.3313C23.0999 24.6751 23.7562 24.4126 24.4124 24.6751C26.2499 25.3313 27.8249 26.6438 28.8749 28.4813C29.9249 30.0563 30.4499 31.8938 30.5812 33.9938C30.7124 34.5188 30.1874 35.1751 29.3999 35.1751Z" fill="url(#paint8_linear_74_215)"/>
<g filter="url(#filter1_i_74_215)">
<path d="M22.3126 29.1375V19.425C22.3126 18.7688 22.7063 18.2438 23.3626 18.1125C27.5626 17.1938 30.7126 13.7812 31.3688 9.45C31.5001 8.6625 30.8438 7.875 30.0563 7.875H11.9438C11.1563 7.875 10.5001 8.6625 10.6313 9.45C11.2876 13.7812 14.4376 17.1938 18.6376 18.1125C19.2938 18.2438 19.6876 18.7688 19.6876 19.425C19.6876 21.6562 19.6876 26.9062 19.6876 29.1375C19.6876 29.7938 19.2938 30.3188 18.6376 30.45C16.1438 30.975 14.0438 32.4188 12.6001 34.3875C11.8126 35.4375 12.6001 36.75 13.7813 36.75H28.2188C29.4001 36.75 30.1876 35.4375 29.4001 34.5187C27.9563 32.55 25.7251 31.1062 23.3626 30.5812C22.7063 30.3187 22.3126 29.7938 22.3126 29.1375Z" fill="url(#paint9_radial_74_215)"/>
<path d="M22.3126 29.1375V19.425C22.3126 18.7688 22.7063 18.2438 23.3626 18.1125C27.5626 17.1938 30.7126 13.7812 31.3688 9.45C31.5001 8.6625 30.8438 7.875 30.0563 7.875H11.9438C11.1563 7.875 10.5001 8.6625 10.6313 9.45C11.2876 13.7812 14.4376 17.1938 18.6376 18.1125C19.2938 18.2438 19.6876 18.7688 19.6876 19.425C19.6876 21.6562 19.6876 26.9062 19.6876 29.1375C19.6876 29.7938 19.2938 30.3188 18.6376 30.45C16.1438 30.975 14.0438 32.4188 12.6001 34.3875C11.8126 35.4375 12.6001 36.75 13.7813 36.75H28.2188C29.4001 36.75 30.1876 35.4375 29.4001 34.5187C27.9563 32.55 25.7251 31.1062 23.3626 30.5812C22.7063 30.3187 22.3126 29.7938 22.3126 29.1375Z" fill="url(#paint10_radial_74_215)"/>
<path d="M22.3126 29.1375V19.425C22.3126 18.7688 22.7063 18.2438 23.3626 18.1125C27.5626 17.1938 30.7126 13.7812 31.3688 9.45C31.5001 8.6625 30.8438 7.875 30.0563 7.875H11.9438C11.1563 7.875 10.5001 8.6625 10.6313 9.45C11.2876 13.7812 14.4376 17.1938 18.6376 18.1125C19.2938 18.2438 19.6876 18.7688 19.6876 19.425C19.6876 21.6562 19.6876 26.9062 19.6876 29.1375C19.6876 29.7938 19.2938 30.3188 18.6376 30.45C16.1438 30.975 14.0438 32.4188 12.6001 34.3875C11.8126 35.4375 12.6001 36.75 13.7813 36.75H28.2188C29.4001 36.75 30.1876 35.4375 29.4001 34.5187C27.9563 32.55 25.7251 31.1062 23.3626 30.5812C22.7063 30.3187 22.3126 29.7938 22.3126 29.1375Z" fill="url(#paint11_radial_74_215)"/>
</g>
<path d="M22.3126 29.1375V19.425C22.3126 18.7688 22.7063 18.2438 23.3626 18.1125C27.5626 17.1938 30.7126 13.7812 31.3688 9.45C31.5001 8.6625 30.8438 7.875 30.0563 7.875H11.9438C11.1563 7.875 10.5001 8.6625 10.6313 9.45C11.2876 13.7812 14.4376 17.1938 18.6376 18.1125C19.2938 18.2438 19.6876 18.7688 19.6876 19.425C19.6876 21.6562 19.6876 26.9062 19.6876 29.1375C19.6876 29.7938 19.2938 30.3188 18.6376 30.45C16.1438 30.975 14.0438 32.4188 12.6001 34.3875C11.8126 35.4375 12.6001 36.75 13.7813 36.75H28.2188C29.4001 36.75 30.1876 35.4375 29.4001 34.5187C27.9563 32.55 25.7251 31.1062 23.3626 30.5812C22.7063 30.3187 22.3126 29.7938 22.3126 29.1375Z" fill="url(#paint12_radial_74_215)"/>
<path d="M22.3126 29.1375V19.425C22.3126 18.7688 22.7063 18.2438 23.3626 18.1125C27.5626 17.1938 30.7126 13.7812 31.3688 9.45C31.5001 8.6625 30.8438 7.875 30.0563 7.875H11.9438C11.1563 7.875 10.5001 8.6625 10.6313 9.45C11.2876 13.7812 14.4376 17.1938 18.6376 18.1125C19.2938 18.2438 19.6876 18.7688 19.6876 19.425C19.6876 21.6562 19.6876 26.9062 19.6876 29.1375C19.6876 29.7938 19.2938 30.3188 18.6376 30.45C16.1438 30.975 14.0438 32.4188 12.6001 34.3875C11.8126 35.4375 12.6001 36.75 13.7813 36.75H28.2188C29.4001 36.75 30.1876 35.4375 29.4001 34.5187C27.9563 32.55 25.7251 31.1062 23.3626 30.5812C22.7063 30.3187 22.3126 29.7938 22.3126 29.1375Z" fill="url(#paint13_radial_74_215)"/>
<path d="M22.3126 29.1375V19.425C22.3126 18.7688 22.7063 18.2438 23.3626 18.1125C27.5626 17.1938 30.7126 13.7812 31.3688 9.45C31.5001 8.6625 30.8438 7.875 30.0563 7.875H11.9438C11.1563 7.875 10.5001 8.6625 10.6313 9.45C11.2876 13.7812 14.4376 17.1938 18.6376 18.1125C19.2938 18.2438 19.6876 18.7688 19.6876 19.425C19.6876 21.6562 19.6876 26.9062 19.6876 29.1375C19.6876 29.7938 19.2938 30.3188 18.6376 30.45C16.1438 30.975 14.0438 32.4188 12.6001 34.3875C11.8126 35.4375 12.6001 36.75 13.7813 36.75H28.2188C29.4001 36.75 30.1876 35.4375 29.4001 34.5187C27.9563 32.55 25.7251 31.1062 23.3626 30.5812C22.7063 30.3187 22.3126 29.7938 22.3126 29.1375Z" fill="url(#paint14_radial_74_215)"/>
<path d="M22.3126 29.1375V19.425C22.3126 18.7688 22.7063 18.2438 23.3626 18.1125C27.5626 17.1938 30.7126 13.7812 31.3688 9.45C31.5001 8.6625 30.8438 7.875 30.0563 7.875H11.9438C11.1563 7.875 10.5001 8.6625 10.6313 9.45C11.2876 13.7812 14.4376 17.1938 18.6376 18.1125C19.2938 18.2438 19.6876 18.7688 19.6876 19.425C19.6876 21.6562 19.6876 26.9062 19.6876 29.1375C19.6876 29.7938 19.2938 30.3188 18.6376 30.45C16.1438 30.975 14.0438 32.4188 12.6001 34.3875C11.8126 35.4375 12.6001 36.75 13.7813 36.75H28.2188C29.4001 36.75 30.1876 35.4375 29.4001 34.5187C27.9563 32.55 25.7251 31.1062 23.3626 30.5812C22.7063 30.3187 22.3126 29.7938 22.3126 29.1375Z" fill="url(#paint15_linear_74_215)"/>
<path d="M22.3126 29.1375V19.425C22.3126 18.7688 22.7063 18.2438 23.3626 18.1125C27.5626 17.1938 30.7126 13.7812 31.3688 9.45C31.5001 8.6625 30.8438 7.875 30.0563 7.875H11.9438C11.1563 7.875 10.5001 8.6625 10.6313 9.45C11.2876 13.7812 14.4376 17.1938 18.6376 18.1125C19.2938 18.2438 19.6876 18.7688 19.6876 19.425C19.6876 21.6562 19.6876 26.9062 19.6876 29.1375C19.6876 29.7938 19.2938 30.3188 18.6376 30.45C16.1438 30.975 14.0438 32.4188 12.6001 34.3875C11.8126 35.4375 12.6001 36.75 13.7813 36.75H28.2188C29.4001 36.75 30.1876 35.4375 29.4001 34.5187C27.9563 32.55 25.7251 31.1062 23.3626 30.5812C22.7063 30.3187 22.3126 29.7938 22.3126 29.1375Z" fill="url(#paint16_radial_74_215)"/>
<path d="M22.3126 29.1375V19.425C22.3126 18.7688 22.7063 18.2438 23.3626 18.1125C27.5626 17.1938 30.7126 13.7812 31.3688 9.45C31.5001 8.6625 30.8438 7.875 30.0563 7.875H11.9438C11.1563 7.875 10.5001 8.6625 10.6313 9.45C11.2876 13.7812 14.4376 17.1938 18.6376 18.1125C19.2938 18.2438 19.6876 18.7688 19.6876 19.425C19.6876 21.6562 19.6876 26.9062 19.6876 29.1375C19.6876 29.7938 19.2938 30.3188 18.6376 30.45C16.1438 30.975 14.0438 32.4188 12.6001 34.3875C11.8126 35.4375 12.6001 36.75 13.7813 36.75H28.2188C29.4001 36.75 30.1876 35.4375 29.4001 34.5187C27.9563 32.55 25.7251 31.1062 23.3626 30.5812C22.7063 30.3187 22.3126 29.7938 22.3126 29.1375Z" fill="url(#paint17_linear_74_215)"/>
<path d="M22.3126 29.1375V19.425C22.3126 18.7688 22.7063 18.2438 23.3626 18.1125C27.5626 17.1938 30.7126 13.7812 31.3688 9.45C31.5001 8.6625 30.8438 7.875 30.0563 7.875H11.9438C11.1563 7.875 10.5001 8.6625 10.6313 9.45C11.2876 13.7812 14.4376 17.1938 18.6376 18.1125C19.2938 18.2438 19.6876 18.7688 19.6876 19.425C19.6876 21.6562 19.6876 26.9062 19.6876 29.1375C19.6876 29.7938 19.2938 30.3188 18.6376 30.45C16.1438 30.975 14.0438 32.4188 12.6001 34.3875C11.8126 35.4375 12.6001 36.75 13.7813 36.75H28.2188C29.4001 36.75 30.1876 35.4375 29.4001 34.5187C27.9563 32.55 25.7251 31.1062 23.3626 30.5812C22.7063 30.3187 22.3126 29.7938 22.3126 29.1375Z" fill="url(#paint18_linear_74_215)"/>
<path d="M22.3126 29.1375V19.425C22.3126 18.7688 22.7063 18.2438 23.3626 18.1125C27.5626 17.1938 30.7126 13.7812 31.3688 9.45C31.5001 8.6625 30.8438 7.875 30.0563 7.875H11.9438C11.1563 7.875 10.5001 8.6625 10.6313 9.45C11.2876 13.7812 14.4376 17.1938 18.6376 18.1125C19.2938 18.2438 19.6876 18.7688 19.6876 19.425C19.6876 21.6562 19.6876 26.9062 19.6876 29.1375C19.6876 29.7938 19.2938 30.3188 18.6376 30.45C16.1438 30.975 14.0438 32.4188 12.6001 34.3875C11.8126 35.4375 12.6001 36.75 13.7813 36.75H28.2188C29.4001 36.75 30.1876 35.4375 29.4001 34.5187C27.9563 32.55 25.7251 31.1062 23.3626 30.5812C22.7063 30.3187 22.3126 29.7938 22.3126 29.1375Z" fill="url(#paint19_radial_74_215)"/>
<path d="M29.3999 6.4314C28.7437 6.4314 28.2187 6.9564 28.2187 7.61265C27.9562 10.1064 26.6437 13.5189 23.4937 14.7001C22.8374 14.9626 22.5749 15.6189 22.8374 16.2751C23.0999 16.9314 23.7562 17.1939 24.4124 16.9314C26.2499 16.2751 27.8249 14.9626 28.8749 13.1251C29.9249 11.5501 30.4499 9.71265 30.5812 7.61265C30.7124 7.08765 30.1874 6.56265 29.3999 6.4314Z" fill="url(#paint20_linear_74_215)"/>
<g filter="url(#filter2_f_74_215)">
<path d="M21.1284 28.5069C21.1284 29.9299 20.7814 30.5755 20.608 30.7205H22.524C21.9941 30.1829 21.9247 29.0207 21.9563 28.5069L21.9563 19.3757C21.9563 18.3638 22.4767 17.6497 22.7369 17.6365H20.4424C21.029 18.0792 21.1441 19.1254 21.1284 19.3757V28.5069Z" fill="url(#paint21_linear_74_215)"/>
</g>
<defs>
<filter id="filter0_i_74_215" x="9.1875" y="5.1189" width="23.625" height="31.6313" filterUnits="userSpaceOnUse" color-interpolation-filters="sRGB">
<feFlood flood-opacity="0" result="BackgroundImageFix"/>
<feBlend mode="normal" in="SourceGraphic" in2="BackgroundImageFix" result="shape"/>
<feColorMatrix in="SourceAlpha" type="matrix" values="0 0 0 0 0 0 0 0 0 0 0 0 0 0 0 0 0 0 127 0" result="hardAlpha"/>
<feOffset/>
<feGaussianBlur stdDeviation="0.5"/>
<feComposite in2="hardAlpha" operator="arithmetic" k2="-1" k3="1"/>
<feColorMatrix type="matrix" values="0 0 0 0 0.619608 0 0 0 0 0.756863 0 0 0 0 0.87451 0 0 0 1 0"/>
<feBlend mode="normal" in2="shape" result="effect1_innerShadow_74_215"/>
</filter>
<filter id="filter1_i_74_215" x="10.6145" y="7.875" width="21.071" height="28.875" filterUnits="userSpaceOnUse" color-interpolation-filters="sRGB">
<feFlood flood-opacity="0" result="BackgroundImageFix"/>
<feBlend mode="normal" in="SourceGraphic" in2="BackgroundImageFix" result="shape"/>
<feColorMatrix in="SourceAlpha" type="matrix" values="0 0 0 0 0 0 0 0 0 0 0 0 0 0 0 0 0 0 127 0" result="hardAlpha"/>
<feOffset dx="0.3"/>
<feGaussianBlur stdDeviation="0.3"/>
<feComposite in2="hardAlpha" operator="arithmetic" k2="-1" k3="1"/>
<feColorMatrix type="matrix" values="0 0 0 0 0.705882 0 0 0 0 0.541176 0 0 0 0 0.384314 0 0 0 1 0"/>
<feBlend mode="normal" in2="shape" result="effect1_innerShadow_74_215"/>
</filter>
<filter id="filter2_f_74_215" x="19.6924" y="16.8865" width="3.79443" height="14.584" filterUnits="userSpaceOnUse" color-interpolation-filters="sRGB">
<feFlood flood-opacity="0" result="BackgroundImageFix"/>
<feBlend mode="normal" in="SourceGraphic" in2="BackgroundImageFix" result="shape"/>
<feGaussianBlur stdDeviation="0.375" result="effect1_foregroundBlur_74_215"/>
</filter>
<radialGradient id="paint0_radial_74_215" cx="0" cy="0" r="1" gradientUnits="userSpaceOnUse" gradientTransform="translate(26.8177 29.5336) rotate(132.749) scale(8.57077 6.99259)">
<stop stop-color="#C4F4FF"/>
<stop offset="1" stop-color="#C4F4FF" stop-opacity="0"/>
</radialGradient>
<radialGradient id="paint1_radial_74_215" cx="0" cy="0" r="1" gradientUnits="userSpaceOnUse" gradientTransform="translate(27.965 6.66327) rotate(90) scale(6.95003 14.4525)">
<stop stop-color="#C4F4FF"/>
<stop offset="1" stop-color="#C4F4FF" stop-opacity="0"/>
</radialGradient>
<radialGradient id="paint2_radial_74_215" cx="0" cy="0" r="1" gradientUnits="userSpaceOnUse" gradientTransform="translate(26.9883 3.9375) rotate(90) scale(1.3125 16.5703)">
<stop stop-color="#CDCFCF"/>
<stop offset="1" stop-color="#A9A9A9"/>
</radialGradient>
<linearGradient id="paint3_linear_74_215" x1="5.16797" y1="4.28597" x2="21" y2="4.28597" gradientUnits="userSpaceOnUse">
<stop stop-color="#707477"/>
<stop offset="1" stop-color="#707477" stop-opacity="0"/>
</linearGradient>
<linearGradient id="paint4_linear_74_215" x1="21" y1="6.33675" x2="21" y2="4.6141" gradientUnits="userSpaceOnUse">
<stop stop-color="#707477"/>
<stop offset="1" stop-color="#707477" stop-opacity="0"/>
</linearGradient>
<radialGradient id="paint5_radial_74_215" cx="0" cy="0" r="1" gradientUnits="userSpaceOnUse" gradientTransform="translate(26.9883 37.5907) rotate(90) scale(1.47656 18.6416)">
<stop stop-color="#CDCFCF"/>
<stop offset="1" stop-color="#A9A9A9"/>
</radialGradient>
<linearGradient id="paint6_linear_74_215" x1="5.16797" y1="38.411" x2="21" y2="38.411" gradientUnits="userSpaceOnUse">
<stop stop-color="#707477"/>
<stop offset="1" stop-color="#707477" stop-opacity="0"/>
</linearGradient>
<linearGradient id="paint7_linear_74_215" x1="21" y1="39.7645" x2="21" y2="38.493" gradientUnits="userSpaceOnUse">
<stop stop-color="#7CA0B3"/>
<stop offset="1" stop-color="#7CA0B3" stop-opacity="0"/>
</linearGradient>
<linearGradient id="paint8_linear_74_215" x1="26.1679" y1="26.5165" x2="27.2343" y2="35.1751" gradientUnits="userSpaceOnUse">
<stop stop-color="white"/>
<stop offset="0.821922" stop-color="white" stop-opacity="0"/>
</linearGradient>
<radialGradient id="paint9_radial_74_215" cx="0" cy="0" r="1" gradientUnits="userSpaceOnUse" gradientTransform="translate(25.9494 31.3103) rotate(90) scale(15.0954 14.8787)">
<stop offset="0.088" stop-color="#FFD68C"/>
<stop offset="1" stop-color="#E69E45"/>
</radialGradient>
<radialGradient id="paint10_radial_74_215" cx="0" cy="0" r="1" gradientUnits="userSpaceOnUse" gradientTransform="translate(27.8967 7.23368) rotate(127.981) scale(11.2069 9.19256)">
<stop stop-color="#F3C169"/>
<stop offset="1" stop-color="#F3C169" stop-opacity="0"/>
</radialGradient>
<radialGradient id="paint11_radial_74_215" cx="0" cy="0" r="1" gradientUnits="userSpaceOnUse" gradientTransform="translate(32.5313 26.9628) rotate(164.385) scale(23.7789 41.4317)">
<stop offset="0.667023" stop-color="#B7845C" stop-opacity="0"/>
<stop offset="1" stop-color="#B7845C"/>
</radialGradient>
<radialGradient id="paint12_radial_74_215" cx="0" cy="0" r="1" gradientUnits="userSpaceOnUse" gradientTransform="translate(13.8595 12.2297) rotate(-24.5429) scale(7.8498 8.43136)">
<stop stop-color="#B69E6D"/>
<stop offset="1" stop-color="#B69E6D" stop-opacity="0"/>
</radialGradient>
<radialGradient id="paint13_radial_74_215" cx="0" cy="0" r="1" gradientUnits="userSpaceOnUse" gradientTransform="translate(27.2701 9.39174) rotate(180) scale(14.9013 1.51674)">
<stop stop-color="#FFE379"/>
<stop offset="0.40625" stop-color="#FFCB56"/>
<stop offset="1" stop-color="#FFCB56" stop-opacity="0"/>
</radialGradient>
<radialGradient id="paint14_radial_74_215" cx="0" cy="0" r="1" gradientUnits="userSpaceOnUse" gradientTransform="translate(31.3856 7.02995) rotate(132.917) scale(15.2519 16.1261)">
<stop stop-color="#FFD968"/>
<stop offset="1" stop-color="#FFD968" stop-opacity="0"/>
</radialGradient>
<linearGradient id="paint15_linear_74_215" x1="21.0001" y1="7.66919" x2="21.0001" y2="8.54073" gradientUnits="userSpaceOnUse">
<stop stop-color="#9E8563"/>
<stop offset="1" stop-color="#9E8563" stop-opacity="0"/>
</linearGradient>
<radialGradient id="paint16_radial_74_215" cx="0" cy="0" r="1" gradientUnits="userSpaceOnUse" gradientTransform="translate(25.1531 35.2523) rotate(90) scale(0.847984 9.79894)">
<stop stop-color="#FFD894"/>
<stop offset="1" stop-color="#FFD894" stop-opacity="0"/>
</radialGradient>
<linearGradient id="paint17_linear_74_215" x1="21.0001" y1="37.0424" x2="21.0001" y2="35.1109" gradientUnits="userSpaceOnUse">
<stop stop-color="#C9895B"/>
<stop offset="1" stop-color="#C9895B" stop-opacity="0"/>
</linearGradient>
<linearGradient id="paint18_linear_74_215" x1="21.0001" y1="36.7907" x2="21.0001" y2="36.5651" gradientUnits="userSpaceOnUse">
<stop stop-color="#54453F"/>
<stop offset="1" stop-color="#54453F" stop-opacity="0"/>
</linearGradient>
<radialGradient id="paint19_radial_74_215" cx="0" cy="0" r="1" gradientUnits="userSpaceOnUse" gradientTransform="translate(23.1738 29.9821) rotate(-154.746) scale(2.40341 0.893229)">
<stop stop-color="#FFD87F"/>
<stop offset="1" stop-color="#FFD87F" stop-opacity="0"/>
</radialGradient>
<linearGradient id="paint20_linear_74_215" x1="30.1054" y1="6.99316" x2="24.9374" y2="16.5088" gradientUnits="userSpaceOnUse">
<stop stop-color="white"/>
<stop offset="0.821922" stop-color="white" stop-opacity="0"/>
</linearGradient>
<linearGradient id="paint21_linear_74_215" x1="21.5896" y1="20.7537" x2="21.5896" y2="35.0681" gradientUnits="userSpaceOnUse">
<stop stop-color="#FFDF81"/>
<stop offset="1" stop-color="#FFDF81" stop-opacity="0"/>
</linearGradient>
</defs>
</svg>
