<svg width="32" height="32" viewBox="0 0 32 32" fill="none" xmlns="http://www.w3.org/2000/svg">
<g filter="url(#filter0_i_130_297)">
<path d="M3.78125 9.71079C3.78125 9.53931 3.86913 9.37978 4.01409 9.28815L15.5766 1.97922C15.7398 1.87607 15.9477 1.87607 16.1109 1.97922L27.6734 9.28815C27.8184 9.37978 27.9062 9.53931 27.9062 9.71079V22.4687C27.9062 22.6422 27.8163 22.8033 27.6687 22.8943L16.1062 30.0235C15.9453 30.1227 15.7422 30.1227 15.5813 30.0235L4.01883 22.8943C3.87117 22.8033 3.78125 22.6422 3.78125 22.4687V9.71079Z" fill="url(#paint0_linear_130_297)"/>
<path d="M3.78125 9.71079C3.78125 9.53931 3.86913 9.37978 4.01409 9.28815L15.5766 1.97922C15.7398 1.87607 15.9477 1.87607 16.1109 1.97922L27.6734 9.28815C27.8184 9.37978 27.9062 9.53931 27.9062 9.71079V22.4687C27.9062 22.6422 27.8163 22.8033 27.6687 22.8943L16.1062 30.0235C15.9453 30.1227 15.7422 30.1227 15.5813 30.0235L4.01883 22.8943C3.87117 22.8033 3.78125 22.6422 3.78125 22.4687V9.71079Z" fill="url(#paint1_linear_130_297)"/>
</g>
<g filter="url(#filter1_i_130_297)">
<path d="M15.75 30.0892C15.6912 30.078 15.634 30.0561 15.5813 30.0236L4.01883 22.8944C3.87117 22.8034 3.78125 22.6423 3.78125 22.4688V9.71582L15.5139 17.0075C15.6607 17.0987 15.75 17.2593 15.75 17.4322V30.0892Z" fill="url(#paint2_linear_130_297)"/>
</g>
<path d="M27.8779 9.54492C27.8964 9.59749 27.9062 9.65348 27.9062 9.71081V22.4687C27.9062 22.6422 27.8163 22.8033 27.6687 22.8943L16.1062 30.0236C15.998 30.0903 15.8707 30.1121 15.75 30.0891V17.3479C15.75 17.175 15.8393 17.0144 15.9861 16.9232L27.7851 9.59028C27.8152 9.5716 27.8463 9.55654 27.8779 9.54492Z" fill="url(#paint3_linear_130_297)"/>
<path d="M27.8779 9.54492C27.8964 9.59749 27.9062 9.65348 27.9062 9.71081V22.4687C27.9062 22.6422 27.8163 22.8033 27.6687 22.8943L16.1062 30.0236C15.998 30.0903 15.8707 30.1121 15.75 30.0891V17.3479C15.75 17.175 15.8393 17.0144 15.9861 16.9232L27.7851 9.59028C27.8152 9.5716 27.8463 9.55654 27.8779 9.54492Z" fill="url(#paint4_linear_130_297)"/>
<g filter="url(#filter2_i_130_297)">
<path d="M10.7812 22.8347C10.7812 22.5993 11.0398 22.4556 11.2396 22.5799L14.3655 24.5232C14.5123 24.6144 14.6016 24.775 14.6016 24.9478V27.2083C14.6016 27.4436 14.343 27.5873 14.1432 27.4631L11.0173 25.5198C10.8705 25.4285 10.7812 25.2679 10.7812 25.0951V22.8347Z" fill="url(#paint5_linear_130_297)"/>
</g>
<g filter="url(#filter3_i_130_297)">
<path d="M8.25 12.8626V15.6074L11.1719 17.3574V14.8039C11.1719 14.4625 11.3443 14.1458 11.6319 13.9619C15.6217 11.4097 22.8101 6.75229 22.9844 6.58398C23.1445 6.46679 23.3568 6.52408 23.4219 6.61523C23.4219 6.42773 23.3229 6.31835 23.2734 6.2871L20.5336 4.61473C20.3698 4.51472 20.1631 4.51734 20.0019 4.62145L8.7991 11.8545C8.45678 12.0755 8.25 12.4551 8.25 12.8626Z" fill="#966957"/>
<path d="M8.25 12.8626V15.6074L11.1719 17.3574V14.8039C11.1719 14.4625 11.3443 14.1458 11.6319 13.9619C15.6217 11.4097 22.8101 6.75229 22.9844 6.58398C23.1445 6.46679 23.3568 6.52408 23.4219 6.61523C23.4219 6.42773 23.3229 6.31835 23.2734 6.2871L20.5336 4.61473C20.3698 4.51472 20.1631 4.51734 20.0019 4.62145L8.7991 11.8545C8.45678 12.0755 8.25 12.4551 8.25 12.8626Z" fill="url(#paint6_linear_130_297)"/>
<path d="M8.25 12.8626V15.6074L11.1719 17.3574V14.8039C11.1719 14.4625 11.3443 14.1458 11.6319 13.9619C15.6217 11.4097 22.8101 6.75229 22.9844 6.58398C23.1445 6.46679 23.3568 6.52408 23.4219 6.61523C23.4219 6.42773 23.3229 6.31835 23.2734 6.2871L20.5336 4.61473C20.3698 4.51472 20.1631 4.51734 20.0019 4.62145L8.7991 11.8545C8.45678 12.0755 8.25 12.4551 8.25 12.8626Z" fill="url(#paint7_linear_130_297)"/>
</g>
<g filter="url(#filter4_f_130_297)">
<path d="M23.2188 6.39629C23.1406 6.34004 23.0195 6.37286 22.9688 6.39629L11.4219 13.9275C11.3932 13.9458 11.3195 14.008 11.2539 14.1111" stroke="#A47E73" stroke-width="0.05"/>
</g>
<g filter="url(#filter5_f_130_297)">
<path d="M16 16.873L27.625 9.62305" stroke="#F4CAA3" stroke-width="0.2" stroke-linecap="round"/>
</g>
<defs>
<filter id="filter0_i_130_297" x="3.78125" y="1.90186" width="24.125" height="28.296" filterUnits="userSpaceOnUse" color-interpolation-filters="sRGB">
<feFlood flood-opacity="0" result="BackgroundImageFix"/>
<feBlend mode="normal" in="SourceGraphic" in2="BackgroundImageFix" result="shape"/>
<feColorMatrix in="SourceAlpha" type="matrix" values="0 0 0 0 0 0 0 0 0 0 0 0 0 0 0 0 0 0 127 0" result="hardAlpha"/>
<feOffset dy="0.1"/>
<feGaussianBlur stdDeviation="0.15"/>
<feComposite in2="hardAlpha" operator="arithmetic" k2="-1" k3="1"/>
<feColorMatrix type="matrix" values="0 0 0 0 0.843137 0 0 0 0 0.694118 0 0 0 0 0.52549 0 0 0 1 0"/>
<feBlend mode="normal" in2="shape" result="effect1_innerShadow_130_297"/>
</filter>
<filter id="filter1_i_130_297" x="3.78125" y="9.71582" width="12.9688" height="21.3733" filterUnits="userSpaceOnUse" color-interpolation-filters="sRGB">
<feFlood flood-opacity="0" result="BackgroundImageFix"/>
<feBlend mode="normal" in="SourceGraphic" in2="BackgroundImageFix" result="shape"/>
<feColorMatrix in="SourceAlpha" type="matrix" values="0 0 0 0 0 0 0 0 0 0 0 0 0 0 0 0 0 0 127 0" result="hardAlpha"/>
<feOffset dx="1" dy="1"/>
<feGaussianBlur stdDeviation="1.5"/>
<feComposite in2="hardAlpha" operator="arithmetic" k2="-1" k3="1"/>
<feColorMatrix type="matrix" values="0 0 0 0 0.831373 0 0 0 0 0.670588 0 0 0 0 0.545098 0 0 0 1 0"/>
<feBlend mode="normal" in2="shape" result="effect1_innerShadow_130_297"/>
</filter>
<filter id="filter2_i_130_297" x="10.6812" y="22.5342" width="3.92031" height="4.97461" filterUnits="userSpaceOnUse" color-interpolation-filters="sRGB">
<feFlood flood-opacity="0" result="BackgroundImageFix"/>
<feBlend mode="normal" in="SourceGraphic" in2="BackgroundImageFix" result="shape"/>
<feColorMatrix in="SourceAlpha" type="matrix" values="0 0 0 0 0 0 0 0 0 0 0 0 0 0 0 0 0 0 127 0" result="hardAlpha"/>
<feOffset dx="-0.15"/>
<feGaussianBlur stdDeviation="0.05"/>
<feComposite in2="hardAlpha" operator="arithmetic" k2="-1" k3="1"/>
<feColorMatrix type="matrix" values="0 0 0 0 0.760103 0 0 0 0 0.683293 0 0 0 0 0.795016 0 0 0 1 0"/>
<feBlend mode="normal" in2="shape" result="effect1_innerShadow_130_297"/>
</filter>
<filter id="filter3_i_130_297" x="8.15" y="4.5415" width="15.2719" height="12.8159" filterUnits="userSpaceOnUse" color-interpolation-filters="sRGB">
<feFlood flood-opacity="0" result="BackgroundImageFix"/>
<feBlend mode="normal" in="SourceGraphic" in2="BackgroundImageFix" result="shape"/>
<feColorMatrix in="SourceAlpha" type="matrix" values="0 0 0 0 0 0 0 0 0 0 0 0 0 0 0 0 0 0 127 0" result="hardAlpha"/>
<feOffset dx="-0.1"/>
<feGaussianBlur stdDeviation="0.05"/>
<feComposite in2="hardAlpha" operator="arithmetic" k2="-1" k3="1"/>
<feColorMatrix type="matrix" values="0 0 0 0 0.47451 0 0 0 0 0.266667 0 0 0 0 0.301961 0 0 0 1 0"/>
<feBlend mode="normal" in2="shape" result="effect1_innerShadow_130_297"/>
</filter>
<filter id="filter4_f_130_297" x="11.1328" y="6.24033" width="12.2005" height="7.98418" filterUnits="userSpaceOnUse" color-interpolation-filters="sRGB">
<feFlood flood-opacity="0" result="BackgroundImageFix"/>
<feBlend mode="normal" in="SourceGraphic" in2="BackgroundImageFix" result="shape"/>
<feGaussianBlur stdDeviation="0.05" result="effect1_foregroundBlur_130_297"/>
</filter>
<filter id="filter5_f_130_297" x="15.65" y="9.27295" width="12.325" height="7.9502" filterUnits="userSpaceOnUse" color-interpolation-filters="sRGB">
<feFlood flood-opacity="0" result="BackgroundImageFix"/>
<feBlend mode="normal" in="SourceGraphic" in2="BackgroundImageFix" result="shape"/>
<feGaussianBlur stdDeviation="0.125" result="effect1_foregroundBlur_130_297"/>
</filter>
<linearGradient id="paint0_linear_130_297" x1="15.8438" y1="1.90186" x2="15.8438" y2="30.0979" gradientUnits="userSpaceOnUse">
<stop stop-color="#DEB586"/>
<stop offset="1" stop-color="#D7AA82"/>
</linearGradient>
<linearGradient id="paint1_linear_130_297" x1="10.625" y1="14.076" x2="11.0781" y2="13.3572" gradientUnits="userSpaceOnUse">
<stop offset="0.0656074" stop-color="#C99D78"/>
<stop offset="1" stop-color="#DCB185" stop-opacity="0"/>
</linearGradient>
<linearGradient id="paint2_linear_130_297" x1="5.37616" y1="15.1688" x2="13.8662" y2="29.3715" gradientUnits="userSpaceOnUse">
<stop stop-color="#B98875"/>
<stop offset="1" stop-color="#AA684F"/>
</linearGradient>
<linearGradient id="paint3_linear_130_297" x1="16.5937" y1="16.7478" x2="24.5937" y2="25.0604" gradientUnits="userSpaceOnUse">
<stop stop-color="#D7A585"/>
<stop offset="1" stop-color="#BD7943"/>
</linearGradient>
<linearGradient id="paint4_linear_130_297" x1="15.4245" y1="25.213" x2="16.5831" y2="25.1486" gradientUnits="userSpaceOnUse">
<stop stop-color="#B46C4B"/>
<stop offset="1" stop-color="#BD7E61" stop-opacity="0"/>
</linearGradient>
<linearGradient id="paint5_linear_130_297" x1="11.3413" y1="22.7437" x2="13.9609" y2="27.7935" gradientUnits="userSpaceOnUse">
<stop stop-color="#CAB6CD"/>
<stop offset="1" stop-color="#D1BED7"/>
</linearGradient>
<linearGradient id="paint6_linear_130_297" x1="8.8125" y1="15.8574" x2="10.8125" y2="12.8887" gradientUnits="userSpaceOnUse">
<stop offset="0.649314" stop-color="#8D6D6C"/>
<stop offset="0.725768" stop-color="#83554C"/>
<stop offset="0.825328" stop-color="#83554C"/>
<stop offset="1" stop-color="#976A58" stop-opacity="0"/>
</linearGradient>
<linearGradient id="paint7_linear_130_297" x1="22.6562" y1="5.77929" x2="21.6563" y2="6.90429" gradientUnits="userSpaceOnUse">
<stop stop-color="#9C6F5D"/>
<stop offset="1" stop-color="#9C6F5D" stop-opacity="0"/>
</linearGradient>
</defs>
</svg>
