<svg width="17" height="17" viewBox="0 0 17 17" fill="none" xmlns="http://www.w3.org/2000/svg">
<path d="M0.668308 5.94843C0.649141 6.29093 0.840808 6.6101 1.15247 6.75343L7.40581 9.62176L10.2741 15.8743C10.4108 16.1709 10.7075 16.3601 11.0316 16.3601L11.0791 16.3584C11.2464 16.3491 11.4069 16.2895 11.5398 16.1875C11.6727 16.0855 11.7718 15.9459 11.8241 15.7868L16.4866 1.59343C16.5841 1.2951 16.5058 0.96593 16.2841 0.74343C16.0625 0.52093 15.7341 0.445096 15.4341 0.540929L1.23997 5.20426C1.08079 5.25625 0.941033 5.35512 0.83902 5.48791C0.737007 5.62071 0.677503 5.78123 0.668308 5.94843Z" fill="#14AC75"/>
</svg>
