<svg width="64" height="64" viewBox="0 0 64 64" fill="none" xmlns="http://www.w3.org/2000/svg">
<circle cx="32" cy="32" r="32" fill="#0055A6"/>
<g clip-path="url(#clip0_167_414)">
<path d="M31.1791 19.0182H6V44.9704H31.1791V19.0182Z" fill="white"/>
<path d="M57.2438 19H32.7729V45H58.0002V19H57.2438Z" fill="white"/>
<path d="M56.4879 20.5604H34.2871V43.4395H56.4879V20.5604Z" fill="#0055A6"/>
<path d="M19.6168 37.3173C19.3398 36.9686 19.2005 36.5123 19.2005 35.9602C19.2005 35.3927 19.3348 34.9364 19.5985 34.6031C19.8854 34.2374 20.31 34.0528 20.8589 34.0528H20.9004V33.1059H20.8589C20.0032 33.1059 19.3431 33.3828 18.8953 33.9263C18.4891 34.4185 18.2834 35.1056 18.2834 35.967C18.2834 36.7994 18.5073 37.4831 18.9484 38.001C19.4128 38.5445 20.0595 38.8214 20.8722 38.8214H20.9136V37.8745H20.8722C20.3348 37.8745 19.9136 37.6882 19.6168 37.3173ZM16.358 37.3173C16.0811 36.9686 15.9402 36.5123 15.9402 35.9602C15.9402 35.3927 16.0745 34.9364 16.3381 34.6031C16.6251 34.2374 17.0496 34.0528 17.5985 34.0528H17.64V33.1059H17.5985C16.7428 33.1059 16.0827 33.3828 15.635 33.9263C15.2287 34.4185 15.0231 35.1056 15.0231 35.967C15.0231 36.7994 15.2469 37.4831 15.6881 38.001C16.1524 38.5445 16.7992 38.8214 17.6118 38.8214H17.6532V37.8745H17.6118C17.0761 37.8745 16.6532 37.6882 16.358 37.3173ZM19.3531 28.1066V30.7404H20.3265V25.2881H19.3531V27.187H18.824C18.6051 27.187 18.4426 27.1357 18.3398 27.0349C18.2652 26.9631 18.2287 26.8674 18.2287 26.7426V25.2881H17.2552V26.8452C17.2552 27.2041 17.3929 27.5066 17.6648 27.7476C17.9335 27.9852 18.2618 28.1066 18.6433 28.1066H19.3531ZM28.6649 32.9777L28.5969 33.0512C28.5969 33.0512 26.7859 34.9996 26.6516 35.1432V33.2375H25.8008V38.6573H26.6516V36.4302C26.6731 36.4063 27.7627 35.2184 27.8837 35.0851C27.8904 35.28 28.0065 38.6573 28.0065 38.6573H28.8738L28.6649 32.9777ZM22.2983 30.7387H23.2718V26.1939H24.0927V25.2881H21.4907V26.1939H22.2983V30.7387ZM24.5388 33.0512C24.5388 33.0512 22.7279 34.9996 22.5935 35.1432V33.2375H21.7428V38.6573H22.5935V36.4302C22.6151 36.4063 23.7047 35.2184 23.8257 35.0851C23.8323 35.28 23.9484 38.6573 23.9484 38.6573H24.8157L24.6068 32.9777L24.5388 33.0512ZM26.29 26.1939H26.6416C26.892 26.1939 27.0645 26.2709 27.169 26.4315C27.2535 26.5648 27.3133 26.8212 27.3514 27.1733H26.2652C26.2685 27.0622 26.2867 26.2982 26.29 26.1939ZM26.2486 28.0775C26.3547 28.0775 27.3647 28.0775 27.4625 28.0775C27.4741 28.1886 27.7362 30.7387 27.7362 30.7387H28.7163L28.2668 26.7529C28.2668 26.2299 28.1109 25.8368 27.8025 25.5872C27.557 25.3873 27.2204 25.2847 26.8025 25.2847H25.3614L25.1823 30.737H26.1557C26.1541 30.7387 26.2436 28.1971 26.2486 28.0775ZM9.28508 26.1939H10.4907V30.7387H11.4642V25.2864H8.31327V30.7387H9.28674V26.1939H9.28508ZM9.74113 36.1978C9.67148 36.3362 9.59022 36.4063 9.49901 36.4063C9.41112 36.4063 9.33649 36.3465 9.27347 36.2217C9.20548 36.0901 9.17065 35.897 9.17065 35.6492V34.0545H9.20714C9.4078 34.0545 9.56203 34.169 9.67646 34.4031C9.7942 34.6459 9.8539 35.0321 9.8539 35.5551C9.8539 35.832 9.81576 36.0491 9.74113 36.1978ZM9.2088 33.246H8.30664V38.6556H9.17065V37.0831C9.33815 37.2336 9.52057 37.3241 9.72123 37.3241C10.0081 37.3241 10.2486 37.1669 10.4327 36.8592C10.64 36.5123 10.7445 35.9978 10.7445 35.3312C10.7445 34.8663 10.6599 34.451 10.494 34.0955C10.2337 33.5315 9.80084 33.246 9.2088 33.246ZM14.9982 29.4055C14.8721 29.7593 14.6931 29.9302 14.4542 29.9302C14.2237 29.9302 14.0513 29.7559 13.9235 29.3987C13.7909 29.0244 13.7229 28.5509 13.7229 27.9886C13.7229 27.4126 13.7892 26.9375 13.9186 26.5785C14.043 26.235 14.2171 26.0675 14.4526 26.0675C14.7163 26.0675 14.9036 26.2367 15.0264 26.5836C15.1391 26.9033 15.1972 27.3699 15.1972 27.9715C15.1988 28.5544 15.1308 29.0363 14.9982 29.4055ZM15.7494 30.0225C16.038 29.5081 16.1839 28.8193 16.1839 27.9732C16.1839 27.1374 16.033 26.4538 15.7345 25.9393C15.4294 25.4146 14.9982 25.1497 14.4509 25.1497C13.9318 25.1497 13.5206 25.418 13.2254 25.9444C12.9368 26.4589 12.7909 27.1443 12.7909 27.9818C12.7909 28.8466 12.9302 29.5457 13.2071 30.0584C13.4891 30.5848 13.9086 30.8515 14.4509 30.8515C15.0032 30.8498 15.441 30.5712 15.7494 30.0225ZM13.3133 37.3515C13.1989 37.7087 13.0313 37.8881 12.8158 37.8881C12.6085 37.8881 12.4443 37.7053 12.3315 37.3429C12.2121 36.9669 12.1524 36.49 12.1524 35.9243C12.1524 35.3449 12.2121 34.868 12.3282 34.5057C12.4393 34.1587 12.6035 33.9827 12.8158 33.9827C13.0562 33.9827 13.2287 34.1553 13.3398 34.5125C13.441 34.8356 13.494 35.3056 13.494 35.9089C13.4924 36.4952 13.4327 36.9806 13.3133 37.3515ZM13.9567 33.8887C13.6864 33.3708 13.3033 33.1076 12.8174 33.1076C12.358 33.1076 11.9915 33.3725 11.7295 33.8938C11.4725 34.4066 11.3415 35.0868 11.3415 35.9175C11.3415 36.7789 11.4658 37.4728 11.7129 37.9822C11.9634 38.5017 12.3348 38.7649 12.8174 38.7649C13.3083 38.7649 13.6947 38.4898 13.97 37.9446C14.227 37.4352 14.3581 36.7499 14.3581 35.9089C14.3564 35.08 14.222 34.3997 13.9567 33.8887Z" fill="#0055A6"/>
<path d="M40.4248 27.4109C40.6105 27.8365 40.9173 28.2706 41.7515 28.8586C41.9372 28.9902 42.1445 29.2636 41.9869 29.6482C41.8294 30.0328 41.5359 30.5797 41.7116 30.7916C41.8891 31.0053 42.516 31.1164 43.0284 30.9027C43.0284 30.9027 43.1362 31.236 43.3236 31.4496C43.3236 31.4496 43.2357 31.6326 42.9405 31.5419C42.9405 31.5419 43.0483 31.8154 42.9007 32.1094C42.9007 32.1094 42.5574 32.0496 42.4098 31.7249C42.4098 31.7249 42.2722 31.9778 41.9985 32.0684C41.9985 32.0684 41.7714 31.947 41.8211 31.4821C41.8211 31.4821 41.6536 31.8974 41.1428 31.9676C41.1428 31.9676 40.8476 31.583 41.2308 31.0668C41.2308 31.0668 40.9555 31.3198 40.4546 31.1984C40.4546 31.1984 40.3767 30.9352 40.8277 30.5711C40.8277 30.5711 40.317 30.5506 40.1196 30.1063C40.1196 30.1063 40.3352 29.8328 40.8659 29.8943C40.8659 29.8943 40.375 29.7832 40.2672 29.1747C40.2672 29.1747 40.6205 28.9423 41.181 29.3166C41.181 29.3166 41.0831 29.1235 40.8476 28.9321C40.6122 28.7372 40.3269 28.2005 40.4248 27.4109Z" fill="white"/>
<path d="M42.4809 33.5177C42.4063 33.4152 42.3515 33.3144 42.3101 33.2169C42.398 33.9536 42.4295 34.451 42.8159 34.9278C42.8159 34.9278 43.0481 34.6082 42.8988 33.8323C42.8341 33.8117 42.7612 33.781 42.6915 33.7331C42.6915 33.7331 42.7794 34.0476 42.7247 34.3655C42.723 34.3638 42.5837 34.2595 42.4809 33.5177Z" fill="white"/>
<path d="M41.8126 33.4408C41.7662 33.381 41.6782 33.2546 41.6318 33.1639C41.6003 33.5913 41.4909 34.7176 41.8557 35.0697C41.8557 35.0697 42.1061 34.88 42.1957 33.2392C42.1426 33.3315 42.0497 33.4289 42.005 33.4819C42.005 33.4819 42.0663 34.0032 41.8839 34.3706C41.8839 34.3689 41.7015 34.2271 41.8126 33.4408Z" fill="white"/>
<path d="M40.9404 34.3006C41.2488 33.9212 41.34 32.7846 41.34 32.7846C41.3831 32.7555 41.4246 32.7231 41.4677 32.6871C41.486 32.6718 41.5026 32.6581 41.5192 32.641C41.5192 32.682 41.5208 32.7248 41.5241 32.7675C41.4794 33.4512 41.4279 34.1571 41.2207 34.5074C41.0167 34.851 40.6452 35.0304 40.6452 35.0304C40.2953 34.3895 40.7181 33.5264 41.073 32.9282C41.1162 32.911 41.1609 32.8905 41.2057 32.8666C41.0797 33.3298 40.8442 33.8785 40.9404 34.3006Z" fill="white"/>
<path d="M40.0732 32.3264C40.0716 32.4 40.0848 32.4598 40.0931 32.4905C40.0964 32.5025 40.1014 32.5196 40.1097 32.5367C39.8162 32.8341 39.5989 33.1161 39.1644 33.7399C38.7282 34.3621 38.04 34.3877 38.04 34.3877C38.1064 33.8835 38.2391 33.4853 38.6072 33.0546C38.9754 32.6256 39.448 32.2324 39.7946 31.9727C39.8841 32.0154 40.0002 32.041 40.1478 32.0239C40.1594 32.0222 40.1694 32.0205 40.181 32.0188C40.1346 32.0803 40.1064 32.1436 40.0915 32.2017C39.8294 32.3572 39.0682 32.7555 38.7598 33.3964C38.7598 33.3981 39.2424 33.2426 40.0732 32.3264Z" fill="white"/>
<path d="M39.5274 31.6991L39.5556 31.6461C39.5655 31.629 39.5755 31.6119 39.5854 31.5966C39.3035 31.7111 38.2935 32.1025 37.9668 32.2768C37.6401 32.4511 37.1675 32.8477 36.9121 33.6527C36.9121 33.6527 37.592 33.7159 38.1542 33.2374C38.7164 32.7571 39.3698 32.0888 39.6501 31.8751C39.6219 31.8478 39.6003 31.8222 39.5854 31.8017C39.5854 31.8017 38.8258 32.4956 38.0216 32.7947C38.0216 32.7947 38.194 32.4734 38.5107 32.2392C38.8988 31.9555 39.1874 31.8615 39.5274 31.6991Z" fill="white"/>
<path d="M38.9504 31.2257C38.9603 31.1984 38.9719 31.171 38.9835 31.1454C38.6502 31.2155 37.8193 31.318 37.4462 31.436C37.0747 31.5539 36.4031 31.8342 36.0034 32.617C36.0034 32.617 36.5888 32.8033 37.6933 32.2666C38.7978 31.7316 39.1444 31.6205 39.355 31.5642C39.1859 31.5505 39.0681 31.4924 39.0051 31.4531C38.5656 31.6547 37.9752 31.894 37.3898 31.9094C37.3898 31.9094 37.6784 31.6992 37.9819 31.5676C38.3135 31.4274 38.6751 31.2975 38.9504 31.2257Z" fill="white"/>
<path d="M38.9783 30.6618C39.0861 30.7148 39.169 30.7404 39.31 30.7558C39.2337 30.8071 39.1591 30.872 39.0944 30.9592C38.7047 31.0754 38.0414 31.2019 36.9468 31.2822C35.8523 31.3642 35.2686 31.1557 35.2686 31.1557C35.65 30.9164 36.2586 30.672 36.6698 30.59C37.0811 30.5079 38.1607 30.5165 38.635 30.4498C38.64 30.4549 38.6981 30.5045 38.7909 30.5609C38.3929 30.5968 37.5438 30.6395 37.106 30.8669C37.106 30.8686 37.9136 30.9797 38.9783 30.6618Z" fill="white"/>
<path d="M38.8955 30.0122C38.9502 29.978 39.0166 29.9455 39.0978 29.9148C38.5439 29.7422 37.7827 29.4653 36.6384 29.3884C35.7976 29.3319 35.1923 29.3815 34.8789 29.4653C34.8789 29.4653 35.6434 30.0208 36.5174 30.2173C37.3913 30.4139 38.1011 30.2891 38.6202 30.2925C38.655 30.2395 38.6932 30.1814 38.7545 30.1216C38.1476 30.125 37.1376 29.9643 36.7761 29.8396C36.7777 29.8396 37.6583 29.6499 38.8955 30.0122Z" fill="white"/>
<path d="M38.8936 29.3405C38.897 29.3559 38.9616 29.679 39.3231 29.8567C38.5454 29.5046 37.013 29.303 36.1888 28.9509C35.0744 28.474 34.8721 27.8792 34.8721 27.8792C35.8356 27.8535 36.615 28.0963 37.2153 28.286C37.9185 28.5082 38.9898 28.9201 39.3646 29.0927C39.2237 29.0979 39.0711 29.1406 38.9401 29.2295C38.416 29.0226 38.1722 28.9355 37.6979 28.7987C37.3232 28.691 37.0462 28.6689 36.8107 28.6466C36.8107 28.6466 37.1407 28.8722 37.6847 29.0517C38.222 29.226 38.4558 29.2551 38.8936 29.3405Z" fill="white"/>
<path d="M38.834 28.4654C38.8655 28.5218 38.9567 28.6586 38.9932 28.7132C37.7627 28.5013 36.4095 27.5408 35.9915 26.9477C35.5736 26.3529 35.693 25.4641 35.693 25.4641C36.0977 25.5496 36.98 26.3324 37.2088 26.5682C37.4377 26.8041 38.1275 27.4946 38.6052 27.8826L38.7544 28.3287C38.3448 27.9903 37.8589 27.6108 37.5571 27.3767C37.3249 27.1955 36.975 26.9391 36.63 26.8178C36.63 26.8178 36.9501 27.2468 37.2071 27.4553C37.504 27.698 37.8075 27.9082 38.0562 28.0484C38.2735 28.1714 38.3862 28.2415 38.834 28.4654Z" fill="white"/>
<path d="M42.3054 32.0154C42.3435 31.9829 42.375 31.9487 42.4015 31.918C42.4579 31.9915 42.6486 32.2376 42.7415 32.4803C42.8128 32.6888 42.8875 32.9708 42.9256 33.1349C42.9637 33.2973 43.0749 33.6323 43.1429 33.7485C43.1429 33.7485 42.8427 33.7878 42.6221 33.5212C42.4049 33.258 42.3302 32.9947 42.2954 32.7247C42.2689 32.511 42.2772 32.2171 42.3054 32.0154Z" fill="white"/>
<path d="M41.8323 32.0547C41.8887 32.1316 41.9418 32.1624 41.9468 32.1658L41.9866 32.188L42.0297 32.1743C42.0662 32.1624 42.101 32.147 42.1342 32.1316C42.1773 32.2564 42.1955 32.3179 42.2055 32.4239C42.2204 32.564 42.247 32.7879 42.1955 32.9691C42.1325 33.1896 42.0048 33.3246 41.9335 33.4101C41.9335 33.4101 41.7378 33.1879 41.6814 33.0033C41.6234 32.8119 41.6018 32.5879 41.6748 32.3589C41.7129 32.2342 41.776 32.1196 41.8323 32.0547Z" fill="white"/>
<path d="M41.156 32.0769C41.3567 32.0496 41.5093 31.9744 41.6221 31.8872C41.6469 31.9607 41.6867 32.0581 41.6569 32.1966C41.627 32.335 41.5342 32.4888 41.3998 32.6C41.1975 32.7657 40.9272 32.923 40.6287 32.8751C40.6304 32.8768 40.5607 32.6444 41.156 32.0769Z" fill="white"/>
<path d="M40.9302 31.6907C40.955 31.8958 41.0496 32.0257 41.0579 32.036C40.9882 32.1214 40.7361 32.5692 40.2088 32.494C40.2088 32.494 40.0662 32.1898 40.4177 31.9488C40.6549 31.783 40.766 31.7505 40.9302 31.6907Z" fill="white"/>
<path d="M40.975 31.3094C40.834 31.3454 40.6516 31.3607 40.4293 31.306L40.3696 31.2906L40.3514 31.2308C40.0811 31.4582 39.7594 31.4958 39.6499 31.7009C39.6499 31.7009 39.7842 31.959 40.1358 31.9162C40.4857 31.8735 40.7494 31.7043 40.9368 31.4616C40.9435 31.4223 40.9584 31.3556 40.975 31.3094Z" fill="white"/>
<path d="M40.368 30.9899C40.4177 30.9147 40.4526 30.7968 40.5571 30.6771C40.3249 30.6361 40.1159 30.6327 39.844 30.6857C39.5206 30.7489 39.1906 30.8275 39.0264 31.3335C39.0264 31.3335 39.2337 31.5163 39.6101 31.436C39.9302 31.3693 40.2105 31.2275 40.368 30.9899Z" fill="white"/>
<path d="M40.2324 30.4396C40.1511 30.3678 40.0764 30.272 40.0217 30.1507L39.9935 30.0875C39.7133 29.9695 39.4214 29.9097 39.1361 30.0191C38.8509 30.1285 38.7746 30.2567 38.7017 30.3661C38.7017 30.3661 39.0184 30.6395 39.3832 30.6498C39.7497 30.66 40.0864 30.5524 40.2324 30.4396Z" fill="white"/>
<path d="M40.3167 29.8464C40.3648 29.8276 40.4196 29.8105 40.4809 29.7968C40.3565 29.684 40.2338 29.5131 40.1758 29.2567C40.0464 29.2875 39.7396 29.2875 39.6053 29.2345C39.471 29.1815 39.2056 29.1781 39 29.32C39 29.32 39.0696 29.6925 39.5373 29.819C39.9751 29.9404 40.1376 29.9079 40.3167 29.8464Z" fill="white"/>
<path d="M40.1473 29.1183L40.2087 29.0773C40.217 29.0722 40.3215 29.0055 40.5006 28.9918C40.3497 28.8756 39.9914 28.5662 39.7377 28.4193C39.4608 28.2586 39.0014 28.0466 38.7676 28.0159C38.7676 28.0159 38.9865 28.609 39.2419 28.8483C39.5072 29.0961 39.6929 29.1884 40.1473 29.1183Z" fill="white"/>
<path d="M40.6204 28.8466C40.5076 28.6961 40.4198 28.4894 40.3551 28.2467C40.302 28.0484 40.1826 27.5561 40.1096 27.428C40.0383 27.2998 39.7796 26.8537 39.2738 26.7152C39.2738 26.7152 39.1395 27.2964 39.3932 27.7578C39.6138 28.1526 40.0632 28.5714 40.6204 28.8466Z" fill="white"/>
<path d="M43.4212 31.5522C43.4842 31.6172 43.5323 31.6531 43.6451 31.7112C43.6451 31.7112 43.8059 32.0291 43.6119 32.4103C43.4162 32.7931 43.252 33.1845 43.1724 33.3999C43.1724 33.3999 43.068 33.3845 42.9519 32.7845C42.8722 32.3778 42.7728 32.2769 42.6699 32.1385C42.7827 32.1983 42.8756 32.2154 42.8822 32.2171L42.9602 32.2308L42.995 32.159C43.0646 32.0206 43.0845 31.8872 43.0845 31.7779C43.0845 31.7419 43.0812 31.7078 43.0779 31.677C43.2587 31.6821 43.3549 31.5864 43.393 31.5386C43.3963 31.5334 43.3996 31.53 43.4013 31.5266L43.4212 31.5522Z" fill="white"/>
<path d="M39.1328 26.958C39.1312 27.0127 39.1295 27.0759 39.1312 27.1409L39.1411 27.2827C38.8443 26.8913 38.4861 26.4179 38.1461 25.982C37.9122 25.683 37.7166 25.5035 37.496 25.3565C37.6801 25.9103 38.0118 26.3512 38.2456 26.5717C38.4794 26.7922 38.8177 27.1631 39.1477 27.3904L39.1792 27.5032C39.2058 27.6058 39.2439 27.7117 39.2987 27.8109C39.375 27.951 39.4777 28.0895 39.5972 28.2211C39.501 28.1732 39.3899 28.1202 39.2804 28.0707L39.1776 28.0262C38.2688 27.5306 37.3666 26.5017 37.0018 25.7838C36.637 25.0676 36.7879 24.237 36.8857 23.7909C37.297 24.1515 37.8923 24.8608 38.1511 25.2471C38.4695 25.7205 38.8774 26.3922 39.1295 26.9392V26.958H39.1328Z" fill="white"/>
<path d="M51.8789 30.0122C51.8239 29.978 51.7577 29.9455 51.6748 29.9148C52.2288 29.7422 52.9898 29.4653 54.1343 29.3884C54.9749 29.3319 55.5804 29.3815 55.8937 29.4653C55.8937 29.4653 55.1292 30.0208 54.2555 30.2173C53.3814 30.4139 52.6714 30.2891 52.1523 30.2925C52.1174 30.2395 52.0796 30.1814 52.0182 30.1216C52.625 30.125 53.6349 29.9643 53.9968 29.8396C53.9968 29.8396 53.1158 29.6499 51.8789 30.0122Z" fill="white"/>
<path d="M51.8807 29.3405C51.8772 29.3559 51.8141 29.679 51.4509 29.8567C52.2288 29.5046 53.7613 29.303 54.5851 28.9509C55.6999 28.474 55.9019 27.8792 55.9019 27.8792C54.9384 27.8535 54.1592 28.0963 53.5589 28.286C52.8558 28.5082 51.7844 28.9201 51.4097 29.0927C51.5506 29.0979 51.7032 29.1406 51.8325 29.2295C52.3564 29.0226 52.6001 28.9355 53.0745 28.7987C53.4493 28.691 53.7277 28.6689 53.962 28.6466C53.962 28.6466 53.6319 28.8722 53.0878 29.0517C52.5507 29.226 52.3182 29.2551 51.8807 29.3405Z" fill="white"/>
<path d="M51.9407 28.4654C51.9089 28.5218 51.8178 28.6586 51.7812 28.7132C53.0116 28.5013 54.3649 27.5408 54.7831 26.9477C55.2008 26.3529 55.0813 25.4641 55.0813 25.4641C54.6752 25.5496 53.7946 26.3324 53.5656 26.5682C53.337 26.8041 52.6468 27.4946 52.171 27.8826L52.0219 28.3287C52.4315 27.9903 52.9171 27.6108 53.2192 27.3767C53.4513 27.1955 53.7994 26.9391 54.1479 26.8178C54.1479 26.8178 53.8277 27.2468 53.5707 27.4553C53.2738 27.698 52.9721 27.9082 52.7215 28.0484C52.5011 28.1714 52.3868 28.2415 51.9407 28.4654Z" fill="white"/>
<path d="M51.6419 26.958C51.6436 27.0127 51.6453 27.0759 51.6419 27.1409L51.632 27.2827C51.9302 26.8913 52.2869 26.4179 52.6286 25.982C52.8624 25.683 53.0583 25.5035 53.2788 25.3565C53.0944 25.9103 52.7644 26.3512 52.5293 26.5717C52.2951 26.7922 51.9569 27.1631 51.6268 27.3904L51.5955 27.5032C51.5688 27.6058 51.5306 27.7117 51.476 27.8109C51.3982 27.951 51.2968 28.0895 51.1777 28.2211C51.2736 28.1732 51.3849 28.1202 51.4945 28.0707L51.5972 28.0262C52.5061 27.5306 53.4081 26.5017 53.773 25.7838C54.1379 25.0676 53.987 24.237 53.889 23.7909C53.476 24.1515 52.8821 24.8608 52.6234 25.2471C52.3054 25.7205 51.8971 26.3922 51.6453 26.9392V26.958H51.6419Z" fill="white"/>
<path d="M40.2937 32.6135C39.9189 32.9998 39.1295 33.8664 39.2042 34.8064C39.2042 34.8064 39.9371 34.5705 40.239 34.015C40.5408 33.4613 40.7282 33.1143 40.8542 32.9878C40.773 32.9998 40.6901 32.9998 40.6121 32.9861L40.5458 32.9742C40.36 33.3228 39.9902 33.8954 39.6585 34.0954C39.6585 34.0954 39.574 33.6322 40.5491 32.6922C40.564 32.6546 40.5823 32.6101 40.6104 32.5623C40.5209 32.5947 40.4198 32.6153 40.3053 32.6118" fill="white"/>
<path d="M50.3499 27.4109C50.1625 27.8365 49.8557 28.2706 49.0233 28.8586C48.8357 28.9902 48.6301 29.2636 48.7876 29.6482C48.9452 30.0328 49.2386 30.5797 49.0628 30.7916C48.8855 31.0053 48.2569 31.1164 47.7478 30.9027C47.7478 30.9027 47.64 31.236 47.4526 31.4496C47.4526 31.4496 47.5405 31.6326 47.8357 31.5419C47.8357 31.5419 47.7279 31.8154 47.8755 32.1094C47.8755 32.1094 48.2188 32.0496 48.3664 31.7249C48.3664 31.7249 48.504 31.9778 48.7793 32.0684C48.7793 32.0684 49.0048 31.947 48.9568 31.4821C48.9568 31.4821 49.1242 31.8974 49.6335 31.9676C49.6335 31.9676 49.9287 31.583 49.5454 31.0668C49.5454 31.0668 49.8209 31.3198 50.3215 31.1984C50.3215 31.1984 50.3997 30.9352 49.9485 30.5711C49.9485 30.5711 50.4591 30.5506 50.6567 30.1063C50.6567 30.1063 50.4393 29.8328 49.9103 29.8943C49.9103 29.8943 50.401 29.7832 50.5089 29.1747C50.5089 29.1747 50.1556 28.9423 49.5953 29.3166C49.5953 29.3166 49.6932 29.1235 49.9287 28.9321C50.1625 28.7372 50.4474 28.2005 50.3499 27.4109Z" fill="white"/>
<path d="M48.2936 33.5177C48.3683 33.4152 48.423 33.3144 48.4644 33.2169C48.3766 33.9536 48.3451 34.451 47.9586 34.9278C47.9586 34.9278 47.7265 34.6082 47.8757 33.8323C47.9404 33.8117 48.0134 33.781 48.083 33.7331C48.083 33.7331 47.9951 34.0476 48.0499 34.3655C48.0515 34.3638 48.1908 34.2595 48.2936 33.5177Z" fill="white"/>
<path d="M48.9601 33.4408C49.0064 33.381 49.0945 33.2546 49.1427 33.1639C49.174 33.5913 49.2836 34.7176 48.9186 35.0697C48.9186 35.0697 48.6682 34.88 48.5786 33.2392C48.6317 33.3315 48.7246 33.4289 48.7693 33.4819C48.7693 33.4819 48.708 34.0032 48.8904 34.3706C48.8904 34.3689 49.0726 34.2271 48.9601 33.4408Z" fill="white"/>
<path d="M49.8326 34.3006C49.524 33.9212 49.4329 32.7846 49.4329 32.7846C49.3895 32.7555 49.3482 32.7231 49.3053 32.6871C49.2868 32.6718 49.2705 32.6581 49.2537 32.641C49.2537 32.682 49.252 32.7248 49.2485 32.7675C49.2937 33.4512 49.3448 34.1571 49.5524 34.5074C49.7561 34.851 50.1278 35.0304 50.1278 35.0304C50.4776 34.3895 50.0548 33.5264 49.7015 32.9282C49.6568 32.911 49.6134 32.8905 49.5687 32.8666C49.695 33.3298 49.9301 33.8785 49.8326 34.3006Z" fill="white"/>
<path d="M50.7014 32.3264C50.7031 32.4 50.6898 32.4598 50.6816 32.4905C50.6782 32.5025 50.673 32.5196 50.6648 32.5367C50.9566 32.8341 51.1758 33.1161 51.6103 33.7399C52.0448 34.3621 52.7345 34.3877 52.7345 34.3877C52.6683 33.8835 52.5355 33.4853 52.1672 33.0546C51.7994 32.6256 51.3267 32.2324 50.9816 31.9727C50.8922 32.0154 50.7761 32.041 50.63 32.0239C50.6184 32.0222 50.6068 32.0205 50.5952 32.0188C50.6416 32.0803 50.67 32.1436 50.6863 32.2017C50.9485 32.3572 51.7096 32.7555 52.0181 33.3964C52.0147 33.3981 51.5321 33.2426 50.7014 32.3264Z" fill="white"/>
<path d="M51.2474 31.6991L51.2191 31.6461C51.2092 31.629 51.1993 31.6119 51.189 31.5966C51.4709 31.7111 52.4812 32.1025 52.8079 32.2768C53.1345 32.4511 53.6055 32.8477 53.8625 33.6527C53.8625 33.6527 53.1826 33.7159 52.6205 33.2374C52.0584 32.7571 51.4047 32.0888 51.1245 31.8751C51.1529 31.8478 51.1744 31.8222 51.189 31.8017C51.189 31.8017 51.9488 32.4956 52.7528 32.7947C52.7528 32.7947 52.5805 32.4734 52.2638 32.2392C51.8757 31.9555 51.5856 31.8615 51.2474 31.6991Z" fill="white"/>
<path d="M51.8241 31.2257C51.8125 31.1984 51.8009 31.171 51.7893 31.1454C52.1228 31.2155 52.9552 31.318 53.3269 31.436C53.6982 31.5539 54.3699 31.8342 54.7696 32.617C54.7696 32.617 54.1843 32.8033 53.0798 32.2666C51.9754 31.7316 51.6303 31.6205 51.418 31.5642C51.5856 31.5505 51.705 31.4924 51.7678 31.4531C52.2091 31.6547 52.7979 31.894 53.3832 31.9094C53.3832 31.9094 53.0944 31.6992 52.791 31.5676C52.461 31.4274 52.0996 31.2975 51.8241 31.2257Z" fill="white"/>
<path d="M51.7959 30.6618C51.688 30.7148 51.6034 30.7404 51.4624 30.7558C51.5389 30.8071 51.6132 30.872 51.6781 30.9592C52.0679 31.0754 52.731 31.2019 53.8256 31.2822C54.9202 31.3642 55.5038 31.1557 55.5038 31.1557C55.1226 30.9164 54.5141 30.672 54.1028 30.59C53.6915 30.5079 52.6103 30.5165 52.1375 30.4498C52.1324 30.4549 52.0744 30.5045 51.9815 30.5609C52.3795 30.5968 53.2287 30.6395 53.6666 30.8669C53.6683 30.8686 52.8604 30.9797 51.7959 30.6618Z" fill="white"/>
<path d="M48.4695 32.0154C48.4314 31.9829 48.3999 31.9487 48.3717 31.918C48.3153 31.9915 48.1263 32.2376 48.0317 32.4803C47.9604 32.6888 47.8841 32.9708 47.8477 33.1349C47.8095 33.2973 47.6984 33.6323 47.6304 33.7485C47.6304 33.7485 47.9306 33.7878 48.1528 33.5212C48.3717 33.258 48.4447 32.9947 48.4795 32.7247C48.506 32.511 48.4977 32.2171 48.4695 32.0154Z" fill="white"/>
<path d="M48.9421 32.0547C48.8873 32.1316 48.8326 32.1624 48.8276 32.1658L48.7878 32.188L48.7447 32.1743C48.7082 32.1624 48.6734 32.147 48.6419 32.1316C48.5988 32.2564 48.5805 32.3179 48.5706 32.4239C48.5556 32.564 48.5291 32.7879 48.5805 32.9691C48.6436 33.1896 48.7712 33.3246 48.8425 33.4101C48.8425 33.4101 49.038 33.1879 49.0948 33.0033C49.1528 32.8119 49.1743 32.5879 49.1012 32.3589C49.0617 32.2342 48.9985 32.1196 48.9421 32.0547Z" fill="white"/>
<path d="M49.6186 32.0769C49.4179 32.0496 49.2653 31.9744 49.151 31.8872C49.1261 31.9607 49.0861 32.0581 49.1162 32.1966C49.1442 32.335 49.2387 32.4888 49.3732 32.6C49.5739 32.7657 49.8459 32.923 50.1442 32.8751C50.1442 32.8768 50.2121 32.6444 49.6186 32.0769Z" fill="white"/>
<path d="M49.8439 31.6907C49.8207 31.8958 49.7245 32.0257 49.7163 32.036C49.7859 32.1214 50.0378 32.5692 50.5655 32.494C50.5655 32.494 50.7077 32.1898 50.3562 31.9488C50.119 31.783 50.0064 31.7505 49.8439 31.6907Z" fill="white"/>
<path d="M49.7979 31.3094C49.9388 31.3454 50.121 31.3607 50.3449 31.306L50.4047 31.2906L50.4231 31.2308C50.6935 31.4582 51.0132 31.4958 51.1245 31.7009C51.1245 31.7009 50.99 31.959 50.6402 31.9162C50.2903 31.8735 50.0248 31.7043 49.8391 31.4616C49.8309 31.4223 49.8142 31.3556 49.7979 31.3094Z" fill="white"/>
<path d="M50.4061 30.9899C50.3546 30.9147 50.3215 30.7968 50.2153 30.6771C50.4474 30.6361 50.6584 30.6327 50.9287 30.6857C51.2519 30.7489 51.5819 30.8275 51.7461 31.3335C51.7461 31.3335 51.539 31.5163 51.1625 31.436C50.8423 31.3693 50.5639 31.2275 50.4061 30.9899Z" fill="white"/>
<path d="M50.542 30.4396C50.6236 30.3678 50.698 30.272 50.7513 30.1507L50.7792 30.0875C51.0594 29.9695 51.3516 29.9097 51.6366 30.0191C51.9236 30.1285 51.9984 30.2567 52.071 30.3661C52.071 30.3661 51.7543 30.6395 51.3895 30.6498C51.0246 30.66 50.6881 30.5524 50.542 30.4396Z" fill="white"/>
<path d="M50.4579 29.8464C50.4097 29.8276 50.3564 29.8105 50.2954 29.7968C50.4196 29.684 50.5408 29.5131 50.6005 29.2567C50.7312 29.2875 51.0363 29.2875 51.1708 29.2345C51.3053 29.1815 51.5688 29.1781 51.7763 29.32C51.7763 29.32 51.708 29.6925 51.2404 29.819C50.7995 29.9404 50.6353 29.9079 50.4579 29.8464Z" fill="white"/>
<path d="M50.6252 29.1183L50.5642 29.0773C50.5556 29.0722 50.4512 29.0055 50.272 28.9918C50.4232 28.8756 50.7812 28.5662 51.0352 28.4193C51.312 28.2586 51.7714 28.0466 52.0052 28.0159C52.0052 28.0159 51.7864 28.609 51.5307 28.8483C51.2656 29.0961 51.0799 29.1884 50.6252 29.1183Z" fill="white"/>
<path d="M50.1528 28.8466C50.2637 28.6961 50.3535 28.4894 50.418 28.2467C50.4713 28.0484 50.592 27.5561 50.6634 27.428C50.7347 27.2998 50.9934 26.8537 51.4992 26.7152C51.4992 26.7152 51.6338 27.2964 51.3798 27.7578C51.1593 28.1526 50.7115 28.5714 50.1528 28.8466Z" fill="white"/>
<path d="M47.3514 31.5522C47.2867 31.6172 47.2403 31.6531 47.1276 31.7112C47.1276 31.7112 46.9667 32.0291 47.1607 32.4103C47.3564 32.7931 47.5206 33.1845 47.6002 33.3999C47.6002 33.3999 47.7046 33.3845 47.8208 32.7845C47.9003 32.3778 47.9998 32.2769 48.1027 32.1385C47.9899 32.1983 47.897 32.2154 47.8904 32.2171L47.8125 32.2308L47.776 32.159C47.7063 32.0206 47.6864 31.8872 47.6864 31.7779C47.6864 31.7419 47.6897 31.7078 47.693 31.677C47.5123 31.6821 47.4161 31.5864 47.3779 31.5386C47.3746 31.5334 47.3713 31.53 47.3697 31.5266L47.3514 31.5522Z" fill="white"/>
<path d="M50.4793 32.6135C50.8541 32.9998 51.6435 33.8664 51.5688 34.8064C51.5688 34.8064 50.836 34.5705 50.5339 34.015C50.2322 33.4613 50.0449 33.1143 49.9189 32.9878C50.0002 32.9998 50.0814 32.9998 50.1609 32.9861L50.2271 32.9742C50.4132 33.3228 50.7827 33.8954 51.1145 34.0954C51.1145 34.0954 51.1992 33.6322 50.2241 32.6922C50.209 32.6546 50.1893 32.6101 50.1626 32.5623C50.252 32.5947 50.3534 32.6153 50.4677 32.6118" fill="white"/>
<path d="M44.8145 25.1189C44.8145 25.0505 45.0715 24.9924 45.3883 24.9924C45.705 24.9924 45.9604 25.0489 45.9604 25.1189C45.9604 25.189 45.7033 25.2437 45.3883 25.2437C45.0715 25.2454 44.8145 25.189 44.8145 25.1189Z" fill="white"/>
<path d="M42.8691 25.799C42.8691 25.7615 43.035 25.7307 43.2389 25.7307C43.4429 25.7307 43.6071 25.7615 43.6071 25.799C43.6071 25.8367 43.4413 25.8674 43.2389 25.8674C43.035 25.8674 42.8691 25.8367 42.8691 25.799Z" fill="white"/>
<path d="M45.499 25.3958C45.499 25.4607 45.4492 25.512 45.3862 25.512C45.3232 25.512 45.2734 25.4607 45.2734 25.3958C45.2734 25.3308 45.3232 25.2795 45.3862 25.2795C45.4492 25.2795 45.499 25.3325 45.499 25.3958Z" fill="white"/>
<path d="M44.7726 24.9975C44.5819 24.5292 44.4541 24.1839 44.4591 24.0677C44.4624 23.9977 44.5437 23.9463 44.6184 23.9207C44.6946 23.8968 44.7626 23.8917 44.8124 23.931C44.9119 24.0096 45.0031 24.642 45.0379 24.9035C44.9417 24.924 44.8854 24.9377 44.7726 24.9975Z" fill="white"/>
<path d="M45.121 24.8949C45.1691 24.8898 45.2189 24.8863 45.2687 24.8847C45.2388 24.6334 45.1542 24.2146 45.1045 24.0506C45.0547 23.8865 44.9917 23.7668 44.8872 23.7378C44.8872 23.7378 44.9685 23.9668 45.0133 24.2044C45.058 24.442 45.0912 24.6693 45.121 24.8949Z" fill="white"/>
<path d="M44.5172 25.7341C44.7262 25.6828 44.9418 25.4504 44.9418 25.4504C44.6035 25.5016 44.5172 25.7341 44.5172 25.7341ZM44.8323 25.7119C44.5405 25.8879 44.2104 25.8606 44.2104 25.8606C44.2735 25.7409 44.3332 25.6316 44.5172 25.4948C44.7013 25.3598 44.9998 25.3256 45.1176 25.3427C45.0911 25.435 44.9716 25.6281 44.8323 25.7119Z" fill="white"/>
<path d="M43.7396 26.2093V26.1854C43.451 26.2229 43.111 26.2075 43.111 26.2075C43.1293 26.3186 43.1741 26.4024 43.2504 26.4537C43.267 26.2127 43.7396 26.2093 43.7396 26.2093ZM42.7827 25.8914C42.7827 25.8914 43.1459 26.0315 43.5107 26.0127C43.8756 25.9939 44.5456 25.9854 44.7628 25.8777C44.7628 25.8777 44.7263 26.0178 44.5539 26.0999C44.5539 26.0999 44.645 26.0999 44.7346 26.1802C44.7346 26.1802 44.6815 26.2964 44.5273 26.3579C44.5273 26.3579 44.8043 26.6553 45.1011 26.6332C45.1011 26.6332 44.9651 26.8092 44.66 26.7408C44.3565 26.6742 44.2587 26.4981 44.2073 26.4298C44.2073 26.4298 44.2471 26.5972 44.2288 26.6656C44.2288 26.6656 44.0945 26.6571 43.99 26.5221C43.99 26.5221 44.0663 26.6571 44.0812 26.7716C44.0812 26.7716 43.9983 26.7818 43.8474 26.6913C43.8474 26.6913 43.8789 26.775 43.8839 26.8724C43.8839 26.8724 43.5323 26.7562 43.3615 26.5921C43.3615 26.5921 43.3582 26.7049 43.3664 26.7699C43.3698 26.7699 42.8241 26.7118 42.7827 25.8914Z" fill="white"/>
<path d="M42.698 25.9478C42.7113 26.1256 42.756 26.3016 42.8157 26.4264C42.8157 26.4264 42.6001 26.2589 42.5487 26.1187C42.4957 25.9768 42.484 25.8812 42.698 25.9478Z" fill="white"/>
<path d="M42.2686 26.623C42.3184 26.623 42.3582 26.582 42.3582 26.5307C42.3582 26.4794 42.3184 26.4384 42.2686 26.4384C42.2189 26.4384 42.1791 26.4794 42.1791 26.5307C42.1791 26.582 42.2189 26.623 42.2686 26.623ZM42.7927 26.5153C42.937 26.582 43.0646 26.7426 43.0646 26.7426C42.8474 26.7939 42.7495 26.8589 42.7495 26.8589C42.3333 26.5563 41.99 26.8623 41.99 26.8623C41.7645 26.7307 41.7197 26.4076 41.8325 26.2384C41.9453 26.0675 42.199 26.0983 42.32 26.1273C42.3963 26.3752 42.6633 26.4555 42.7927 26.5153Z" fill="white"/>
<path d="M43.1128 26.799C43.1128 26.799 43.2653 27.0075 43.3748 27.0998C43.3748 27.0998 42.8143 27.0946 42.6716 27.5937C42.6716 27.5937 42.4776 27.2878 42.6202 27.0878C42.7728 26.8724 42.9121 26.8451 43.1128 26.799Z" fill="white"/>
<path d="M43.728 26.9237C43.728 26.9237 43.9088 26.9784 43.9685 26.9938C43.9685 26.9938 43.9718 26.8861 43.9668 26.8348C44.0215 26.8485 44.0895 26.8673 44.1476 26.8725C44.1476 26.8725 44.3283 27.2878 44.4693 27.4553C44.4693 27.4553 44.4776 27.5476 44.398 27.6877C44.398 27.6877 44.2952 27.4416 44.1111 27.2451C44.0099 27.1322 43.9436 27.0775 43.728 26.9237Z" fill="white"/>
<path d="M43.2505 26.8348C43.3085 26.852 43.5971 26.9443 43.738 27.0485C43.9139 27.1784 44.0349 27.3271 44.015 27.5835C44.015 27.5835 43.8741 27.3818 43.7165 27.2895C43.5938 27.216 43.3699 27.0126 43.2505 26.8348Z" fill="white"/>
<path d="M43.2552 24.953C43.3083 24.953 43.4128 24.9787 43.4128 25.0675C43.4128 25.1564 43.2785 25.37 43.242 25.4658H43.2387C43.2022 25.37 43.0679 25.1564 43.0679 25.0675C43.0679 24.9787 43.1723 24.953 43.2254 24.953H43.2552Z" fill="white"/>
<path d="M43.1377 25.6436C43.1129 25.5188 43.0648 25.1941 42.9901 25.1223C42.9188 25.0539 42.8143 25.0471 42.7629 25.0505C42.7099 25.0539 42.6551 25.1103 42.6767 25.1821C42.6983 25.2556 42.9304 25.6145 42.9603 25.659C43.015 25.6504 43.0051 25.6538 43.1377 25.6436Z" fill="white"/>
<path d="M43.3433 25.6436C43.3698 25.5188 43.4162 25.1941 43.4909 25.1223C43.5622 25.0539 43.6667 25.0471 43.718 25.0505C43.7711 25.0539 43.8259 25.1103 43.8043 25.1821C43.7827 25.2556 43.5506 25.6145 43.5207 25.659C43.466 25.6504 43.4776 25.6538 43.3433 25.6436Z" fill="white"/>
<path d="M43.4925 24.5172H43.3118V24.3104H43.1658V24.5172H42.9834V24.6471H43.1658V24.8898H43.3118V24.6471H43.4925V24.5172Z" fill="white"/>
<path d="M41.2983 25.847C41.2983 25.8076 41.3016 25.7683 41.3066 25.729C41.3199 25.6282 41.3215 25.5427 41.3116 25.4709C41.1822 25.5222 41.0927 25.5547 40.9136 25.8538C40.9119 25.8538 41.1988 25.6726 41.2983 25.847Z" fill="white"/>
<path d="M41.5489 26.3221C41.5522 26.2486 41.6003 26.0144 41.6583 25.8486C41.7313 25.6469 41.6898 25.353 41.602 25.1735C41.5174 25.0009 41.4693 24.8402 41.4859 24.6608C41.4859 24.6608 41.3167 24.7189 41.2189 24.7821C41.2023 24.9889 41.32 25.1957 41.3764 25.3137C41.4427 25.4538 41.4295 25.6333 41.4145 25.7444C41.388 25.9324 41.4261 26.1324 41.5489 26.3221Z" fill="white"/>
<path d="M41.5673 24.7377C41.5607 24.7154 41.5607 24.6488 41.574 24.6231C41.574 24.6231 41.841 24.3548 42.0649 24.3087C42.2058 24.2796 42.2937 24.3445 42.3352 24.3805C42.3352 24.3805 42.2555 24.3702 42.1362 24.471C42.0168 24.5719 41.8675 24.6932 41.7547 24.7223C41.6453 24.7548 41.622 24.7445 41.5673 24.7377Z" fill="white"/>
<path d="M42.3583 24.4027C42.4594 24.507 42.544 24.6163 42.5424 24.7103C42.5407 24.8095 42.4296 25.0556 42.3715 25.1496C42.3135 25.2436 42.229 25.3667 42.2389 25.5154C42.2439 25.5906 42.2936 25.6675 42.3533 25.7307C42.3533 25.7307 42.0266 25.6504 41.9868 25.4436C41.952 25.2573 42.0283 25.1274 42.0813 25.0248C42.1294 24.9274 42.2804 24.7018 42.3185 24.6078C42.3517 24.5206 42.3699 24.4489 42.3583 24.4027Z" fill="white"/>
<path d="M44.2671 26.746C44.3318 26.9835 44.4429 27.2074 44.5524 27.3835C44.6502 27.5424 44.7132 27.804 44.7032 27.8928C44.7032 27.8928 44.8509 27.5578 44.7745 27.3202C44.7182 27.1357 44.559 26.8622 44.2671 26.746Z" fill="white"/>
<path d="M44.6353 26.8246C44.6353 26.8246 44.8592 26.828 44.9636 26.8998C45.0979 26.9921 45.2273 27.1921 45.2754 27.4313C45.2754 27.4313 45.0482 27.3903 44.9371 27.2758C44.826 27.1596 44.6883 26.987 44.6353 26.8246Z" fill="white"/>
<path d="M43.4742 27.2417C43.4311 27.2451 43.3166 27.2725 43.2603 27.2895C43.2603 27.2895 43.451 27.3476 43.5472 27.428C43.6284 27.4964 43.6981 27.604 43.7313 27.7835C43.7777 28.0347 43.9203 28.3048 43.9634 28.3868L43.9816 28.3834C43.9551 28.2108 44.0596 27.8519 44.0862 27.8006C44.0862 27.8006 43.9352 27.7032 43.8656 27.6006C43.8142 27.5254 43.7246 27.4006 43.4742 27.2417Z" fill="white"/>
<path d="M44.4678 27.78C44.5242 27.9116 44.6718 28.1458 44.6021 28.3902C44.5325 28.6346 44.3783 28.7389 44.2837 28.9457C44.2837 28.9457 44.2075 28.5731 44.224 28.2843C44.2406 27.9971 44.3434 27.886 44.4678 27.78Z" fill="white"/>
<path d="M44.8987 27.7903C44.8987 27.7903 45.121 28.2347 45.1624 28.4107C45.2022 28.5833 45.1657 28.6979 45.0895 28.8038C45.0132 28.9081 44.8855 29.0209 44.7678 29.2414C44.7678 29.2414 44.6301 29.0551 44.6135 28.956C44.5969 28.8585 44.6234 28.6244 44.6533 28.5252C44.6815 28.4278 44.7993 28.1116 44.8987 27.7903Z" fill="white"/>
<path d="M45.0132 29.2123C44.9634 29.267 44.7031 29.5883 44.6682 29.684C44.6334 29.778 44.5737 29.9558 44.655 30.0788C44.7362 30.2019 44.9203 30.4002 45.0828 30.4839C45.0828 30.4839 44.907 30.2002 44.9253 29.9678C44.9369 29.819 45.048 29.6874 45.0696 29.5969C45.0894 29.5063 45.0762 29.3542 45.0132 29.2123Z" fill="white"/>
<path d="M44.5026 29.0328C44.5424 29.0909 44.612 29.2294 44.6219 29.3644C44.6319 29.4978 44.6103 29.6054 44.539 29.8003C44.4495 30.0464 44.3118 30.3216 44.2472 30.4446C44.2472 30.4446 44.1245 30.2652 44.0581 30.1045C44.0581 30.1045 44.2505 29.8345 44.3301 29.643C44.4263 29.4191 44.4661 29.2106 44.5026 29.0328Z" fill="white"/>
<path d="M44.4148 28.9303C44.4148 28.9303 44.3319 29.5644 43.9704 30.0344C43.7249 30.3541 43.5259 30.4634 43.3949 30.4634C43.1959 30.4634 42.9969 30.2925 42.9289 30.0977C42.8609 29.9028 42.8824 29.5986 43.0118 29.4909C43.0118 29.4909 43.1312 29.8721 43.3849 29.8858C43.6735 29.9028 44.0433 29.5696 44.4148 28.9303Z" fill="white"/>
<path d="M44.1177 28.6637C44.1476 28.7765 44.1575 28.9508 44.1177 29.1149C44.0862 29.2397 44.0133 29.4021 43.8723 29.4926C43.7496 29.5713 43.461 29.5901 43.3516 29.3098C43.3516 29.3115 43.8773 29.3525 44.1177 28.6637Z" fill="white"/>
<path d="M44.9803 31.2206C45.0516 31.4103 45.3103 31.653 45.3086 31.8017C45.3037 32.1965 45.1362 32.4375 45.0964 32.5674C45.0964 32.5674 44.7896 32.3162 44.7349 32.0291C44.7083 31.882 44.7398 31.4394 44.9803 31.2206Z" fill="white"/>
<path d="M44.637 31.4992C44.6735 31.3966 44.7862 31.118 44.9156 31.0206C44.9156 31.0206 45.0831 30.5147 44.5458 30.2036C44.5458 30.2036 44.3252 30.5061 44.2672 30.7881C44.2075 31.0719 44.501 31.2445 44.637 31.4992Z" fill="white"/>
<path d="M43.9653 30.2224C43.879 30.3284 43.758 30.4771 43.6635 30.5232C43.6635 30.5232 43.632 30.7489 43.6502 30.8993C43.6767 31.1214 43.816 31.3505 43.8757 31.5163C43.8757 31.5163 44.1096 31.2001 44.1378 31.0155C44.1643 30.8292 44.1593 30.6771 44.1693 30.5882C44.1676 30.5899 44.0383 30.3711 43.9653 30.2224Z" fill="white"/>
<path d="M43.3482 31.3061C43.2819 31.2018 43.0663 30.819 43.063 30.5404C43.063 30.5404 43.3283 30.6857 43.5489 30.5797C43.5489 30.5797 43.5787 30.9421 43.5356 31.0634C43.5008 31.1625 43.4544 31.2224 43.3482 31.3061Z" fill="white"/>
<path d="M43.4077 31.383C43.4508 31.3454 43.557 31.2445 43.5984 31.1915C43.5984 31.1915 43.7742 31.5231 43.8041 31.6205C43.8041 31.6205 43.7162 31.6444 43.62 31.571C43.5255 31.4992 43.5023 31.4804 43.4077 31.383Z" fill="white"/>
<path d="M44.2221 31.1898C44.2005 31.2735 43.9169 31.6804 43.8672 31.7299C43.8672 31.7299 43.8887 31.8769 43.9949 32.0889C44.0993 32.3008 44.2453 32.4477 44.3232 32.523C44.3232 32.523 44.4974 32.2085 44.5504 32.07C44.6101 31.9111 44.6035 31.7555 44.577 31.6974C44.5173 31.559 44.3116 31.3624 44.2221 31.1898Z" fill="white"/>
<path d="M44.6483 32.2512C44.7113 32.3828 44.9004 32.5965 44.9286 32.7657C44.9518 32.899 44.9319 33.0084 44.8971 33.1007C44.8623 33.193 44.7478 33.3707 44.6732 33.5075C44.6732 33.5075 44.4145 33.2563 44.3581 33.0768C44.315 32.9417 44.3316 32.7486 44.3929 32.629C44.4526 32.5076 44.5886 32.376 44.6483 32.2512Z" fill="white"/>
<path d="M43.9137 32.2153C43.9817 32.3657 44.1409 32.5162 44.1774 32.6495C44.2205 32.805 44.2337 32.9058 44.1608 33.087C44.0961 33.2477 44.0165 33.34 43.99 33.4374C43.99 33.4374 43.7794 33.1571 43.7445 33.0392C43.7097 32.923 43.6981 32.7298 43.7412 32.6085C43.786 32.4854 43.8623 32.3264 43.9137 32.2153Z" fill="white"/>
<path d="M44.9501 33.2836C44.9501 33.2836 44.5885 33.7348 44.5968 33.974C44.6068 34.2714 44.7991 34.4697 44.8257 34.6526C44.8257 34.6526 45.0148 34.4321 45.0877 34.2834C45.169 34.1159 45.2303 33.974 45.2088 33.7861C45.1872 33.5963 45.1391 33.4733 44.9501 33.2836Z" fill="white"/>
<path d="M44.2837 33.2391C44.3401 33.3246 44.5026 33.6203 44.4561 33.7963C44.4114 33.9724 44.2323 34.2185 44.1726 34.3245C44.1726 34.3245 44.0283 34.0202 43.9968 33.8818C43.9653 33.7434 43.9951 33.5177 44.2837 33.2391Z" fill="white"/>
<path d="M47.9038 25.799C47.9038 25.7615 47.7396 25.7307 47.5356 25.7307C47.3316 25.7307 47.1675 25.7615 47.1675 25.799C47.1675 25.8367 47.3333 25.8674 47.5356 25.8674C47.7379 25.8674 47.9038 25.8367 47.9038 25.799Z" fill="white"/>
<path d="M45.3897 24.6318C45.4129 24.4609 45.6053 24.0986 45.6053 23.9396C45.6053 23.8148 45.5075 23.714 45.3864 23.714C45.2653 23.714 45.1675 23.8148 45.1675 23.9396C45.1675 24.0986 45.3598 24.4609 45.383 24.6318H45.3897Z" fill="white"/>
<path d="M46.0017 24.9975C46.1924 24.5292 46.3201 24.1839 46.3151 24.0677C46.3118 23.9977 46.2305 23.9463 46.1559 23.9207C46.0796 23.8968 46.0116 23.8917 45.9619 23.931C45.8624 24.0096 45.7695 24.642 45.7363 24.9035C45.8308 24.924 45.8889 24.9377 46.0017 24.9975Z" fill="white"/>
<path d="M45.6534 24.8949C45.6053 24.8898 45.5556 24.8863 45.5059 24.8847C45.5357 24.6334 45.6203 24.2146 45.67 24.0506C45.7198 23.8865 45.7828 23.7668 45.8873 23.7378C45.8873 23.7378 45.806 23.9668 45.7613 24.2044C45.7165 24.442 45.6816 24.6693 45.6534 24.8949Z" fill="white"/>
<path d="M45.8309 25.4505C45.8309 25.4505 46.0448 25.6829 46.2554 25.7342C46.2571 25.7342 46.1692 25.5018 45.8309 25.4505ZM45.6567 25.3445C45.7745 25.3274 46.073 25.3616 46.2571 25.4966C46.4411 25.6316 46.5009 25.7427 46.5639 25.8624C46.5639 25.8624 46.2355 25.8897 45.942 25.7137C45.8027 25.6282 45.6833 25.4351 45.6567 25.3445Z" fill="white"/>
<path d="M47.5256 26.4537C47.6019 26.4024 47.6467 26.3186 47.6633 26.2075C47.6633 26.2075 47.3233 26.2247 47.0347 26.1854V26.2093C47.0347 26.2093 47.5074 26.2127 47.5256 26.4537ZM47.4046 26.7699C47.4129 26.7049 47.4095 26.5921 47.4095 26.5921C47.2387 26.7562 46.8872 26.8724 46.8872 26.8724C46.8921 26.775 46.9236 26.6913 46.9236 26.6913C46.7744 26.7836 46.6898 26.7716 46.6898 26.7716C46.7064 26.6571 46.781 26.5221 46.781 26.5221C46.6765 26.6571 46.5422 26.6656 46.5422 26.6656C46.524 26.5972 46.5638 26.4298 46.5638 26.4298C46.5107 26.4981 46.4145 26.6725 46.111 26.7408C45.8075 26.8092 45.6699 26.6332 45.6699 26.6332C45.9668 26.6553 46.2437 26.3579 46.2437 26.3579C46.0895 26.2964 46.0364 26.1802 46.0364 26.1802C46.126 26.0999 46.2172 26.0999 46.2172 26.0999C46.0447 26.0178 46.0082 25.8777 46.0082 25.8777C46.2255 25.9854 46.8971 25.9939 47.2619 26.0127C47.6268 26.0315 47.9916 25.8914 47.9916 25.8914C47.9501 26.7118 47.4046 26.7699 47.4046 26.7699Z" fill="white"/>
<path d="M48.0762 25.9478C48.063 26.1256 48.0182 26.3016 47.9585 26.4264C47.9585 26.4264 48.1724 26.2589 48.2255 26.1187C48.2769 25.9768 48.2902 25.8812 48.0762 25.9478Z" fill="white"/>
<path d="M48.5953 26.5307C48.5953 26.4794 48.5555 26.4384 48.5057 26.4384C48.4576 26.4384 48.4162 26.4794 48.4162 26.5307C48.4162 26.582 48.4559 26.623 48.5057 26.623C48.5538 26.623 48.5953 26.582 48.5953 26.5307ZM48.4526 26.1256C48.5737 26.0966 48.8274 26.0658 48.9402 26.2367C49.0529 26.4076 49.0082 26.729 48.7843 26.8606C48.7843 26.8606 48.4394 26.5546 48.0231 26.8571C48.0231 26.8571 47.9253 26.7922 47.708 26.7409C47.708 26.7409 47.8357 26.582 47.9817 26.5136C48.1094 26.4555 48.3764 26.3751 48.4526 26.1256Z" fill="white"/>
<path d="M47.6619 26.799C47.6619 26.799 47.5094 27.0075 47.3999 27.0998C47.3999 27.0998 47.9604 27.0946 48.103 27.5937C48.103 27.5937 48.2971 27.2878 48.1545 27.0878C48.0019 26.8724 47.8609 26.8451 47.6619 26.799Z" fill="white"/>
<path d="M47.0448 26.9237C47.0448 26.9237 46.864 26.9784 46.8043 26.9938C46.8043 26.9938 46.801 26.8861 46.806 26.8348C46.7512 26.8485 46.6832 26.8673 46.6252 26.8725C46.6252 26.8725 46.4445 27.2878 46.3035 27.4553C46.3035 27.4553 46.2952 27.5476 46.3748 27.6877C46.3748 27.6877 46.4776 27.4416 46.66 27.2451C46.7645 27.1322 46.8309 27.0775 47.0448 26.9237Z" fill="white"/>
<path d="M47.5224 26.8348C47.4644 26.852 47.1741 26.9443 47.0348 27.0485C46.859 27.1784 46.738 27.3271 46.7562 27.5835C46.7562 27.5835 46.8988 27.3818 47.0547 27.2895C47.1808 27.216 47.4047 27.0126 47.5224 26.8348Z" fill="white"/>
<path d="M47.5189 24.953C47.4658 24.953 47.3613 24.9787 47.3613 25.0675C47.3613 25.1564 47.4957 25.37 47.5322 25.4658H47.5355C47.5703 25.37 47.7063 25.1564 47.7063 25.0675C47.7063 24.9787 47.6018 24.953 47.5487 24.953H47.5189Z" fill="white"/>
<path d="M47.6353 25.6436C47.6601 25.5188 47.7082 25.1941 47.7829 25.1223C47.8542 25.0539 47.9586 25.0471 48.01 25.0505C48.0631 25.0539 48.1179 25.1103 48.0963 25.1821C48.0747 25.2556 47.8409 25.6145 47.8111 25.659C47.758 25.6504 47.7696 25.6538 47.6353 25.6436Z" fill="white"/>
<path d="M47.4296 25.6436C47.4047 25.5188 47.3567 25.1941 47.282 25.1223C47.2107 25.0539 47.1062 25.0471 47.0548 25.0505C47.0034 25.0539 46.947 25.1103 46.9686 25.1821C46.9901 25.2556 47.2223 25.6145 47.2538 25.659C47.3069 25.6504 47.2969 25.6538 47.4296 25.6436Z" fill="white"/>
<path d="M47.2803 24.5172H47.4611V24.3104H47.607V24.5172H47.7894V24.6471H47.607V24.8898H47.4611V24.6471H47.2803V24.5172Z" fill="white"/>
<path d="M45.106 23.2952H45.2868V23.0884H45.4327V23.2952H45.6151V23.4251H45.4327V23.6678H45.2868V23.4251H45.106V23.2952Z" fill="white"/>
<path d="M49.4757 25.847C49.4757 25.8076 49.4723 25.7683 49.4675 25.729C49.4542 25.6282 49.4525 25.5427 49.4624 25.4709C49.5934 25.5222 49.6815 25.5547 49.8603 25.8538C49.8603 25.8538 49.5754 25.6726 49.4757 25.847Z" fill="white"/>
<path d="M49.2257 26.3221C49.2223 26.2486 49.1741 26.0144 49.1161 25.8486C49.0431 25.6469 49.0847 25.353 49.1724 25.1735C49.2571 25.0009 49.3052 24.8402 49.2884 24.6608C49.2884 24.6608 49.4578 24.7189 49.5553 24.7821C49.5721 24.9889 49.4543 25.1957 49.398 25.3137C49.3319 25.4538 49.3447 25.6333 49.3598 25.7444C49.3864 25.9324 49.3482 26.1324 49.2257 26.3221Z" fill="white"/>
<path d="M49.2072 24.7377C49.2141 24.7154 49.2141 24.6488 49.2008 24.6231C49.2008 24.6231 48.9337 24.3548 48.7098 24.3087C48.5688 24.2796 48.4792 24.3445 48.4395 24.3805C48.4395 24.3805 48.519 24.3702 48.6368 24.471C48.7562 24.5719 48.9038 24.6932 49.0182 24.7223C49.1295 24.7548 49.1527 24.7445 49.2072 24.7377Z" fill="white"/>
<path d="M48.4163 24.4027C48.3152 24.507 48.2323 24.6163 48.2339 24.7103C48.2356 24.8095 48.345 25.0556 48.4047 25.1496C48.4628 25.2436 48.5474 25.3667 48.5374 25.5154C48.5324 25.5906 48.4827 25.6675 48.423 25.7307C48.423 25.7307 48.7497 25.6504 48.7895 25.4436C48.8243 25.2573 48.748 25.1274 48.6949 25.0248C48.6452 24.9274 48.4959 24.7018 48.4578 24.6078C48.423 24.5206 48.4047 24.4489 48.4163 24.4027Z" fill="white"/>
<path d="M46.5074 26.746C46.4411 26.9835 46.33 27.2074 46.2205 27.3835C46.121 27.5424 46.0597 27.804 46.0696 27.8928C46.0696 27.8928 45.922 27.5578 45.9967 27.3202C46.0564 27.1357 46.2139 26.8622 46.5074 26.746Z" fill="white"/>
<path d="M46.1391 26.8246C46.1391 26.8246 45.9153 26.828 45.8108 26.8998C45.6765 26.9921 45.5471 27.1921 45.499 27.4313C45.499 27.4313 45.7262 27.3903 45.8373 27.2758C45.9468 27.1596 46.0861 26.987 46.1391 26.8246Z" fill="white"/>
<path d="M47.3002 27.2417C47.3433 27.2451 47.4577 27.2725 47.5141 27.2895C47.5141 27.2895 47.3234 27.3476 47.2289 27.428C47.1476 27.4964 47.078 27.604 47.0448 27.7835C46.9984 28.0347 46.8541 28.3048 46.811 28.3868L46.7944 28.3834C46.8209 28.2108 46.7148 27.8519 46.6899 27.8006C46.6899 27.8006 46.8408 27.7032 46.9105 27.6006C46.9586 27.5254 47.0498 27.4006 47.3002 27.2417Z" fill="white"/>
<path d="M46.3069 27.78C46.2505 27.9116 46.1029 28.1458 46.1726 28.3902C46.2422 28.6346 46.3965 28.7389 46.4926 28.9457C46.4926 28.9457 46.5689 28.5731 46.5523 28.2843C46.5324 27.9971 46.4313 27.886 46.3069 27.78Z" fill="white"/>
<path d="M45.3897 28.4637C45.3997 28.3219 45.7197 27.9766 45.7048 27.7903C45.6882 27.604 45.4478 27.4724 45.388 27.4451H45.3847C45.325 27.4724 45.0846 27.604 45.068 27.7903C45.0514 27.9766 45.3731 28.3219 45.3831 28.4637H45.3897Z" fill="white"/>
<path d="M45.8754 27.7903C45.8754 27.7903 45.6532 28.2347 45.6117 28.4107C45.5736 28.5833 45.6084 28.6979 45.6847 28.8038C45.7594 28.9081 45.8887 29.0209 46.0065 29.2414C46.0065 29.2414 46.1441 29.0551 46.1607 28.956C46.1773 28.8585 46.1507 28.6244 46.1209 28.5252C46.0927 28.4278 45.9733 28.1116 45.8754 27.7903Z" fill="white"/>
<path d="M45.3899 29.5132C45.4928 29.4226 45.5823 29.2876 45.6105 29.209C45.6387 29.1286 45.647 29.0124 45.579 28.9235C45.4978 28.8158 45.3966 28.6979 45.3899 28.6005H45.385C45.3783 28.6979 45.2772 28.8158 45.1959 28.9235C45.1279 29.0124 45.1362 29.1286 45.1644 29.209C45.1926 29.2892 45.2838 29.4226 45.385 29.5132H45.3899Z" fill="white"/>
<path d="M45.7611 29.2123C45.8092 29.267 46.0695 29.5883 46.106 29.684C46.1408 29.778 46.2005 29.9558 46.1193 30.0788C46.038 30.2019 45.8539 30.4002 45.6914 30.4839C45.6914 30.4839 45.8672 30.2002 45.849 29.9678C45.8374 29.819 45.7263 29.6874 45.7047 29.5969C45.6831 29.5063 45.6981 29.3542 45.7611 29.2123Z" fill="white"/>
<path d="M46.2701 29.0328C46.2303 29.0909 46.1607 29.2294 46.1507 29.3644C46.1408 29.4978 46.1623 29.6054 46.2336 29.8003C46.3215 30.0464 46.4592 30.3216 46.5238 30.4446C46.5238 30.4446 46.6466 30.2652 46.7129 30.1045C46.7129 30.1045 46.5205 29.8345 46.4409 29.643C46.3481 29.4191 46.3083 29.2106 46.2701 29.0328Z" fill="white"/>
<path d="M46.3599 28.9303C46.3599 28.9303 46.4428 29.5644 46.8043 30.0344C47.0497 30.3541 47.2488 30.4634 47.3798 30.4634C47.5788 30.4634 47.7778 30.2925 47.8458 30.0977C47.9138 29.9028 47.8922 29.5986 47.7628 29.4909C47.7628 29.4909 47.6434 29.8721 47.3897 29.8858C47.1011 29.9028 46.7297 29.5696 46.3599 28.9303Z" fill="white"/>
<path d="M46.6567 28.6637C46.6252 28.7765 46.6169 28.9508 46.6567 29.1149C46.6866 29.2397 46.7612 29.4021 46.9021 29.4926C47.0249 29.5713 47.3135 29.5901 47.4229 29.3098C47.4229 29.3115 46.8955 29.3525 46.6567 28.6637Z" fill="white"/>
<path d="M45.3862 30.5472C45.4609 30.5113 45.5239 30.4823 45.6101 30.3489C45.6765 30.243 45.7411 30.0481 45.7046 29.908C45.6599 29.7353 45.5686 29.667 45.5156 29.5593C45.4708 29.6021 45.4443 29.6345 45.3896 29.667H45.3862C45.3315 29.6345 45.3033 29.6003 45.2585 29.5593C45.2038 29.667 45.1143 29.7353 45.0695 29.908C45.0347 30.0464 45.0977 30.243 45.164 30.3489C45.2486 30.4823 45.3116 30.5096 45.3862 30.5472Z" fill="white"/>
<path d="M45.3863 31.6155C45.4227 31.4479 45.7627 31.1232 45.7312 30.9472C45.6848 30.6822 45.5189 30.7387 45.3879 30.6259H45.3846C45.2536 30.7369 45.0861 30.6822 45.0397 30.9472C45.0082 31.1232 45.3465 31.4479 45.383 31.6155H45.3863Z" fill="white"/>
<path d="M45.7962 31.2206C45.7232 31.4103 45.4645 31.653 45.4678 31.8017C45.4711 32.1965 45.6386 32.4375 45.6784 32.5674C45.6784 32.5674 45.9852 32.3162 46.0383 32.0291C46.0665 31.882 46.0333 31.4394 45.7962 31.2206Z" fill="white"/>
<path d="M46.1378 31.4992C46.1013 31.3966 45.9885 31.118 45.8592 31.0206C45.8592 31.0206 45.6917 30.5147 46.229 30.2036C46.229 30.2036 46.4496 30.5061 46.5093 30.7881C46.5656 31.0719 46.2738 31.2445 46.1378 31.4992Z" fill="white"/>
<path d="M46.8094 30.2224C46.8957 30.3284 47.0167 30.4771 47.1112 30.5232C47.1112 30.5232 47.1428 30.7489 47.1245 30.8993C47.098 31.1214 46.9587 31.3505 46.899 31.5163C46.899 31.5163 46.6652 31.2001 46.637 31.0155C46.6104 30.8292 46.6154 30.6771 46.6055 30.5882C46.6055 30.5899 46.7365 30.3711 46.8094 30.2224Z" fill="white"/>
<path d="M47.4263 31.3061C47.4926 31.2018 47.7082 30.819 47.7099 30.5404C47.7099 30.5404 47.4445 30.6857 47.2239 30.5797C47.2239 30.5797 47.1941 30.9421 47.2372 31.0634C47.2737 31.1625 47.3184 31.2224 47.4263 31.3061Z" fill="white"/>
<path d="M47.3648 31.383C47.3217 31.3454 47.2155 31.2445 47.1724 31.1915C47.1724 31.1915 46.9966 31.5231 46.9668 31.6205C46.9668 31.6205 47.0547 31.6444 47.1509 31.571C47.2487 31.4992 47.2702 31.4804 47.3648 31.383Z" fill="white"/>
<path d="M46.5521 31.1898C46.5737 31.2735 46.8572 31.6804 46.9053 31.7299C46.9053 31.7299 46.8838 31.8769 46.7793 32.0889C46.6749 32.3008 46.5289 32.4477 46.4493 32.523C46.4493 32.523 46.2752 32.2085 46.2221 32.07C46.1624 31.9111 46.1707 31.7555 46.1956 31.6974C46.2553 31.559 46.4609 31.3624 46.5521 31.1898Z" fill="white"/>
<path d="M45.3898 33.5929C45.4163 33.4818 45.5805 33.3502 45.6485 33.157C45.6883 33.0426 45.6866 32.9092 45.6435 32.8169C45.5921 32.711 45.408 32.4495 45.3881 32.3743H45.3865C45.3649 32.4495 45.1825 32.711 45.1311 32.8169C45.0863 32.9092 45.0846 33.0426 45.1261 33.157C45.1941 33.3502 45.3583 33.4818 45.3848 33.5929H45.3898Z" fill="white"/>
<path d="M46.1259 32.2512C46.0629 32.3828 45.8738 32.5965 45.8456 32.7657C45.8224 32.899 45.844 33.0084 45.8772 33.1007C45.912 33.193 46.0264 33.3707 46.101 33.5075C46.101 33.5075 46.3598 33.2563 46.4161 33.0768C46.4592 32.9417 46.4443 32.7486 46.3813 32.629C46.32 32.5076 46.1856 32.376 46.1259 32.2512Z" fill="white"/>
<path d="M46.8606 32.2153C46.7927 32.3657 46.6318 32.5162 46.5953 32.6495C46.5522 32.805 46.5389 32.9058 46.6119 33.087C46.6766 33.2477 46.7545 33.34 46.7827 33.4374C46.7827 33.4374 46.9933 33.1571 47.0281 33.0392C47.0646 32.923 47.0746 32.7298 47.0315 32.6085C46.9867 32.4854 46.912 32.3264 46.8606 32.2153Z" fill="white"/>
<path d="M45.3865 35.7465C45.3997 35.6098 45.675 35.1842 45.6883 34.733C45.6949 34.5074 45.4992 34.1536 45.3881 34.0203H45.3831C45.2721 34.1536 45.078 34.5074 45.0846 34.733C45.0979 35.1842 45.3732 35.6098 45.3865 35.7465Z" fill="white"/>
<path d="M45.8243 33.2836C45.8243 33.2836 46.1858 33.7348 46.1775 33.974C46.1676 34.2714 45.9752 34.4697 45.947 34.6526C45.947 34.6526 45.758 34.4321 45.685 34.2834C45.6037 34.1159 45.5424 33.974 45.5639 33.7861C45.5871 33.5963 45.6352 33.4733 45.8243 33.2836Z" fill="white"/>
<path d="M46.4908 33.2391C46.4344 33.3246 46.2718 33.6203 46.3183 33.7963C46.3647 33.9724 46.5422 34.2185 46.6019 34.3245C46.6019 34.3245 46.7445 34.0202 46.7777 33.8818C46.8092 33.7434 46.7793 33.5177 46.4908 33.2391Z" fill="white"/>
<path d="M45.635 36.4695C45.6566 36.1191 45.8489 35.9089 45.8838 35.7278C45.9219 35.5278 45.9086 35.3363 45.7578 35.1039C45.6367 35.5346 45.5007 35.8491 45.3962 36.0661C45.3946 36.0713 45.3913 36.0781 45.3879 36.0833C45.3846 36.0764 45.383 36.0713 45.3796 36.0661C45.2735 35.8491 45.1392 35.5346 45.0181 35.1039C44.8672 35.3346 44.8539 35.5261 44.8921 35.7278C44.9269 35.9106 45.1193 36.1191 45.1408 36.4695C45.1624 36.8199 44.7793 36.9549 44.7793 36.9549C44.9087 37.0028 45.0563 37.0233 45.2901 36.796C45.3332 36.7532 45.3647 36.7088 45.3896 36.6609C45.4145 36.7088 45.446 36.755 45.4891 36.796C45.7229 37.0233 45.8688 37.0028 45.9982 36.9549C45.9966 36.9549 45.6135 36.8199 45.635 36.4695Z" fill="white"/>
<path d="M44.4294 34.1399C44.4691 34.2715 44.5886 34.5125 44.6035 34.5877C44.6317 34.7261 44.5935 34.8954 44.3481 35.0731C44.3481 35.0731 44.1889 34.9586 44.1259 34.8082C44.0678 34.6663 44.101 34.5672 44.1623 34.4937C44.2237 34.4185 44.368 34.2493 44.4294 34.1399Z" fill="white"/>
<path d="M44.9455 34.6577C44.9455 34.7278 44.8941 35.1243 44.7846 35.3209C44.6321 35.5977 44.4048 35.8029 44.2075 35.8029C44.0234 35.8029 43.9853 35.69 43.894 35.6439C43.894 35.6439 43.9405 35.4046 44.1461 35.3397C44.4015 35.2645 44.7896 34.9517 44.9455 34.6577Z" fill="white"/>
<path d="M44.2868 35.1637C44.2437 35.1295 44.2073 35.1073 44.1559 35.0458C44.1559 35.0458 43.9601 35.121 43.801 35.2321C43.6401 35.3432 43.4825 35.5329 43.3979 35.632C43.3979 35.632 43.6384 35.6969 43.791 35.6252C43.791 35.6252 43.8474 35.3876 44.0182 35.2833C44.0547 35.2577 44.1758 35.2218 44.2868 35.1637Z" fill="white"/>
<path d="M44.0864 34.9603C44.05 34.9004 43.9737 34.791 43.9903 34.6184C43.9903 34.6184 43.652 34.8389 43.5508 34.9227C43.4496 35.0081 43.239 35.232 43.1909 35.3055C43.1909 35.3055 43.4463 35.2491 43.642 35.1807C43.8576 35.1073 44.0068 35.0081 44.0864 34.9603Z" fill="white"/>
<path d="M43.5142 35.338C43.3318 35.4047 42.9221 35.473 42.7514 35.526C42.5789 35.579 42.4562 35.6696 42.292 35.8542C42.292 35.8542 42.544 35.926 42.6784 35.9704C42.6784 35.9704 42.8923 35.82 43.1261 35.7277C43.277 35.6662 43.3517 35.5004 43.5142 35.338Z" fill="white"/>
<path d="M43.1342 36.5824C43.1723 36.5379 43.222 36.4867 43.1839 36.3824C43.1574 36.3055 43.0098 36.2217 42.9202 36.1773C42.7743 36.1055 42.3696 35.9927 42.237 35.9517C42.237 35.9517 42.1706 36.032 42.1358 36.1158C42.1192 36.1482 42.1408 36.1824 42.1988 36.1927C42.3116 36.2132 42.5836 36.1602 42.6499 36.2046C42.7212 36.2525 42.6963 36.3174 42.6963 36.3824C42.6963 36.3824 42.8207 36.3055 42.8986 36.3226C43.0048 36.3448 43.0711 36.3978 43.1342 36.5824Z" fill="white"/>
<path d="M42.771 35.9978C42.8009 36.0081 42.9584 36.0577 43.1143 36.1585C43.1143 36.1585 43.1823 36.1311 43.2171 36.0662C43.2503 36.0047 43.3896 35.791 43.5173 35.7637C43.5173 35.7637 43.4078 35.7534 43.3464 35.7329C43.3464 35.7329 43.2138 35.7688 43.1193 35.8064C43.0247 35.8474 42.907 35.9072 42.771 35.9978Z" fill="white"/>
<path d="M43.8208 35.7312C43.7959 35.7432 43.7544 35.7637 43.6599 35.7671C43.6599 35.7671 43.3001 36.0234 43.2586 36.2781C43.2221 36.4969 43.3349 36.6012 43.388 36.6285C43.4427 36.6558 43.6931 36.7618 43.8556 36.4166C43.8556 36.4166 43.5787 36.5106 43.5024 36.3721C43.4261 36.2354 43.5488 36.0354 43.6251 35.9773C43.7246 35.9004 43.9021 35.8491 44.0098 35.8696C44.0098 35.8713 43.9236 35.7842 43.8208 35.7312Z" fill="white"/>
<path d="M41.4744 38.6607C41.5175 38.4726 41.5656 38.2761 41.6501 38.0932C41.8127 37.7411 42.209 36.7994 43.0366 36.6336C43.1145 36.6182 42.947 36.4199 42.874 36.4302C42.7994 36.4387 42.6518 36.5379 42.5871 36.5823C42.5871 36.5823 42.5871 36.3823 42.5855 36.3464C42.5838 36.3106 42.5523 36.2969 42.5208 36.2986C42.4893 36.2986 42.2886 36.2969 42.2256 36.3721C42.0366 36.5977 41.7182 37.2028 41.539 37.6539C41.3583 38.1052 41.2355 38.2419 41.0448 38.1736C40.8541 38.1052 40.7414 37.8796 40.408 37.948C40.2936 37.9719 40.1659 38.0505 40.0664 38.1684C40.0946 38.2231 40.1294 38.2898 40.2853 38.2898C40.4395 38.2898 40.7364 38.3564 40.9006 38.4761C41.0631 38.594 41.2355 38.635 41.4744 38.6607Z" fill="white"/>
<path d="M44.7794 35.7448C44.7977 35.89 44.8657 36.0268 44.942 36.1686C44.942 36.1686 44.6899 37.3668 43.7778 37.4608C43.7778 37.4608 43.796 37.213 44.0663 37.0233C44.3366 36.8335 44.7396 36.5413 44.7114 36.0951C44.7114 36.0951 44.6401 36.1105 44.5108 36.2781C44.3814 36.4455 44.0962 36.9275 43.6567 36.931C43.6567 36.931 43.7214 36.7053 43.9155 36.5737C44.1111 36.4438 44.3582 36.2781 44.471 36.0763C44.5821 35.8747 44.7015 35.7824 44.7794 35.7448Z" fill="white"/>
<path d="M44.3501 40.11L44.904 40.9099L45.3236 40.1391L45.1743 39.8639C45.0649 40.0673 44.9471 40.286 44.8808 40.404C44.8294 40.3305 44.6901 40.1271 44.506 39.8639L44.3501 40.11Z" fill="white"/>
<path d="M44.2073 39.4333C43.6667 38.6539 43 37.6882 42.932 37.5908L43.1426 37.4352L42.481 37.1754L42.4942 37.9172L42.7181 37.7514L44.0531 39.6811L44.2073 39.4333Z" fill="white"/>
<path d="M39.6468 35.0526C39.811 34.8697 40.0862 35.0269 40.3665 35.2918C40.6468 35.5567 40.8226 35.8285 40.6584 36.0114C40.5075 36.1806 40.2189 36.037 39.9387 35.7721C39.66 35.5072 39.4843 35.2354 39.6468 35.0526Z" fill="white"/>
<path d="M40.0979 38.3103C40.0896 38.3035 40.0797 38.2949 40.0714 38.2881C39.9221 38.153 39.8376 37.948 39.8376 37.7223C39.8376 37.2882 40.1792 36.9361 40.6004 36.9361C41.02 36.9361 41.3616 37.2882 41.3616 37.7223C41.3616 37.7804 41.35 37.8761 41.35 37.8761C41.3848 37.8095 41.5092 37.5104 41.5357 37.4557C41.423 37.0318 41.0449 36.7208 40.5987 36.7208C40.2157 36.7208 39.8823 36.9515 39.7248 37.2848C39.7845 36.8882 39.9752 36.5327 40.1112 36.3994C40.2737 36.2422 40.549 36.1909 40.549 36.1909C40.3682 36.2217 40.1294 36.1054 39.8624 35.8542C39.6087 35.6149 39.4777 35.4047 39.4711 35.2303C39.4876 35.4782 39.4794 35.6166 39.413 35.8166C39.3201 36.0918 39.0681 36.596 39.1576 37.1651C39.2074 37.4779 39.4279 37.9445 39.7961 38.3256C39.8741 38.4111 39.9039 38.5376 39.9138 38.6042C39.9138 38.6042 40.4578 38.6042 40.5855 38.6162C40.5855 38.6162 40.7148 38.6042 40.7132 38.5222C40.7115 38.4402 40.6385 38.4179 40.5739 38.4179C40.5125 38.4145 40.2439 38.4214 40.0979 38.3103Z" fill="white"/>
<path d="M43.1013 38.5C42.7514 38.6299 42.4032 38.6982 42.0731 38.7512C41.8575 38.7854 41.6469 38.7974 41.4463 38.7871C41.4496 38.8213 41.4496 38.8675 41.4297 38.9017C41.4297 38.9017 41.4695 38.9495 41.4695 39.0042C41.6751 39.0128 41.8874 39.0008 42.1047 38.9649C42.4662 38.9085 42.8459 38.8316 43.2273 38.6829L43.1013 38.5Z" fill="white"/>
<path d="M43.6752 38.4727C44.1379 38.2112 44.5906 37.8095 44.9986 37.1669L45.0715 37.0404C44.9604 37.0917 44.8161 37.0558 44.8161 37.0558C44.8095 37.0661 44.7913 37.0951 44.783 37.1105C44.4015 37.6899 43.982 38.0539 43.5508 38.2932L43.6752 38.4727Z" fill="white"/>
<path d="M40.6186 38.6778C40.5539 38.6675 40.3516 38.6727 40.2289 38.6915C40.0962 38.7137 39.9436 38.741 39.9271 38.818C39.9121 38.8898 39.9602 38.9667 40.0282 39.076C40.0696 39.1427 40.1692 39.1051 40.2239 39.0829C40.2786 39.0624 40.5921 38.888 40.6435 38.8316C40.6948 38.7752 40.7164 38.6949 40.6186 38.6778Z" fill="white"/>
<path d="M40.9387 38.8914C40.9056 38.8692 40.8227 38.8367 40.7381 38.8692C40.6535 38.9017 40.345 39.0897 40.3235 39.1786C40.3036 39.2657 40.345 39.3119 40.3931 39.3307C40.4412 39.3495 40.4993 39.3683 40.5424 39.3734C40.6187 39.3802 40.6949 39.3341 40.7347 39.2845C40.7746 39.235 40.9188 39.0538 40.9404 39.0128C40.9586 38.9717 40.9719 38.9119 40.9387 38.8914Z" fill="white"/>
<path d="M40.9769 39.088C40.9321 39.1393 40.8077 39.2965 40.7928 39.3222C40.7779 39.3478 40.7994 39.3871 40.8393 39.3837C40.8774 39.3803 41.0897 39.3564 41.2124 39.2709C41.3335 39.1855 41.4164 39.0197 41.3318 38.9598C41.2472 38.8983 41.1179 38.9256 40.9769 39.088Z" fill="white"/>
<path d="M41.0448 38.6112C41.005 38.6009 40.8441 38.5582 40.8093 38.6128C40.7662 38.6812 40.7977 38.7547 40.9221 38.8163C41.0464 38.8778 41.2819 38.9274 41.3284 38.8607C41.3731 38.794 41.3085 38.6812 41.0448 38.6112Z" fill="white"/>
<path d="M46.3434 34.1399C46.3036 34.2715 46.1842 34.5125 46.1676 34.5877C46.1394 34.7261 46.1776 34.8954 46.423 35.0731C46.423 35.0731 46.5822 34.9586 46.6452 34.8082C46.7033 34.6663 46.6685 34.5672 46.6088 34.4937C46.5491 34.4185 46.4048 34.2493 46.3434 34.1399Z" fill="white"/>
<path d="M45.8276 34.6577C45.8276 34.7278 45.8791 35.1243 45.9885 35.3209C46.1411 35.5977 46.3666 35.8029 46.5657 35.8029C46.7497 35.8029 46.7879 35.69 46.8774 35.6439C46.8774 35.6439 46.831 35.4046 46.6253 35.3397C46.3716 35.2645 45.9852 34.9517 45.8276 34.6577Z" fill="white"/>
<path d="M46.4873 35.1637C46.5305 35.1295 46.5669 35.1073 46.6183 35.0458C46.6183 35.0458 46.814 35.121 46.9732 35.2321C47.1341 35.3432 47.2916 35.5329 47.3762 35.632C47.3762 35.632 47.1358 35.6969 46.9831 35.6252C46.9831 35.6252 46.9268 35.3876 46.756 35.2833C46.7178 35.2577 46.5968 35.2218 46.4873 35.1637Z" fill="white"/>
<path d="M46.688 34.9603C46.7245 34.9004 46.8008 34.791 46.7842 34.6184C46.7842 34.6184 47.1225 34.8389 47.2237 34.9227C47.3248 35.0081 47.5354 35.232 47.5835 35.3055C47.5835 35.3055 47.3281 35.2491 47.1308 35.1807C46.9152 35.1073 46.7659 35.0081 46.688 34.9603Z" fill="white"/>
<path d="M47.2603 35.338C47.4426 35.4047 47.8506 35.473 48.0231 35.526C48.1956 35.579 48.3183 35.6696 48.4825 35.8542C48.4825 35.8542 48.2304 35.926 48.096 35.9704C48.096 35.9704 47.8821 35.82 47.6483 35.7277C47.4957 35.6662 47.4211 35.5004 47.2603 35.338Z" fill="white"/>
<path d="M47.6401 36.5824C47.602 36.5379 47.5522 36.4867 47.5904 36.3824C47.6169 36.3055 47.7661 36.2217 47.8557 36.1773C48.0033 36.1055 48.4096 35.9927 48.5423 35.9517C48.5423 35.9517 48.6086 36.032 48.6434 36.1158C48.66 36.1482 48.6384 36.1824 48.5804 36.1927C48.4676 36.2132 48.194 36.1602 48.1277 36.2046C48.0563 36.2525 48.0812 36.3174 48.0812 36.3824C48.0812 36.3824 47.9568 36.3055 47.8789 36.3226C47.7694 36.3448 47.7014 36.3978 47.6401 36.5824Z" fill="white"/>
<path d="M48.0034 35.9978C47.9735 36.0081 47.8143 36.0577 47.6601 36.1585C47.6601 36.1585 47.5921 36.1311 47.5589 36.0662C47.5258 36.0047 47.3865 35.791 47.2588 35.7637C47.2588 35.7637 47.3666 35.7534 47.4296 35.7329C47.4296 35.7329 47.5622 35.7688 47.6568 35.8064C47.7497 35.8474 47.8657 35.9072 48.0034 35.9978Z" fill="white"/>
<path d="M46.952 35.7312C46.9768 35.7432 47.0166 35.7637 47.1128 35.7671C47.1128 35.7671 47.4711 36.0234 47.5142 36.2781C47.5506 36.4969 47.4395 36.6012 47.3848 36.6285C47.3301 36.6558 47.0797 36.7618 46.9171 36.4166C46.9171 36.4166 47.1941 36.5106 47.2704 36.3721C47.3466 36.2354 47.2239 36.0354 47.1477 35.9773C47.0481 35.9004 46.8707 35.8491 46.7612 35.8696C46.7612 35.8713 46.8492 35.7842 46.952 35.7312Z" fill="white"/>
<path d="M49.2986 38.6607C49.2556 38.4726 49.2058 38.2761 49.1228 38.0932C48.9621 37.7411 48.564 36.7994 47.7365 36.6336C47.6586 36.6182 47.8261 36.4199 47.899 36.4302C47.9737 36.4387 48.1213 36.5379 48.1859 36.5823C48.1859 36.5823 48.1859 36.3823 48.1876 36.3464C48.1893 36.3106 48.2208 36.2969 48.2523 36.2986C48.2838 36.2986 48.4845 36.2969 48.5475 36.3721C48.7365 36.5977 49.0549 37.2028 49.2341 37.6539C49.4146 38.1052 49.5392 38.2419 49.7283 38.1736C49.9191 38.1052 50.0335 37.8796 50.3652 37.948C50.4795 37.9719 50.6072 38.0505 50.7069 38.1684C50.6785 38.2231 50.6437 38.2898 50.4877 38.2898C50.3317 38.2898 50.0369 38.3564 49.871 38.4761C49.7098 38.594 49.5375 38.635 49.2986 38.6607Z" fill="white"/>
<path d="M45.9936 35.7448C45.9754 35.89 45.9074 36.0268 45.8311 36.1686C45.8311 36.1686 46.0831 37.3668 46.9936 37.4608C46.9936 37.4608 46.9754 37.213 46.705 37.0233C46.4347 36.8335 46.0317 36.5413 46.0599 36.0951C46.0599 36.0951 46.1312 36.1105 46.2623 36.2781C46.3916 36.4455 46.6769 36.9275 47.1163 36.931C47.1163 36.931 47.0516 36.7053 46.8576 36.5737C46.6636 36.4438 46.4148 36.2781 46.3021 36.0763C46.1909 35.8747 46.0732 35.7824 45.9936 35.7448Z" fill="white"/>
<path d="M45.3881 36.9071C45.4412 37.0677 45.7861 37.5685 45.937 37.7121C46.0879 37.8557 46.4561 38.2334 46.6518 38.4231C46.6518 38.4231 46.0929 38.2796 45.7778 37.9856C45.7778 37.9856 45.5539 38.1206 45.3898 38.1206H45.3815C45.2189 38.1206 44.9951 37.9856 44.9951 37.9856C44.68 38.2796 44.1211 38.4231 44.1211 38.4231C44.3168 38.2334 44.685 37.854 44.8359 37.7121C44.9868 37.5685 45.3317 37.0677 45.3848 36.9071H45.3881Z" fill="white"/>
<path d="M45.3896 38.2368C45.5123 38.2368 45.6317 38.1855 45.6964 38.1565C45.6317 38.3001 45.5057 38.5222 45.388 38.6145H45.3846C45.2652 38.5222 45.1408 38.2983 45.0762 38.1565C45.1425 38.1855 45.2586 38.2368 45.3813 38.2368H45.3896Z" fill="white"/>
<path d="M45.8692 40.9117L48.0583 37.7514L48.2821 37.9172L48.2954 37.1754L47.6337 37.4352L47.8427 37.5908C47.7349 37.7463 46.0997 40.1101 45.8924 40.4075L44.9007 38.5564L44.778 38.7479L43.8957 40.122L43.6752 39.9699L43.6719 40.7014L44.3402 40.428L44.1163 40.2742C44.2373 40.0845 44.7166 39.341 44.8758 39.0914L45.8692 40.9117Z" fill="white"/>
<path d="M46.2686 39.6691C46.121 39.44 45.9718 39.2093 45.8971 39.0897C45.8424 39.1956 45.7297 39.4042 45.6036 39.6332L45.4478 39.3444L45.8739 38.5547L45.9967 38.7461L46.4361 39.4298L46.2686 39.6691Z" fill="white"/>
<path d="M46.7197 39.8741L46.8772 40.1203L47.0978 39.9682L47.1011 40.6997L46.4312 40.4262L46.655 40.2724C46.6318 40.2365 46.597 40.1801 46.5539 40.1134L46.7197 39.8741Z" fill="white"/>
<path d="M51.1262 35.0526C50.962 34.8697 50.6848 35.0269 50.4064 35.2918C50.1262 35.5567 49.9504 35.8285 50.1145 36.0114C50.2654 36.1806 50.5555 36.037 50.8344 35.7721C51.1129 35.5072 51.2886 35.2354 51.1262 35.0526Z" fill="white"/>
<path d="M50.6751 38.3103C50.685 38.3035 50.6918 38.2949 50.7 38.2881C50.8491 38.153 50.9338 37.948 50.9338 37.7223C50.9338 37.2882 50.5921 36.9361 50.171 36.9361C49.7515 36.9361 49.4099 37.2882 49.4099 37.7223C49.4099 37.7804 49.4215 37.8761 49.4215 37.8761C49.3867 37.8095 49.2621 37.5104 49.2358 37.4557C49.3484 37.0318 49.7249 36.7208 50.171 36.7208C50.5556 36.7208 50.8874 36.9515 51.0451 37.2848C50.9854 36.8882 50.7928 36.5327 50.6587 36.3994C50.4959 36.2422 50.2208 36.1909 50.2208 36.1909C50.4018 36.2217 50.6403 36.1054 50.9071 35.8542C51.1611 35.6149 51.2922 35.4047 51.2986 35.2303C51.2823 35.4782 51.2905 35.6166 51.3584 35.8166C51.4512 36.0918 51.7018 36.596 51.6124 37.1651C51.5625 37.4779 51.3421 37.9445 50.9755 38.3256C50.8955 38.4111 50.8676 38.5376 50.8577 38.6042C50.8577 38.6042 50.3137 38.6042 50.186 38.6162C50.186 38.6162 50.0567 38.6042 50.0584 38.5222C50.0614 38.4402 50.1327 38.4179 50.1959 38.4179C50.2608 38.4145 50.5311 38.4214 50.6751 38.3103Z" fill="white"/>
<path d="M47.0978 38.471C46.6351 38.2095 46.1841 37.8078 45.7761 37.1652L45.7031 37.0387C45.8143 37.09 45.9585 37.0541 45.9585 37.0541C45.9651 37.0643 45.9834 37.0934 45.9917 37.1088C46.3715 37.6882 46.7927 38.0522 47.2239 38.2915L47.0978 38.471Z" fill="white"/>
<path d="M47.6698 38.5C48.0197 38.6316 48.368 38.7 48.6996 38.753C48.9152 38.7871 49.1258 38.7991 49.3265 38.7889C49.3231 38.823 49.3248 38.8692 49.3433 38.9033C49.3433 38.9033 49.3033 38.9512 49.3033 39.0059C49.0975 39.0145 48.8854 39.0025 48.6681 38.9666C48.3083 38.9102 47.9268 38.8333 47.5454 38.6846L47.6698 38.5Z" fill="white"/>
<path d="M50.154 38.6778C50.2189 38.6675 50.4213 38.6727 50.5438 38.6915C50.6765 38.7137 50.8291 38.741 50.8459 38.818C50.8622 38.8898 50.8123 38.9667 50.7444 39.076C50.7032 39.1427 50.6035 39.1051 50.5489 39.0829C50.4943 39.0624 50.1806 38.888 50.1295 38.8316C50.0779 38.7752 50.0581 38.6949 50.154 38.6778Z" fill="white"/>
<path d="M49.8345 38.8914C49.8676 38.8692 49.9505 38.8367 50.0352 38.8692C50.1199 38.9017 50.428 39.0897 50.4482 39.1786C50.468 39.2657 50.4263 39.3119 50.3786 39.3307C50.3304 39.3495 50.2724 39.3683 50.229 39.3734C50.153 39.3802 50.0765 39.3341 50.0369 39.2845C49.997 39.235 49.8526 39.0538 49.8311 39.0128C49.8143 38.9717 49.8027 38.9119 49.8345 38.8914Z" fill="white"/>
<path d="M49.7975 39.088C49.8422 39.1393 49.9664 39.2965 49.9815 39.3222C49.9965 39.3478 49.975 39.3871 49.9351 39.3837C49.8951 39.3803 49.6832 39.3564 49.562 39.2709C49.4391 39.1855 49.3579 39.0197 49.4426 38.9598C49.5255 38.8983 49.6549 38.9256 49.7975 39.088Z" fill="white"/>
<path d="M49.7283 38.6112C49.7678 38.6009 49.929 38.5582 49.9638 38.6128C50.0068 38.6812 49.9771 38.7547 49.8508 38.8163C49.7266 38.8778 49.4911 38.9274 49.4447 38.8607C49.4 38.794 49.4644 38.6812 49.7283 38.6112Z" fill="white"/>
</g>
<defs>
<clipPath id="clip0_167_414">
<rect width="52" height="26" fill="white" transform="translate(6 19)"/>
</clipPath>
</defs>
</svg>
