<svg width="24" height="24" viewBox="0 0 24 24" fill="none" xmlns="http://www.w3.org/2000/svg">
<rect x="10.5234" y="6.32812" width="2.17969" height="10.5117" fill="url(#paint0_linear_86_1189)"/>
<rect x="10.5234" y="6.32812" width="2.17969" height="10.5117" fill="url(#paint1_linear_86_1189)"/>
<rect x="10.5234" y="6.32812" width="2.17969" height="10.5117" fill="url(#paint2_linear_86_1189)"/>
<rect x="10.5234" y="6.32812" width="2.17969" height="10.5117" fill="url(#paint3_linear_86_1189)"/>
<rect x="10.5234" y="6.32812" width="2.17969" height="10.5117" fill="url(#paint4_linear_86_1189)"/>
<g filter="url(#filter0_f_86_1189)">
<rect x="11.6133" y="6.70312" width="0.424094" height="9.40857" fill="url(#paint5_linear_86_1189)"/>
</g>
<path d="M11.25 10.1939C11.25 7.48936 13.7461 5.47266 17.168 5.29688H22.1471C22.3161 5.29688 22.4531 5.43391 22.4531 5.60294C22.1471 8.50781 20.5312 10.2656 16.7109 10.5H11.5561C11.387 10.5 11.25 10.363 11.25 10.1939Z" fill="url(#paint6_linear_86_1189)"/>
<path d="M11.25 10.1939C11.25 7.48936 13.7461 5.47266 17.168 5.29688H22.1471C22.3161 5.29688 22.4531 5.43391 22.4531 5.60294C22.1471 8.50781 20.5312 10.2656 16.7109 10.5H11.5561C11.387 10.5 11.25 10.363 11.25 10.1939Z" fill="url(#paint7_linear_86_1189)"/>
<path d="M11.25 10.1939C11.25 7.48936 13.7461 5.47266 17.168 5.29688H22.1471C22.3161 5.29688 22.4531 5.43391 22.4531 5.60294C22.1471 8.50781 20.5312 10.2656 16.7109 10.5H11.5561C11.387 10.5 11.25 10.363 11.25 10.1939Z" fill="url(#paint8_linear_86_1189)"/>
<path d="M11.25 10.1939C11.25 7.48936 13.7461 5.47266 17.168 5.29688H22.1471C22.3161 5.29688 22.4531 5.43391 22.4531 5.60294C22.1471 8.50781 20.5312 10.2656 16.7109 10.5H11.5561C11.387 10.5 11.25 10.363 11.25 10.1939Z" fill="url(#paint9_radial_86_1189)"/>
<g filter="url(#filter1_f_86_1189)">
<path d="M11.9587 9.67691C11.9587 7.58162 14.3838 6.01924 17.103 5.88306H21.5154C21.6498 5.88306 21.7587 5.98922 21.7587 6.12017C21.5154 8.37064 19.7757 9.73245 16.7398 9.91403H12.202C12.0676 9.91403 11.9587 9.80786 11.9587 9.67691Z" fill="url(#paint10_linear_86_1189)"/>
</g>
<g filter="url(#filter2_i_86_1189)">
<path d="M12.7031 6.39706C12.7031 3.69249 10.207 1.67578 6.78516 1.5H1.80607C1.63703 1.5 1.5 1.63703 1.5 1.80607C1.80607 4.71094 3.42188 6.46875 7.24219 6.70312H12.3971C12.5661 6.70312 12.7031 6.56609 12.7031 6.39706Z" fill="url(#paint11_linear_86_1189)"/>
</g>
<g filter="url(#filter3_f_86_1189)">
<path d="M12.0374 5.68359C12.0374 3.81963 9.93105 2.42974 7.04352 2.30859H2.84196C2.69932 2.30859 2.58369 2.40303 2.58369 2.51953C2.84196 4.52154 4.20545 5.733 7.42919 5.89453H11.7791C11.9217 5.89453 12.0374 5.80009 12.0374 5.68359Z" fill="url(#paint12_linear_86_1189)"/>
</g>
<g filter="url(#filter4_i_86_1189)">
<path d="M11.6361 15.7031C7.886 15.7031 4.81376 18.4764 4.54572 21.9924C4.52473 22.2678 4.75059 22.4924 5.02673 22.4924H18.2533C18.5294 22.4924 18.7553 22.2678 18.7343 21.9924C18.4663 18.4764 15.3937 15.7031 11.6361 15.7031Z" fill="url(#paint13_radial_86_1189)"/>
<path d="M11.6361 15.7031C7.886 15.7031 4.81376 18.4764 4.54572 21.9924C4.52473 22.2678 4.75059 22.4924 5.02673 22.4924H18.2533C18.5294 22.4924 18.7553 22.2678 18.7343 21.9924C18.4663 18.4764 15.3937 15.7031 11.6361 15.7031Z" fill="url(#paint14_linear_86_1189)"/>
<path d="M11.6361 15.7031C7.886 15.7031 4.81376 18.4764 4.54572 21.9924C4.52473 22.2678 4.75059 22.4924 5.02673 22.4924H18.2533C18.5294 22.4924 18.7553 22.2678 18.7343 21.9924C18.4663 18.4764 15.3937 15.7031 11.6361 15.7031Z" fill="url(#paint15_radial_86_1189)"/>
<path d="M11.6361 15.7031C7.886 15.7031 4.81376 18.4764 4.54572 21.9924C4.52473 22.2678 4.75059 22.4924 5.02673 22.4924H18.2533C18.5294 22.4924 18.7553 22.2678 18.7343 21.9924C18.4663 18.4764 15.3937 15.7031 11.6361 15.7031Z" fill="url(#paint16_radial_86_1189)"/>
</g>
<g filter="url(#filter5_f_86_1189)">
<path d="M8.7478 2.46094C9.61499 2.625 11.4806 3.47813 12.0056 5.57812" stroke="url(#paint17_linear_86_1189)" stroke-width="0.5" stroke-linecap="round"/>
</g>
<defs>
<filter id="filter0_f_86_1189" x="10.6133" y="5.70312" width="2.42407" height="11.4086" filterUnits="userSpaceOnUse" color-interpolation-filters="sRGB">
<feFlood flood-opacity="0" result="BackgroundImageFix"/>
<feBlend mode="normal" in="SourceGraphic" in2="BackgroundImageFix" result="shape"/>
<feGaussianBlur stdDeviation="0.5" result="effect1_foregroundBlur_86_1189"/>
</filter>
<filter id="filter1_f_86_1189" x="9.95874" y="3.88306" width="13.7999" height="8.03101" filterUnits="userSpaceOnUse" color-interpolation-filters="sRGB">
<feFlood flood-opacity="0" result="BackgroundImageFix"/>
<feBlend mode="normal" in="SourceGraphic" in2="BackgroundImageFix" result="shape"/>
<feGaussianBlur stdDeviation="1" result="effect1_foregroundBlur_86_1189"/>
</filter>
<filter id="filter2_i_86_1189" x="1.5" y="1.25" width="11.4531" height="5.45312" filterUnits="userSpaceOnUse" color-interpolation-filters="sRGB">
<feFlood flood-opacity="0" result="BackgroundImageFix"/>
<feBlend mode="normal" in="SourceGraphic" in2="BackgroundImageFix" result="shape"/>
<feColorMatrix in="SourceAlpha" type="matrix" values="0 0 0 0 0 0 0 0 0 0 0 0 0 0 0 0 0 0 127 0" result="hardAlpha"/>
<feOffset dx="0.25" dy="-0.25"/>
<feGaussianBlur stdDeviation="0.5"/>
<feComposite in2="hardAlpha" operator="arithmetic" k2="-1" k3="1"/>
<feColorMatrix type="matrix" values="0 0 0 0 0.507148 0 0 0 0 0.6625 0 0 0 0 0.339531 0 0 0 1 0"/>
<feBlend mode="normal" in2="shape" result="effect1_innerShadow_86_1189"/>
</filter>
<filter id="filter3_f_86_1189" x="0.58374" y="0.308594" width="13.4536" height="7.58594" filterUnits="userSpaceOnUse" color-interpolation-filters="sRGB">
<feFlood flood-opacity="0" result="BackgroundImageFix"/>
<feBlend mode="normal" in="SourceGraphic" in2="BackgroundImageFix" result="shape"/>
<feGaussianBlur stdDeviation="1" result="effect1_foregroundBlur_86_1189"/>
</filter>
<filter id="filter4_i_86_1189" x="4.54431" y="15.7031" width="14.3414" height="6.93931" filterUnits="userSpaceOnUse" color-interpolation-filters="sRGB">
<feFlood flood-opacity="0" result="BackgroundImageFix"/>
<feBlend mode="normal" in="SourceGraphic" in2="BackgroundImageFix" result="shape"/>
<feColorMatrix in="SourceAlpha" type="matrix" values="0 0 0 0 0 0 0 0 0 0 0 0 0 0 0 0 0 0 127 0" result="hardAlpha"/>
<feOffset dx="0.15" dy="0.15"/>
<feGaussianBlur stdDeviation="0.25"/>
<feComposite in2="hardAlpha" operator="arithmetic" k2="-1" k3="1"/>
<feColorMatrix type="matrix" values="0 0 0 0 0.556863 0 0 0 0 0.490196 0 0 0 0 0.486275 0 0 0 1 0"/>
<feBlend mode="normal" in2="shape" result="effect1_innerShadow_86_1189"/>
</filter>
<filter id="filter5_f_86_1189" x="7.4978" y="1.21094" width="5.75781" height="5.61719" filterUnits="userSpaceOnUse" color-interpolation-filters="sRGB">
<feFlood flood-opacity="0" result="BackgroundImageFix"/>
<feBlend mode="normal" in="SourceGraphic" in2="BackgroundImageFix" result="shape"/>
<feGaussianBlur stdDeviation="0.5" result="effect1_foregroundBlur_86_1189"/>
</filter>
<linearGradient id="paint0_linear_86_1189" x1="11.6133" y1="5.76301" x2="11.6133" y2="14.4286" gradientUnits="userSpaceOnUse">
<stop stop-color="#82BB30"/>
<stop offset="1" stop-color="#94D22F"/>
</linearGradient>
<linearGradient id="paint1_linear_86_1189" x1="11.6133" y1="5.76301" x2="11.6133" y2="14.4286" gradientUnits="userSpaceOnUse">
<stop stop-color="#82BB30"/>
<stop offset="1" stop-color="#97D630"/>
</linearGradient>
<linearGradient id="paint2_linear_86_1189" x1="10.2839" y1="13.7837" x2="11.2211" y2="13.7837" gradientUnits="userSpaceOnUse">
<stop stop-color="#86B95C"/>
<stop offset="1" stop-color="#86B95C" stop-opacity="0"/>
</linearGradient>
<linearGradient id="paint3_linear_86_1189" x1="11.0095" y1="6.32812" x2="11.2816" y2="7.22318" gradientUnits="userSpaceOnUse">
<stop stop-color="#86B95C"/>
<stop offset="1" stop-color="#86B95C" stop-opacity="0"/>
</linearGradient>
<linearGradient id="paint4_linear_86_1189" x1="12.9444" y1="10.1709" x2="12.2339" y2="10.2163" gradientUnits="userSpaceOnUse">
<stop stop-color="#86B95C"/>
<stop offset="1" stop-color="#86B95C" stop-opacity="0"/>
</linearGradient>
<linearGradient id="paint5_linear_86_1189" x1="11.8253" y1="6.70312" x2="11.8253" y2="16.1117" gradientUnits="userSpaceOnUse">
<stop stop-color="#9ED75B"/>
<stop offset="1" stop-color="#BCF461"/>
</linearGradient>
<linearGradient id="paint6_linear_86_1189" x1="14.9397" y1="10.5" x2="21.7724" y2="4.74408" gradientUnits="userSpaceOnUse">
<stop stop-color="#8DB746"/>
<stop offset="1" stop-color="#ABEE48"/>
</linearGradient>
<linearGradient id="paint7_linear_86_1189" x1="16.5119" y1="10.6395" x2="16.5119" y2="10.0046" gradientUnits="userSpaceOnUse">
<stop stop-color="#97B86E"/>
<stop offset="1" stop-color="#97B86E" stop-opacity="0"/>
</linearGradient>
<linearGradient id="paint8_linear_86_1189" x1="12.9431" y1="5.92969" x2="14.1618" y2="7.35937" gradientUnits="userSpaceOnUse">
<stop stop-color="#6CAF09"/>
<stop offset="1" stop-color="#6CAF09" stop-opacity="0"/>
</linearGradient>
<radialGradient id="paint9_radial_86_1189" cx="0" cy="0" r="1" gradientUnits="userSpaceOnUse" gradientTransform="translate(22.6696 5.29687) rotate(145.134) scale(3.48494 0.40776)">
<stop stop-color="#CBFF78"/>
<stop offset="1" stop-color="#CBFF78" stop-opacity="0"/>
</radialGradient>
<linearGradient id="paint10_linear_86_1189" x1="15.3323" y1="9.91403" x2="20.647" y2="5.32161" gradientUnits="userSpaceOnUse">
<stop stop-color="#A0CC4C"/>
<stop offset="1" stop-color="#C2FD65"/>
</linearGradient>
<linearGradient id="paint11_linear_86_1189" x1="13.4587" y1="6.32813" x2="2.25558" y2="1.03125" gradientUnits="userSpaceOnUse">
<stop stop-color="#97DA22"/>
<stop offset="1" stop-color="#90CD2F"/>
</linearGradient>
<linearGradient id="paint12_linear_86_1189" x1="12.6749" y1="5.63609" x2="4.63767" y2="1.31345" gradientUnits="userSpaceOnUse">
<stop stop-color="#B6EB53"/>
<stop offset="1" stop-color="#A0D930"/>
</linearGradient>
<radialGradient id="paint13_radial_86_1189" cx="0" cy="0" r="1" gradientUnits="userSpaceOnUse" gradientTransform="translate(14.9509 23.0583) rotate(-135.607) scale(8.41452 8.03569)">
<stop stop-color="#BF8B88"/>
<stop offset="1" stop-color="#835146"/>
</radialGradient>
<linearGradient id="paint14_linear_86_1189" x1="11.64" y1="22.5853" x2="11.64" y2="22.1543" gradientUnits="userSpaceOnUse">
<stop stop-color="#964972"/>
<stop offset="1" stop-color="#964972" stop-opacity="0"/>
</linearGradient>
<radialGradient id="paint15_radial_86_1189" cx="0" cy="0" r="1" gradientUnits="userSpaceOnUse" gradientTransform="translate(8.87919 23.5357) rotate(-75.2592) scale(5.18921 3.7581)">
<stop stop-color="#A3646D"/>
<stop offset="1" stop-color="#A3646D" stop-opacity="0"/>
</radialGradient>
<radialGradient id="paint16_radial_86_1189" cx="0" cy="0" r="1" gradientUnits="userSpaceOnUse" gradientTransform="translate(19.035 15.7031) rotate(134.291) scale(4.74245 8.64702)">
<stop stop-color="#BF8B88"/>
<stop offset="1" stop-color="#BF8B88" stop-opacity="0"/>
</radialGradient>
<linearGradient id="paint17_linear_86_1189" x1="11.5837" y1="5.15625" x2="10.5383" y2="1.66671" gradientUnits="userSpaceOnUse">
<stop stop-color="#D1FF77"/>
<stop offset="1" stop-color="#D1FF77" stop-opacity="0"/>
</linearGradient>
</defs>
</svg>
