<svg width="32" height="32" viewBox="0 0 32 32" fill="none" xmlns="http://www.w3.org/2000/svg">
<g filter="url(#filter0_i_63_273)">
<path d="M4.71167 9.21055C4.71167 8.30773 5.41802 7.58906 6.25691 7.2554C7.2671 6.85363 8.37492 6.03232 9.05816 4.34088C9.41882 3.448 10.2116 2.74487 11.1745 2.74487H18.9787C19.9617 2.74487 20.7631 3.48079 21.1616 4.37935C21.8332 5.89361 22.9836 6.81439 24.0055 7.3119C24.8051 7.70116 25.4868 8.44982 25.4868 9.33911V12.5596C25.4868 19.5072 23.3126 23.7011 17.5833 28.515C16.431 29.4832 14.7637 29.5343 13.5624 28.6275C8.29771 24.6535 4.71167 19.9466 4.71167 12.5596V9.21055Z" fill="#378AED"/>
<path d="M4.71167 9.21055C4.71167 8.30773 5.41802 7.58906 6.25691 7.2554C7.2671 6.85363 8.37492 6.03232 9.05816 4.34088C9.41882 3.448 10.2116 2.74487 11.1745 2.74487H18.9787C19.9617 2.74487 20.7631 3.48079 21.1616 4.37935C21.8332 5.89361 22.9836 6.81439 24.0055 7.3119C24.8051 7.70116 25.4868 8.44982 25.4868 9.33911V12.5596C25.4868 19.5072 23.3126 23.7011 17.5833 28.515C16.431 29.4832 14.7637 29.5343 13.5624 28.6275C8.29771 24.6535 4.71167 19.9466 4.71167 12.5596V9.21055Z" fill="url(#paint0_radial_63_273)"/>
</g>
<path d="M15.512 29.2757V2.74487H18.9788C19.9617 2.74487 20.7631 3.48079 21.1616 4.37935C21.8332 5.89362 22.9836 6.81439 24.0055 7.3119C24.8051 7.70116 25.4868 8.44981 25.4868 9.33911V12.5596C25.4868 19.5072 23.3126 23.7011 17.5833 28.515C16.9858 29.0171 16.2498 29.2725 15.512 29.2757Z" fill="#3C88F0" fill-opacity="0.5"/>
<g filter="url(#filter1_i_63_273)">
<path d="M15.512 29.2634V2.74487H19.3803C20.3909 2.74487 21.2149 3.48079 21.6246 4.37935C22.3151 5.89362 23.4979 6.81439 24.5486 7.3119C25.3707 7.70116 26.0716 8.44981 26.0716 9.33911V12.5596C26.0716 19.5072 23.8362 23.7011 17.9456 28.515C17.2491 29.0842 16.3696 29.3364 15.512 29.2634Z" fill="url(#paint1_radial_63_273)"/>
<path d="M15.512 29.2634V2.74487H19.3803C20.3909 2.74487 21.2149 3.48079 21.6246 4.37935C22.3151 5.89362 23.4979 6.81439 24.5486 7.3119C25.3707 7.70116 26.0716 8.44981 26.0716 9.33911V12.5596C26.0716 19.5072 23.8362 23.7011 17.9456 28.515C17.2491 29.0842 16.3696 29.3364 15.512 29.2634Z" fill="url(#paint2_radial_63_273)"/>
</g>
<g filter="url(#filter2_iii_63_273)">
<path fill-rule="evenodd" clip-rule="evenodd" d="M11.1745 2.04492H19.8495C21.1779 2.04492 22.1809 3.00427 22.615 4.07876C23.2191 5.57452 24.1741 6.26623 25.0258 6.60501C26.0143 6.99815 27.0124 7.91317 27.0124 9.21059V12.5596C27.0124 20.2405 23.254 25.1322 17.8834 29.1863C17.1793 29.7178 16.3446 29.9788 15.512 29.9758C14.6795 29.9788 13.8448 29.7178 13.1407 29.1863C7.77 25.1322 4.01166 20.2405 4.01166 12.5596V9.21059C4.01166 7.91317 5.00972 6.99815 5.9982 6.60501C6.84999 6.26623 7.8049 5.57452 8.4091 4.07876C8.84312 3.00427 9.84617 2.04492 11.1745 2.04492ZM15.512 28.5757C16.0493 28.5786 16.5874 28.4105 17.0399 28.0689C22.1987 24.1748 25.6124 19.6528 25.6124 12.5596V9.21059C25.6124 8.70239 25.1978 8.18005 24.5084 7.9059C23.3399 7.44112 22.0791 6.49022 21.3169 4.60311C21.0295 3.89184 20.4471 3.44492 19.8495 3.44492H11.1745C10.577 3.44492 9.9945 3.89184 9.70719 4.60311C8.94492 6.49022 7.68419 7.44112 6.5156 7.9059C5.82628 8.18005 5.41166 8.70239 5.41166 9.21059V12.5596C5.41166 19.6528 8.8254 24.1748 13.9841 28.0689C14.4367 28.4105 14.9747 28.5786 15.512 28.5757Z" fill="url(#paint3_linear_63_273)"/>
</g>
<path fill-rule="evenodd" clip-rule="evenodd" d="M11.1745 2.04492H19.8495C21.1779 2.04492 22.1809 3.00427 22.615 4.07876C23.2191 5.57452 24.1741 6.26623 25.0258 6.60501C26.0143 6.99815 27.0124 7.91317 27.0124 9.21059V12.5596C27.0124 20.2405 23.254 25.1322 17.8834 29.1863C17.1793 29.7178 16.3446 29.9788 15.512 29.9758C14.6795 29.9788 13.8448 29.7178 13.1407 29.1863C7.77 25.1322 4.01166 20.2405 4.01166 12.5596V9.21059C4.01166 7.91317 5.00972 6.99815 5.9982 6.60501C6.84999 6.26623 7.8049 5.57452 8.4091 4.07876C8.84312 3.00427 9.84617 2.04492 11.1745 2.04492ZM15.512 28.5757C16.0493 28.5786 16.5874 28.4105 17.0399 28.0689C22.1987 24.1748 25.6124 19.6528 25.6124 12.5596V9.21059C25.6124 8.70239 25.1978 8.18005 24.5084 7.9059C23.3399 7.44112 22.0791 6.49022 21.3169 4.60311C21.0295 3.89184 20.4471 3.44492 19.8495 3.44492H11.1745C10.577 3.44492 9.9945 3.89184 9.70719 4.60311C8.94492 6.49022 7.68419 7.44112 6.5156 7.9059C5.82628 8.18005 5.41166 8.70239 5.41166 9.21059V12.5596C5.41166 19.6528 8.8254 24.1748 13.9841 28.0689C14.4367 28.4105 14.9747 28.5786 15.512 28.5757Z" fill="url(#paint4_radial_63_273)"/>
<path fill-rule="evenodd" clip-rule="evenodd" d="M11.1745 2.04492H19.8495C21.1779 2.04492 22.1809 3.00427 22.615 4.07876C23.2191 5.57452 24.1741 6.26623 25.0258 6.60501C26.0143 6.99815 27.0124 7.91317 27.0124 9.21059V12.5596C27.0124 20.2405 23.254 25.1322 17.8834 29.1863C17.1793 29.7178 16.3446 29.9788 15.512 29.9758C14.6795 29.9788 13.8448 29.7178 13.1407 29.1863C7.77 25.1322 4.01166 20.2405 4.01166 12.5596V9.21059C4.01166 7.91317 5.00972 6.99815 5.9982 6.60501C6.84999 6.26623 7.8049 5.57452 8.4091 4.07876C8.84312 3.00427 9.84617 2.04492 11.1745 2.04492ZM15.512 28.5757C16.0493 28.5786 16.5874 28.4105 17.0399 28.0689C22.1987 24.1748 25.6124 19.6528 25.6124 12.5596V9.21059C25.6124 8.70239 25.1978 8.18005 24.5084 7.9059C23.3399 7.44112 22.0791 6.49022 21.3169 4.60311C21.0295 3.89184 20.4471 3.44492 19.8495 3.44492H11.1745C10.577 3.44492 9.9945 3.89184 9.70719 4.60311C8.94492 6.49022 7.68419 7.44112 6.5156 7.9059C5.82628 8.18005 5.41166 8.70239 5.41166 9.21059V12.5596C5.41166 19.6528 8.8254 24.1748 13.9841 28.0689C14.4367 28.4105 14.9747 28.5786 15.512 28.5757Z" fill="url(#paint5_radial_63_273)"/>
<defs>
<filter id="filter0_i_63_273" x="4.71167" y="2.74487" width="21.5251" height="27.2708" filterUnits="userSpaceOnUse" color-interpolation-filters="sRGB">
<feFlood flood-opacity="0" result="BackgroundImageFix"/>
<feBlend mode="normal" in="SourceGraphic" in2="BackgroundImageFix" result="shape"/>
<feColorMatrix in="SourceAlpha" type="matrix" values="0 0 0 0 0 0 0 0 0 0 0 0 0 0 0 0 0 0 127 0" result="hardAlpha"/>
<feOffset dx="0.75" dy="0.74"/>
<feGaussianBlur stdDeviation="0.5"/>
<feComposite in2="hardAlpha" operator="arithmetic" k2="-1" k3="1"/>
<feColorMatrix type="matrix" values="0 0 0 0 0.0627451 0 0 0 0 0.337255 0 0 0 0 0.713726 0 0 0 1 0"/>
<feBlend mode="normal" in2="shape" result="effect1_innerShadow_63_273"/>
</filter>
<filter id="filter1_i_63_273" x="15.112" y="2.74487" width="10.9596" height="27.2808" filterUnits="userSpaceOnUse" color-interpolation-filters="sRGB">
<feFlood flood-opacity="0" result="BackgroundImageFix"/>
<feBlend mode="normal" in="SourceGraphic" in2="BackgroundImageFix" result="shape"/>
<feColorMatrix in="SourceAlpha" type="matrix" values="0 0 0 0 0 0 0 0 0 0 0 0 0 0 0 0 0 0 127 0" result="hardAlpha"/>
<feOffset dx="-0.4" dy="0.8"/>
<feGaussianBlur stdDeviation="0.375"/>
<feComposite in2="hardAlpha" operator="arithmetic" k2="-1" k3="1"/>
<feColorMatrix type="matrix" values="0 0 0 0 0.121569 0 0 0 0 0.478431 0 0 0 0 0.843137 0 0 0 1 0"/>
<feBlend mode="normal" in2="shape" result="effect1_innerShadow_63_273"/>
</filter>
<filter id="filter2_iii_63_273" x="3.76166" y="1.79492" width="23.5007" height="28.3309" filterUnits="userSpaceOnUse" color-interpolation-filters="sRGB">
<feFlood flood-opacity="0" result="BackgroundImageFix"/>
<feBlend mode="normal" in="SourceGraphic" in2="BackgroundImageFix" result="shape"/>
<feColorMatrix in="SourceAlpha" type="matrix" values="0 0 0 0 0 0 0 0 0 0 0 0 0 0 0 0 0 0 127 0" result="hardAlpha"/>
<feOffset dx="0.25"/>
<feGaussianBlur stdDeviation="0.25"/>
<feComposite in2="hardAlpha" operator="arithmetic" k2="-1" k3="1"/>
<feColorMatrix type="matrix" values="0 0 0 0 0.635294 0 0 0 0 0.588235 0 0 0 0 0.596078 0 0 0 1 0"/>
<feBlend mode="normal" in2="shape" result="effect1_innerShadow_63_273"/>
<feColorMatrix in="SourceAlpha" type="matrix" values="0 0 0 0 0 0 0 0 0 0 0 0 0 0 0 0 0 0 127 0" result="hardAlpha"/>
<feOffset dy="-0.25"/>
<feGaussianBlur stdDeviation="0.25"/>
<feComposite in2="hardAlpha" operator="arithmetic" k2="-1" k3="1"/>
<feColorMatrix type="matrix" values="0 0 0 0 0.647059 0 0 0 0 0.501961 0 0 0 0 0.745098 0 0 0 1 0"/>
<feBlend mode="normal" in2="effect1_innerShadow_63_273" result="effect2_innerShadow_63_273"/>
<feColorMatrix in="SourceAlpha" type="matrix" values="0 0 0 0 0 0 0 0 0 0 0 0 0 0 0 0 0 0 127 0" result="hardAlpha"/>
<feOffset dx="-0.25" dy="0.15"/>
<feGaussianBlur stdDeviation="0.15"/>
<feComposite in2="hardAlpha" operator="arithmetic" k2="-1" k3="1"/>
<feColorMatrix type="matrix" values="0 0 0 0 0.854902 0 0 0 0 0.85098 0 0 0 0 0.862745 0 0 0 1 0"/>
<feBlend mode="normal" in2="effect2_innerShadow_63_273" result="effect3_innerShadow_63_273"/>
</filter>
<radialGradient id="paint0_radial_63_273" cx="0" cy="0" r="1" gradientUnits="userSpaceOnUse" gradientTransform="translate(19.0138 16.7835) rotate(139.976) scale(13.0893 18.3325)">
<stop offset="0.792317" stop-color="#3782E8" stop-opacity="0"/>
<stop offset="0.943177" stop-color="#286ACA"/>
</radialGradient>
<radialGradient id="paint1_radial_63_273" cx="0" cy="0" r="1" gradientUnits="userSpaceOnUse" gradientTransform="translate(15.512 16.0103) scale(10.1192 22.4259)">
<stop stop-color="#52C9FF"/>
<stop offset="1" stop-color="#59CBFF"/>
</radialGradient>
<radialGradient id="paint2_radial_63_273" cx="0" cy="0" r="1" gradientUnits="userSpaceOnUse" gradientTransform="translate(16.5874 14.3643) rotate(12.0483) scale(9.20844 15.8393)">
<stop offset="0.796802" stop-color="#44AAFF" stop-opacity="0"/>
<stop offset="0.96638" stop-color="#1B7CE2"/>
</radialGradient>
<linearGradient id="paint3_linear_63_273" x1="4.83722" y1="17.8792" x2="22.0128" y2="17.8792" gradientUnits="userSpaceOnUse">
<stop stop-color="#B8B3BE"/>
<stop offset="1" stop-color="#BBB3C4"/>
</linearGradient>
<radialGradient id="paint4_radial_63_273" cx="0" cy="0" r="1" gradientUnits="userSpaceOnUse" gradientTransform="translate(8.42957 6.41602) rotate(-126.254) scale(0.841858 5.23728)">
<stop offset="0.278875" stop-color="#B8B1C0"/>
<stop offset="1" stop-color="#B8B1C0" stop-opacity="0"/>
</radialGradient>
<radialGradient id="paint5_radial_63_273" cx="0" cy="0" r="1" gradientUnits="userSpaceOnUse" gradientTransform="translate(10.4219 4.93745) rotate(-126.69) scale(1.98751 2.44938)">
<stop offset="0.359827" stop-color="#B8B1C0"/>
<stop offset="1" stop-color="#B8B1C0" stop-opacity="0"/>
</radialGradient>
</defs>
</svg>
