<svg width="26" height="26" viewBox="0 0 26 26" fill="none" xmlns="http://www.w3.org/2000/svg">
<g clip-path="url(#clip0_1005_8073)">
<path d="M12.9991 24.3732C20.5833 24.3732 24.3732 19.2808 24.3732 12.9991C24.3732 6.71736 20.5833 1.625 12.9991 1.625C5.41485 1.625 1.625 6.71736 1.625 12.9991C1.625 19.2808 5.41485 24.3732 12.9991 24.3732Z" fill="url(#paint0_radial_1005_8073)"/>
<path d="M12.9991 24.3732C20.5833 24.3732 24.3732 19.2808 24.3732 12.9991C24.3732 6.71736 20.5833 1.625 12.9991 1.625C5.41485 1.625 1.625 6.71736 1.625 12.9991C1.625 19.2808 5.41485 24.3732 12.9991 24.3732Z" fill="url(#paint1_radial_1005_8073)"/>
<path d="M12.9991 24.3732C20.5833 24.3732 24.3732 19.2808 24.3732 12.9991C24.3732 6.71736 20.5833 1.625 12.9991 1.625C5.41485 1.625 1.625 6.71736 1.625 12.9991C1.625 19.2808 5.41485 24.3732 12.9991 24.3732Z" fill="url(#paint2_radial_1005_8073)"/>
<path d="M12.9991 24.3732C20.5833 24.3732 24.3732 19.2808 24.3732 12.9991C24.3732 6.71736 20.5833 1.625 12.9991 1.625C5.41485 1.625 1.625 6.71736 1.625 12.9991C1.625 19.2808 5.41485 24.3732 12.9991 24.3732Z" fill="url(#paint3_radial_1005_8073)" fill-opacity="0.6"/>
<path d="M12.9991 24.3732C20.5833 24.3732 24.3732 19.2808 24.3732 12.9991C24.3732 6.71736 20.5833 1.625 12.9991 1.625C5.41485 1.625 1.625 6.71736 1.625 12.9991C1.625 19.2808 5.41485 24.3732 12.9991 24.3732Z" fill="url(#paint4_radial_1005_8073)"/>
<path d="M12.9991 24.3732C20.5833 24.3732 24.3732 19.2808 24.3732 12.9991C24.3732 6.71736 20.5833 1.625 12.9991 1.625C5.41485 1.625 1.625 6.71736 1.625 12.9991C1.625 19.2808 5.41485 24.3732 12.9991 24.3732Z" fill="url(#paint5_radial_1005_8073)"/>
<path d="M12.9991 24.3732C20.5833 24.3732 24.3732 19.2808 24.3732 12.9991C24.3732 6.71736 20.5833 1.625 12.9991 1.625C5.41485 1.625 1.625 6.71736 1.625 12.9991C1.625 19.2808 5.41485 24.3732 12.9991 24.3732Z" fill="url(#paint6_radial_1005_8073)"/>
<path d="M12.9991 24.3732C20.5833 24.3732 24.3732 19.2808 24.3732 12.9991C24.3732 6.71736 20.5833 1.625 12.9991 1.625C5.41485 1.625 1.625 6.71736 1.625 12.9991C1.625 19.2808 5.41485 24.3732 12.9991 24.3732Z" fill="url(#paint7_radial_1005_8073)"/>
<path opacity="0.5" d="M6.09375 18.6875C9.0105 18.6875 11.375 16.323 11.375 13.4062C11.375 10.4895 9.0105 8.125 6.09375 8.125C3.177 8.125 0.8125 10.4895 0.8125 13.4062C0.8125 16.323 3.177 18.6875 6.09375 18.6875Z" fill="url(#paint8_radial_1005_8073)"/>
<path opacity="0.5" d="M19.9062 18.6875C22.823 18.6875 25.1875 16.323 25.1875 13.4062C25.1875 10.4895 22.823 8.125 19.9062 8.125C16.9895 8.125 14.625 10.4895 14.625 13.4062C14.625 16.323 16.9895 18.6875 19.9062 18.6875Z" fill="url(#paint9_radial_1005_8073)"/>
<g opacity="0.5" filter="url(#filter0_f_1005_8073)">
<path d="M6.09375 10.9688C6.09375 10.9688 6.29688 9.34375 8.125 9.34375C9.95312 9.34375 10.1562 10.9688 10.1562 10.9688" stroke="#9A4609" stroke-width="2" stroke-linecap="round"/>
</g>
<g opacity="0.5" filter="url(#filter1_f_1005_8073)">
<path d="M15.0312 10.9688C15.0312 10.9688 15.4375 9.34375 17.0625 9.34375C18.6875 9.34375 19.0938 10.9688 19.0938 10.9688" stroke="#9A4609" stroke-width="2" stroke-linecap="round"/>
</g>
<path d="M6.5 10.5625C6.5 10.5625 6.70312 8.9375 8.53125 8.9375C10.3594 8.9375 10.5625 10.5625 10.5625 10.5625" stroke="#43273B" stroke-width="2" stroke-linecap="round" stroke-linejoin="round"/>
<g opacity="0.26" filter="url(#filter2_f_1005_8073)">
<path d="M6.70312 10.3594C6.70312 10.3594 6.90625 8.73438 8.73438 8.73438C10.5625 8.73438 10.7656 10.3594 10.7656 10.3594" stroke="white" stroke-width="0.75" stroke-linecap="round" stroke-linejoin="round"/>
</g>
<path d="M15.4375 10.5625C15.4375 10.5625 15.8438 8.9375 17.4688 8.9375C19.0938 8.9375 19.5 10.5625 19.5 10.5625" stroke="#43273B" stroke-width="2" stroke-linecap="round" stroke-linejoin="round"/>
<g opacity="0.26" filter="url(#filter3_f_1005_8073)">
<path d="M15.6406 10.3594C15.6406 10.3594 15.8438 8.73438 17.6719 8.73438C19.5 8.73438 19.7031 10.3594 19.7031 10.3594" stroke="white" stroke-width="0.75" stroke-linecap="round" stroke-linejoin="round"/>
</g>
<path d="M5.28125 7.71875C5.55208 6.90625 6.58125 5.28125 8.53125 5.28125" stroke="url(#paint10_linear_1005_8073)" stroke-linecap="round" stroke-linejoin="round"/>
<path d="M20.7188 7.71875C20.4479 6.90625 19.4188 5.28125 17.4688 5.28125" stroke="url(#paint11_linear_1005_8073)" stroke-linecap="round" stroke-linejoin="round"/>
<path d="M8.125 15.4375C8.53125 15.9792 10.1562 17.4688 13 17.4688C15.8438 17.4688 17.4688 15.9792 17.875 15.4375" stroke="url(#paint12_radial_1005_8073)" stroke-width="2" stroke-linecap="round"/>
</g>
<defs>
<filter id="filter0_f_1005_8073" x="3.59375" y="6.84375" width="9.0625" height="6.625" filterUnits="userSpaceOnUse" color-interpolation-filters="sRGB">
<feFlood flood-opacity="0" result="BackgroundImageFix"/>
<feBlend mode="normal" in="SourceGraphic" in2="BackgroundImageFix" result="shape"/>
<feGaussianBlur stdDeviation="0.75" result="effect1_foregroundBlur_1005_8073"/>
</filter>
<filter id="filter1_f_1005_8073" x="12.5312" y="6.84375" width="9.0625" height="6.62524" filterUnits="userSpaceOnUse" color-interpolation-filters="sRGB">
<feFlood flood-opacity="0" result="BackgroundImageFix"/>
<feBlend mode="normal" in="SourceGraphic" in2="BackgroundImageFix" result="shape"/>
<feGaussianBlur stdDeviation="0.75" result="effect1_foregroundBlur_1005_8073"/>
</filter>
<filter id="filter2_f_1005_8073" x="4.82812" y="6.85938" width="7.8125" height="5.375" filterUnits="userSpaceOnUse" color-interpolation-filters="sRGB">
<feFlood flood-opacity="0" result="BackgroundImageFix"/>
<feBlend mode="normal" in="SourceGraphic" in2="BackgroundImageFix" result="shape"/>
<feGaussianBlur stdDeviation="0.75" result="effect1_foregroundBlur_1005_8073"/>
</filter>
<filter id="filter3_f_1005_8073" x="13.7656" y="6.85938" width="7.8125" height="5.375" filterUnits="userSpaceOnUse" color-interpolation-filters="sRGB">
<feFlood flood-opacity="0" result="BackgroundImageFix"/>
<feBlend mode="normal" in="SourceGraphic" in2="BackgroundImageFix" result="shape"/>
<feGaussianBlur stdDeviation="0.75" result="effect1_foregroundBlur_1005_8073"/>
</filter>
<radialGradient id="paint0_radial_1005_8073" cx="0" cy="0" r="1" gradientUnits="userSpaceOnUse" gradientTransform="translate(20.7188 7.3125) rotate(132.839) scale(30.4715)">
<stop stop-color="#FFF478"/>
<stop offset="0.474827" stop-color="#FFB02E"/>
<stop offset="1" stop-color="#F70A8D"/>
</radialGradient>
<radialGradient id="paint1_radial_1005_8073" cx="0" cy="0" r="1" gradientUnits="userSpaceOnUse" gradientTransform="translate(20.7188 7.3125) rotate(131.878) scale(31.6458)">
<stop stop-color="#FFF478"/>
<stop offset="0.474827" stop-color="#FFB02E"/>
<stop offset="1" stop-color="#F70A8D"/>
</radialGradient>
<radialGradient id="paint2_radial_1005_8073" cx="0" cy="0" r="1" gradientUnits="userSpaceOnUse" gradientTransform="translate(13 10.1563) rotate(101.31) scale(14.5003 18.5722)">
<stop offset="0.787821" stop-color="#F59639" stop-opacity="0"/>
<stop offset="0.972509" stop-color="#FF7DCE"/>
</radialGradient>
<radialGradient id="paint3_radial_1005_8073" cx="0" cy="0" r="1" gradientUnits="userSpaceOnUse" gradientTransform="translate(14.625 11.375) rotate(135) scale(33.3224)">
<stop offset="0.314853" stop-opacity="0"/>
<stop offset="1"/>
</radialGradient>
<radialGradient id="paint4_radial_1005_8073" cx="0" cy="0" r="1" gradientUnits="userSpaceOnUse" gradientTransform="translate(13 13.8125) rotate(77.692) scale(22.8694)">
<stop offset="0.507903" stop-color="#7D6133" stop-opacity="0"/>
<stop offset="1" stop-color="#715B32"/>
</radialGradient>
<radialGradient id="paint5_radial_1005_8073" cx="0" cy="0" r="1" gradientUnits="userSpaceOnUse" gradientTransform="translate(13.4063 13.4063) rotate(55.7131) scale(10.8172 7.84088)">
<stop stop-color="#FFB849"/>
<stop offset="1" stop-color="#FFB847" stop-opacity="0"/>
</radialGradient>
<radialGradient id="paint6_radial_1005_8073" cx="0" cy="0" r="1" gradientUnits="userSpaceOnUse" gradientTransform="translate(16.6563 14.625) rotate(9.86581) scale(9.484)">
<stop stop-color="#FFA64B"/>
<stop offset="0.900412" stop-color="#FFAE46" stop-opacity="0"/>
</radialGradient>
<radialGradient id="paint7_radial_1005_8073" cx="0" cy="0" r="1" gradientUnits="userSpaceOnUse" gradientTransform="translate(14.2187 12.1875) rotate(43.9708) scale(47.9805)">
<stop offset="0.185425" stop-opacity="0"/>
<stop offset="1" stop-opacity="0.4"/>
</radialGradient>
<radialGradient id="paint8_radial_1005_8073" cx="0" cy="0" r="1" gradientUnits="userSpaceOnUse" gradientTransform="translate(6.09792 13.4072) scale(5.27708)">
<stop stop-color="#F70A8D" stop-opacity="0.59"/>
<stop offset="1" stop-color="#FF6DC6" stop-opacity="0"/>
</radialGradient>
<radialGradient id="paint9_radial_1005_8073" cx="0" cy="0" r="1" gradientUnits="userSpaceOnUse" gradientTransform="translate(19.9104 13.4072) scale(5.27708)">
<stop stop-color="#F70A8D" stop-opacity="0.59"/>
<stop offset="1" stop-color="#FF6DC6" stop-opacity="0"/>
</radialGradient>
<linearGradient id="paint10_linear_1005_8073" x1="5.55208" y1="8.45" x2="5.55208" y2="6.9875" gradientUnits="userSpaceOnUse">
<stop offset="0.0299084" stop-color="#524049"/>
<stop offset="1" stop-color="#4A2C42"/>
</linearGradient>
<linearGradient id="paint11_linear_1005_8073" x1="20.4479" y1="8.45" x2="20.4479" y2="6.9875" gradientUnits="userSpaceOnUse">
<stop offset="0.0299084" stop-color="#524049"/>
<stop offset="1" stop-color="#4A2C42"/>
</linearGradient>
<radialGradient id="paint12_radial_1005_8073" cx="0" cy="0" r="1" gradientUnits="userSpaceOnUse" gradientTransform="translate(14.5224 13.747) rotate(90) scale(9.33525)">
<stop offset="0.10265" stop-color="#482641"/>
<stop offset="0.298574" stop-color="#503A4A"/>
<stop offset="0.555606" stop-color="#483637"/>
</radialGradient>
<clipPath id="clip0_1005_8073">
<rect width="26" height="26" fill="white"/>
</clipPath>
</defs>
</svg>
