<svg width="32" height="32" viewBox="0 0 32 32" fill="none" xmlns="http://www.w3.org/2000/svg">
<path d="M16.0067 32.0133C24.8469 32.0133 32.0133 24.8469 32.0133 16.0067C32.0133 7.16643 24.8469 0 16.0067 0C7.16643 0 0 7.16643 0 16.0067C0 24.8469 7.16643 32.0133 16.0067 32.0133Z" fill="url(#paint0_linear_51_208)"/>
<path fill-rule="evenodd" clip-rule="evenodd" d="M7.23699 15.8333C11.9017 13.8075 15.0071 12.4614 16.5664 11.8083C21.0046 9.95575 21.9375 9.63589 22.5373 9.62256C22.6706 9.62256 22.9638 9.64921 23.1637 9.80915C23.3236 9.94243 23.3636 10.1157 23.3903 10.249C23.4169 10.3822 23.4436 10.6621 23.4169 10.8754C23.177 13.4076 22.1375 19.5518 21.6043 22.3772C21.3778 23.5767 20.938 23.9766 20.5115 24.0166C19.5785 24.0965 18.8721 23.4035 17.9792 22.8171C16.5664 21.8974 15.7801 21.3243 14.4073 20.4181C12.8213 19.3785 13.8476 18.8054 14.7539 17.8725C14.9938 17.6326 19.0854 13.9008 19.1654 13.5676C19.1787 13.5276 19.1787 13.3677 19.0854 13.2877C18.9921 13.2077 18.8588 13.2344 18.7522 13.261C18.6056 13.2877 16.3665 14.7804 12.0083 17.7258C11.3686 18.1657 10.7955 18.3789 10.2757 18.3656C9.70263 18.3523 8.60975 18.0457 7.78343 17.7792C6.78385 17.4593 5.98418 17.286 6.05082 16.7263C6.0908 16.4331 6.49064 16.1398 7.23699 15.8333Z" fill="white"/>
<defs>
<linearGradient id="paint0_linear_51_208" x1="15.9933" y1="0" x2="15.9933" y2="31.7601" gradientUnits="userSpaceOnUse">
<stop stop-color="#2AABEE"/>
<stop offset="1" stop-color="#229ED9"/>
</linearGradient>
</defs>
</svg>
