<svg width="42" height="42" viewBox="0 0 42 42" fill="none" xmlns="http://www.w3.org/2000/svg">
<g filter="url(#filter0_i_168_901)">
<path d="M16.1014 6.77019C16.1014 4.38642 18.0339 2.45398 20.4176 2.45398C22.8014 2.45398 24.7338 4.38642 24.7338 6.77019V11.7373C24.7338 12.1609 24.7045 12.5832 24.639 13.0055C24.6151 13.1597 24.5912 13.3137 24.5763 13.4675C24.5292 13.9537 24.5868 14.5888 24.9173 15.0153L24.128 15.7766C28.0854 17.7985 30.7972 21.933 30.7972 26.7049C30.7972 27.9978 30.5982 29.2438 30.2292 30.4137L28.9214 38.9534H18.2881V38.9498C11.7215 38.8084 6.45312 34.5263 6.45312 26.7049C6.45312 22.1073 8.65459 18.406 11.9851 16.319L11.9769 16.3124C12.2037 16.1548 12.4713 15.9944 12.7581 15.8224L12.7602 15.8211C13.7048 15.2549 14.8592 14.5628 15.4683 13.431C15.9964 12.4498 16.0989 10.8573 16.0989 10.119L16.1014 10.1202V6.77019Z" fill="url(#paint0_linear_168_901)"/>
</g>
<path d="M16.1014 6.77019C16.1014 4.38642 18.0339 2.45398 20.4176 2.45398C22.8014 2.45398 24.7338 4.38642 24.7338 6.77019V11.7373C24.7338 12.1609 24.7045 12.5832 24.639 13.0055C24.6151 13.1597 24.5912 13.3137 24.5763 13.4675C24.5292 13.9537 24.5868 14.5888 24.9173 15.0153L24.128 15.7766C28.0854 17.7985 30.7972 21.933 30.7972 26.7049C30.7972 27.9978 30.5982 29.2438 30.2292 30.4137L28.9214 38.9534H18.2881V38.9498C11.7215 38.8084 6.45312 34.5263 6.45312 26.7049C6.45312 22.1073 8.65459 18.406 11.9851 16.319L11.9769 16.3124C12.2037 16.1548 12.4713 15.9944 12.7581 15.8224L12.7602 15.8211C13.7048 15.2549 14.8592 14.5628 15.4683 13.431C15.9964 12.4498 16.0989 10.8573 16.0989 10.119L16.1014 10.1202V6.77019Z" fill="url(#paint1_radial_168_901)"/>
<path d="M16.1014 6.77019C16.1014 4.38642 18.0339 2.45398 20.4176 2.45398C22.8014 2.45398 24.7338 4.38642 24.7338 6.77019V11.7373C24.7338 12.1609 24.7045 12.5832 24.639 13.0055C24.6151 13.1597 24.5912 13.3137 24.5763 13.4675C24.5292 13.9537 24.5868 14.5888 24.9173 15.0153L24.128 15.7766C28.0854 17.7985 30.7972 21.933 30.7972 26.7049C30.7972 27.9978 30.5982 29.2438 30.2292 30.4137L28.9214 38.9534H18.2881V38.9498C11.7215 38.8084 6.45312 34.5263 6.45312 26.7049C6.45312 22.1073 8.65459 18.406 11.9851 16.319L11.9769 16.3124C12.2037 16.1548 12.4713 15.9944 12.7581 15.8224L12.7602 15.8211C13.7048 15.2549 14.8592 14.5628 15.4683 13.431C15.9964 12.4498 16.0989 10.8573 16.0989 10.119L16.1014 10.1202V6.77019Z" fill="url(#paint2_radial_168_901)"/>
<path d="M16.1014 6.77019C16.1014 4.38642 18.0339 2.45398 20.4176 2.45398C22.8014 2.45398 24.7338 4.38642 24.7338 6.77019V11.7373C24.7338 12.1609 24.7045 12.5832 24.639 13.0055C24.6151 13.1597 24.5912 13.3137 24.5763 13.4675C24.5292 13.9537 24.5868 14.5888 24.9173 15.0153L24.128 15.7766C28.0854 17.7985 30.7972 21.933 30.7972 26.7049C30.7972 27.9978 30.5982 29.2438 30.2292 30.4137L28.9214 38.9534H18.2881V38.9498C11.7215 38.8084 6.45312 34.5263 6.45312 26.7049C6.45312 22.1073 8.65459 18.406 11.9851 16.319L11.9769 16.3124C12.2037 16.1548 12.4713 15.9944 12.7581 15.8224L12.7602 15.8211C13.7048 15.2549 14.8592 14.5628 15.4683 13.431C15.9964 12.4498 16.0989 10.8573 16.0989 10.119L16.1014 10.1202V6.77019Z" fill="url(#paint3_radial_168_901)"/>
<path d="M16.1014 6.77019C16.1014 4.38642 18.0339 2.45398 20.4176 2.45398C22.8014 2.45398 24.7338 4.38642 24.7338 6.77019V11.7373C24.7338 12.1609 24.7045 12.5832 24.639 13.0055C24.6151 13.1597 24.5912 13.3137 24.5763 13.4675C24.5292 13.9537 24.5868 14.5888 24.9173 15.0153L24.128 15.7766C28.0854 17.7985 30.7972 21.933 30.7972 26.7049C30.7972 27.9978 30.5982 29.2438 30.2292 30.4137L28.9214 38.9534H18.2881V38.9498C11.7215 38.8084 6.45312 34.5263 6.45312 26.7049C6.45312 22.1073 8.65459 18.406 11.9851 16.319L11.9769 16.3124C12.2037 16.1548 12.4713 15.9944 12.7581 15.8224L12.7602 15.8211C13.7048 15.2549 14.8592 14.5628 15.4683 13.431C15.9964 12.4498 16.0989 10.8573 16.0989 10.119L16.1014 10.1202V6.77019Z" fill="url(#paint4_linear_168_901)"/>
<g filter="url(#filter1_f_168_901)">
<path d="M31.0786 19.3053C31.0786 17.4555 29.5791 15.956 27.7294 15.956H24.0196C22.1699 15.956 20.6704 17.4555 20.6704 19.3053C20.6704 20.3367 21.1367 21.2593 21.87 21.8737C21.0593 22.4871 20.5352 23.4609 20.5352 24.5544C20.5352 25.5783 20.9946 26.4972 21.7186 27.1136C20.9946 27.7279 20.5352 28.6445 20.5352 29.6684V29.8336C20.5352 30.7513 20.9042 31.5828 21.502 32.1877C20.905 32.7785 20.5352 33.5983 20.5352 34.5045C20.5352 36.3045 21.9943 37.7637 23.7943 37.7637H27.474C29.274 37.7637 30.7331 36.3045 30.7331 34.5045C30.7331 33.9088 30.5733 33.3503 30.2941 32.8698C31.4362 32.3363 32.2275 31.1774 32.2275 29.8336V29.6684C32.2275 28.632 31.7568 27.7056 31.0176 27.0912C31.7266 26.4751 32.175 25.566 32.175 24.5544C32.175 23.2126 31.386 22.0512 30.2467 21.5145C30.7646 20.9249 31.0786 20.1517 31.0786 19.3053Z" fill="url(#paint5_linear_168_901)"/>
</g>
<g filter="url(#filter2_i_168_901)">
<rect x="34.0684" y="14.0838" width="7.63902" height="11.8696" rx="2.9101" transform="rotate(90 34.0684 14.0838)" fill="url(#paint6_linear_168_901)"/>
<rect x="34.0684" y="14.0838" width="7.63902" height="11.8696" rx="2.9101" transform="rotate(90 34.0684 14.0838)" fill="url(#paint7_radial_168_901)"/>
</g>
<g filter="url(#filter3_i_168_901)">
<rect x="33.6743" y="31.52" width="7.43348" height="11.6299" rx="2.9101" transform="rotate(90 33.6743 31.52)" fill="url(#paint8_linear_168_901)"/>
<rect x="33.6743" y="31.52" width="7.43348" height="11.6299" rx="2.9101" transform="rotate(90 33.6743 31.52)" fill="url(#paint9_radial_168_901)"/>
<rect x="33.6743" y="31.52" width="7.43348" height="11.6299" rx="2.9101" transform="rotate(90 33.6743 31.52)" fill="url(#paint10_radial_168_901)"/>
</g>
<rect x="33.6743" y="31.52" width="7.43348" height="11.6299" rx="2.9101" transform="rotate(90 33.6743 31.52)" fill="url(#paint11_linear_168_901)"/>
<rect x="33.6743" y="31.52" width="7.43348" height="11.6299" rx="2.9101" transform="rotate(90 33.6743 31.52)" fill="url(#paint12_radial_168_901)"/>
<g filter="url(#filter4_f_168_901)">
<rect x="25.7534" y="33.7294" width="7.04845" height="1.93751" rx="0.968756" fill="url(#paint13_linear_168_901)"/>
</g>
<rect x="35.3784" y="25.902" width="7.82744" height="13.3341" rx="2.98188" transform="rotate(90 35.3784 25.902)" fill="#C4C4C4" fill-opacity="0.66"/>
<g filter="url(#filter5_i_168_901)">
<rect x="35.3784" y="25.902" width="7.82744" height="13.3341" rx="2.9101" transform="rotate(90 35.3784 25.902)" fill="url(#paint14_linear_168_901)"/>
<rect x="35.3784" y="25.902" width="7.82744" height="13.3341" rx="2.9101" transform="rotate(90 35.3784 25.902)" fill="url(#paint15_radial_168_901)"/>
<rect x="35.3784" y="25.902" width="7.82744" height="13.3341" rx="2.9101" transform="rotate(90 35.3784 25.902)" fill="url(#paint16_radial_168_901)"/>
</g>
<g filter="url(#filter6_f_168_901)">
<rect x="25.2417" y="28.65" width="8.82637" height="1.93751" rx="0.968756" fill="url(#paint17_linear_168_901)"/>
</g>
<g filter="url(#filter7_i_168_901)">
<rect x="35.3188" y="20.0614" width="7.65615" height="13.2741" rx="2.9101" transform="rotate(90 35.3188 20.0614)" fill="url(#paint18_linear_168_901)"/>
<rect x="35.3188" y="20.0614" width="7.65615" height="13.2741" rx="2.9101" transform="rotate(90 35.3188 20.0614)" fill="url(#paint19_radial_168_901)"/>
</g>
<path d="M20.4173 2.45398C18.0336 2.45398 16.1011 4.38642 16.1011 6.77019V10.1202L16.0986 10.119C16.0986 10.8573 15.9961 12.4498 15.468 13.431C14.8589 14.5629 13.7045 15.2549 12.7599 15.8211C12.4723 15.9936 12.204 16.1544 11.9766 16.3124C13.2823 17.3583 15.9561 19.448 16.0217 19.3988C16.0873 19.3496 19.0979 17.7514 20.595 16.9584L20.5313 16.052C22.8624 15.9916 24.7335 14.0829 24.7335 11.7373V6.77019C24.7335 4.38642 22.8011 2.45398 20.4173 2.45398Z" fill="url(#paint20_radial_168_901)"/>
<path d="M20.4173 2.45398C18.0336 2.45398 16.1011 4.38642 16.1011 6.77019V10.1202L16.0986 10.119C16.0986 10.8573 15.9961 12.4498 15.468 13.431C14.8589 14.5629 13.7045 15.2549 12.7599 15.8211C12.4723 15.9936 12.204 16.1544 11.9766 16.3124C13.2823 17.3583 15.9561 19.448 16.0217 19.3988C16.0873 19.3496 19.0979 17.7514 20.595 16.9584L20.5313 16.052C22.8624 15.9916 24.7335 14.0829 24.7335 11.7373V6.77019C24.7335 4.38642 22.8011 2.45398 20.4173 2.45398Z" fill="url(#paint21_radial_168_901)"/>
<path d="M17.6866 3.42743C16.7188 4.21894 16.1011 5.42245 16.1011 6.77022V7.02238H18.052C18.0588 6.76261 18.0458 6.09749 17.9392 5.51506L17.9171 5.39512C17.8091 4.80838 17.6851 4.13567 17.6866 3.42743Z" fill="#FFBF71"/>
<path d="M17.6866 3.42743C16.7188 4.21894 16.1011 5.42245 16.1011 6.77022V7.02238H18.052C18.0588 6.76261 18.0458 6.09749 17.9392 5.51506L17.9171 5.39512C17.8091 4.80838 17.6851 4.13567 17.6866 3.42743Z" fill="url(#paint22_radial_168_901)"/>
<g filter="url(#filter8_f_168_901)">
<rect x="24.7485" y="15.126" width="8.05309" height="3.30166" rx="1.65083" fill="url(#paint23_linear_168_901)"/>
</g>
<g filter="url(#filter9_f_168_901)">
<rect x="24.6548" y="21" width="9.41333" height="3.30166" rx="1.65083" fill="url(#paint24_linear_168_901)"/>
</g>
<g filter="url(#filter10_f_168_901)">
<rect x="19.8848" y="4.08508" width="3.76062" height="10.4966" rx="1.88031" fill="url(#paint25_linear_168_901)"/>
</g>
<defs>
<filter id="filter0_i_168_901" x="6.45312" y="2.45398" width="24.8442" height="36.4995" filterUnits="userSpaceOnUse" color-interpolation-filters="sRGB">
<feFlood flood-opacity="0" result="BackgroundImageFix"/>
<feBlend mode="normal" in="SourceGraphic" in2="BackgroundImageFix" result="shape"/>
<feColorMatrix in="SourceAlpha" type="matrix" values="0 0 0 0 0 0 0 0 0 0 0 0 0 0 0 0 0 0 127 0" result="hardAlpha"/>
<feOffset dx="0.5"/>
<feGaussianBlur stdDeviation="1"/>
<feComposite in2="hardAlpha" operator="arithmetic" k2="-1" k3="1"/>
<feColorMatrix type="matrix" values="0 0 0 0 0.847059 0 0 0 0 0.458824 0 0 0 0 0.360784 0 0 0 1 0"/>
<feBlend mode="normal" in2="shape" result="effect1_innerShadow_168_901"/>
</filter>
<filter id="filter1_f_168_901" x="18.5352" y="13.956" width="15.6924" height="25.8077" filterUnits="userSpaceOnUse" color-interpolation-filters="sRGB">
<feFlood flood-opacity="0" result="BackgroundImageFix"/>
<feBlend mode="normal" in="SourceGraphic" in2="BackgroundImageFix" result="shape"/>
<feGaussianBlur stdDeviation="1" result="effect1_foregroundBlur_168_901"/>
</filter>
<filter id="filter2_i_168_901" x="22.1987" y="14.0838" width="12.3696" height="7.63904" filterUnits="userSpaceOnUse" color-interpolation-filters="sRGB">
<feFlood flood-opacity="0" result="BackgroundImageFix"/>
<feBlend mode="normal" in="SourceGraphic" in2="BackgroundImageFix" result="shape"/>
<feColorMatrix in="SourceAlpha" type="matrix" values="0 0 0 0 0 0 0 0 0 0 0 0 0 0 0 0 0 0 127 0" result="hardAlpha"/>
<feOffset dx="0.5"/>
<feGaussianBlur stdDeviation="0.75"/>
<feComposite in2="hardAlpha" operator="arithmetic" k2="-1" k3="1"/>
<feColorMatrix type="matrix" values="0 0 0 0 0.878431 0 0 0 0 0.541176 0 0 0 0 0.0627451 0 0 0 1 0"/>
<feBlend mode="normal" in2="shape" result="effect1_innerShadow_168_901"/>
</filter>
<filter id="filter3_i_168_901" x="22.0444" y="31.02" width="12.1299" height="7.93347" filterUnits="userSpaceOnUse" color-interpolation-filters="sRGB">
<feFlood flood-opacity="0" result="BackgroundImageFix"/>
<feBlend mode="normal" in="SourceGraphic" in2="BackgroundImageFix" result="shape"/>
<feColorMatrix in="SourceAlpha" type="matrix" values="0 0 0 0 0 0 0 0 0 0 0 0 0 0 0 0 0 0 127 0" result="hardAlpha"/>
<feOffset dx="0.5" dy="-0.5"/>
<feGaussianBlur stdDeviation="0.75"/>
<feComposite in2="hardAlpha" operator="arithmetic" k2="-1" k3="1"/>
<feColorMatrix type="matrix" values="0 0 0 0 0.941176 0 0 0 0 0.643137 0 0 0 0 0.215686 0 0 0 1 0"/>
<feBlend mode="normal" in2="shape" result="effect1_innerShadow_168_901"/>
</filter>
<filter id="filter4_f_168_901" x="24.5034" y="32.4794" width="9.54834" height="4.4375" filterUnits="userSpaceOnUse" color-interpolation-filters="sRGB">
<feFlood flood-opacity="0" result="BackgroundImageFix"/>
<feBlend mode="normal" in="SourceGraphic" in2="BackgroundImageFix" result="shape"/>
<feGaussianBlur stdDeviation="0.625" result="effect1_foregroundBlur_168_901"/>
</filter>
<filter id="filter5_i_168_901" x="22.0444" y="25.402" width="13.834" height="8.32745" filterUnits="userSpaceOnUse" color-interpolation-filters="sRGB">
<feFlood flood-opacity="0" result="BackgroundImageFix"/>
<feBlend mode="normal" in="SourceGraphic" in2="BackgroundImageFix" result="shape"/>
<feColorMatrix in="SourceAlpha" type="matrix" values="0 0 0 0 0 0 0 0 0 0 0 0 0 0 0 0 0 0 127 0" result="hardAlpha"/>
<feOffset dx="0.5" dy="-0.5"/>
<feGaussianBlur stdDeviation="0.75"/>
<feComposite in2="hardAlpha" operator="arithmetic" k2="-1" k3="1"/>
<feColorMatrix type="matrix" values="0 0 0 0 0.941176 0 0 0 0 0.643137 0 0 0 0 0.215686 0 0 0 1 0"/>
<feBlend mode="normal" in2="shape" result="effect1_innerShadow_168_901"/>
</filter>
<filter id="filter6_f_168_901" x="23.9917" y="27.4" width="11.3262" height="4.4375" filterUnits="userSpaceOnUse" color-interpolation-filters="sRGB">
<feFlood flood-opacity="0" result="BackgroundImageFix"/>
<feBlend mode="normal" in="SourceGraphic" in2="BackgroundImageFix" result="shape"/>
<feGaussianBlur stdDeviation="0.625" result="effect1_foregroundBlur_168_901"/>
</filter>
<filter id="filter7_i_168_901" x="22.0449" y="19.5614" width="13.7739" height="8.15613" filterUnits="userSpaceOnUse" color-interpolation-filters="sRGB">
<feFlood flood-opacity="0" result="BackgroundImageFix"/>
<feBlend mode="normal" in="SourceGraphic" in2="BackgroundImageFix" result="shape"/>
<feColorMatrix in="SourceAlpha" type="matrix" values="0 0 0 0 0 0 0 0 0 0 0 0 0 0 0 0 0 0 127 0" result="hardAlpha"/>
<feOffset dx="0.5" dy="-0.5"/>
<feGaussianBlur stdDeviation="0.75"/>
<feComposite in2="hardAlpha" operator="arithmetic" k2="-1" k3="1"/>
<feColorMatrix type="matrix" values="0 0 0 0 0.941176 0 0 0 0 0.643137 0 0 0 0 0.215686 0 0 0 1 0"/>
<feBlend mode="normal" in2="shape" result="effect1_innerShadow_168_901"/>
</filter>
<filter id="filter8_f_168_901" x="23.4985" y="13.876" width="10.5532" height="5.80164" filterUnits="userSpaceOnUse" color-interpolation-filters="sRGB">
<feFlood flood-opacity="0" result="BackgroundImageFix"/>
<feBlend mode="normal" in="SourceGraphic" in2="BackgroundImageFix" result="shape"/>
<feGaussianBlur stdDeviation="0.625" result="effect1_foregroundBlur_168_901"/>
</filter>
<filter id="filter9_f_168_901" x="23.4048" y="19.75" width="11.9131" height="5.80164" filterUnits="userSpaceOnUse" color-interpolation-filters="sRGB">
<feFlood flood-opacity="0" result="BackgroundImageFix"/>
<feBlend mode="normal" in="SourceGraphic" in2="BackgroundImageFix" result="shape"/>
<feGaussianBlur stdDeviation="0.625" result="effect1_foregroundBlur_168_901"/>
</filter>
<filter id="filter10_f_168_901" x="18.6348" y="2.83508" width="6.26074" height="12.9966" filterUnits="userSpaceOnUse" color-interpolation-filters="sRGB">
<feFlood flood-opacity="0" result="BackgroundImageFix"/>
<feBlend mode="normal" in="SourceGraphic" in2="BackgroundImageFix" result="shape"/>
<feGaussianBlur stdDeviation="0.625" result="effect1_foregroundBlur_168_901"/>
</filter>
<linearGradient id="paint0_linear_168_901" x1="25.271" y1="8.71425" x2="12.064" y2="36.5228" gradientUnits="userSpaceOnUse">
<stop stop-color="#FFCA44"/>
<stop offset="1" stop-color="#F8A528"/>
</linearGradient>
<radialGradient id="paint1_radial_168_901" cx="0" cy="0" r="1" gradientUnits="userSpaceOnUse" gradientTransform="translate(26.8276 6.35795) rotate(141.116) scale(6.58303 19.4295)">
<stop stop-color="#FFE34C"/>
<stop offset="1" stop-color="#FFE34C" stop-opacity="0"/>
</radialGradient>
<radialGradient id="paint2_radial_168_901" cx="0" cy="0" r="1" gradientUnits="userSpaceOnUse" gradientTransform="translate(14.8433 20.7037) rotate(125.191) scale(9.75216 7.06461)">
<stop stop-color="#FFCA2E"/>
<stop offset="1" stop-color="#FFCA2E" stop-opacity="0"/>
</radialGradient>
<radialGradient id="paint3_radial_168_901" cx="0" cy="0" r="1" gradientUnits="userSpaceOnUse" gradientTransform="translate(25.4225 23.7971) rotate(146.743) scale(21.2503 37.1888)">
<stop offset="0.681103" stop-color="#E18E3F" stop-opacity="0"/>
<stop offset="1" stop-color="#E18E3F"/>
</radialGradient>
<linearGradient id="paint4_linear_168_901" x1="18.6252" y1="33.5499" x2="18.6252" y2="40.2445" gradientUnits="userSpaceOnUse">
<stop stop-color="#D8796F" stop-opacity="0"/>
<stop offset="1" stop-color="#D8796F"/>
</linearGradient>
<linearGradient id="paint5_linear_168_901" x1="26.3813" y1="15.956" x2="26.3813" y2="33.3965" gradientUnits="userSpaceOnUse">
<stop stop-color="#D1730B"/>
<stop offset="1" stop-color="#E27D47"/>
</linearGradient>
<linearGradient id="paint6_linear_168_901" x1="37.8879" y1="14.0838" x2="37.8879" y2="25.9534" gradientUnits="userSpaceOnUse">
<stop stop-color="#FFDB44"/>
<stop offset="1" stop-color="#F9A928"/>
</linearGradient>
<radialGradient id="paint7_radial_168_901" cx="0" cy="0" r="1" gradientUnits="userSpaceOnUse" gradientTransform="translate(41.2737 24.0228) rotate(127.367) scale(3.04645 2.0392)">
<stop stop-color="#D98320"/>
<stop offset="1" stop-color="#D98320" stop-opacity="0"/>
</radialGradient>
<linearGradient id="paint8_linear_168_901" x1="37.3911" y1="32.5388" x2="37.3911" y2="43.1498" gradientUnits="userSpaceOnUse">
<stop stop-color="#FFDB44"/>
<stop offset="1" stop-color="#F9A928"/>
</linearGradient>
<radialGradient id="paint9_radial_168_901" cx="0" cy="0" r="1" gradientUnits="userSpaceOnUse" gradientTransform="translate(41.1078 40.7939) rotate(-90) scale(9.59893 3.65166)">
<stop stop-color="#F29545"/>
<stop offset="1" stop-color="#F29545" stop-opacity="0"/>
</radialGradient>
<radialGradient id="paint10_radial_168_901" cx="0" cy="0" r="1" gradientUnits="userSpaceOnUse" gradientTransform="translate(34.9793 41.2546) rotate(-90) scale(9.73468 2.61314)">
<stop stop-color="#DA810B"/>
<stop offset="1" stop-color="#FFB610" stop-opacity="0"/>
</radialGradient>
<linearGradient id="paint11_linear_168_901" x1="41.874" y1="37.3349" x2="39.4694" y2="37.3349" gradientUnits="userSpaceOnUse">
<stop stop-color="#DC7C6A"/>
<stop offset="1" stop-color="#DC7C6A" stop-opacity="0"/>
</linearGradient>
<radialGradient id="paint12_radial_168_901" cx="0" cy="0" r="1" gradientUnits="userSpaceOnUse" gradientTransform="translate(37.3911 44.6891) rotate(-90) scale(7.35425 11.0548)">
<stop stop-color="#E38811"/>
<stop offset="1" stop-color="#E38811" stop-opacity="0"/>
</radialGradient>
<linearGradient id="paint13_linear_168_901" x1="32.4357" y1="34.2607" x2="24.838" y2="34.2607" gradientUnits="userSpaceOnUse">
<stop stop-color="#FFF166"/>
<stop offset="1" stop-color="#FFF166" stop-opacity="0"/>
</linearGradient>
<linearGradient id="paint14_linear_168_901" x1="39.2921" y1="27.0701" x2="39.2921" y2="39.2361" gradientUnits="userSpaceOnUse">
<stop stop-color="#FFDB44"/>
<stop offset="1" stop-color="#F9A928"/>
</linearGradient>
<radialGradient id="paint15_radial_168_901" cx="0" cy="0" r="1" gradientUnits="userSpaceOnUse" gradientTransform="translate(43.2059 36.5349) rotate(-90) scale(11.0055 3.84519)">
<stop stop-color="#F29545"/>
<stop offset="1" stop-color="#F29545" stop-opacity="0"/>
</radialGradient>
<radialGradient id="paint16_radial_168_901" cx="0" cy="0" r="1" gradientUnits="userSpaceOnUse" gradientTransform="translate(36.7525 37.0631) rotate(-90) scale(11.1612 2.75163)">
<stop stop-color="#DA810B"/>
<stop offset="1" stop-color="#FFB610" stop-opacity="0"/>
</radialGradient>
<linearGradient id="paint17_linear_168_901" x1="33.6096" y1="29.1813" x2="24.0954" y2="29.1813" gradientUnits="userSpaceOnUse">
<stop stop-color="#FFF166"/>
<stop offset="1" stop-color="#FFF166" stop-opacity="0"/>
</linearGradient>
<linearGradient id="paint18_linear_168_901" x1="39.1469" y1="20.0614" x2="39.1469" y2="33.3355" gradientUnits="userSpaceOnUse">
<stop stop-color="#FFDB44"/>
<stop offset="1" stop-color="#F9A928"/>
</linearGradient>
<radialGradient id="paint19_radial_168_901" cx="0" cy="0" r="1" gradientUnits="userSpaceOnUse" gradientTransform="translate(42.0493 30.5904) rotate(-90) scale(7.21963 3.21362)">
<stop stop-color="#F29545"/>
<stop offset="1" stop-color="#F29545" stop-opacity="0"/>
</radialGradient>
<radialGradient id="paint20_radial_168_901" cx="0" cy="0" r="1" gradientUnits="userSpaceOnUse" gradientTransform="translate(16.4547 6.35795) rotate(90) scale(8.34767 3.09938)">
<stop stop-color="#F3A52A"/>
<stop offset="1" stop-color="#F3A52A" stop-opacity="0"/>
</radialGradient>
<radialGradient id="paint21_radial_168_901" cx="0" cy="0" r="1" gradientUnits="userSpaceOnUse" gradientTransform="translate(14.0165 11.8542) rotate(42.9975) scale(4.18119 6.32684)">
<stop stop-color="#CDA25E"/>
<stop offset="1" stop-color="#CDA25E" stop-opacity="0"/>
</radialGradient>
<radialGradient id="paint22_radial_168_901" cx="0" cy="0" r="1" gradientUnits="userSpaceOnUse" gradientTransform="translate(18.3556 5.84141) rotate(-168.366) scale(2.15179 4.69677)">
<stop offset="0.549892" stop-color="#CCB28B" stop-opacity="0"/>
<stop offset="1" stop-color="#CCB28B"/>
</radialGradient>
<linearGradient id="paint23_linear_168_901" x1="32.3833" y1="16.0313" x2="23.7027" y2="16.0313" gradientUnits="userSpaceOnUse">
<stop stop-color="#FFF166"/>
<stop offset="1" stop-color="#FFF166" stop-opacity="0"/>
</linearGradient>
<linearGradient id="paint24_linear_168_901" x1="33.5791" y1="21.9053" x2="23.4323" y2="21.9053" gradientUnits="userSpaceOnUse">
<stop stop-color="#FFF166"/>
<stop offset="1" stop-color="#FFF166" stop-opacity="0"/>
</linearGradient>
<linearGradient id="paint25_linear_168_901" x1="23.45" y1="6.96315" x2="19.3964" y2="6.96315" gradientUnits="userSpaceOnUse">
<stop stop-color="#FFF166"/>
<stop offset="1" stop-color="#FFF166" stop-opacity="0"/>
</linearGradient>
</defs>
</svg>
