<svg width="32" height="32" viewBox="0 0 32 32" fill="none" xmlns="http://www.w3.org/2000/svg">
<g filter="url(#filter0_i_174_905)">
<path d="M16.0596 8.0417H24.8581C26.0437 8.03169 27.0003 7.07045 27.0003 5.88893C27.0003 2.50458 22.955 0.782364 20.5338 3.12538L16.0596 7.46352V8.0417Z" fill="#DE2236"/>
<path d="M16.0596 8.0417H24.8581C26.0437 8.03169 27.0003 7.07045 27.0003 5.88893C27.0003 2.50458 22.955 0.782364 20.5338 3.12538L16.0596 7.46352V8.0417Z" fill="url(#paint0_linear_174_905)"/>
</g>
<g filter="url(#filter1_i_174_905)">
<path d="M16.0596 8.0417H7.26108C6.07539 8.03169 5.11888 7.07045 5.11888 5.88893C5.11888 2.50458 9.16418 0.782364 11.5854 3.12538L16.0596 7.46352V8.0417Z" fill="url(#paint1_linear_174_905)"/>
<path d="M16.0596 8.0417H7.26108C6.07539 8.03169 5.11888 7.07045 5.11888 5.88893C5.11888 2.50458 9.16418 0.782364 11.5854 3.12538L16.0596 7.46352V8.0417Z" fill="url(#paint2_linear_174_905)"/>
<path d="M16.0596 8.0417H7.26108C6.07539 8.03169 5.11888 7.07045 5.11888 5.88893C5.11888 2.50458 9.16418 0.782364 11.5854 3.12538L16.0596 7.46352V8.0417Z" fill="url(#paint3_radial_174_905)"/>
</g>
<path d="M24.8881 30.0417H7.11191C5.94084 30.0417 5 29.1123 5 27.9554V15.0417H27V27.9554C27 29.1024 26.0592 30.0417 24.8881 30.0417Z" fill="url(#paint4_linear_174_905)"/>
<path d="M24.8881 30.0417H7.11191C5.94084 30.0417 5 29.1123 5 27.9554V15.0417H27V27.9554C27 29.1024 26.0592 30.0417 24.8881 30.0417Z" fill="url(#paint5_linear_174_905)"/>
<path d="M24.8881 30.0417H7.11191C5.94084 30.0417 5 29.1123 5 27.9554V15.0417H27V27.9554C27 29.1024 26.0592 30.0417 24.8881 30.0417Z" fill="url(#paint6_radial_174_905)"/>
<path d="M24.8881 30.0417H7.11191C5.94084 30.0417 5 29.1123 5 27.9554V15.0417H27V27.9554C27 29.1024 26.0592 30.0417 24.8881 30.0417Z" fill="url(#paint7_linear_174_905)"/>
<path d="M24.8881 30.0417H7.11191C5.94084 30.0417 5 29.1123 5 27.9554V15.0417H27V27.9554C27 29.1024 26.0592 30.0417 24.8881 30.0417Z" fill="url(#paint8_linear_174_905)"/>
<path d="M24.8881 30.0417H7.11191C5.94084 30.0417 5 29.1123 5 27.9554V15.0417H27V27.9554C27 29.1024 26.0592 30.0417 24.8881 30.0417Z" fill="url(#paint9_linear_174_905)"/>
<path d="M27.6615 8.04175H4.33845C3.5993 8.04175 3 8.6426 3 9.38366V13.6998C3 14.4409 3.5993 15.0417 4.33845 15.0417H27.6615C28.4007 15.0417 29 14.4409 29 13.6998V9.38366C29 8.6426 28.4007 8.04175 27.6615 8.04175Z" fill="url(#paint10_linear_174_905)"/>
<path d="M27.6615 8.04175H4.33845C3.5993 8.04175 3 8.6426 3 9.38366V13.6998C3 14.4409 3.5993 15.0417 4.33845 15.0417H27.6615C28.4007 15.0417 29 14.4409 29 13.6998V9.38366C29 8.6426 28.4007 8.04175 27.6615 8.04175Z" fill="url(#paint11_linear_174_905)"/>
<path d="M27.6615 8.04175H4.33845C3.5993 8.04175 3 8.6426 3 9.38366V13.6998C3 14.4409 3.5993 15.0417 4.33845 15.0417H27.6615C28.4007 15.0417 29 14.4409 29 13.6998V9.38366C29 8.6426 28.4007 8.04175 27.6615 8.04175Z" fill="url(#paint12_linear_174_905)"/>
<path d="M27.6615 8.04175H4.33845C3.5993 8.04175 3 8.6426 3 9.38366V13.6998C3 14.4409 3.5993 15.0417 4.33845 15.0417H27.6615C28.4007 15.0417 29 14.4409 29 13.6998V9.38366C29 8.6426 28.4007 8.04175 27.6615 8.04175Z" fill="url(#paint13_radial_174_905)"/>
<path d="M27.6615 8.04175H4.33845C3.5993 8.04175 3 8.6426 3 9.38366V13.6998C3 14.4409 3.5993 15.0417 4.33845 15.0417H27.6615C28.4007 15.0417 29 14.4409 29 13.6998V9.38366C29 8.6426 28.4007 8.04175 27.6615 8.04175Z" fill="url(#paint14_linear_174_905)"/>
<path d="M27.6615 8.04175H4.33845C3.5993 8.04175 3 8.6426 3 9.38366V13.6998C3 14.4409 3.5993 15.0417 4.33845 15.0417H27.6615C28.4007 15.0417 29 14.4409 29 13.6998V9.38366C29 8.6426 28.4007 8.04175 27.6615 8.04175Z" fill="url(#paint15_radial_174_905)"/>
<g filter="url(#filter2_ii_174_905)">
<path d="M16.0049 3.04175C14.3443 3.04175 13 4.41087 13 6.10214V30.0417H18.9999V6.10214C19.0098 4.41087 17.6655 3.04175 16.0049 3.04175Z" fill="url(#paint16_linear_174_905)"/>
<path d="M16.0049 3.04175C14.3443 3.04175 13 4.41087 13 6.10214V30.0417H18.9999V6.10214C19.0098 4.41087 17.6655 3.04175 16.0049 3.04175Z" fill="url(#paint17_linear_174_905)"/>
</g>
<g filter="url(#filter3_f_174_905)">
<path d="M24.0117 3.04175C24.793 3.25008 26.3117 4.1605 26.1367 6.1355" stroke="#FB5157" stroke-width="0.5" stroke-linecap="round"/>
</g>
<g filter="url(#filter4_f_174_905)">
<path d="M9.66797 2.87161C9.82277 2.85871 10.2794 2.96448 10.8677 3.4908C11.4559 4.01712 12.2996 4.89689 12.6478 5.27099" stroke="#FB5157" stroke-width="0.5" stroke-linecap="round"/>
</g>
<defs>
<filter id="filter0_i_174_905" x="16.0596" y="2.04614" width="11.2404" height="6.29561" filterUnits="userSpaceOnUse" color-interpolation-filters="sRGB">
<feFlood flood-opacity="0" result="BackgroundImageFix"/>
<feBlend mode="normal" in="SourceGraphic" in2="BackgroundImageFix" result="shape"/>
<feColorMatrix in="SourceAlpha" type="matrix" values="0 0 0 0 0 0 0 0 0 0 0 0 0 0 0 0 0 0 127 0" result="hardAlpha"/>
<feOffset dx="0.3" dy="0.3"/>
<feGaussianBlur stdDeviation="0.375"/>
<feComposite in2="hardAlpha" operator="arithmetic" k2="-1" k3="1"/>
<feColorMatrix type="matrix" values="0 0 0 0 0.698039 0 0 0 0 0.235294 0 0 0 0 0.243137 0 0 0 1 0"/>
<feBlend mode="normal" in2="shape" result="effect1_innerShadow_174_905"/>
</filter>
<filter id="filter1_i_174_905" x="5.11914" y="1.74614" width="11.4404" height="6.29561" filterUnits="userSpaceOnUse" color-interpolation-filters="sRGB">
<feFlood flood-opacity="0" result="BackgroundImageFix"/>
<feBlend mode="normal" in="SourceGraphic" in2="BackgroundImageFix" result="shape"/>
<feColorMatrix in="SourceAlpha" type="matrix" values="0 0 0 0 0 0 0 0 0 0 0 0 0 0 0 0 0 0 127 0" result="hardAlpha"/>
<feOffset dx="0.5" dy="-0.3"/>
<feGaussianBlur stdDeviation="0.375"/>
<feComposite in2="hardAlpha" operator="arithmetic" k2="-1" k3="1"/>
<feColorMatrix type="matrix" values="0 0 0 0 0.698039 0 0 0 0 0.235294 0 0 0 0 0.243137 0 0 0 1 0"/>
<feBlend mode="normal" in2="shape" result="effect1_innerShadow_174_905"/>
</filter>
<filter id="filter2_ii_174_905" x="12.8" y="3.04175" width="6.4" height="27" filterUnits="userSpaceOnUse" color-interpolation-filters="sRGB">
<feFlood flood-opacity="0" result="BackgroundImageFix"/>
<feBlend mode="normal" in="SourceGraphic" in2="BackgroundImageFix" result="shape"/>
<feColorMatrix in="SourceAlpha" type="matrix" values="0 0 0 0 0 0 0 0 0 0 0 0 0 0 0 0 0 0 127 0" result="hardAlpha"/>
<feOffset dx="0.2"/>
<feGaussianBlur stdDeviation="0.1"/>
<feComposite in2="hardAlpha" operator="arithmetic" k2="-1" k3="1"/>
<feColorMatrix type="matrix" values="0 0 0 0 0.729412 0 0 0 0 0.101961 0 0 0 0 0.152941 0 0 0 1 0"/>
<feBlend mode="normal" in2="shape" result="effect1_innerShadow_174_905"/>
<feColorMatrix in="SourceAlpha" type="matrix" values="0 0 0 0 0 0 0 0 0 0 0 0 0 0 0 0 0 0 127 0" result="hardAlpha"/>
<feOffset dx="-0.2"/>
<feGaussianBlur stdDeviation="0.1"/>
<feComposite in2="hardAlpha" operator="arithmetic" k2="-1" k3="1"/>
<feColorMatrix type="matrix" values="0 0 0 0 0.894118 0 0 0 0 0.301961 0 0 0 0 0.341176 0 0 0 1 0"/>
<feBlend mode="normal" in2="effect1_innerShadow_174_905" result="effect2_innerShadow_174_905"/>
</filter>
<filter id="filter3_f_174_905" x="22.7617" y="1.79175" width="4.63867" height="5.59375" filterUnits="userSpaceOnUse" color-interpolation-filters="sRGB">
<feFlood flood-opacity="0" result="BackgroundImageFix"/>
<feBlend mode="normal" in="SourceGraphic" in2="BackgroundImageFix" result="shape"/>
<feGaussianBlur stdDeviation="0.5" result="effect1_foregroundBlur_174_905"/>
</filter>
<filter id="filter4_f_174_905" x="8.41797" y="1.62061" width="5.47949" height="4.90039" filterUnits="userSpaceOnUse" color-interpolation-filters="sRGB">
<feFlood flood-opacity="0" result="BackgroundImageFix"/>
<feBlend mode="normal" in="SourceGraphic" in2="BackgroundImageFix" result="shape"/>
<feGaussianBlur stdDeviation="0.5" result="effect1_foregroundBlur_174_905"/>
</filter>
<linearGradient id="paint0_linear_174_905" x1="22.7102" y1="8.52158" x2="22.7102" y2="6.66399" gradientUnits="userSpaceOnUse">
<stop stop-color="#CE280A"/>
<stop offset="1" stop-color="#CE280A" stop-opacity="0"/>
</linearGradient>
<linearGradient id="paint1_linear_174_905" x1="12.3387" y1="3.33582" x2="10.5892" y2="8.0417" gradientUnits="userSpaceOnUse">
<stop stop-color="#DF2332"/>
<stop offset="1" stop-color="#D9213B"/>
</linearGradient>
<linearGradient id="paint2_linear_174_905" x1="9.40891" y1="8.52158" x2="9.40891" y2="6.66399" gradientUnits="userSpaceOnUse">
<stop stop-color="#CE280A"/>
<stop offset="1" stop-color="#CE280A" stop-opacity="0"/>
</linearGradient>
<radialGradient id="paint3_radial_174_905" cx="0" cy="0" r="1" gradientUnits="userSpaceOnUse" gradientTransform="translate(13.5384 8.32808) rotate(-173.603) scale(2.57018 6.76007)">
<stop offset="0.150943" stop-color="#BD1123"/>
<stop offset="1" stop-color="#BD1123" stop-opacity="0"/>
</radialGradient>
<linearGradient id="paint4_linear_174_905" x1="5" y1="24.6042" x2="27" y2="24.6042" gradientUnits="userSpaceOnUse">
<stop stop-color="#F1A738"/>
<stop offset="1" stop-color="#FAD42C"/>
</linearGradient>
<linearGradient id="paint5_linear_174_905" x1="16" y1="13.0417" x2="16" y2="16.2917" gradientUnits="userSpaceOnUse">
<stop stop-color="#C97525"/>
<stop offset="1" stop-color="#C97525" stop-opacity="0"/>
</linearGradient>
<radialGradient id="paint6_radial_174_905" cx="0" cy="0" r="1" gradientUnits="userSpaceOnUse" gradientTransform="translate(13.6368 21.3542) rotate(-180) scale(2.375 18.6875)">
<stop stop-color="#C87C28"/>
<stop offset="1" stop-color="#C87C28" stop-opacity="0"/>
</radialGradient>
<linearGradient id="paint7_linear_174_905" x1="4.44933" y1="22.5417" x2="7.69933" y2="22.5417" gradientUnits="userSpaceOnUse">
<stop stop-color="#C2773F"/>
<stop offset="1" stop-color="#C2773F" stop-opacity="0"/>
</linearGradient>
<linearGradient id="paint8_linear_174_905" x1="16.513" y1="30.6604" x2="16.513" y2="28.9593" gradientUnits="userSpaceOnUse">
<stop stop-color="#E68370"/>
<stop offset="1" stop-color="#E68370" stop-opacity="0"/>
</linearGradient>
<linearGradient id="paint9_linear_174_905" x1="27.6993" y1="23.8542" x2="25.0118" y2="23.8542" gradientUnits="userSpaceOnUse">
<stop stop-color="#FFF733"/>
<stop offset="1" stop-color="#FFF733" stop-opacity="0"/>
</linearGradient>
<linearGradient id="paint10_linear_174_905" x1="29" y1="12.0288" x2="3.00017" y2="11.9616" gradientUnits="userSpaceOnUse">
<stop stop-color="#F6D729"/>
<stop offset="1" stop-color="#F39B3A"/>
</linearGradient>
<linearGradient id="paint11_linear_174_905" x1="29" y1="11.5417" x2="27.2726" y2="11.5417" gradientUnits="userSpaceOnUse">
<stop stop-color="#FFF850"/>
<stop offset="1" stop-color="#FFF850" stop-opacity="0"/>
</linearGradient>
<linearGradient id="paint12_linear_174_905" x1="16" y1="15.3605" x2="16" y2="14.1849" gradientUnits="userSpaceOnUse">
<stop stop-color="#E8AF21"/>
<stop offset="1" stop-color="#E8AF21" stop-opacity="0"/>
</linearGradient>
<radialGradient id="paint13_radial_174_905" cx="0" cy="0" r="1" gradientUnits="userSpaceOnUse" gradientTransform="translate(6.15282 15.7658) rotate(-90) scale(1.82412 13.1049)">
<stop stop-color="#DE7550"/>
<stop offset="1" stop-color="#DE7550" stop-opacity="0"/>
</radialGradient>
<linearGradient id="paint14_linear_174_905" x1="2.71922" y1="11.9645" x2="5.03107" y2="11.9645" gradientUnits="userSpaceOnUse">
<stop stop-color="#BE7841"/>
<stop offset="1" stop-color="#BE7841" stop-opacity="0"/>
</linearGradient>
<radialGradient id="paint15_radial_174_905" cx="0" cy="0" r="1" gradientUnits="userSpaceOnUse" gradientTransform="translate(13.9493 12.573) rotate(180) scale(2.53125 17.5312)">
<stop offset="0.188888" stop-color="#C57E10"/>
<stop offset="1" stop-color="#C57E10" stop-opacity="0"/>
</radialGradient>
<linearGradient id="paint16_linear_174_905" x1="16.0078" y1="3.04356" x2="16.0078" y2="30.0405" gradientUnits="userSpaceOnUse">
<stop stop-color="#D12136"/>
<stop offset="1" stop-color="#B6246E"/>
</linearGradient>
<linearGradient id="paint17_linear_174_905" x1="16" y1="30.297" x2="16" y2="28.8526" gradientUnits="userSpaceOnUse">
<stop stop-color="#B3368C"/>
<stop offset="1" stop-color="#B3368C" stop-opacity="0"/>
</linearGradient>
</defs>
</svg>
